<svg width="1249" height="118" viewBox="0 0 1249 118" fill="none" xmlns="http://www.w3.org/2000/svg">
<path d="M13.3189 72.9734L11.7514 73.231C10.1975 73.7483 9.01553 74.9856 8.57672 76.4637C8.51135 76.684 8.46235 76.9099 8.43115 77.1393C8.43091 77.1413 8.43047 77.1432 8.43023 77.1452C8.42047 77.2171 8.41299 77.2895 8.40673 77.3619C8.4063 77.3676 8.40551 77.3731 8.40508 77.3788C8.39957 77.4467 8.39616 77.5149 8.39378 77.5831C8.39348 77.5935 8.39249 77.6039 8.39219 77.6143C8.39043 77.6783 8.39096 77.7427 8.392 77.8071C8.39227 77.8217 8.39182 77.836 8.39209 77.8506C8.39379 77.9123 8.39758 77.9742 8.4019 78.0362C8.40302 78.0533 8.40331 78.0705 8.40476 78.0875C8.40772 78.1231 8.4126 78.159 8.41642 78.1946L17.8287 76.6473C17.4689 74.4841 15.5486 72.9665 13.3189 72.9734Z" fill="#231F20"/>
<path d="M51.7254 71.4939C51.7221 71.4756 51.7184 71.4574 51.7149 71.4393C51.7034 71.3816 51.691 71.3243 51.6773 71.2676C51.6748 71.2568 51.6725 71.2461 51.6699 71.2355C51.6536 71.1702 51.6358 71.1058 51.6166 71.0419C51.6116 71.0248 51.606 71.0079 51.6008 70.9908C51.5849 70.9399 51.5679 70.8893 51.5503 70.8393C51.5448 70.8238 51.5396 70.8082 51.5339 70.7929C51.5116 70.7319 51.4877 70.6714 51.4628 70.6118C51.4563 70.5963 51.4494 70.581 51.4427 70.5657C51.4224 70.5191 51.4014 70.4731 51.3796 70.4274C51.371 70.4093 51.3625 70.3911 51.3536 70.3732C51.3257 70.3167 51.2968 70.2609 51.2665 70.2059C51.2592 70.1925 51.2513 70.1795 51.2438 70.1663C51.2192 70.1229 51.194 70.0797 51.168 70.0373C51.1559 70.0176 51.1438 69.9981 51.1315 69.9786C51.1045 69.9359 51.0766 69.8939 51.0482 69.8522C51.0356 69.8339 51.023 69.8156 51.0102 69.7975C50.9803 69.7552 50.9496 69.7136 50.9181 69.6723C50.9023 69.6516 50.8863 69.6312 50.87 69.6107C50.8447 69.5787 50.8188 69.5474 50.7926 69.5162C50.7771 69.4977 50.7619 69.479 50.7462 69.4608C50.709 69.4179 50.6709 69.3761 50.632 69.3347C50.612 69.3133 50.5916 69.2925 50.5712 69.2718C50.5471 69.2471 50.5227 69.2228 50.498 69.1987C50.4764 69.1776 50.455 69.1565 50.433 69.136C50.3935 69.099 50.3533 69.0626 50.3124 69.0269C50.2879 69.0056 50.2628 68.985 50.2379 68.9641C50.2149 68.9451 50.1919 68.9262 50.1686 68.9075C50.1419 68.8861 50.115 68.8647 50.0876 68.8439C50.0643 68.8261 50.0403 68.8089 50.0165 68.7914C49.9689 68.7565 49.9206 68.7226 49.8717 68.6896C49.8506 68.6753 49.8296 68.6612 49.8082 68.6473C49.7766 68.6269 49.7449 68.6068 49.7129 68.5871C49.6931 68.5749 49.673 68.5631 49.653 68.5513C49.5935 68.5161 49.5333 68.482 49.4721 68.4493C49.4546 68.4399 49.4372 68.4304 49.4196 68.4212C49.384 68.4029 49.3482 68.385 49.312 68.3676C49.2933 68.3583 49.2743 68.3495 49.2552 68.3406C49.1743 68.3028 49.0924 68.2669 49.009 68.2335C49.0079 68.233 49.0069 68.2325 49.0058 68.2322C48.967 68.2167 48.9278 68.2021 48.8886 68.1877C48.8695 68.1807 48.8502 68.1737 48.831 68.167C48.7915 68.1531 48.7519 68.1392 48.7121 68.1264C48.2445 67.9755 47.745 67.8957 47.2287 67.8973L45.6612 68.155C43.5272 68.8655 42.0947 70.9344 42.3263 73.1189L51.7385 71.5715C51.7336 71.5456 51.7301 71.5194 51.7254 71.4939Z" fill="#231F20"/>
<path d="M50.3348 62.2099L45.7097 61.8125L37.0764 57.8781C36.1218 57.443 35.0346 57.3052 33.9634 57.4831L5.82735 62.1556C4.20479 62.4251 2.9919 63.7948 3.00313 65.3451L3.06755 74.2353L3.45927 77.2941C3.19158 77.3386 3.002 77.5792 3.03593 77.8315L3.22819 79.2609C3.26212 79.5132 3.50674 79.6817 3.77443 79.6373L8.26253 78.8919L8.25613 78.8444L8.29584 78.8378C8.24509 78.6553 8.20497 78.4678 8.17896 78.2745C7.85015 75.8298 9.69317 73.4904 12.2873 73.0596C14.8815 72.6288 17.2595 74.2672 17.5883 76.7118C17.5886 76.7137 17.5889 76.7158 17.5891 76.7177C17.6303 77.0278 17.9242 77.2388 18.2532 77.1842L41.846 73.2662C42.1705 73.2123 42.3932 72.9192 42.3511 72.6135C42.3505 72.609 42.3499 72.6044 42.3493 72.5998C42.0204 70.1552 43.8633 67.8158 46.4575 67.385C49.0516 66.9542 51.4295 68.5926 51.7583 71.0373C51.7589 71.0418 51.7595 71.0464 51.7602 71.051C51.8001 71.357 52.0904 71.5649 52.4149 71.511L54.0874 71.2332L53.2295 64.855C53.0371 63.4243 51.8507 62.34 50.3348 62.2099Z" fill="#F1F2F2"/>
<path d="M29.0886 60.482L30.0226 64.8976C30.1082 65.3022 30.5098 65.5596 30.9426 65.4872L42.702 63.5193C43.3087 63.4177 43.4692 62.6421 42.9384 62.3765L36.2098 59.0097C35.7077 58.7385 35.1158 58.6425 34.5309 58.7378L29.8038 59.5049C29.323 59.5828 28.9936 60.0329 29.0886 60.482Z" fill="#010101"/>
<path d="M4.0998 79.6359L8.60517 78.8797L8.59875 78.8315L8.6386 78.8248C8.58764 78.6398 8.54736 78.4497 8.52123 78.2536C8.41039 77.4218 8.54603 76.6024 8.87241 75.8636L3.71591 76.7292L3.78321 77.26C3.51449 77.3051 3.32419 77.5491 3.35827 77.8049L3.55139 79.2543C3.58549 79.5102 3.83107 79.6811 4.0998 79.6359Z" fill="#D1D3D4"/>
<path d="M13.4542 79.6823C12.2961 79.8794 11.2392 79.1421 11.0937 78.0355C10.9481 76.929 11.7691 75.8721 12.9272 75.675C14.0853 75.4779 15.1422 76.2152 15.2877 77.3218C15.4333 78.4283 14.6123 79.4852 13.4542 79.6823Z" fill="#231F20"/>
<path d="M13.937 77.5796C13.9363 77.5636 13.9357 77.5475 13.9337 77.5315C13.915 77.3801 13.8416 77.2515 13.7348 77.1583L14.5046 75.8798C14.2968 75.7531 14.063 75.6617 13.8128 75.6118L13.3469 77.0012C13.2868 76.9969 13.2248 76.9995 13.1616 77.011C13.0792 77.026 13.0024 77.0543 12.9321 77.0923L12.0447 75.9579C11.8184 76.1022 11.6194 76.2804 11.4555 76.483L12.6225 77.4011C12.5609 77.5176 12.5327 77.6495 12.5493 77.7831C12.5511 77.7978 12.5542 77.8119 12.5571 77.8263L11.0676 78.4928C11.1506 78.7261 11.2772 78.9356 11.4375 79.115L12.7588 78.166C12.8517 78.2432 12.9689 78.2937 13.0977 78.3099L13.0706 79.7946C13.1953 79.7919 13.322 79.7799 13.4502 79.7566C13.584 79.7323 13.7133 79.6968 13.8381 79.6526L13.521 78.2387C13.645 78.1785 13.7486 78.0875 13.8218 77.9785L15.2355 78.3931C15.3388 78.1683 15.4038 77.928 15.4235 77.681L13.937 77.5796Z" fill="#E6E7E8"/>
<path d="M13.3017 77.3039C13.3102 77.3733 13.2566 77.4408 13.1821 77.4545C13.1077 77.4682 13.0403 77.4229 13.0318 77.3535C13.0233 77.284 13.0769 77.2167 13.1514 77.203C13.2258 77.1893 13.2932 77.2344 13.3017 77.3039Z" fill="#D1D3D4"/>
<path d="M13.4012 77.9683C13.4097 78.0377 13.3561 78.1052 13.2817 78.1189C13.2072 78.1326 13.1398 78.0874 13.1314 78.018C13.1229 77.9486 13.1765 77.8811 13.2509 77.8674C13.3254 77.8537 13.3928 77.8989 13.4012 77.9683Z" fill="#D1D3D4"/>
<path d="M13.5647 77.7362C13.6393 77.7227 13.6928 77.6554 13.6842 77.586C13.6756 77.5166 13.6081 77.4713 13.5335 77.4848C13.4589 77.4983 13.4054 77.5655 13.414 77.6349C13.4226 77.7044 13.4901 77.7497 13.5647 77.7362Z" fill="#D1D3D4"/>
<path d="M12.9003 77.8361C12.8257 77.8496 12.7582 77.8043 12.7496 77.7349C12.741 77.6656 12.7946 77.5983 12.8691 77.5848C12.9436 77.5713 13.0112 77.6167 13.0198 77.686C13.0284 77.7553 12.9748 77.8226 12.9003 77.8361Z" fill="#D1D3D4"/>
<path d="M12.7545 74.0925C10.6193 74.488 9.08369 76.4141 9.32456 78.3947C9.56543 80.3752 11.4916 81.6602 13.6267 81.2647C15.7619 80.8692 17.2975 78.943 17.0567 76.9625C16.816 74.982 14.8898 73.697 12.7545 74.0925ZM13.4483 79.7974C12.1868 80.0311 11.0489 79.2719 10.9066 78.1018C10.7642 76.9317 11.6715 75.7937 12.933 75.5601C14.1945 75.3264 15.3324 76.0855 15.4747 77.2557C15.617 78.4258 14.7098 79.5637 13.4483 79.7974Z" fill="#75787A"/>
<path d="M12.8805 75.3202C11.5172 75.5522 10.551 76.7962 10.7223 78.0987C10.8936 79.4012 12.1377 80.2691 13.5009 80.0371C14.8641 79.8051 15.8303 78.5611 15.659 77.2586C15.4879 75.956 14.2438 75.0881 12.8805 75.3202ZM13.4542 79.6825C12.2961 79.8796 11.2392 79.1422 11.0937 78.0357C10.9481 76.9291 11.769 75.8722 12.9271 75.6751C14.0853 75.478 15.1422 76.2153 15.2877 77.3219C15.4333 78.4285 14.6123 79.4854 13.4542 79.6825Z" fill="#D1D3D4"/>
<path d="M47.2057 74.6297C46.0476 74.8268 44.9907 74.0895 44.8452 72.9829C44.6996 71.8764 45.5206 70.8195 46.6787 70.6224C47.8368 70.4253 48.8937 71.1626 49.0392 72.2692C49.1848 73.3757 48.3639 74.4326 47.2057 74.6297Z" fill="#231F20"/>
<path d="M47.6886 72.5269C47.6878 72.5108 47.6872 72.4948 47.6853 72.4788C47.6665 72.3274 47.5932 72.1988 47.4864 72.1056L48.2562 70.8271C48.0484 70.7003 47.8147 70.6089 47.5643 70.5591L47.0984 71.9485C47.0384 71.9442 46.9763 71.9468 46.9132 71.9583C46.8308 71.9732 46.7539 72.0016 46.6837 72.0395L45.796 70.9052C45.5698 71.0495 45.3707 71.2277 45.2071 71.4302L46.374 72.3484C46.3124 72.4648 46.2843 72.5968 46.3008 72.7303C46.3026 72.745 46.3058 72.7592 46.3086 72.7735L44.8192 73.4401C44.9021 73.6734 45.0287 73.8828 45.1891 74.0623L46.5103 73.1132C46.6032 73.1905 46.7205 73.241 46.8493 73.2571L46.8222 74.7419C46.9469 74.7392 47.0735 74.7271 47.2018 74.7038C47.3355 74.6795 47.4651 74.644 47.5897 74.5998L47.2726 73.1859C47.3966 73.1258 47.5002 73.0347 47.5734 72.9258L48.987 73.3404C49.0904 73.1156 49.1553 72.8753 49.175 72.6283L47.6886 72.5269Z" fill="#E6E7E8"/>
<path d="M46.9336 72.4019C47.0081 72.3882 47.0617 72.3208 47.0532 72.2513C47.0447 72.1818 46.9774 72.1366 46.9028 72.1503C46.8283 72.1641 46.7748 72.2315 46.7833 72.3009C46.7918 72.3704 46.8591 72.4156 46.9336 72.4019Z" fill="#D1D3D4"/>
<path d="M47.1526 72.9157C47.1611 72.9851 47.1075 73.0526 47.0331 73.0663C46.9586 73.08 46.8912 73.0348 46.8827 72.9654C46.8742 72.896 46.9278 72.8285 47.0023 72.8148C47.0767 72.8011 47.1441 72.8463 47.1526 72.9157Z" fill="#D1D3D4"/>
<path d="M47.316 72.6837C47.2415 72.6972 47.174 72.6518 47.1654 72.5825C47.1568 72.5131 47.2103 72.4458 47.2849 72.4323C47.3594 72.4188 47.4269 72.4642 47.4355 72.5335C47.4441 72.6029 47.3907 72.6702 47.316 72.6837Z" fill="#D1D3D4"/>
<path d="M46.6515 72.7832C46.7262 72.7697 46.7797 72.7024 46.771 72.633C46.7624 72.5636 46.695 72.5183 46.6204 72.5318C46.5458 72.5453 46.4923 72.6125 46.5009 72.6819C46.5095 72.7514 46.5769 72.7967 46.6515 72.7832Z" fill="#D1D3D4"/>
<path d="M46.506 69.0398C44.3709 69.4353 42.8352 71.3614 43.0761 73.3419C43.317 75.3225 45.2431 76.6074 47.3783 76.2119C49.5135 75.8164 51.0491 73.8903 50.8082 71.9097C50.5676 69.9293 48.6412 68.6443 46.506 69.0398ZM47.1999 74.7447C45.9384 74.9783 44.8004 74.2192 44.6581 73.0491C44.5158 71.8789 45.423 70.741 46.6845 70.5073C47.946 70.2737 49.084 71.0328 49.2263 72.2029C49.3686 73.3731 48.4613 74.511 47.1999 74.7447Z" fill="#75787A"/>
<path d="M46.632 70.2674C45.2687 70.4994 44.3025 71.7434 44.4738 73.046C44.6451 74.3485 45.8892 75.2164 47.2524 74.9844C48.6156 74.7524 49.582 73.5083 49.4107 72.2058C49.2394 70.9033 47.9953 70.0354 46.632 70.2674ZM47.2057 74.6297C46.0476 74.8268 44.9907 74.0895 44.8452 72.9829C44.6996 71.8764 45.5205 70.8195 46.6786 70.6224C47.8367 70.4253 48.8937 71.1626 49.0392 72.2692C49.1847 73.3757 48.3638 74.4326 47.2057 74.6297Z" fill="#D1D3D4"/>
<path d="M16.7824 74.865C17.2842 75.4456 17.6261 76.1606 17.7375 76.9648C17.7378 76.9667 17.738 76.9687 17.7383 76.9705C17.7799 77.2745 18.073 77.4821 18.4006 77.4293L41.8955 73.65C42.2186 73.5981 42.44 73.3114 42.3975 73.0118C42.3969 73.0074 42.3963 73.0029 42.3956 72.9984C42.0637 70.6021 43.8952 68.3144 46.4786 67.8989C49.062 67.4833 51.4337 69.0948 51.7656 71.4912C51.7663 71.4956 51.7669 71.5001 51.7675 71.5046C51.8079 71.8045 52.0974 72.009 52.4206 71.957L54.0861 71.6891L53.3184 66.1476C51.5904 66.3134 48.7065 66.6235 45.8899 67.0766C41.4586 67.7894 41.122 70.9499 41.122 70.9499L23.4547 73.7918L16.7824 74.865Z" fill="#545353"/>
<path d="M52.3931 72.3204L54.9233 71.9128C55.3334 71.8467 55.6208 71.4699 55.5654 71.071L55.1228 67.8814C55.0675 67.4825 54.6904 67.2128 54.2804 67.2788L48.6602 68.1843C50.2581 68.7156 51.4876 70.0784 51.731 71.8326C51.7312 71.8346 51.7315 71.8365 51.7318 71.8385C51.7752 72.1548 52.0679 72.3728 52.3931 72.3204Z" fill="#363434"/>
<path d="M3.78664 77.1933L3.79214 77.234C3.52476 77.2769 3.33718 77.5218 3.37327 77.7808L3.57777 79.2486C3.61386 79.5076 3.85998 79.6829 4.12736 79.64L8.61026 78.9209L8.60346 78.8721L8.64312 78.8658C8.5908 78.6781 8.54907 78.4854 8.52141 78.2869C8.43168 77.6429 8.48586 77.0078 8.65857 76.4118L3.78664 77.1933Z" fill="#545353"/>
<path d="M43.6253 64.3351L42.4256 64.5386C42.2736 64.5644 42.1419 64.4521 42.1515 64.3048L42.2519 62.7622C42.2593 62.6494 42.3487 62.5536 42.4651 62.5338L43.3675 62.3807C44.1199 62.2531 44.7877 62.587 44.8589 63.1267C44.9301 63.6664 44.3777 64.2074 43.6253 64.3351Z" fill="white"/>
<path d="M43.5555 63.7599L42.3621 63.9608C42.2986 63.9715 42.2387 63.9578 42.1911 63.9278L42.1662 64.3081C42.1566 64.4535 42.2878 64.5645 42.4389 64.539L43.6323 64.3381C44.3809 64.2121 44.9304 63.6779 44.8596 63.145C44.8462 63.0443 44.8117 62.9507 44.7592 62.8662C44.6387 63.2871 44.1626 63.6577 43.5555 63.7599Z" fill="#D1D3D4"/>
<path d="M53.0842 65.375C52.9791 64.6171 52.614 63.9504 52.0794 63.4587L50.4214 63.7261C50.4214 63.7261 51.1418 65.7474 52.8122 65.6545C52.919 65.6485 53.0212 65.6409 53.1198 65.6318L53.0842 65.375Z" fill="#D1D3D4"/>
<path d="M52.7908 65.371C51.7361 65.4209 51.1018 64.4619 50.8376 63.9449L51.9749 63.7615C52.409 64.1982 52.6959 64.7634 52.7908 65.371Z" fill="white"/>
<path d="M35.819 59.1279C35.4337 58.9786 35.0066 58.9333 34.5827 59.0036L33.7328 59.1439L31.7186 65.0013L33.9289 64.6252L35.819 59.1279Z" fill="#28211F"/>
<path d="M37.7876 60.1914L36.4822 59.5357L34.7569 64.5494L36.383 64.2729L37.7876 60.1914Z" fill="#28211F"/>
<path d="M198.914 60.6526L197.34 60.606C195.739 60.8238 194.391 61.8406 193.733 63.2456C193.635 63.455 193.552 63.6732 193.486 63.8985C193.486 63.9005 193.485 63.9023 193.484 63.9043C193.464 63.9749 193.445 64.0464 193.428 64.1183C193.427 64.1239 193.425 64.1293 193.424 64.135C193.408 64.2024 193.394 64.2705 193.381 64.3389C193.379 64.3493 193.377 64.3595 193.375 64.37C193.363 64.4342 193.354 64.4993 193.345 64.5644C193.343 64.5792 193.34 64.5936 193.338 64.6083C193.33 64.6708 193.324 64.734 193.319 64.7974C193.318 64.8149 193.315 64.8323 193.314 64.8497C193.311 64.8862 193.311 64.9233 193.309 64.96L202.759 65.2401C202.742 62.9879 201.097 61.0817 198.914 60.6526Z" fill="#231F20"/>
<path d="M237.036 66.0072C237.035 65.988 237.034 65.969 237.034 65.9501C237.031 65.8896 237.028 65.8294 237.024 65.7696C237.023 65.7582 237.022 65.7469 237.021 65.7357C237.015 65.6666 237.008 65.5982 236.999 65.53C236.997 65.5118 236.994 65.4936 236.991 65.4754C236.984 65.4209 236.975 65.3666 236.965 65.3127C236.962 65.296 236.96 65.2793 236.957 65.2627C236.944 65.1968 236.93 65.1312 236.915 65.0661C236.911 65.0492 236.907 65.0324 236.902 65.0157C236.89 64.9647 236.876 64.9142 236.862 64.8639C236.856 64.8439 236.851 64.824 236.845 64.8042C236.826 64.7417 236.807 64.6797 236.786 64.6184C236.78 64.6034 236.775 64.5888 236.769 64.574C236.752 64.5254 236.734 64.4769 236.715 64.4291C236.706 64.4069 236.698 64.3848 236.689 64.3627C236.669 64.3144 236.648 64.2665 236.627 64.219C236.617 64.1981 236.608 64.1771 236.598 64.1564C236.575 64.1078 236.552 64.0598 236.527 64.012C236.515 63.988 236.502 63.9644 236.489 63.9405C236.47 63.9033 236.449 63.8666 236.428 63.8301C236.416 63.8084 236.404 63.7866 236.391 63.7651C236.362 63.7146 236.331 63.6649 236.299 63.6156C236.283 63.5901 236.266 63.5652 236.249 63.5402C236.23 63.5107 236.21 63.4813 236.189 63.4522C236.171 63.4267 236.154 63.4013 236.135 63.3763C236.102 63.3312 236.068 63.2866 236.034 63.2426C236.013 63.2164 235.992 63.1906 235.971 63.1647C235.951 63.141 235.932 63.1175 235.912 63.0941C235.889 63.0673 235.866 63.0405 235.842 63.0142C235.822 62.9916 235.801 62.9695 235.781 62.9473C235.74 62.9028 235.698 62.8591 235.655 62.8162C235.636 62.7977 235.618 62.7794 235.599 62.7612C235.571 62.7344 235.544 62.708 235.515 62.6818C235.498 62.6657 235.48 62.6498 235.462 62.634C235.409 62.5868 235.356 62.5407 235.301 62.4958C235.285 62.4828 235.27 62.4699 235.254 62.4571C235.222 62.4317 235.19 62.4066 235.157 62.382C235.14 62.369 235.123 62.3564 235.105 62.3437C235.032 62.2898 234.958 62.2375 234.881 62.1875C234.88 62.1868 234.879 62.1861 234.878 62.1856C234.842 62.1624 234.806 62.14 234.77 62.1178C234.753 62.107 234.735 62.0961 234.717 62.0856C234.681 62.0639 234.644 62.0422 234.607 62.0214C234.173 61.7778 233.696 61.5996 233.191 61.5003L231.617 61.4536C229.418 61.7529 227.697 63.5595 227.586 65.808L237.036 66.0881C237.036 66.0609 237.036 66.0338 237.036 66.0072Z" fill="#231F20"/>
<path d="M237.049 56.9178L232.581 55.588L224.73 49.8442C223.862 49.2091 222.818 48.8511 221.742 48.8189L193.474 47.9731C191.844 47.9243 190.446 49.0814 190.22 50.6675L188.92 59.7629L188.835 62.9661C188.566 62.9581 188.344 63.1661 188.338 63.4306L188.308 64.9293C188.302 65.1938 188.516 65.4149 188.785 65.4229L193.294 65.5579L193.295 65.508L193.335 65.5092C193.313 65.3126 193.303 65.1131 193.307 64.9103C193.359 62.3471 195.523 60.3252 198.129 60.4032C200.735 60.4812 202.813 62.63 202.76 65.1932C202.76 65.1952 202.76 65.1973 202.76 65.1993C202.753 65.5244 203.008 65.7987 203.339 65.8086L227.043 66.5178C227.369 66.5276 227.632 66.2726 227.637 65.952C227.637 65.9472 227.637 65.9424 227.637 65.9376C227.69 63.3743 229.853 61.3524 232.459 61.4304C235.066 61.5084 237.143 63.6572 237.091 66.2204C237.091 66.2252 237.09 66.23 237.09 66.2348C237.083 66.5554 237.335 66.8258 237.661 66.8355L239.341 66.8858L239.479 60.1982C239.509 58.6981 238.514 57.3535 237.049 56.9178Z" fill="#F1F2F2"/>
<path d="M216.678 50.8836L216.92 55.5544C216.942 55.9825 217.295 56.3242 217.729 56.3372L229.522 56.6912C230.13 56.7095 230.405 55.954 229.926 55.5781L223.861 50.813C223.412 50.4372 222.848 50.2213 222.262 50.201L217.525 50.0344C217.043 50.0173 216.653 50.4085 216.678 50.8836Z" fill="#010101"/>
<path d="M188.785 65.6601L193.298 65.7957L193.299 65.7456L193.339 65.7468C193.317 65.5493 193.307 65.3487 193.311 65.1449C193.329 64.2804 193.585 63.4777 194.016 62.7949L188.85 62.6396L188.836 63.1907C188.567 63.1826 188.344 63.3916 188.338 63.6574L188.308 65.1638C188.302 65.4298 188.516 65.652 188.785 65.6601Z" fill="#D1D3D4"/>
<path d="M197.979 67.3703C196.827 67.3355 195.912 66.3836 195.935 65.2444C195.958 64.1051 196.911 63.2097 198.062 63.2446C199.214 63.2794 200.129 64.2312 200.106 65.3705C200.083 66.5097 199.13 67.4051 197.979 67.3703Z" fill="#231F20"/>
<path d="M198.75 65.3695C198.752 65.3531 198.753 65.3367 198.754 65.3201C198.756 65.163 198.703 65.0169 198.613 64.8992L199.53 63.7762C199.348 63.6024 199.135 63.4587 198.9 63.3533L198.261 64.6551C198.203 64.6376 198.143 64.6266 198.081 64.6243C197.999 64.6213 197.922 64.6331 197.849 64.656L197.149 63.3143C196.911 63.4104 196.695 63.5468 196.509 63.7155L197.508 64.9C197.432 65.0042 197.387 65.1314 197.385 65.27C197.385 65.2852 197.386 65.3002 197.386 65.3154L195.86 65.6616C195.908 65.9156 196.001 66.1552 196.131 66.3718L197.534 65.703C197.613 65.8016 197.719 65.8784 197.841 65.923L197.611 67.4177C197.732 67.4424 197.855 67.458 197.982 67.4627C198.114 67.4675 198.244 67.4602 198.37 67.4429L198.259 65.9441C198.387 65.9106 198.499 65.8413 198.584 65.7473L199.89 66.4771C200.02 66.2727 200.116 66.044 200.169 65.7987L198.75 65.3695Z" fill="#E6E7E8"/>
<path d="M198.191 64.9647C198.189 65.0362 198.129 65.0917 198.055 65.0885C197.981 65.0853 197.922 65.0246 197.923 64.9531C197.924 64.8815 197.985 64.8262 198.059 64.8294C198.133 64.8326 198.192 64.8931 198.191 64.9647Z" fill="#D1D3D4"/>
<path d="M198.174 65.6364C198.173 65.7078 198.112 65.7633 198.038 65.7601C197.965 65.7569 197.906 65.6962 197.907 65.6248C197.908 65.5533 197.969 65.4978 198.042 65.501C198.116 65.5042 198.175 65.5649 198.174 65.6364Z" fill="#D1D3D4"/>
<path d="M198.382 65.4326C198.456 65.4357 198.517 65.3802 198.518 65.3086C198.519 65.237 198.46 65.1764 198.387 65.1733C198.313 65.1701 198.252 65.2257 198.251 65.2973C198.25 65.3689 198.309 65.4295 198.382 65.4326Z" fill="#D1D3D4"/>
<path d="M197.711 65.4166C197.637 65.4135 197.578 65.3528 197.579 65.2813C197.58 65.2097 197.641 65.1541 197.715 65.1573C197.788 65.1604 197.847 65.2211 197.846 65.2926C197.845 65.3641 197.784 65.4197 197.711 65.4166Z" fill="#D1D3D4"/>
<path d="M198.08 61.585C195.973 61.5004 194.237 63.0987 194.204 65.1548C194.171 67.2109 195.852 68.9462 197.96 69.0308C200.067 69.1154 201.802 67.5172 201.836 65.461C201.869 63.4051 200.188 61.6696 198.08 61.585ZM197.984 67.5076C196.739 67.4576 195.746 66.4324 195.765 65.2176C195.785 64.0028 196.81 63.0586 198.055 63.1086C199.3 63.1585 200.294 64.1838 200.274 65.3985C200.255 66.6133 199.229 67.5575 197.984 67.5076Z" fill="#75787A"/>
<path d="M198.07 62.8789C196.714 62.8379 195.593 63.8918 195.566 65.2328C195.539 66.5738 196.616 67.6942 197.971 67.7352C199.327 67.7762 200.448 66.7222 200.475 65.3812C200.503 64.0402 199.426 62.9199 198.07 62.8789ZM197.979 67.3701C196.827 67.3353 195.912 66.3834 195.935 65.2442C195.958 64.1049 196.911 63.2095 198.063 63.2443C199.214 63.2791 200.129 64.231 200.106 65.3702C200.083 66.5095 199.13 67.4049 197.979 67.3701Z" fill="#D1D3D4"/>
<path d="M232.096 68.2136C230.944 68.1787 230.029 67.2269 230.052 66.0876C230.076 64.9484 231.028 64.053 232.18 64.0878C233.331 64.1226 234.246 65.0745 234.223 66.2137C234.2 67.353 233.247 68.2484 232.096 68.2136Z" fill="#231F20"/>
<path d="M232.867 66.2126C232.869 66.1962 232.87 66.1798 232.871 66.1632C232.873 66.0061 232.82 65.86 232.73 65.7423L233.648 64.6193C233.465 64.4456 233.252 64.3018 233.018 64.1964L232.378 65.4983C232.321 65.4807 232.261 65.4697 232.198 65.4674C232.117 65.4644 232.039 65.4762 231.966 65.4991L231.266 64.1575C231.028 64.2536 230.812 64.3899 230.626 64.5587L231.625 65.7432C231.55 65.8473 231.504 65.9745 231.502 66.1131C231.502 66.1284 231.503 66.1434 231.504 66.1585L229.977 66.5048C230.025 66.7588 230.118 66.9983 230.248 67.2149L231.651 66.5462C231.73 66.6447 231.836 66.7215 231.958 66.7661L231.728 68.2608C231.849 68.2855 231.973 68.3012 232.099 68.3058C232.232 68.3107 232.361 68.3033 232.488 68.286L232.376 66.7873C232.504 66.7537 232.616 66.6845 232.702 66.5905L234.007 67.3203C234.137 67.1158 234.233 66.8872 234.286 66.6418L232.867 66.2126Z" fill="#E6E7E8"/>
<path d="M232.172 65.9316C232.246 65.9348 232.307 65.8794 232.308 65.8079C232.309 65.7363 232.25 65.6757 232.176 65.6725C232.102 65.6693 232.042 65.7247 232.04 65.7963C232.039 65.8678 232.098 65.9284 232.172 65.9316Z" fill="#D1D3D4"/>
<path d="M232.291 66.4795C232.29 66.551 232.229 66.6064 232.156 66.6032C232.082 66.6 232.023 66.5394 232.024 66.4679C232.025 66.3964 232.086 66.341 232.16 66.3442C232.233 66.3474 232.292 66.408 232.291 66.4795Z" fill="#D1D3D4"/>
<path d="M232.5 66.2759C232.426 66.2727 232.367 66.2121 232.368 66.1405C232.369 66.069 232.43 66.0134 232.504 66.0165C232.577 66.0197 232.636 66.0803 232.635 66.1519C232.634 66.2234 232.573 66.279 232.5 66.2759Z" fill="#D1D3D4"/>
<path d="M231.828 66.2591C231.902 66.2623 231.962 66.2067 231.964 66.1351C231.965 66.0635 231.906 66.0029 231.832 65.9998C231.758 65.9967 231.697 66.0522 231.696 66.1238C231.695 66.1954 231.754 66.256 231.828 66.2591Z" fill="#D1D3D4"/>
<path d="M232.197 62.4283C230.09 62.3437 228.355 63.9419 228.321 65.998C228.288 68.0542 229.969 69.7895 232.077 69.8741C234.184 69.9586 235.92 68.3604 235.953 66.3043C235.986 64.2484 234.305 62.5129 232.197 62.4283ZM232.102 68.3508C230.856 68.3009 229.863 67.2756 229.883 66.0609C229.902 64.8461 230.928 63.9019 232.173 63.9518C233.418 64.0018 234.411 65.027 234.391 66.2418C234.372 67.4566 233.347 68.4008 232.102 68.3508Z" fill="#75787A"/>
<path d="M232.187 63.7223C230.832 63.6813 229.71 64.7352 229.683 66.0762C229.656 67.4172 230.733 68.5376 232.088 68.5786C233.444 68.6195 234.565 67.5656 234.593 66.2246C234.62 64.8836 233.543 63.7633 232.187 63.7223ZM232.096 68.2135C230.944 68.1786 230.029 67.2268 230.052 66.0875C230.076 64.9483 231.028 64.0529 232.18 64.0877C233.331 64.1225 234.246 65.0744 234.223 66.2136C234.2 67.3529 233.248 68.2483 232.096 68.2135Z" fill="#D1D3D4"/>
<path d="M202.132 62.8747C202.533 63.57 202.756 64.3725 202.738 65.2219C202.738 65.2238 202.738 65.2259 202.738 65.2279C202.731 65.5489 202.986 65.8196 203.316 65.8293L227 66.5244C227.326 66.534 227.589 66.2822 227.594 65.9656C227.595 65.9608 227.595 65.9561 227.595 65.9514C227.648 63.4206 229.809 61.4238 232.413 61.5002C235.017 61.5767 237.093 63.6978 237.04 66.2286C237.04 66.2333 237.04 66.238 237.04 66.2428C237.032 66.5593 237.284 66.8262 237.61 66.8358L239.289 66.885L239.411 61.0325C237.687 60.866 234.804 60.6224 231.965 60.5391C227.498 60.408 226.667 63.5948 226.667 63.5948L208.858 63.0721L202.132 62.8747Z" fill="#545353"/>
<path d="M237.59 66.8254L240.127 66.8948C240.538 66.9061 240.879 66.5839 240.888 66.1751L240.961 62.9063C240.97 62.4975 240.645 62.1571 240.233 62.1458L234.598 61.9917C236.075 62.8232 237.06 64.4158 237.02 66.2135C237.02 66.2156 237.02 66.2176 237.02 66.2196C237.012 66.5436 237.264 66.8165 237.59 66.8254Z" fill="#363434"/>
<path d="M188.841 63.1528L188.84 63.1948C188.571 63.1874 188.349 63.398 188.343 63.665L188.309 65.1778C188.303 65.4447 188.516 65.6672 188.785 65.6745L193.292 65.7977L193.293 65.7474L193.333 65.7485C193.312 65.5501 193.302 65.3487 193.306 65.1441C193.321 64.4803 193.476 63.8526 193.74 63.2866L188.841 63.1528Z" fill="#545353"/>
<path d="M230.32 57.4399L229.122 57.4037C228.971 57.3991 228.859 57.2593 228.891 57.1128L229.219 55.5776C229.243 55.4654 229.344 55.3868 229.46 55.3903L230.361 55.4175C231.113 55.4402 231.712 55.9113 231.701 56.4697C231.69 57.0282 231.071 57.4625 230.32 57.4399Z" fill="white"/>
<path d="M230.331 56.8361L229.134 56.8001C229.071 56.7982 229.014 56.7723 228.972 56.7321L228.891 57.1139C228.859 57.2598 228.971 57.399 229.122 57.4035L230.318 57.4396C231.069 57.4621 231.686 57.0296 231.698 56.4735C231.7 56.3684 231.68 56.2663 231.642 56.1698C231.46 56.5735 230.939 56.8545 230.331 56.8361Z" fill="#D1D3D4"/>
<path d="M239.435 60.0957C239.452 59.3212 239.202 58.5887 238.758 57.9986L237.099 57.9532C237.099 57.9532 237.482 60.1014 239.126 60.3229C239.231 60.337 239.332 60.3486 239.429 60.358L239.435 60.0957Z" fill="#D1D3D4"/>
<path d="M239.147 60.0387C238.113 59.89 237.646 58.8145 237.471 58.2493L238.607 58.2804C238.961 58.7974 239.151 59.415 239.147 60.0387Z" fill="white"/>
<path d="M223.404 50.9508C223.053 50.7242 222.647 50.5933 222.227 50.5788L221.385 50.549L218.57 56.007L220.762 56.0732L223.404 50.9508Z" fill="#28211F"/>
<path d="M225.189 52.3425L224.027 51.4268L221.622 56.0899L223.231 56.1385L225.189 52.3425Z" fill="#28211F"/>
<path d="M424.47 69.7092L422.896 69.5546C421.28 69.6581 419.875 70.5642 419.14 71.8995C419.03 72.0985 418.935 72.3072 418.857 72.5241C418.856 72.526 418.855 72.5277 418.855 72.5296C418.83 72.5976 418.808 72.6666 418.787 72.736C418.785 72.7414 418.783 72.7467 418.781 72.7521C418.762 72.8173 418.744 72.8833 418.728 72.9496C418.725 72.9597 418.722 72.9695 418.72 72.9797C418.705 73.042 418.692 73.1053 418.679 73.1687C418.676 73.1831 418.673 73.197 418.67 73.2114C418.659 73.2723 418.65 73.334 418.641 73.3959C418.638 73.4129 418.635 73.4299 418.633 73.4469C418.628 73.4826 418.625 73.519 418.622 73.555L428.076 74.4831C428.18 72.2686 426.635 70.2817 424.47 69.7092Z" fill="#231F20"/>
<path d="M462.24 77.3589C462.24 77.34 462.24 77.3213 462.241 77.3026C462.242 77.243 462.242 77.1837 462.24 77.1245C462.24 77.1133 462.24 77.1021 462.24 77.0911C462.238 77.0228 462.234 76.955 462.229 76.8874C462.227 76.8694 462.225 76.8513 462.224 76.8332C462.219 76.7792 462.213 76.7251 462.207 76.6716C462.205 76.6549 462.203 76.6383 462.201 76.6218C462.192 76.5561 462.181 76.4907 462.17 76.4257C462.166 76.4088 462.163 76.392 462.16 76.3753C462.15 76.3243 462.139 76.2738 462.127 76.2233C462.123 76.2033 462.118 76.1833 462.113 76.1634C462.098 76.1008 462.082 76.0385 462.064 75.9768C462.06 75.9617 462.055 75.9469 462.05 75.932C462.036 75.883 462.02 75.8342 462.004 75.7859C461.996 75.7634 461.988 75.7411 461.981 75.7188C461.963 75.67 461.945 75.6215 461.926 75.5733C461.918 75.5521 461.909 75.5308 461.901 75.5098C461.881 75.4605 461.86 75.4117 461.838 75.363C461.827 75.3386 461.816 75.3145 461.804 75.2902C461.786 75.2522 461.768 75.2147 461.749 75.1774C461.738 75.1552 461.727 75.133 461.715 75.111C461.688 75.0593 461.66 75.0084 461.631 74.9577C461.616 74.9316 461.601 74.9059 461.585 74.8802C461.567 74.8498 461.548 74.8195 461.529 74.7896C461.513 74.7633 461.497 74.737 461.479 74.7112C461.449 74.6646 461.417 74.6184 461.385 74.5729C461.366 74.5457 461.346 74.5189 461.326 74.4919C461.308 74.4673 461.29 74.4428 461.271 74.4184C461.249 74.3905 461.228 74.3626 461.206 74.3351C461.187 74.3115 461.167 74.2884 461.148 74.2651C461.109 74.2186 461.069 74.1727 461.028 74.1276C461.011 74.1082 460.994 74.0889 460.976 74.0697C460.949 74.0415 460.923 74.0135 460.896 73.9859C460.879 73.9688 460.862 73.952 460.845 73.9352C460.795 73.8852 460.744 73.8362 460.691 73.7883C460.676 73.7744 460.661 73.7607 460.646 73.747C460.615 73.7198 460.584 73.6929 460.553 73.6665C460.537 73.6526 460.52 73.639 460.503 73.6253C460.433 73.5673 460.361 73.5107 460.287 73.4563C460.286 73.4555 460.285 73.4548 460.284 73.4542C460.25 73.4289 460.215 73.4045 460.18 73.3802C460.163 73.3683 460.146 73.3564 460.128 73.3448C460.093 73.321 460.057 73.2971 460.021 73.2742C459.599 73.0047 459.132 72.7967 458.63 72.6641L457.056 72.5096C454.837 72.6518 453.014 74.3083 452.782 76.5103L462.236 77.4384C462.237 77.4117 462.239 77.3851 462.24 77.3589Z" fill="#231F20"/>
<path d="M462.852 68.5021L458.447 66.8923L450.886 60.7444C450.05 60.0646 449.023 59.6425 447.947 59.5354L419.68 56.7227C418.049 56.5605 416.589 57.5894 416.279 59.1186L414.499 67.8879L414.246 71.0024C413.977 70.9756 413.743 71.1626 413.724 71.4199L413.614 72.8778C413.595 73.1351 413.797 73.3654 414.066 73.3922L418.575 73.8409L418.579 73.7924L418.619 73.7964C418.607 73.6033 418.607 73.4082 418.622 73.211C418.809 70.7176 421.082 68.9001 423.689 69.1594C426.295 69.4187 428.263 71.6582 428.075 74.1516C428.075 74.1535 428.075 74.1556 428.075 74.1575C428.051 74.4737 428.292 74.7589 428.622 74.7918L452.325 77.1503C452.651 77.1827 452.928 76.9529 452.951 76.6409C452.951 76.6362 452.951 76.6316 452.952 76.6269C453.139 74.1335 455.412 72.316 458.018 72.5753C460.624 72.8347 462.592 75.0741 462.405 77.5675C462.404 77.5722 462.404 77.5768 462.404 77.5815C462.379 77.8933 462.618 78.1744 462.944 78.2069L464.624 78.3741L465.113 71.8688C465.223 70.4095 464.296 69.0296 462.852 68.5021Z" fill="#F1F2F2"/>
<path d="M442.762 60.9959L442.76 65.5844C442.76 66.0048 443.096 66.3643 443.531 66.4079L455.335 67.5908C455.944 67.6519 456.259 66.9319 455.799 66.5301L449.969 61.4364C449.538 61.0367 448.984 60.7854 448.397 60.724L443.657 60.2249C443.175 60.174 442.763 60.5292 442.762 60.9959Z" fill="#010101"/>
<path d="M414.067 73.9956L418.588 74.4498L418.592 74.4008L418.632 74.4048C418.62 74.2095 418.62 74.012 418.635 73.8125C418.698 72.9659 418.997 72.1971 419.465 71.5581L414.291 71.0382L414.248 71.5775C413.978 71.5504 413.744 71.7396 413.724 71.9999L413.614 73.4749C413.595 73.7354 413.798 73.9685 414.067 73.9956Z" fill="#D1D3D4"/>
<path d="M423.156 76.2942C421.997 76.1763 421.125 75.1701 421.208 74.047C421.291 72.9238 422.297 72.1088 423.455 72.2267C424.614 72.3446 425.486 73.3507 425.403 74.4739C425.32 75.5971 424.314 76.4121 423.156 76.2942Z" fill="#231F20"/>
<path d="M424.041 74.38C424.043 74.3641 424.045 74.3482 424.046 74.3319C424.057 74.1782 424.01 74.0309 423.924 73.9085L424.906 72.8816C424.729 72.6969 424.521 72.5391 424.288 72.4173L423.579 73.6414C423.522 73.6197 423.462 73.6041 423.398 73.5969C423.316 73.5875 423.237 73.5928 423.162 73.6094L422.517 72.2398C422.272 72.315 422.047 72.4313 421.851 72.5818L422.805 73.8214C422.724 73.9174 422.672 74.0384 422.663 74.1739C422.662 74.1888 422.663 74.2036 422.663 74.2185L421.1 74.4361C421.137 74.6887 421.22 74.9307 421.341 75.1533L422.794 74.6099C422.869 74.7127 422.973 74.7964 423.094 74.8498L422.79 76.2954C422.911 76.3292 423.036 76.3544 423.164 76.369C423.297 76.3843 423.429 76.3874 423.558 76.3805L423.516 74.9037C423.647 74.8811 423.764 74.8221 423.855 74.7369L425.142 75.5555C425.283 75.3657 425.391 75.1493 425.456 74.9133L424.041 74.38Z" fill="#E6E7E8"/>
<path d="M423.499 73.9304C423.495 74.0002 423.431 74.0496 423.356 74.0406C423.281 74.0315 423.224 73.9674 423.229 73.8976C423.233 73.8276 423.297 73.7783 423.372 73.7874C423.447 73.7964 423.504 73.8604 423.499 73.9304Z" fill="#D1D3D4"/>
<path d="M423.441 74.5998C423.437 74.6696 423.373 74.719 423.298 74.71C423.223 74.701 423.166 74.6369 423.171 74.567C423.175 74.4972 423.239 74.4478 423.314 74.4568C423.389 74.4659 423.446 74.53 423.441 74.5998Z" fill="#D1D3D4"/>
<path d="M423.662 74.4044C423.736 74.4132 423.8 74.3634 423.805 74.2933C423.809 74.2231 423.753 74.1591 423.678 74.1503C423.603 74.1415 423.539 74.1913 423.535 74.2614C423.53 74.3316 423.587 74.3956 423.662 74.4044Z" fill="#D1D3D4"/>
<path d="M422.992 74.347C422.917 74.3382 422.86 74.2741 422.865 74.204C422.87 74.134 422.934 74.0842 423.008 74.093C423.083 74.1018 423.14 74.1658 423.135 74.2359C423.131 74.306 423.067 74.3558 422.992 74.347Z" fill="#D1D3D4"/>
<path d="M423.538 70.6255C421.405 70.3709 419.572 71.7918 419.443 73.7992C419.314 75.8066 420.939 77.6403 423.072 77.8949C425.205 78.1495 427.039 76.7286 427.168 74.7212C427.297 72.714 425.672 70.8801 423.538 70.6255ZM423.168 76.4078C421.907 76.2574 420.947 75.174 421.023 73.988C421.099 72.802 422.183 71.9626 423.443 72.113C424.703 72.2634 425.663 73.3467 425.587 74.5327C425.511 75.7187 424.428 76.5582 423.168 76.4078Z" fill="#75787A"/>
<path d="M423.482 71.8664C422.118 71.7276 420.934 72.6869 420.837 74.009C420.739 75.3311 421.766 76.5154 423.129 76.6542C424.493 76.793 425.677 75.8337 425.774 74.5116C425.872 73.1895 424.845 72.0052 423.482 71.8664ZM423.156 76.2942C421.997 76.1763 421.125 75.1701 421.208 74.047C421.291 72.9238 422.297 72.1088 423.455 72.2267C424.614 72.3446 425.486 73.3507 425.403 74.4739C425.32 75.5971 424.314 76.4121 423.156 76.2942Z" fill="#D1D3D4"/>
<path d="M457.156 79.2351C455.998 79.1172 455.126 78.1111 455.209 76.9879C455.291 75.8647 456.297 75.0497 457.456 75.1676C458.614 75.2855 459.486 76.2917 459.403 77.4148C459.321 78.538 458.315 79.353 457.156 79.2351Z" fill="#231F20"/>
<path d="M458.041 77.3208C458.043 77.3049 458.046 77.2889 458.047 77.2727C458.057 77.119 458.01 76.9717 457.925 76.8493L458.907 75.8224C458.73 75.6377 458.521 75.4799 458.289 75.358L457.58 76.5822C457.523 76.5605 457.462 76.5449 457.399 76.5377C457.317 76.5283 457.237 76.5336 457.162 76.5502L456.518 75.1806C456.273 75.2557 456.047 75.3721 455.851 75.5226L456.806 76.7622C456.725 76.8582 456.673 76.9792 456.664 77.1147C456.663 77.1296 456.663 77.1444 456.663 77.1593L455.101 77.3769C455.138 77.6295 455.221 77.8715 455.342 78.0941L456.794 77.5507C456.87 77.6535 456.973 77.7372 457.095 77.7906L456.791 79.2362C456.912 79.27 457.036 79.2952 457.164 79.3098C457.298 79.3251 457.43 79.3282 457.558 79.3213L457.516 77.8445C457.647 77.8219 457.764 77.7629 457.855 77.6777L459.142 78.4963C459.284 78.3065 459.392 78.0901 459.457 77.8541L458.041 77.3208Z" fill="#E6E7E8"/>
<path d="M457.357 76.9816C457.431 76.9907 457.496 76.9413 457.5 76.8714C457.504 76.8015 457.447 76.7375 457.373 76.7284C457.298 76.7194 457.234 76.7687 457.229 76.8386C457.225 76.9085 457.282 76.9725 457.357 76.9816Z" fill="#D1D3D4"/>
<path d="M457.442 77.5407C457.438 77.6106 457.373 77.66 457.299 77.6509C457.224 77.6419 457.167 77.5778 457.171 77.5079C457.176 77.4381 457.24 77.3887 457.315 77.3977C457.389 77.4068 457.446 77.4709 457.442 77.5407Z" fill="#D1D3D4"/>
<path d="M457.662 77.3455C457.587 77.3367 457.53 77.2727 457.535 77.2026C457.54 77.1325 457.604 77.0827 457.678 77.0915C457.753 77.1003 457.81 77.1644 457.805 77.2345C457.801 77.3045 457.737 77.3544 457.662 77.3455Z" fill="#D1D3D4"/>
<path d="M456.993 77.2876C457.067 77.2964 457.132 77.2466 457.136 77.1765C457.141 77.1063 457.084 77.0423 457.009 77.0335C456.934 77.0247 456.87 77.0744 456.866 77.1446C456.861 77.2147 456.918 77.2788 456.993 77.2876Z" fill="#D1D3D4"/>
<path d="M457.539 73.5663C455.406 73.3117 453.572 74.7326 453.443 76.74C453.315 78.7474 454.94 80.5811 457.073 80.8357C459.206 81.0903 461.04 79.6694 461.169 77.662C461.298 75.6548 459.672 73.8209 457.539 73.5663ZM457.168 79.3486C455.908 79.1981 454.948 78.1148 455.024 76.9288C455.1 75.7428 456.183 74.9034 457.444 75.0538C458.704 75.2042 459.664 76.2875 459.588 77.4735C459.512 78.6595 458.429 79.499 457.168 79.3486Z" fill="#75787A"/>
<path d="M457.482 74.8073C456.119 74.6685 454.935 75.6278 454.837 76.9499C454.74 78.272 455.766 79.4563 457.13 79.5951C458.493 79.7339 459.678 78.7746 459.775 77.4525C459.872 76.1304 458.846 74.9461 457.482 74.8073ZM457.156 79.2351C455.998 79.1172 455.126 78.1111 455.209 76.9879C455.291 75.8647 456.297 75.0497 457.456 75.1676C458.614 75.2855 459.486 76.2917 459.403 77.4148C459.321 78.538 458.315 79.353 457.156 79.2351Z" fill="#D1D3D4"/>
<path d="M427.526 71.9827C427.89 72.6815 428.07 73.4719 428.006 74.291C428.006 74.2929 428.006 74.295 428.006 74.2969C427.981 74.6064 428.222 74.8852 428.551 74.9169L452.191 77.1917C452.516 77.223 452.792 76.9976 452.815 76.6922C452.815 76.6876 452.816 76.683 452.816 76.6784C453.005 74.2374 455.274 72.455 457.873 72.7051C460.472 72.9552 462.433 75.1447 462.244 77.5856C462.243 77.5902 462.243 77.5948 462.243 77.5994C462.218 77.9046 462.456 78.1795 462.781 78.2107L464.457 78.372L464.894 72.7271C463.179 72.4495 460.311 72.0191 457.477 71.7464C453.018 71.3174 452.016 74.3393 452.016 74.3393L434.24 72.6288L427.526 71.9827Z" fill="#545353"/>
<path d="M462.72 78.1914L465.259 78.431C465.67 78.4699 466.03 78.1737 466.062 77.7693L466.318 74.5362C466.35 74.1319 466.042 73.7727 465.631 73.7339L459.991 73.2017C461.425 74.1248 462.323 75.7688 462.183 77.5469C462.183 77.5489 462.182 77.5509 462.182 77.5529C462.156 77.8734 462.393 78.1606 462.72 78.1914Z" fill="#363434"/>
<path d="M414.263 71.5476L414.26 71.5889C413.991 71.5636 413.756 71.7566 413.735 72.0197L413.617 73.5106C413.596 73.7737 413.797 74.0076 414.066 74.0329L418.57 74.4565L418.574 74.4069L418.614 74.4106C418.604 74.2134 418.605 74.014 418.621 73.8123C418.673 73.1581 418.863 72.5489 419.159 72.0079L414.263 71.5476Z" fill="#545353"/>
<path d="M456.038 68.3806L454.836 68.2586C454.684 68.2432 454.579 68.0976 454.618 67.9557L455.028 66.4686C455.058 66.36 455.164 66.2899 455.281 66.3017L456.185 66.3935C456.939 66.47 457.517 66.9768 457.476 67.5255C457.436 68.0744 456.792 68.4572 456.038 68.3806Z" fill="white"/>
<path d="M456.077 67.7923L454.879 67.6716C454.815 67.6652 454.76 67.6357 454.72 67.5935L454.618 67.9611C454.579 68.1016 454.684 68.2458 454.835 68.2611L456.033 68.3818C456.784 68.4575 457.426 68.0785 457.466 67.5352C457.474 67.4325 457.46 67.3313 457.426 67.2341C457.223 67.6161 456.686 67.8537 456.077 67.7923Z" fill="#D1D3D4"/>
<path d="M464.975 71.6069C465.036 70.84 464.825 70.0967 464.413 69.4815L462.75 69.3245C462.75 69.3245 463.014 71.4807 464.652 71.8113C464.757 71.8324 464.857 71.8508 464.955 71.8666L464.975 71.6069Z" fill="#D1D3D4"/>
<path d="M464.69 71.5301C463.659 71.3127 463.251 70.2148 463.106 69.6426L464.246 69.7502C464.572 70.2867 464.728 70.9119 464.69 71.5301Z" fill="white"/>
<path d="M449.528 61.5415C449.186 61.292 448.783 61.1331 448.36 61.0882L447.511 60.9976L444.387 66.1904L446.595 66.4152L449.528 61.5415Z" fill="#28211F"/>
<path d="M451.229 63.023L450.103 62.0321L447.429 66.4737L449.052 66.6388L451.229 63.023Z" fill="#28211F"/>
<path d="M648.611 94.043L647.038 93.8638C645.42 93.9412 644.001 94.8225 643.247 96.1426C643.135 96.3394 643.037 96.546 642.956 96.7611C642.955 96.763 642.955 96.7647 642.954 96.7666C642.929 96.834 642.905 96.9025 642.883 96.9714C642.881 96.9768 642.879 96.982 642.878 96.9873C642.857 97.052 642.839 97.1176 642.821 97.1834C642.819 97.1935 642.815 97.2033 642.813 97.2133C642.797 97.2752 642.783 97.3382 642.77 97.4012C642.767 97.4155 642.763 97.4294 642.76 97.4436C642.748 97.5042 642.738 97.5656 642.728 97.6272C642.725 97.6442 642.722 97.661 642.72 97.678C642.714 97.7135 642.711 97.7498 642.707 97.7856L652.156 98.862C652.289 96.6549 650.769 94.6486 648.611 94.043Z" fill="#231F20"/>
<path d="M686.273 102.239C686.274 102.22 686.274 102.201 686.275 102.183C686.277 102.123 686.277 102.064 686.277 102.005C686.277 101.994 686.277 101.983 686.277 101.972C686.276 101.904 686.273 101.836 686.268 101.768C686.267 101.75 686.266 101.732 686.264 101.714C686.26 101.66 686.255 101.606 686.249 101.553C686.247 101.536 686.246 101.52 686.244 101.503C686.236 101.437 686.226 101.372 686.215 101.307C686.212 101.29 686.209 101.273 686.206 101.256C686.197 101.206 686.187 101.155 686.176 101.104C686.172 101.084 686.167 101.064 686.163 101.044C686.148 100.982 686.133 100.919 686.116 100.857C686.112 100.842 686.107 100.828 686.103 100.813C686.089 100.764 686.074 100.715 686.058 100.666C686.051 100.644 686.043 100.621 686.036 100.599C686.019 100.55 686.002 100.501 685.983 100.453C685.975 100.432 685.967 100.41 685.959 100.389C685.939 100.34 685.919 100.291 685.898 100.242C685.887 100.217 685.876 100.193 685.865 100.169C685.847 100.13 685.829 100.093 685.811 100.055C685.8 100.033 685.79 100.01 685.778 99.9884C685.752 99.9364 685.724 99.8852 685.696 99.8341C685.681 99.8078 685.666 99.782 685.651 99.7561C685.633 99.7255 685.615 99.695 685.597 99.6648C685.581 99.6383 685.565 99.6119 685.548 99.5858C685.518 99.5389 685.487 99.4924 685.455 99.4464C685.437 99.4189 685.417 99.3919 685.397 99.3647C685.379 99.3398 685.361 99.3151 685.343 99.2905C685.322 99.2624 685.301 99.2341 685.279 99.2064C685.26 99.1826 685.241 99.1592 685.222 99.1357C685.183 99.0886 685.144 99.0423 685.104 98.9966C685.087 98.9769 685.07 98.9574 685.052 98.938C685.026 98.9094 685 98.8811 684.973 98.8532C684.957 98.8358 684.94 98.8188 684.924 98.8018C684.874 98.7511 684.823 98.7014 684.771 98.6528C684.756 98.6387 684.742 98.6247 684.727 98.6109C684.696 98.5833 684.666 98.556 684.635 98.5291C684.619 98.515 684.602 98.5011 684.586 98.4872C684.516 98.4282 684.445 98.3707 684.371 98.3152C684.37 98.3144 684.37 98.3137 684.369 98.3131C684.334 98.2873 684.3 98.2624 684.265 98.2376C684.248 98.2255 684.231 98.2133 684.214 98.2015C684.179 98.1772 684.144 98.1528 684.108 98.1293C683.689 97.8539 683.224 97.6389 682.724 97.4987L681.151 97.3194C678.928 97.4259 677.082 99.049 676.82 101.242L686.268 102.318C686.269 102.291 686.272 102.265 686.273 102.239Z" fill="#231F20"/>
<path d="M687.028 93.4238L682.641 91.7489L675.155 85.5024C674.328 84.8117 673.306 84.3745 672.231 84.2504L643.982 80.9904C642.353 80.8024 640.878 81.8036 640.548 83.3219L638.652 92.028L638.358 95.1263C638.089 95.0952 637.852 95.2777 637.83 95.5337L637.701 96.9841C637.678 97.2401 637.878 97.4728 638.146 97.5038L642.652 98.0239L642.657 97.9756L642.696 97.9802C642.688 97.7878 642.69 97.5934 642.707 97.3972C642.928 94.9166 645.226 93.143 647.83 93.4436C650.435 93.7442 652.375 96.0068 652.154 98.4874C652.154 98.4893 652.154 98.4914 652.154 98.4933C652.125 98.8079 652.363 99.0958 652.694 99.134L676.38 101.868C676.706 101.905 676.986 101.681 677.013 101.37C677.013 101.366 677.014 101.361 677.014 101.356C677.234 98.8758 679.532 97.1022 682.137 97.4028C684.741 97.7033 686.681 99.966 686.461 102.447C686.46 102.451 686.46 102.456 686.459 102.461C686.431 102.771 686.666 103.055 686.991 103.092L688.671 103.286L689.245 96.814C689.374 95.3623 688.465 93.9726 687.028 93.4238Z" fill="#F1F2F2"/>
<path d="M667.02 85.591L666.958 90.1639C666.952 90.583 667.284 90.9468 667.718 90.9973L679.518 92.3691C680.126 92.4399 680.451 91.7275 679.996 91.3196L674.227 86.1478C673.801 85.7424 673.249 85.4829 672.663 85.4121L667.925 84.8372C667.443 84.7786 667.026 85.1258 667.02 85.591Z" fill="#010101"/>
<path d="M638.148 98.1619L642.667 98.6888L642.671 98.6399L642.711 98.6446C642.702 98.4497 642.705 98.2529 642.722 98.0542C642.796 97.2113 643.106 96.4498 643.583 95.8204L638.41 95.2173L638.36 95.7543C638.09 95.7229 637.853 95.9076 637.83 96.1668L637.701 97.6354C637.678 97.8947 637.878 98.1304 638.148 98.1619Z" fill="#D1D3D4"/>
<path d="M647.205 100.597C646.046 100.46 645.186 99.4414 645.283 98.3221C645.38 97.2028 646.399 96.4065 647.558 96.5434C648.717 96.6804 649.577 97.6989 649.48 98.8181C649.383 99.9374 648.364 100.734 647.205 100.597Z" fill="#231F20"/>
<path d="M648.117 98.7024C648.119 98.6865 648.122 98.6707 648.123 98.6545C648.135 98.5014 648.09 98.3538 648.006 98.2302L649.003 97.223C648.828 97.0357 648.621 96.8749 648.39 96.7494L647.663 97.958C647.606 97.9354 647.546 97.9188 647.483 97.9105C647.4 97.8998 647.321 97.9037 647.245 97.919L646.616 96.5423C646.37 96.613 646.142 96.7252 645.944 96.8719L646.885 98.1243C646.803 98.2187 646.749 98.3384 646.739 98.4734C646.737 98.4883 646.738 98.503 646.737 98.5179L645.169 98.7083C645.202 98.9608 645.282 99.2035 645.401 99.4275L646.864 98.9104C646.938 99.0142 647.041 99.0994 647.162 99.1547L646.84 100.591C646.96 100.627 647.085 100.654 647.213 100.671C647.347 100.688 647.479 100.694 647.608 100.689L647.584 99.2157C647.716 99.1953 647.834 99.1386 647.926 99.0551L649.206 99.8933C649.35 99.7064 649.461 99.4925 649.529 99.2582L648.117 98.7024Z" fill="#E6E7E8"/>
<path d="M647.581 98.2433C647.575 98.3129 647.51 98.3612 647.435 98.351C647.361 98.3408 647.304 98.2759 647.31 98.2063C647.315 98.1365 647.38 98.0884 647.455 98.0986C647.53 98.1088 647.586 98.1735 647.581 98.2433Z" fill="#D1D3D4"/>
<path d="M647.513 98.9116C647.508 98.9813 647.443 99.0295 647.368 99.0193C647.293 99.0091 647.237 98.9442 647.242 98.8746C647.247 98.805 647.312 98.7567 647.387 98.7669C647.462 98.7771 647.518 98.842 647.513 98.9116Z" fill="#D1D3D4"/>
<path d="M647.736 98.7191C647.81 98.7291 647.875 98.6804 647.881 98.6105C647.886 98.5405 647.83 98.4758 647.756 98.4658C647.681 98.4558 647.616 98.5045 647.61 98.5744C647.605 98.6444 647.661 98.7091 647.736 98.7191Z" fill="#D1D3D4"/>
<path d="M647.067 98.6518C646.992 98.6419 646.936 98.577 646.942 98.5071C646.947 98.4373 647.012 98.3886 647.087 98.3985C647.162 98.4085 647.218 98.4733 647.212 98.5432C647.207 98.6131 647.142 98.6618 647.067 98.6518Z" fill="#D1D3D4"/>
<path d="M647.66 94.9488C645.524 94.6591 643.668 96.0454 643.514 98.0454C643.361 100.045 644.967 101.901 647.103 102.191C649.239 102.481 651.095 101.094 651.249 99.0945C651.403 97.0948 649.796 95.2385 647.66 94.9488ZM647.217 100.709C645.955 100.538 645.006 99.4418 645.097 98.2602C645.188 97.0786 646.284 96.2595 647.546 96.4307C648.808 96.6019 649.757 97.6984 649.666 98.88C649.575 100.062 648.479 100.881 647.217 100.709Z" fill="#75787A"/>
<path d="M647.589 96.1845C646.225 96.0233 645.026 96.9607 644.911 98.2782C644.797 99.5957 645.81 100.794 647.174 100.956C648.538 101.117 649.737 100.18 649.852 98.862C649.966 97.5445 648.953 96.3457 647.589 96.1845ZM647.205 100.597C646.046 100.46 645.186 99.4415 645.283 98.3222C645.38 97.203 646.399 96.4066 647.558 96.5435C648.717 96.6805 649.577 97.699 649.48 98.8183C649.383 99.9375 648.364 100.734 647.205 100.597Z" fill="#D1D3D4"/>
<path d="M681.159 104.036C680 103.899 679.14 102.881 679.237 101.762C679.334 100.642 680.353 99.8459 681.512 99.9829C682.67 100.12 683.531 101.138 683.434 102.258C683.337 103.377 682.318 104.173 681.159 104.036Z" fill="#231F20"/>
<path d="M682.071 102.142C682.073 102.126 682.076 102.11 682.077 102.094C682.089 101.941 682.044 101.793 681.96 101.67L682.957 100.662C682.782 100.475 682.575 100.314 682.344 100.189L681.617 101.397C681.56 101.375 681.5 101.358 681.437 101.35C681.354 101.339 681.275 101.343 681.199 101.358L680.57 99.9816C680.323 100.052 680.096 100.165 679.898 100.311L680.839 101.564C680.757 101.658 680.703 101.778 680.692 101.913C680.691 101.928 680.691 101.942 680.691 101.957L679.123 102.148C679.156 102.4 679.236 102.643 679.355 102.867L680.818 102.35C680.892 102.454 680.995 102.539 681.116 102.594L680.794 104.03C680.914 104.066 681.039 104.093 681.167 104.11C681.301 104.128 681.433 104.133 681.562 104.128L681.538 102.655C681.67 102.635 681.788 102.578 681.88 102.494L683.16 103.333C683.304 103.146 683.415 102.932 683.483 102.698L682.071 102.142Z" fill="#E6E7E8"/>
<path d="M681.389 101.79C681.464 101.801 681.529 101.752 681.535 101.683C681.54 101.613 681.484 101.548 681.409 101.538C681.334 101.528 681.269 101.576 681.263 101.646C681.258 101.715 681.314 101.78 681.389 101.79Z" fill="#D1D3D4"/>
<path d="M681.467 102.351C681.461 102.421 681.396 102.469 681.322 102.459C681.247 102.449 681.19 102.384 681.196 102.314C681.201 102.244 681.266 102.196 681.341 102.206C681.416 102.217 681.472 102.281 681.467 102.351Z" fill="#D1D3D4"/>
<path d="M681.689 102.159C681.615 102.149 681.559 102.084 681.564 102.014C681.569 101.944 681.635 101.895 681.709 101.905C681.784 101.915 681.84 101.98 681.835 102.05C681.829 102.12 681.764 102.169 681.689 102.159Z" fill="#D1D3D4"/>
<path d="M681.021 102.091C681.096 102.101 681.161 102.052 681.166 101.982C681.172 101.912 681.115 101.848 681.041 101.838C680.966 101.828 680.901 101.876 680.896 101.946C680.89 102.016 680.946 102.081 681.021 102.091Z" fill="#D1D3D4"/>
<path d="M681.614 98.3882C679.478 98.0985 677.622 99.4849 677.468 101.485C677.314 103.485 678.921 105.341 681.057 105.631C683.192 105.92 685.049 104.534 685.202 102.534C685.357 100.534 683.75 98.678 681.614 98.3882ZM681.171 104.149C679.909 103.978 678.96 102.881 679.051 101.7C679.142 100.518 680.238 99.699 681.5 99.8702C682.762 100.041 683.711 101.138 683.62 102.319C683.529 103.501 682.433 104.32 681.171 104.149Z" fill="#75787A"/>
<path d="M681.543 99.6238C680.179 99.4626 678.98 100.4 678.865 101.717C678.751 103.035 679.764 104.234 681.128 104.395C682.492 104.556 683.691 103.619 683.806 102.301C683.92 100.984 682.907 99.7851 681.543 99.6238ZM681.159 104.036C680 103.899 679.14 102.881 679.237 101.762C679.334 100.642 680.353 99.8459 681.512 99.9829C682.67 100.12 683.531 101.138 683.434 102.258C683.337 103.377 682.318 104.173 681.159 104.036Z" fill="#D1D3D4"/>
<path d="M651.627 96.3436C651.981 97.0453 652.15 97.8352 652.076 98.6501C652.075 98.652 652.075 98.6541 652.075 98.6559C652.046 98.9638 652.283 99.2453 652.612 99.282L676.227 101.917C676.552 101.953 676.831 101.733 676.858 101.429C676.858 101.424 676.859 101.42 676.859 101.415C677.082 98.9871 679.375 97.2472 681.971 97.5369C684.568 97.8266 686.499 100.038 686.277 102.466C686.277 102.471 686.276 102.475 686.276 102.48C686.247 102.783 686.481 103.061 686.806 103.097L688.48 103.284L688.994 97.6685C687.283 97.3652 684.419 96.8917 681.588 96.5759C677.134 96.079 676.091 99.0731 676.091 99.0731L658.333 97.0919L651.627 96.3436Z" fill="#545353"/>
<path d="M686.736 103.075L689.274 103.355C689.686 103.4 690.049 103.11 690.087 102.707L690.387 99.4834C690.424 99.0803 690.121 98.7168 689.71 98.6715L684.072 98.0505C685.495 98.9949 686.373 100.65 686.208 102.423C686.208 102.425 686.207 102.427 686.207 102.429C686.177 102.749 686.41 103.039 686.736 103.075Z" fill="#363434"/>
<path d="M638.377 95.7257L638.373 95.7669C638.105 95.7374 637.867 95.9262 637.843 96.1883L637.704 97.6739C637.68 97.9361 637.878 98.1726 638.146 98.2021L642.647 98.696L642.652 98.6466L642.692 98.651C642.684 98.4541 642.688 98.2551 642.706 98.0541C642.767 97.4023 642.965 96.7975 643.269 96.2625L638.377 95.7257Z" fill="#545353"/>
<path d="M680.199 93.1685L678.997 93.0269C678.844 93.0089 678.741 92.862 678.782 92.7211L679.212 91.245C679.243 91.1372 679.35 91.069 679.467 91.0827L680.371 91.1893C681.125 91.2781 681.698 91.7932 681.65 92.3397C681.602 92.8863 680.953 93.2573 680.199 93.1685Z" fill="white"/>
<path d="M680.244 92.5834L679.047 92.4434C678.983 92.4359 678.929 92.4057 678.889 92.3629L678.782 92.7276C678.741 92.8669 678.844 93.0123 678.996 93.03L680.193 93.1701C680.944 93.2579 681.591 92.8908 681.639 92.3502C681.648 92.248 681.634 92.1469 681.602 92.0495C681.394 92.4267 680.853 92.6547 680.244 92.5834Z" fill="#D1D3D4"/>
<path d="M689.089 96.5281C689.16 95.7633 688.959 95.0178 688.554 94.397L686.891 94.2136C686.891 94.2136 687.127 96.3708 688.762 96.727C688.867 96.7497 688.967 96.7697 689.064 96.7871L689.089 96.5281Z" fill="#D1D3D4"/>
<path d="M688.804 96.4471C687.775 96.2136 687.381 95.1108 687.244 94.5371L688.383 94.6627C688.703 95.2037 688.851 95.8305 688.804 96.4471Z" fill="white"/>
<path d="M673.789 86.2465C673.45 85.9919 673.048 85.8265 672.625 85.7747L671.776 85.67L668.578 90.8005L670.788 91.0617L673.789 86.2465Z" fill="#28211F"/>
<path d="M675.469 87.7497L674.353 86.7417L671.615 91.1309L673.241 91.3228L675.469 87.7497Z" fill="#28211F"/>
<path d="M872.073 107.255L870.501 107.271C868.909 107.555 867.592 108.632 866.974 110.071C866.882 110.286 866.805 110.509 866.746 110.738C866.745 110.74 866.745 110.742 866.744 110.744C866.725 110.816 866.709 110.888 866.694 110.961C866.693 110.967 866.691 110.973 866.69 110.978C866.676 111.047 866.664 111.116 866.653 111.185C866.651 111.196 866.649 111.206 866.648 111.217C866.638 111.282 866.63 111.347 866.623 111.413C866.621 111.428 866.619 111.443 866.618 111.458C866.611 111.521 866.607 111.585 866.604 111.649C866.603 111.666 866.601 111.684 866.6 111.701C866.599 111.738 866.599 111.776 866.598 111.813L876.04 111.712C875.959 109.448 874.264 107.598 872.073 107.255Z" fill="#231F20"/>
<path d="M910.323 111.334C910.322 111.315 910.321 111.296 910.319 111.277C910.315 111.216 910.31 111.156 910.304 111.096C910.303 111.084 910.302 111.073 910.301 111.062C910.293 110.993 910.284 110.924 910.273 110.856C910.27 110.838 910.267 110.82 910.264 110.801C910.255 110.747 910.244 110.693 910.233 110.639C910.23 110.622 910.227 110.605 910.223 110.589C910.209 110.523 910.193 110.458 910.176 110.393C910.172 110.376 910.167 110.359 910.162 110.343C910.148 110.292 910.133 110.242 910.118 110.192C910.111 110.172 910.105 110.152 910.099 110.132C910.079 110.07 910.057 110.009 910.035 109.948C910.029 109.933 910.023 109.918 910.017 109.904C909.999 109.856 909.979 109.808 909.959 109.76C909.95 109.738 909.94 109.717 909.931 109.695C909.909 109.647 909.887 109.6 909.865 109.553C909.855 109.532 909.845 109.511 909.834 109.491C909.81 109.443 909.785 109.396 909.76 109.349C909.747 109.325 909.734 109.302 909.72 109.278C909.699 109.242 909.678 109.205 909.656 109.17C909.643 109.148 909.63 109.127 909.617 109.106C909.586 109.056 909.554 109.007 909.521 108.959C909.504 108.934 909.487 108.91 909.469 108.885C909.449 108.856 909.428 108.828 909.407 108.799C909.388 108.774 909.37 108.75 909.351 108.725C909.317 108.681 909.282 108.638 909.246 108.595C909.225 108.569 909.203 108.544 909.181 108.519C909.161 108.496 909.14 108.473 909.12 108.45C909.096 108.424 909.073 108.398 909.048 108.373C909.028 108.351 909.006 108.33 908.985 108.308C908.943 108.265 908.899 108.223 908.856 108.181C908.837 108.164 908.818 108.146 908.799 108.128C908.77 108.102 908.741 108.077 908.713 108.052C908.695 108.036 908.676 108.021 908.658 108.006C908.604 107.961 908.549 107.916 908.493 107.873C908.477 107.861 908.461 107.849 908.445 107.836C908.413 107.812 908.38 107.788 908.346 107.765C908.329 107.753 908.312 107.74 908.294 107.728C908.219 107.677 908.143 107.628 908.066 107.58C908.065 107.58 908.064 107.579 908.063 107.579C908.027 107.557 907.99 107.536 907.953 107.515C907.935 107.505 907.917 107.494 907.899 107.485C907.862 107.464 907.825 107.444 907.788 107.425C907.347 107.197 906.867 107.037 906.359 106.958L904.787 106.974C902.601 107.364 900.932 109.25 900.884 111.516L910.326 111.416C910.324 111.388 910.324 111.361 910.323 111.334Z" fill="#231F20"/>
<path d="M910.031 102.092L905.533 100.933L897.535 95.4595C896.651 94.8543 895.599 94.5357 894.523 94.5472L866.276 94.8488C864.647 94.8662 863.284 96.0906 863.102 97.7L862.056 106.929L862.06 110.164C861.791 110.167 861.574 110.385 861.576 110.652L861.587 112.166C861.589 112.433 861.808 112.647 862.077 112.644L866.583 112.596L866.583 112.546L866.622 112.545C866.595 112.348 866.579 112.147 866.578 111.942C866.559 109.354 868.663 107.226 871.268 107.198C873.872 107.171 876.006 109.254 876.024 111.841C876.024 111.843 876.024 111.846 876.024 111.848C876.026 112.176 876.289 112.442 876.619 112.439L900.305 112.186C900.631 112.182 900.887 111.914 900.883 111.591C900.883 111.586 900.883 111.581 900.883 111.576C900.865 108.988 902.969 106.86 905.573 106.832C908.177 106.804 910.311 108.887 910.329 111.475C910.329 111.48 910.329 111.485 910.329 111.49C910.331 111.814 910.59 112.076 910.916 112.073L912.595 112.055L912.547 105.302C912.536 103.788 911.505 102.472 910.031 102.092Z" fill="#F1F2F2"/>
<path d="M889.513 96.9508L889.884 101.641C889.918 102.071 890.28 102.401 890.713 102.396L902.493 102.27C903.101 102.263 903.354 101.492 902.867 101.133L896.682 96.586C896.223 96.2262 895.654 96.032 895.068 96.0356L890.336 96.0616C889.854 96.064 889.475 96.4737 889.513 96.9508Z" fill="#010101"/>
<path d="M862.101 112.644L866.609 112.595L866.608 112.545L866.648 112.545C866.621 112.347 866.605 112.146 866.604 111.94C866.597 111.07 866.831 110.253 867.242 109.549L862.083 109.604L862.084 110.158C861.815 110.161 861.598 110.381 861.6 110.648L861.611 112.164C861.613 112.432 861.832 112.646 862.101 112.644Z" fill="#D1D3D4"/>
<path d="M871.339 114.029C870.19 114.041 869.252 113.123 869.244 111.979C869.236 110.835 870.161 109.898 871.309 109.886C872.458 109.873 873.395 110.791 873.403 111.935C873.412 113.079 872.487 114.016 871.339 114.029Z" fill="#231F20"/>
<path d="M872.053 111.981C872.054 111.964 872.055 111.948 872.055 111.931C872.054 111.773 871.998 111.628 871.906 111.514L872.792 110.338C872.606 110.172 872.391 110.038 872.156 109.943L871.549 111.286C871.492 111.271 871.432 111.263 871.37 111.264C871.289 111.265 871.211 111.281 871.139 111.308L870.412 109.992C870.178 110.101 869.966 110.249 869.785 110.428L870.806 111.571C870.733 111.679 870.691 111.81 870.692 111.949C870.692 111.965 870.694 111.98 870.695 111.995L869.184 112.42C869.237 112.673 869.336 112.91 869.47 113.122L870.851 112.378C870.932 112.473 871.039 112.545 871.161 112.584L870.967 114.1C871.088 114.119 871.211 114.129 871.337 114.127C871.469 114.125 871.598 114.111 871.723 114.088L871.577 112.584C871.704 112.544 871.814 112.469 871.897 112.37L873.212 113.039C873.337 112.827 873.427 112.592 873.474 112.342L872.053 111.981Z" fill="#E6E7E8"/>
<path d="M871.482 111.605C871.482 111.677 871.423 111.737 871.35 111.738C871.276 111.739 871.217 111.682 871.216 111.609C871.216 111.537 871.275 111.477 871.348 111.476C871.422 111.475 871.482 111.532 871.482 111.605Z" fill="#D1D3D4"/>
<path d="M871.488 112.277C871.488 112.349 871.429 112.409 871.356 112.41C871.282 112.411 871.222 112.353 871.222 112.281C871.222 112.209 871.281 112.149 871.354 112.148C871.428 112.146 871.487 112.204 871.488 112.277Z" fill="#D1D3D4"/>
<path d="M871.689 112.071C871.762 112.07 871.821 112.01 871.821 111.938C871.82 111.865 871.761 111.807 871.687 111.809C871.614 111.81 871.555 111.87 871.555 111.942C871.555 112.014 871.615 112.072 871.689 112.071Z" fill="#D1D3D4"/>
<path d="M871.017 112.077C870.943 112.078 870.883 112.02 870.883 111.948C870.883 111.875 870.942 111.816 871.015 111.814C871.089 111.813 871.148 111.871 871.149 111.943C871.149 112.016 871.09 112.076 871.017 112.077Z" fill="#D1D3D4"/>
<path d="M871.303 108.197C869.207 108.228 867.517 109.937 867.528 112.014C867.539 114.09 869.248 115.748 871.344 115.717C873.441 115.686 875.131 113.977 875.12 111.901C875.108 109.824 873.4 108.166 871.303 108.197ZM871.336 114.179C870.097 114.197 869.088 113.218 869.081 111.991C869.074 110.764 870.073 109.754 871.312 109.736C872.55 109.718 873.56 110.697 873.566 111.924C873.573 113.151 872.574 114.16 871.336 114.179Z" fill="#75787A"/>
<path d="M871.307 109.519C869.955 109.533 868.867 110.636 868.876 111.983C868.886 113.33 869.989 114.41 871.341 114.395C872.693 114.381 873.781 113.277 873.772 111.931C873.762 110.584 872.659 109.504 871.307 109.519ZM871.339 114.028C870.19 114.041 869.253 113.123 869.244 111.979C869.236 110.835 870.161 109.898 871.309 109.886C872.458 109.873 873.395 110.791 873.404 111.935C873.412 113.079 872.487 114.016 871.339 114.028Z" fill="#D1D3D4"/>
<path d="M905.465 113.733C904.316 113.745 903.379 112.827 903.371 111.683C903.363 110.539 904.287 109.602 905.436 109.59C906.584 109.577 907.522 110.495 907.53 111.639C907.538 112.783 906.613 113.72 905.465 113.733Z" fill="#231F20"/>
<path d="M906.179 111.685C906.18 111.669 906.182 111.652 906.181 111.635C906.18 111.477 906.124 111.333 906.032 111.219L906.918 110.042C906.733 109.876 906.518 109.742 906.282 109.648L905.676 110.99C905.618 110.976 905.558 110.968 905.496 110.968C905.415 110.97 905.338 110.985 905.266 111.012L904.538 109.696C904.304 109.805 904.092 109.953 903.911 110.132L904.932 111.275C904.86 111.383 904.818 111.514 904.819 111.653C904.819 111.669 904.82 111.684 904.821 111.699L903.31 112.124C903.364 112.378 903.462 112.614 903.596 112.826L904.977 112.082C905.058 112.177 905.165 112.249 905.288 112.288L905.094 113.805C905.214 113.823 905.337 113.833 905.464 113.831C905.595 113.83 905.724 113.816 905.849 113.792L905.704 112.288C905.83 112.248 905.94 112.173 906.023 112.074L907.339 112.743C907.464 112.531 907.554 112.296 907.6 112.046L906.179 111.685Z" fill="#E6E7E8"/>
<path d="M905.476 111.442C905.549 111.441 905.609 111.381 905.608 111.309C905.608 111.236 905.548 111.179 905.475 111.18C905.401 111.181 905.342 111.241 905.342 111.313C905.343 111.386 905.403 111.443 905.476 111.442Z" fill="#D1D3D4"/>
<path d="M905.614 111.981C905.614 112.053 905.555 112.113 905.482 112.114C905.409 112.115 905.349 112.057 905.348 111.985C905.348 111.913 905.407 111.853 905.48 111.852C905.554 111.85 905.614 111.908 905.614 111.981Z" fill="#D1D3D4"/>
<path d="M905.815 111.775C905.741 111.777 905.682 111.719 905.681 111.646C905.681 111.574 905.74 111.514 905.813 111.513C905.887 111.512 905.947 111.57 905.947 111.642C905.947 111.714 905.888 111.774 905.815 111.775Z" fill="#D1D3D4"/>
<path d="M905.143 111.781C905.216 111.78 905.275 111.72 905.275 111.648C905.275 111.575 905.215 111.518 905.142 111.519C905.068 111.52 905.009 111.58 905.009 111.652C905.01 111.725 905.07 111.782 905.143 111.781Z" fill="#D1D3D4"/>
<path d="M905.43 107.901C903.333 107.932 901.643 109.641 901.654 111.718C901.666 113.794 903.374 115.452 905.471 115.421C907.567 115.39 909.257 113.681 909.246 111.605C909.235 109.528 907.526 107.87 905.43 107.901ZM905.462 113.883C904.224 113.901 903.214 112.922 903.207 111.695C903.201 110.468 904.199 109.458 905.438 109.44C906.676 109.422 907.686 110.401 907.693 111.628C907.699 112.855 906.701 113.864 905.462 113.883Z" fill="#75787A"/>
<path d="M905.433 109.223C904.081 109.237 902.993 110.341 903.003 111.687C903.012 113.034 904.116 114.114 905.468 114.099C906.819 114.085 907.908 112.981 907.898 111.635C907.889 110.288 906.785 109.208 905.433 109.223ZM905.465 113.733C904.316 113.745 903.379 112.827 903.371 111.683C903.363 110.539 904.287 109.602 905.436 109.59C906.584 109.577 907.522 110.495 907.53 111.639C907.538 112.783 906.613 113.72 905.465 113.733Z" fill="#D1D3D4"/>
<path d="M875.363 109.512C875.784 110.202 876.029 111.009 876.035 111.872C876.035 111.874 876.035 111.877 876.035 111.879C876.037 112.205 876.299 112.47 876.63 112.466L900.309 112.216C900.634 112.212 900.89 111.946 900.886 111.624C900.886 111.619 900.886 111.614 900.886 111.609C900.868 109.036 902.971 106.92 905.575 106.892C908.178 106.865 910.311 108.936 910.33 111.509C910.33 111.514 910.33 111.519 910.33 111.524C910.331 111.846 910.59 112.107 910.916 112.103L912.595 112.086L912.552 106.134C910.825 106.035 907.938 105.904 905.1 105.934C900.634 105.981 899.894 109.253 899.894 109.253L882.088 109.441L875.363 109.512Z" fill="#545353"/>
<path d="M910.915 112.159L913.45 112.135C913.861 112.131 914.191 111.796 914.188 111.386L914.162 108.108C914.159 107.699 913.823 107.37 913.413 107.374L907.782 107.428C909.282 108.206 910.314 109.765 910.328 111.567C910.328 111.569 910.328 111.571 910.328 111.574C910.33 111.898 910.589 112.162 910.915 112.159Z" fill="#363434"/>
<path d="M862.084 110.113L862.084 110.155C861.816 110.158 861.599 110.377 861.602 110.645L861.613 112.164C861.616 112.432 861.835 112.648 862.104 112.645L866.609 112.602L866.609 112.551L866.648 112.551C866.621 112.353 866.605 112.151 866.603 111.945C866.598 111.279 866.733 110.643 866.98 110.066L862.084 110.113Z" fill="#545353"/>
<path d="M903.337 103.02L902.142 103.033C901.99 103.035 901.875 102.899 901.903 102.75L902.188 101.195C902.209 101.081 902.308 100.998 902.424 100.997L903.323 100.987C904.073 100.979 904.684 101.428 904.688 101.989C904.692 102.55 904.087 103.012 903.337 103.02Z" fill="white"/>
<path d="M903.333 102.412L902.139 102.425C902.075 102.425 902.018 102.402 901.975 102.363L901.904 102.751C901.877 102.899 901.992 103.034 902.143 103.033L903.338 103.02C904.087 103.012 904.692 102.551 904.688 101.991C904.687 101.885 904.664 101.783 904.623 101.687C904.454 102.101 903.941 102.405 903.333 102.412Z" fill="#D1D3D4"/>
<path d="M912.537 105.363C912.53 104.587 912.258 103.863 911.798 103.288L910.141 103.304C910.141 103.304 910.588 105.441 912.235 105.602C912.34 105.613 912.441 105.62 912.539 105.626L912.537 105.363Z" fill="#D1D3D4"/>
<path d="M912.249 105.315C911.212 105.205 910.714 104.146 910.521 103.587L911.657 103.576C912.025 104.08 912.234 104.691 912.249 105.315Z" fill="white"/>
<path d="M896.219 96.7352C895.864 96.5224 895.456 96.4078 895.037 96.4105L894.197 96.4151L891.544 102.003L893.729 101.98L896.219 96.7352Z" fill="#28211F"/>
<path d="M898.047 98.0747L896.865 97.2047L894.598 101.977L896.201 101.959L898.047 98.0747Z" fill="#28211F"/>
<path d="M1098.08 91.0981L1096.52 91.4139C1094.99 91.9877 1093.85 93.2649 1093.46 94.7538C1093.4 94.9757 1093.36 95.2025 1093.34 95.4323C1093.34 95.4343 1093.34 95.4362 1093.34 95.4382C1093.33 95.5102 1093.32 95.5825 1093.32 95.6549C1093.32 95.6606 1093.32 95.6662 1093.32 95.6718C1093.32 95.7397 1093.31 95.8077 1093.31 95.8758C1093.31 95.8862 1093.31 95.8965 1093.31 95.9069C1093.31 95.9707 1093.32 96.0349 1093.32 96.099C1093.32 96.1135 1093.32 96.1278 1093.32 96.1423C1093.33 96.2036 1093.33 96.2652 1093.34 96.3268C1093.34 96.3438 1093.34 96.3609 1093.34 96.3778C1093.35 96.4132 1093.35 96.4487 1093.36 96.4841L1102.73 94.5878C1102.29 92.4465 1100.32 91.0072 1098.08 91.0981Z" fill="#231F20"/>
<path d="M1136.41 88.2095C1136.41 88.1914 1136.4 88.1735 1136.4 88.1555C1136.39 88.0985 1136.37 88.0419 1136.36 87.9859C1136.35 87.9753 1136.35 87.9647 1136.35 87.9542C1136.33 87.8898 1136.31 87.8263 1136.29 87.7634C1136.28 87.7466 1136.28 87.7299 1136.27 87.7131C1136.25 87.663 1136.23 87.6132 1136.22 87.5641C1136.21 87.5488 1136.2 87.5335 1136.2 87.5185C1136.17 87.4585 1136.15 87.3992 1136.12 87.3407C1136.11 87.3255 1136.11 87.3106 1136.1 87.2956C1136.08 87.2499 1136.05 87.2049 1136.03 87.1602C1136.02 87.1425 1136.01 87.1247 1136 87.1072C1135.97 87.052 1135.94 86.9974 1135.91 86.9438C1135.9 86.9307 1135.89 86.9181 1135.89 86.9052C1135.86 86.8629 1135.83 86.8208 1135.8 86.7796C1135.79 86.7605 1135.78 86.7415 1135.77 86.7225C1135.74 86.681 1135.71 86.6401 1135.68 86.5997C1135.67 86.582 1135.65 86.5643 1135.64 86.5467C1135.61 86.5056 1135.58 86.4653 1135.54 86.4254C1135.53 86.4053 1135.51 86.3857 1135.49 86.3659C1135.47 86.335 1135.44 86.3047 1135.41 86.2746C1135.4 86.2568 1135.38 86.2388 1135.36 86.2212C1135.32 86.1799 1135.28 86.1397 1135.24 86.0999C1135.22 86.0794 1135.2 86.0594 1135.18 86.0395C1135.16 86.0159 1135.13 85.9925 1135.11 85.9695C1135.08 85.9493 1135.06 85.9291 1135.04 85.9095C1135 85.8741 1134.96 85.8393 1134.91 85.8053C1134.89 85.7851 1134.86 85.7654 1134.84 85.7456C1134.81 85.7275 1134.79 85.7095 1134.77 85.6918C1134.74 85.6715 1134.71 85.6513 1134.68 85.6316C1134.66 85.6147 1134.63 85.5984 1134.61 85.5819C1134.56 85.549 1134.51 85.517 1134.46 85.4859C1134.44 85.4725 1134.42 85.4593 1134.4 85.4462C1134.36 85.4271 1134.33 85.4083 1134.3 85.3898C1134.28 85.3785 1134.26 85.3675 1134.24 85.3564C1134.18 85.3236 1134.12 85.2919 1134.05 85.2617C1134.03 85.2529 1134.02 85.2442 1134 85.2356C1133.96 85.2187 1133.93 85.2022 1133.89 85.1863C1133.87 85.1778 1133.85 85.1697 1133.83 85.1616C1133.75 85.127 1133.67 85.0942 1133.58 85.0641C1133.58 85.0637 1133.58 85.0632 1133.58 85.0629C1133.54 85.049 1133.5 85.036 1133.46 85.0231C1133.44 85.0168 1133.42 85.0105 1133.4 85.0046C1133.36 84.9922 1133.32 84.9799 1133.28 84.9687C1132.81 84.836 1132.3 84.7753 1131.79 84.7964L1130.23 85.1121C1128.12 85.9003 1126.75 88.0153 1127.06 90.1826L1136.43 88.2864C1136.42 88.2607 1136.42 88.2348 1136.41 88.2095Z" fill="#231F20"/>
<path d="M1134.72 78.9797L1130.08 78.7583L1121.31 75.1672C1120.34 74.7701 1119.24 74.6739 1118.18 74.8913L1090.18 80.603C1088.56 80.9324 1087.4 82.3416 1087.46 83.8844L1087.83 92.7317L1088.33 95.7618C1088.06 95.8162 1087.88 96.0629 1087.92 96.3127L1088.16 97.7284C1088.21 97.9782 1088.46 98.1368 1088.72 98.0824L1093.19 97.1713L1093.18 97.1243L1093.22 97.1162C1093.16 96.9365 1093.12 96.7514 1093.09 96.5598C1092.67 94.1387 1094.44 91.7405 1097.02 91.2139C1099.6 90.6872 1102.04 92.2286 1102.45 94.6497C1102.45 94.6516 1102.45 94.6536 1102.45 94.6555C1102.5 94.9627 1102.8 95.1617 1103.13 95.0949L1126.61 90.3055C1126.93 90.2396 1127.14 89.9394 1127.09 89.6368C1127.09 89.6323 1127.09 89.6277 1127.09 89.6232C1126.68 87.2021 1128.44 84.8039 1131.02 84.2773C1133.6 83.7507 1136.04 85.292 1136.45 87.7132C1136.45 87.7177 1136.45 87.7222 1136.46 87.7268C1136.51 88.0298 1136.8 88.2259 1137.13 88.16L1138.79 87.8205L1137.71 81.5036C1137.47 80.0866 1136.25 79.052 1134.72 78.9797Z" fill="#F1F2F2"/>
<path d="M1113.38 78.053L1114.46 82.4133C1114.56 82.8128 1114.97 83.0538 1115.4 82.9653L1127.11 80.5597C1127.71 80.4356 1127.85 79.6574 1127.31 79.4131L1120.45 76.3169C1119.94 76.066 1119.35 75.9929 1118.76 76.11L1114.06 77.0531C1113.58 77.1489 1113.26 77.6095 1113.38 78.053Z" fill="#010101"/>
<path d="M1089.1 98.0809L1093.59 97.1564L1093.58 97.1086L1093.62 97.1005C1093.56 96.9182 1093.51 96.7305 1093.48 96.5362C1093.34 95.7123 1093.45 94.8913 1093.75 94.1433L1088.62 95.2014L1088.7 95.7274C1088.43 95.7825 1088.25 96.0327 1088.29 96.2861L1088.54 97.7217C1088.58 97.9753 1088.83 98.136 1089.1 98.0809Z" fill="#D1D3D4"/>
<path d="M1098.45 97.7841C1097.3 98.0252 1096.21 97.3316 1096.03 96.2349C1095.85 95.1382 1096.64 94.0537 1097.79 93.8126C1098.95 93.5715 1100.03 94.2652 1100.21 95.3618C1100.4 96.4585 1099.61 97.543 1098.45 97.7841Z" fill="#231F20"/>
<path d="M1098.87 95.6726C1098.87 95.6566 1098.86 95.6406 1098.86 95.6247C1098.84 95.4745 1098.76 95.3489 1098.65 95.2599L1099.38 93.9569C1099.17 93.8382 1098.93 93.7556 1098.67 93.7151L1098.26 95.1175C1098.2 95.1154 1098.13 95.1203 1098.07 95.134C1097.99 95.152 1097.91 95.1831 1097.84 95.2235L1096.91 94.1249C1096.69 94.277 1096.5 94.4621 1096.34 94.67L1097.54 95.5427C1097.49 95.6611 1097.46 95.7938 1097.48 95.9263C1097.49 95.9409 1097.49 95.9549 1097.49 95.9691L1096.02 96.6883C1096.11 96.9178 1096.25 97.122 1096.41 97.2951L1097.71 96.3004C1097.8 96.374 1097.92 96.4201 1098.05 96.4315L1098.08 97.9129C1098.2 97.9056 1098.33 97.889 1098.45 97.861C1098.59 97.8319 1098.72 97.7918 1098.84 97.7431L1098.47 96.345C1098.6 96.2805 1098.7 96.1859 1098.77 96.0746L1100.2 96.4361C1100.29 96.2082 1100.35 95.9662 1100.36 95.7192L1098.87 95.6726Z" fill="#E6E7E8"/>
<path d="M1098.22 95.42C1098.23 95.489 1098.18 95.5583 1098.11 95.5745C1098.03 95.5907 1097.96 95.5478 1097.95 95.4788C1097.94 95.4096 1097.99 95.3405 1098.07 95.3243C1098.14 95.308 1098.21 95.3508 1098.22 95.42Z" fill="#D1D3D4"/>
<path d="M1098.34 96.0805C1098.35 96.1496 1098.3 96.2188 1098.23 96.235C1098.15 96.2512 1098.09 96.2083 1098.07 96.1393C1098.06 96.0702 1098.12 96.001 1098.19 95.9848C1098.26 95.9686 1098.33 96.0115 1098.34 96.0805Z" fill="#D1D3D4"/>
<path d="M1098.5 95.8421C1098.57 95.8261 1098.62 95.7571 1098.61 95.6881C1098.6 95.6191 1098.53 95.5761 1098.46 95.5922C1098.38 95.6083 1098.33 95.6773 1098.34 95.7463C1098.35 95.8153 1098.42 95.8582 1098.5 95.8421Z" fill="#D1D3D4"/>
<path d="M1097.84 95.9662C1097.76 95.9822 1097.69 95.9393 1097.68 95.8703C1097.67 95.8014 1097.72 95.7323 1097.8 95.7162C1097.87 95.7002 1097.94 95.7432 1097.95 95.8121C1097.96 95.881 1097.91 95.9501 1097.84 95.9662Z" fill="#D1D3D4"/>
<path d="M1097.56 92.2349C1095.43 92.7051 1093.96 94.6816 1094.27 96.6496C1094.58 98.6175 1096.56 99.8317 1098.69 99.3615C1100.81 98.8913 1102.28 96.9148 1101.97 94.9468C1101.66 92.979 1099.69 91.7647 1097.56 92.2349ZM1098.46 97.9036C1097.2 98.1814 1096.03 97.4641 1095.85 96.3014C1095.66 95.1387 1096.53 93.971 1097.79 93.6931C1099.05 93.4153 1100.21 94.1326 1100.4 95.2953C1100.58 96.458 1099.71 97.6257 1098.46 97.9036Z" fill="#75787A"/>
<path d="M1097.73 93.4609C1096.37 93.7447 1095.45 95.0212 1095.66 96.3121C1095.88 97.603 1097.15 98.4194 1098.51 98.1356C1099.87 97.8519 1100.8 96.5753 1100.58 95.2844C1100.37 93.9935 1099.09 93.1771 1097.73 93.4609ZM1098.45 97.7842C1097.3 98.0253 1096.21 97.3316 1096.03 96.235C1095.85 95.1383 1096.64 94.0538 1097.79 93.8127C1098.95 93.5716 1100.03 94.2652 1100.21 95.3619C1100.4 96.4585 1099.61 97.5431 1098.45 97.7842Z" fill="#D1D3D4"/>
<path d="M1132 91.5112C1130.85 91.7522 1129.76 91.0586 1129.58 89.9619C1129.39 88.8653 1130.18 87.7807 1131.34 87.5397C1132.49 87.2986 1133.58 87.9922 1133.76 89.0889C1133.94 90.1855 1133.15 91.2701 1132 91.5112Z" fill="#231F20"/>
<path d="M1132.41 89.3998C1132.41 89.3838 1132.41 89.3678 1132.41 89.3519C1132.38 89.2016 1132.31 89.0761 1132.2 88.9871L1132.92 87.6841C1132.71 87.5653 1132.47 87.4827 1132.22 87.4422L1131.8 88.8447C1131.74 88.8426 1131.68 88.8474 1131.62 88.8612C1131.53 88.8791 1131.46 88.9102 1131.39 88.9506L1130.46 87.8521C1130.24 88.0043 1130.04 88.1893 1129.89 88.3972L1131.09 89.2699C1131.03 89.3883 1131.01 89.5209 1131.03 89.6534C1131.03 89.668 1131.03 89.682 1131.04 89.6962L1129.57 90.4154C1129.66 90.645 1129.79 90.8492 1129.96 91.0223L1131.25 90.0276C1131.35 90.1012 1131.47 90.1472 1131.6 90.1586L1131.62 91.6401C1131.75 91.6328 1131.87 91.6161 1132 91.5882C1132.13 91.5591 1132.26 91.519 1132.39 91.4703L1132.02 90.0721C1132.14 90.0076 1132.24 89.913 1132.31 89.8017L1133.74 90.1633C1133.84 89.9354 1133.9 89.6934 1133.91 89.4464L1132.41 89.3998Z" fill="#E6E7E8"/>
<path d="M1131.65 89.3018C1131.73 89.2856 1131.78 89.2164 1131.77 89.1473C1131.75 89.0782 1131.69 89.0353 1131.61 89.0516C1131.54 89.0678 1131.49 89.1369 1131.5 89.206C1131.51 89.2752 1131.58 89.318 1131.65 89.3018Z" fill="#D1D3D4"/>
<path d="M1131.89 89.8077C1131.9 89.8767 1131.85 89.946 1131.78 89.9622C1131.7 89.9784 1131.63 89.9355 1131.62 89.8665C1131.61 89.7974 1131.66 89.7282 1131.74 89.712C1131.81 89.6957 1131.88 89.7387 1131.89 89.8077Z" fill="#D1D3D4"/>
<path d="M1132.04 89.5693C1131.97 89.5854 1131.9 89.5424 1131.89 89.4735C1131.88 89.4045 1131.93 89.3355 1132 89.3194C1132.08 89.3033 1132.15 89.3463 1132.16 89.4153C1132.17 89.4842 1132.12 89.5532 1132.04 89.5693Z" fill="#D1D3D4"/>
<path d="M1131.38 89.6927C1131.46 89.6767 1131.51 89.6077 1131.5 89.5387C1131.49 89.4697 1131.42 89.4267 1131.34 89.4428C1131.27 89.4589 1131.22 89.5279 1131.23 89.5969C1131.24 89.6659 1131.31 89.7088 1131.38 89.6927Z" fill="#D1D3D4"/>
<path d="M1131.1 85.9621C1128.98 86.4323 1127.51 88.4088 1127.82 90.3768C1128.13 92.3447 1130.11 93.5589 1132.23 93.0886C1134.36 92.6184 1135.83 90.6419 1135.52 88.674C1135.21 86.7061 1133.23 85.4919 1131.1 85.9621ZM1132 91.6307C1130.74 91.9085 1129.58 91.1912 1129.39 90.0285C1129.21 88.8658 1130.08 87.6981 1131.34 87.4203C1132.59 87.1425 1133.76 87.8598 1133.94 89.0225C1134.13 90.1852 1133.26 91.3529 1132 91.6307Z" fill="#75787A"/>
<path d="M1131.28 87.1882C1129.92 87.472 1128.99 88.7485 1129.21 90.0394C1129.42 91.3303 1130.7 92.1467 1132.06 91.8629C1133.42 91.5791 1134.35 90.3026 1134.13 89.0117C1133.91 87.7208 1132.64 86.9044 1131.28 87.1882ZM1132 91.5115C1130.85 91.7526 1129.76 91.0589 1129.58 89.9623C1129.39 88.8656 1130.18 87.7811 1131.34 87.54C1132.49 87.2989 1133.58 87.9925 1133.76 89.0892C1133.94 90.1858 1133.15 91.2704 1132 91.5115Z" fill="#D1D3D4"/>
<path d="M1101.59 92.8581C1102.11 93.4185 1102.48 94.1189 1102.62 94.9167C1102.62 94.9185 1102.62 94.9205 1102.62 94.9224C1102.67 95.2239 1102.97 95.4201 1103.3 95.3555L1126.67 90.7245C1126.99 90.6608 1127.2 90.3668 1127.15 90.0697C1127.14 90.0652 1127.14 90.0608 1127.14 90.0563C1126.73 87.6792 1128.48 85.331 1131.05 84.8218C1133.62 84.3126 1136.04 85.8323 1136.46 88.2094C1136.46 88.2139 1136.46 88.2183 1136.46 88.2228C1136.51 88.5203 1136.81 88.7136 1137.13 88.6499L1138.79 88.3216L1137.83 82.8244C1136.1 83.0532 1133.23 83.4684 1130.43 84.0235C1126.02 84.897 1125.8 88.0606 1125.8 88.0606L1108.23 91.543L1101.59 92.8581Z" fill="#545353"/>
<path d="M1137.1 89.0153L1139.62 88.5121C1140.03 88.4305 1140.3 88.0441 1140.23 87.6487L1139.68 84.4875C1139.61 84.0922 1139.23 83.8379 1138.82 83.9195L1133.22 85.0372C1134.84 85.5053 1136.12 86.8161 1136.42 88.5546C1136.42 88.5566 1136.42 88.5585 1136.42 88.5605C1136.48 88.874 1136.78 89.08 1137.1 89.0153Z" fill="#363434"/>
<path d="M1088.71 95.6618L1088.71 95.7022C1088.45 95.7551 1088.27 96.006 1088.31 96.2626L1088.57 97.7162C1088.61 97.9727 1088.86 98.1379 1089.13 98.085L1093.59 97.198L1093.58 97.1496L1093.62 97.1418C1093.56 96.9569 1093.52 96.7667 1093.48 96.5701C1093.37 95.9323 1093.4 95.2978 1093.55 94.6979L1088.71 95.6618Z" fill="#545353"/>
<path d="M1128.05 81.3563L1126.86 81.6052C1126.7 81.6367 1126.57 81.5299 1126.57 81.383L1126.62 79.8431C1126.63 79.7306 1126.71 79.6317 1126.83 79.6076L1127.73 79.4204C1128.48 79.2643 1129.16 79.5711 1129.25 80.1057C1129.34 80.6403 1128.8 81.2003 1128.05 81.3563Z" fill="white"/>
<path d="M1127.96 80.7877L1126.77 81.0332C1126.71 81.0463 1126.65 81.035 1126.6 81.0069L1126.59 81.3863C1126.59 81.5314 1126.72 81.6368 1126.87 81.6057L1128.06 81.3602C1128.8 81.2062 1129.34 80.6536 1129.25 80.126C1129.23 80.0263 1129.19 79.9345 1129.14 79.8524C1129.03 80.2758 1128.57 80.6628 1127.96 80.7877Z" fill="#D1D3D4"/>
<path d="M1137.55 82.0523C1137.41 81.3008 1137.03 80.6502 1136.47 80.1806L1134.82 80.5107C1134.82 80.5107 1135.61 82.4981 1137.28 82.3413C1137.39 82.3313 1137.49 82.3198 1137.59 82.3068L1137.55 82.0523Z" fill="#D1D3D4"/>
<path d="M1137.25 82.0617C1136.2 82.1516 1135.53 81.2188 1135.25 80.7129L1136.38 80.4866C1136.83 80.9058 1137.13 81.459 1137.25 82.0617Z" fill="white"/>
<path d="M1120.08 76.4428C1119.69 76.3089 1119.26 76.2803 1118.83 76.3667L1117.99 76.5393L1116.16 82.4536L1118.37 81.9935L1120.08 76.4428Z" fill="#28211F"/>
<path d="M1122.08 77.4321L1120.75 76.829L1119.19 81.8926L1120.81 81.5543L1122.08 77.4321Z" fill="#28211F"/>
<path d="M6.2536 84.1162C6.2536 84.1162 174.546 45.1993 616.829 99.3673C1059.11 153.535 1233.71 62.5542 1233.71 62.5542" stroke="white"/>
<path d="M1234.16 52.4525C1224.27 35.6835 1209.92 2.06372 1231.65 1.73683C1253.39 1.40993 1242.38 35.4111 1234.16 52.4525Z" fill="white" stroke="white"/>
<circle cx="1231.83" cy="13.429" r="8.22221" transform="rotate(-5.92532 1231.83 13.429)" fill="black"/>
</svg>
