<svg version="1.2" xmlns="http://www.w3.org/2000/svg" viewBox="0 0 1270 150" width="1270" height="150">
	<title>caminoUrgencia</title>
	<defs>
		<filter x="-50%" y="-50%" width="200%" height="200%" id="f1"> <feGaussianBlur stdDeviation="2"/> </filter>
		<linearGradient id="g1" x2="1" gradientUnits="userSpaceOnUse" gradientTransform="matrix(85.808,-79.317,49.669,53.734,322.87,78.527)">
			<stop offset=".046" stop-color="#00a1d4" stop-opacity="1"/>
			<stop offset=".952" stop-color="#00546e" stop-opacity="0"/>
		</linearGradient>
		<linearGradient id="g2" x2="1" gradientUnits="userSpaceOnUse" gradientTransform="matrix(-82.762,-111.897,85.166,-62.991,316.794,79.05)">
			<stop offset=".046" stop-color="#03c7fd" stop-opacity="1"/>
			<stop offset=".952" stop-color="#00546e" stop-opacity="0"/>
		</linearGradient>
		<linearGradient id="g3" x2="1" gradientUnits="userSpaceOnUse" gradientTransform="matrix(104.58,-52.131,32.644,65.487,1131.42,85.625)">
			<stop offset=".046" stop-color="#00a1d4" stop-opacity="1"/>
			<stop offset=".952" stop-color="#00546e" stop-opacity="0"/>
		</linearGradient>
		<linearGradient id="g4" x2="1" gradientUnits="userSpaceOnUse" gradientTransform="matrix(-48.13,-130.588,99.399,-36.635,1125.44,84.426)">
			<stop offset=".046" stop-color="#03c7fd" stop-opacity="1"/>
			<stop offset=".952" stop-color="#00546e" stop-opacity="0"/>
		</linearGradient>
	</defs>
	<style>
		.s0 { fill: none;stroke: #ffffff } 
		.s1 { fill: #00a0d4 } 
		.s2 { filter: url(#f1);fill: url(#g1) } 
		.s3 { filter: url(#f1);fill: url(#g2) } 
		.s4 { fill: #231f20 } 
		.s5 { fill: #f1f2f2 } 
		.s6 { fill: #010101 } 
		.s7 { fill: #d1d3d4 } 
		.s8 { fill: #e6e7e8 } 
		.s9 { fill: #75787a } 
		.s10 { fill: #545353 } 
		.s11 { fill: #363434 } 
		.s12 { fill: #ffffff } 
		.s13 { fill: #28211f } 
		.s14 { fill: #02a4d1 } 
		.s15 { filter: url(#f1);fill: url(#g3) } 
		.s16 { filter: url(#f1);fill: url(#g4) } 
		.s17 { fill: #ffffff;stroke: #ffffff } 
		.s18 { fill: #000000 } 
	</style>
	<path class="s0" d="m1 116.9c0 0 168.3-38.9 610.6 15.3 442.3 54.1 616.9-36.8 616.9-36.8"/>
	<path class="s1" d="m317.1 77.5l-0.6 2.6 8.5-1-2.7-2.7z"/>
	<g>
		<path class="s2" d="m373.9-15.1l-51.6 91.5 2.1 2.7 115.2-52.5z"/>
	</g>
	<g>
		<path class="s3" d="m241.7-15.1l75.9 92-3.1 2.7-169.4-52.7z"/>
	</g>
	<path class="s4" d="m314.1 93l-1.6 0.3c-1.5 0.5-2.7 1.8-3.2 3.2q-0.1 0.4-0.1 0.7 0 0 0 0 0 0.1 0 0.2 0 0 0 0 0 0.1 0 0.2-0.1 0.1-0.1 0.1 0 0.1 0 0.2 0 0 0 0 0 0.1 0.1 0.2 0 0 0 0 0 0.1 0 0.1l9.4-1.6c-0.3-2.1-2.2-3.6-4.5-3.6z"/>
	<path class="s4" d="m352.5 91.5q0-0.1 0-0.1 0-0.1 0-0.1 0-0.1 0-0.1-0.1-0.1-0.1-0.2 0 0 0 0 0-0.1-0.1-0.2 0 0 0 0 0-0.1 0-0.2-0.1 0-0.1 0 0-0.1 0-0.2 0 0-0.1 0 0-0.1 0-0.2-0.1 0-0.1 0 0-0.1 0-0.2-0.1 0-0.1 0 0-0.1-0.1-0.1 0-0.1 0-0.1 0-0.1-0.1-0.1 0 0 0-0.1-0.1 0-0.1-0.1 0 0-0.1 0 0-0.1-0.1-0.1 0-0.1 0-0.1-0.1 0-0.1-0.1 0 0-0.1 0 0-0.1-0.1-0.1 0-0.1-0.1-0.1 0 0 0-0.1-0.1 0-0.1 0 0-0.1-0.1-0.1-0.1 0-0.1-0.1-0.1 0-0.1 0 0 0-0.1-0.1 0 0 0 0-0.1-0.1-0.2-0.1-0.1 0-0.1 0 0-0.1-0.1-0.1 0 0 0 0-0.2-0.1-0.3-0.1 0 0 0 0-0.1 0-0.1-0.1 0 0-0.1 0 0 0-0.1 0-0.7-0.2-1.5-0.2l-1.5 0.2c-2.2 0.8-3.6 2.8-3.4 5l9.4-1.7q0 0 0 0z"/>
	<path class="s5" d="m351.2 82.1l-4.6-0.3-8.7-3.8c-0.9-0.4-2-0.5-3.1-0.3l-28.2 4.8c-1.6 0.3-2.8 1.7-2.8 3.2v8.7l0.3 3c-0.2 0-0.4 0.3-0.4 0.5l0.2 1.4c0 0.3 0.3 0.4 0.5 0.4l4.5-0.8 0.1-0.1q-0.1-0.2-0.2-0.5c-0.3-2.4 1.6-4.7 4.2-5.2 2.6-0.4 5 1.2 5.3 3.6q0 0 0 0c0 0.3 0.3 0.5 0.6 0.4l23.7-4.1c0.3 0 0.5-0.3 0.5-0.6q0 0 0 0c-0.3-2.4 1.6-4.7 4.2-5.2 2.6-0.4 4.9 1.2 5.2 3.5q0 0 0 0.1c0.1 0.3 0.4 0.5 0.7 0.4l1.7-0.3-0.8-6.2c-0.2-1.4-1.4-2.5-2.9-2.6z"/>
	<path class="s6" d="m329.9 80.6l0.9 4.3c0 0.4 0.4 0.7 0.9 0.6l11.8-2c0.6-0.1 0.8-0.9 0.2-1.2l-6.7-3.2c-0.5-0.3-1.1-0.4-1.7-0.3l-4.7 0.8c-0.5 0.1-0.8 0.6-0.7 1z"/>
	<path class="s7" d="m304.9 99.7l4.5-0.8v-0.1q-0.1-0.2-0.1-0.5c-0.1-0.9 0-1.7 0.4-2.4l-5.2 0.9 0.1 0.5c-0.3 0.1-0.5 0.3-0.5 0.6l0.2 1.4c0 0.3 0.3 0.4 0.6 0.4z"/>
	<path class="s4" d="m314.2 99.7c-1.1 0.2-2.2-0.5-2.3-1.6-0.2-1.1 0.7-2.2 1.8-2.4 1.2-0.2 2.2 0.5 2.4 1.6 0.1 1.1-0.7 2.2-1.9 2.4z"/>
	<path class="s8" d="m314.7 97.6q0 0 0 0 0-0.3-0.2-0.4l0.8-1.3q-0.3-0.2-0.7-0.2l-0.5 1.4q-0.1-0.1-0.1 0-0.2 0-0.3 0l-0.9-1.1q-0.3 0.3-0.6 0.6l1.2 0.9q-0.1 0.1-0.1 0.3 0 0.1 0 0.1l-1.5 0.7q0.1 0.3 0.4 0.6l1.3-1q0.2 0.1 0.4 0.1l-0.1 1.5q0.2 0 0.4 0 0.2-0.1 0.4-0.1l-0.3-1.4q0.2-0.1 0.3-0.3l1.4 0.4q0.2-0.3 0.2-0.7z"/>
	<path class="s7" d="m314.1 97.3c0 0.1-0.1 0.2-0.1 0.2q-0.2 0-0.2-0.1c0-0.1 0.1-0.1 0.1-0.2 0.1 0 0.2 0.1 0.2 0.1z"/>
	<path class="s7" d="m314.2 98c0 0.1-0.1 0.1-0.1 0.2q-0.2 0-0.2-0.1c0-0.1 0.1-0.2 0.1-0.2q0.2 0 0.2 0.1z"/>
	<path class="s7" d="m314.3 97.8c0.1 0 0.2-0.1 0.2-0.2q-0.1-0.1-0.2-0.1c-0.1 0-0.1 0.1-0.1 0.2q0 0.1 0.1 0.1z"/>
	<path class="s7" d="m313.7 97.9q-0.1 0-0.2-0.1c0-0.1 0.1-0.2 0.2-0.2q0.1 0 0.1 0.1c0 0.1 0 0.2-0.1 0.2z"/>
	<path class="s9" d="m313.6 94.2c-2.2 0.4-3.8 2.4-3.5 4.3 0.2 1.9 2.1 3.2 4.3 2.7 2.1-0.4 3.7-2.3 3.5-4.3-0.2-1.9-2.2-3.1-4.3-2.7zm0.6 5.6c-1.3 0.3-2.4-0.5-2.5-1.6-0.2-1.2 0.8-2.3 2-2.6 1.3-0.2 2.5 0.5 2.6 1.7 0.1 1.1-0.8 2.2-2.1 2.5z"/>
	<path class="s7" d="m313.7 95.4c-1.4 0.2-2.4 1.5-2.2 2.8 0.1 1.3 1.4 2.1 2.8 1.9 1.3-0.3 2.3-1.5 2.2-2.8-0.2-1.3-1.4-2.2-2.8-1.9zm0.5 4.3c-1.1 0.2-2.2-0.5-2.3-1.6-0.2-1.1 0.7-2.2 1.8-2.4 1.2-0.2 2.2 0.5 2.4 1.6 0.1 1.1-0.7 2.2-1.9 2.4z"/>
	<path class="s4" d="m348 94.7c-1.2 0.2-2.3-0.6-2.4-1.7-0.1-1 0.7-2.1 1.9-2.3 1.1-0.2 2.2 0.5 2.3 1.6 0.2 1.1-0.7 2.1-1.8 2.4z"/>
	<path class="s8" d="m348.5 92.6q0-0.1 0-0.1-0.1-0.2-0.2-0.4l0.8-1.2q-0.3-0.2-0.7-0.3l-0.5 1.4q-0.1 0-0.2 0-0.1 0-0.2 0.1l-0.9-1.1q-0.4 0.2-0.6 0.5l1.2 0.9q-0.1 0.2-0.1 0.4 0 0 0 0l-1.5 0.7q0.1 0.4 0.3 0.6l1.4-0.9q0.1 0.1 0.3 0.1v1.5q0.2 0 0.4-0.1 0.2 0 0.4-0.1l-0.3-1.4q0.1-0.1 0.3-0.2l1.4 0.3q0.1-0.3 0.2-0.7z"/>
	<path class="s7" d="m347.7 92.4c0.1 0 0.1 0 0.1-0.1q0-0.1-0.1-0.1c-0.1 0-0.1 0.1-0.1 0.1q0 0.2 0.1 0.1z"/>
	<path class="s7" d="m347.9 93c0 0 0 0.1-0.1 0.1q-0.1 0-0.1-0.1c0-0.1 0-0.1 0.1-0.1 0.1-0.1 0.1 0 0.1 0.1z"/>
	<path class="s7" d="m348.1 92.7c-0.1 0-0.1 0-0.2-0.1 0 0 0.1-0.1 0.2-0.1q0.1 0 0.1 0.1c0 0 0 0.1-0.1 0.1z"/>
	<path class="s7" d="m347.4 92.8c0.1 0 0.2-0.1 0.2-0.1q-0.1-0.1-0.2-0.1c-0.1 0-0.1 0.1-0.1 0.1q0 0.1 0.1 0.1z"/>
	<path class="s9" d="m347.3 89.1c-2.1 0.5-3.7 2.4-3.5 4.3 0.2 2 2.2 3.2 4.3 2.8 2.2-0.4 3.7-2.4 3.5-4.3-0.2-2-2.1-3.2-4.3-2.8zm0.7 5.6c-1.3 0.3-2.5-0.4-2.6-1.6-0.1-1.1 0.8-2.3 2.1-2.5 1.3-0.3 2.4 0.5 2.5 1.6 0.2 1.2-0.8 2.3-2 2.5z"/>
	<path class="s7" d="m347.4 90.3c-1.3 0.3-2.3 1.5-2.2 2.8 0.2 1.3 1.4 2.1 2.8 1.9 1.4-0.2 2.4-1.5 2.2-2.8-0.2-1.3-1.4-2.1-2.8-1.9zm0.6 4.4c-1.2 0.2-2.3-0.6-2.4-1.7-0.1-1 0.7-2.1 1.9-2.3 1.1-0.2 2.2 0.5 2.3 1.6 0.2 1.1-0.7 2.1-1.8 2.4z"/>
	<path class="s10" d="m317.5 95c0.5 0.6 0.9 1.2 1 2q0 0 0 0c0 0.3 0.3 0.5 0.6 0.5l23.6-3.9c0.3-0.1 0.5-0.4 0.5-0.7q0 0 0 0c-0.3-2.3 1.5-4.5 4.1-5 2.6-0.4 4.9 1.2 5.2 3.5q0 0 0.1 0c0 0.3 0.3 0.5 0.6 0.4l1.7-0.2-0.8-5.4c-1.7 0.2-4.6 0.5-7.4 1-4.4 0.7-4.8 3.8-4.8 3.8l-17.7 2.9z"/>
	<path class="s11" d="m353.2 92.3l2.5-0.4c0.4 0 0.7-0.4 0.7-0.8l-0.5-3.2c0-0.4-0.4-0.6-0.8-0.6l-5.7 1c1.6 0.5 2.9 1.8 3.1 3.6q0 0 0 0c0 0.3 0.3 0.5 0.7 0.4z"/>
	<path class="s10" d="m304.6 97.3c-0.3 0-0.5 0.3-0.4 0.5l0.2 1.5c0 0.3 0.2 0.4 0.5 0.4l4.5-0.8q-0.1-0.3-0.1-0.6-0.1-1 0.2-1.8z"/>
	<path class="s12" d="m344.4 84.4l-1.2 0.2c-0.2 0-0.3-0.1-0.3-0.3l0.1-1.5c0-0.1 0.1-0.2 0.3-0.2l0.9-0.2c0.7-0.1 1.4 0.2 1.4 0.8 0.1 0.5-0.4 1-1.2 1.2z"/>
	<path class="s7" d="m344.3 83.8l-1.2 0.2q-0.1 0-0.1 0l-0.1 0.4c0 0.1 0.2 0.2 0.3 0.2l1.2-0.2c0.8-0.2 1.3-0.7 1.2-1.2q0-0.2 0-0.3c-0.2 0.4-0.7 0.8-1.3 0.9z"/>
	<path class="s7" d="m353.9 85.4c-0.1-0.7-0.5-1.4-1-1.9l-1.7 0.3c0 0 0.7 2 2.4 1.9q0.2 0 0.3 0z"/>
	<path class="s12" d="m353.6 85.4c-1.1 0.1-1.7-0.9-2-1.4l1.2-0.2c0.4 0.4 0.7 1 0.8 1.6z"/>
	<path class="s13" d="m336.6 79.2q-0.6-0.3-1.2-0.1l-0.9 0.1-2 5.8 2.2-0.4z"/>
	<path class="s13" d="m338.6 80.2l-1.3-0.6-1.8 5 1.6-0.3z"/>
	<path fill-rule="evenodd" class="s0" d="m278.3 80.2l23.1 7.3"/>
	<path fill-rule="evenodd" class="s0" d="m276.6 88l24.2 2.1"/>
	<path fill-rule="evenodd" class="s0" d="m277.1 95.2l24.1-2.8"/>
	<path fill-rule="evenodd" class="s14" d="m317.5 82.6l3.2-0.4 1.4 9.3-3.1 0.5z"/>
	<path fill-rule="evenodd" class="s14" d="m324.2 84.8l0.5 3.1-9.3 1.4-0.5-3.1z"/>
	<path class="s1" d="m1126.2 83l-1.3 2.4 8.4 1.3-1.8-3.2z"/>
	<g>
		<path class="s15" d="m1206.6 10l-75.1 73.5 1.3 3.1 125.2-18.1z"/>
	</g>
	<g>
		<path class="s16" d="m1079.7-27l47.1 109.6-3.7 1.7-147.9-98z"/>
	</g>
	<path class="s4" d="m1118.9 97.1l-1.6-0.2c-1.6 0-3.1 0.8-3.9 2q-0.1 0.3-0.3 0.6 0 0 0 0 0 0.1 0 0.2 0 0.1-0.1 0.1 0 0.1 0 0.1 0 0.1 0 0.1 0 0.1-0.1 0.2 0 0 0 0 0 0.1 0 0.2 0 0 0 0 0 0.1 0 0.1l9.4 1.5c0.2-2.1-1.3-4.2-3.4-4.9z"/>
	<path class="s4" d="m1156.3 106.6q0-0.1 0-0.1 0-0.1 0-0.2 0 0 0 0 0-0.1 0-0.2 0 0 0-0.1 0 0 0-0.1 0 0 0-0.1 0-0.1 0-0.2 0 0 0 0-0.1-0.1-0.1-0.2 0 0 0 0 0-0.1 0-0.2 0 0 0-0.1-0.1 0-0.1-0.1 0 0 0-0.1 0 0 0-0.1-0.1 0-0.1-0.1 0 0 0-0.1 0-0.1-0.1-0.1 0-0.1 0-0.1 0 0 0-0.1-0.1-0.1-0.1-0.1 0-0.1-0.1-0.1 0-0.1 0-0.1 0 0-0.1-0.1 0-0.1-0.1-0.1 0-0.1 0-0.1 0 0-0.1-0.1 0 0 0-0.1 0 0-0.1 0 0-0.1-0.1-0.2 0 0 0 0-0.1-0.1-0.1-0.1-0.1-0.1-0.1-0.1 0-0.1-0.1-0.1 0-0.1-0.1-0.1 0 0-0.1-0.1 0 0 0 0-0.1-0.1-0.2-0.2 0 0 0 0-0.1 0-0.1-0.1 0 0-0.1 0 0 0-0.1-0.1-0.6-0.4-1.4-0.7l-1.5-0.2c-2.3 0-4.1 1.5-4.5 3.7l9.5 1.4q0 0 0 0z"/>
	<path class="s5" d="m1157.4 98l-4.4-1.8-7.3-6.4c-0.8-0.8-1.8-1.2-2.9-1.4l-28.3-4.5c-1.6-0.2-3.1 0.7-3.5 2.1l-2.1 8.4-0.3 3c-0.3 0-0.6 0.1-0.6 0.4l-0.1 1.4c-0.1 0.2 0.1 0.5 0.4 0.5l4.5 0.7q0-0.3 0.1-0.6c0.3-2.4 2.6-4 5.2-3.6 2.6 0.4 4.5 2.7 4.2 5.1q0 0 0 0c0 0.3 0.2 0.6 0.5 0.7l23.7 3.7c0.3 0.1 0.6-0.1 0.7-0.4q0 0 0 0c0.2-2.4 2.6-4.1 5.2-3.6 2.6 0.4 4.5 2.7 4.2 5.1q0 0 0 0c0 0.3 0.2 0.6 0.5 0.6l1.7 0.3 0.7-6.3c0.2-1.4-0.7-2.8-2.1-3.4z"/>
	<path class="s6" d="m1137.5 89.2l-0.2 4.5c0 0.4 0.4 0.8 0.8 0.9l11.8 1.8c0.6 0.1 1-0.5 0.5-1l-5.7-5.3c-0.4-0.4-0.9-0.7-1.5-0.8l-4.7-0.8c-0.5 0-1 0.3-1 0.7z"/>
	<path class="s7" d="m1108.3 100.8l4.5 0.7h0.1q0-0.3 0-0.6c0.1-0.8 0.4-1.6 0.9-2.2l-5.2-0.8v0.5c-0.3 0-0.5 0.2-0.6 0.4l-0.1 1.4c-0.1 0.3 0.1 0.5 0.4 0.6z"/>
	<path class="s4" d="m1117.3 103.6c-1.2-0.2-2-1.3-1.9-2.4 0.1-1.1 1.2-1.8 2.3-1.6 1.2 0.2 2.1 1.2 1.9 2.3-0.1 1.1-1.1 1.8-2.3 1.7z"/>
	<path class="s8" d="m1118.3 101.7q0 0 0 0 0-0.2-0.1-0.4l1-1q-0.3-0.3-0.6-0.5l-0.8 1.2q-0.1-0.1-0.2-0.1-0.1 0-0.2 0l-0.6-1.4q-0.4 0.1-0.7 0.3l0.9 1.3q-0.1 0.1-0.1 0.3 0 0.1 0 0.1l-1.6 0.1q0 0.4 0.2 0.7l1.5-0.4q0.1 0.1 0.3 0.2l-0.4 1.4q0.2 0.1 0.4 0.1 0.2 0 0.4 0.1v-1.5q0.2 0 0.4-0.1l1.2 0.9q0.3-0.3 0.4-0.6z"/>
	<path class="s7" d="m1117.7 101.2q0 0.2-0.1 0.1c-0.1 0-0.2 0-0.1-0.1 0-0.1 0-0.1 0.1-0.1 0.1 0 0.1 0.1 0.1 0.1z"/>
	<path class="s7" d="m1117.6 101.9q0 0.1-0.1 0.1c-0.1 0-0.1-0.1-0.1-0.1 0-0.1 0-0.2 0.1-0.1 0.1 0 0.1 0 0.1 0.1z"/>
	<path class="s7" d="m1117.9 101.7c0 0 0.1 0 0.1-0.1 0 0 0-0.1-0.1-0.1-0.1 0-0.2 0-0.2 0.1q0 0.1 0.2 0.1z"/>
	<path class="s7" d="m1117.2 101.6c-0.1 0-0.1 0-0.1-0.1q0-0.1 0.1-0.1c0.1 0 0.1 0.1 0.1 0.1 0 0.1 0 0.1-0.1 0.1z"/>
	<path class="s9" d="m1117.9 98c-2.2-0.4-4.1 0.9-4.3 2.8-0.2 2 1.4 3.9 3.6 4.3 2.1 0.4 4-0.9 4.2-2.8 0.2-2-1.4-3.9-3.5-4.3zm-0.6 5.6c-1.3-0.2-2.2-1.3-2.1-2.5 0.1-1.1 1.2-1.9 2.5-1.6 1.3 0.2 2.2 1.3 2.1 2.5-0.1 1.1-1.2 1.9-2.5 1.6z"/>
	<path class="s7" d="m1117.8 99.2c-1.4-0.2-2.6 0.7-2.8 2-0.1 1.2 0.9 2.5 2.3 2.7 1.3 0.2 2.5-0.6 2.7-1.9 0.1-1.3-0.8-2.6-2.2-2.8zm-0.5 4.4c-1.2-0.2-2-1.3-1.9-2.4 0.1-1.1 1.2-1.8 2.3-1.6 1.2 0.2 2.1 1.2 1.9 2.3-0.1 1.1-1.1 1.8-2.3 1.7z"/>
	<path class="s4" d="m1151.1 108.1c-1.2-0.1-2-1.2-1.9-2.3 0.1-1.1 1.2-1.8 2.4-1.6 1.1 0.2 2 1.2 1.8 2.3-0.1 1.1-1.1 1.8-2.3 1.6z"/>
	<path class="s8" d="m1152.1 106.3q0 0 0 0 0-0.2-0.1-0.4l1-1q-0.3-0.3-0.6-0.5l-0.8 1.2q-0.1-0.1-0.2-0.1-0.1 0-0.2 0l-0.6-1.4q-0.4 0.1-0.7 0.3l0.9 1.3q-0.1 0.1-0.1 0.3 0 0 0 0.1l-1.6 0.1q0 0.3 0.2 0.7l1.5-0.4q0.1 0.1 0.3 0.2l-0.4 1.4q0.2 0.1 0.4 0.1 0.2 0 0.4 0v-1.4q0.2 0 0.4-0.1l1.3 0.9q0.2-0.3 0.3-0.7z"/>
	<path class="s7" d="m1151.4 105.9c0.1 0.1 0.1 0 0.1-0.1q0-0.1-0.1-0.1c-0.1 0-0.1 0-0.1 0.1q0 0.1 0.1 0.1z"/>
	<path class="s7" d="m1151.5 106.5c-0.1 0.1-0.1 0.1-0.2 0.1q-0.1 0-0.1-0.1c0-0.1 0.1-0.2 0.1-0.1q0.1 0 0.2 0.1z"/>
	<path class="s7" d="m1151.7 106.3q-0.1 0-0.2-0.1c0.1-0.1 0.1-0.1 0.2-0.1q0.1 0 0.1 0.1c0 0.1-0.1 0.1-0.1 0.1z"/>
	<path class="s7" d="m1151 106.2q0.1 0 0.2-0.1c0 0-0.1-0.1-0.2-0.1 0 0-0.1 0-0.1 0.1 0 0 0 0.1 0.1 0.1z"/>
	<path class="s9" d="m1151.7 102.6c-2.2-0.4-4.1 0.9-4.3 2.8-0.2 2 1.4 3.9 3.6 4.3 2.1 0.4 4-0.9 4.2-2.8 0.2-2-1.4-3.9-3.5-4.3zm-0.6 5.6c-1.3-0.2-2.2-1.3-2.1-2.5 0.1-1.1 1.3-1.9 2.5-1.6 1.3 0.2 2.2 1.3 2.1 2.5-0.1 1.1-1.2 1.9-2.5 1.6z"/>
	<path class="s7" d="m1151.6 103.8c-1.4-0.2-2.6 0.7-2.8 1.9-0.1 1.3 0.9 2.6 2.3 2.8 1.3 0.2 2.6-0.6 2.7-1.9 0.2-1.3-0.8-2.6-2.2-2.8zm-0.5 4.3c-1.2-0.1-2-1.2-1.9-2.3 0.1-1.1 1.2-1.8 2.4-1.6 1.1 0.2 2 1.2 1.8 2.3-0.1 1.1-1.1 1.8-2.3 1.6z"/>
	<path class="s10" d="m1121.8 99.4c0.3 0.7 0.5 1.4 0.4 2.2q0 0 0 0c-0.1 0.3 0.2 0.6 0.5 0.6l23.6 3.6c0.3 0.1 0.6-0.1 0.6-0.4q0 0 0 0c0.3-2.4 2.6-3.9 5.2-3.6 2.6 0.4 4.5 2.7 4.2 5q0 0 0 0c0 0.3 0.2 0.6 0.5 0.6l1.7 0.3 0.6-5.4c-1.7-0.4-4.5-1-7.3-1.4-4.5-0.7-5.6 2.2-5.6 2.2l-17.7-2.7z"/>
	<path class="s11" d="m1156.7 107.4l2.5 0.4c0.5 0 0.8-0.2 0.9-0.6l0.4-3.2c0-0.4-0.3-0.8-0.7-0.9l-5.6-0.8c1.4 1 2.2 2.7 2 4.4q0 0 0 0c0 0.3 0.2 0.6 0.5 0.7z"/>
	<path class="s10" d="m1108.6 98.4v0.1c-0.3-0.1-0.5 0.1-0.6 0.3l-0.1 1.5c-0.1 0.3 0.1 0.5 0.4 0.5l4.5 0.7q0-0.3 0.1-0.6 0.1-1 0.6-1.8z"/>
	<path class="s12" d="m1150.5 97.3l-1.2-0.2c-0.2-0.1-0.3-0.2-0.2-0.3l0.4-1.5c0.1-0.1 0.2-0.1 0.3-0.1l0.9 0.1c0.8 0.2 1.3 0.7 1.3 1.2-0.1 0.6-0.7 0.9-1.5 0.8z"/>
	<path class="s7" d="m1150.6 96.7l-1.2-0.2q-0.1 0-0.2-0.1l-0.1 0.4c-0.1 0.1 0 0.3 0.2 0.3l1.2 0.2c0.8 0.1 1.4-0.2 1.5-0.8q0-0.1-0.1-0.3c-0.2 0.4-0.7 0.6-1.3 0.5z"/>
	<path class="s7" d="m1159.3 100.9c0.1-0.7-0.1-1.5-0.5-2.1l-1.7-0.2c0 0 0.2 2.1 1.8 2.5q0.2 0.1 0.3 0.1z"/>
	<path class="s12" d="m1159 100.9c-1-0.3-1.4-1.4-1.5-2l1.1 0.2c0.3 0.5 0.5 1.1 0.4 1.8z"/>
	<path class="s13" d="m1144.3 90.2q-0.5-0.4-1.1-0.5l-0.9-0.2-3.3 5 2.2 0.3z"/>
	<path class="s13" d="m1146 91.7l-1.2-1-2.8 4.2 1.6 0.3z"/>
	<path fill-rule="evenodd" class="s0" d="m1088.2 74.7l20.1 13.6"/>
	<path fill-rule="evenodd" class="s0" d="m1084.4 81.8l22.6 8.8"/>
	<path fill-rule="evenodd" class="s0" d="m1082.8 88.8l23.9 4.1"/>
	<path fill-rule="evenodd" class="s14" d="m1125.2 88.1l3.1 0.4-1.3 9.3-3.1-0.4z"/>
	<path fill-rule="evenodd" class="s14" d="m1131 92l-0.4 3.1-9.4-1.2 0.4-3.1z"/>
	<path class="s17" d="m1228.9 85.3c-9.9-16.8-24.2-50.4-2.5-50.8 21.7-0.3 10.7 33.7 2.5 50.8z"/>
	<path fill-rule="evenodd" class="s18" d="m1227.4 54.4c-4.5 0.5-8.5-2.8-9-7.3-0.5-4.5 2.8-8.6 7.3-9 4.6-0.5 8.6 2.8 9.1 7.3 0.4 4.5-2.8 8.5-7.4 9z"/>
</svg>