<svg width="1243" height="117" viewBox="0 0 1243 117" fill="none" xmlns="http://www.w3.org/2000/svg">
<path d="M70.7607 63.9049L69.1856 64.0308C67.605 64.4197 66.341 65.5669 65.7973 67.0206C65.7163 67.2372 65.6511 67.4609 65.6034 67.6897C65.603 67.6917 65.6024 67.6936 65.602 67.6956C65.5871 67.7673 65.5743 67.8396 65.5628 67.9122C65.562 67.9178 65.5608 67.9234 65.56 67.929C65.5495 67.9971 65.5412 68.0656 65.5338 68.1342C65.5327 68.1447 65.531 68.1551 65.5299 68.1655C65.5235 68.2299 65.5193 68.295 65.5157 68.36C65.5149 68.3748 65.5134 68.3892 65.5126 68.4039C65.5098 68.4663 65.509 68.5291 65.5087 68.592C65.5086 68.6093 65.5076 68.6267 65.5078 68.644C65.5082 68.6802 65.5104 68.7168 65.5116 68.7531L74.9697 67.9971C74.7706 65.784 72.975 64.0887 70.7607 63.9049Z" fill="#231F20"/>
<path d="M109.167 65.538C109.165 65.5192 109.163 65.5006 109.161 65.482C109.154 65.4228 109.145 65.364 109.136 65.3056C109.134 65.2945 109.133 65.2834 109.131 65.2726C109.12 65.2053 109.107 65.1388 109.092 65.0727C109.088 65.0551 109.084 65.0374 109.08 65.0198C109.068 64.9671 109.055 64.9146 109.041 64.8626C109.037 64.8465 109.033 64.8304 109.028 64.8144C109.011 64.7509 108.991 64.6879 108.971 64.6256C108.966 64.6094 108.96 64.5934 108.954 64.5774C108.938 64.5286 108.92 64.4804 108.902 64.4325C108.895 64.4135 108.888 64.3944 108.88 64.3756C108.856 64.3162 108.832 64.2574 108.806 64.1993C108.799 64.1852 108.793 64.1714 108.786 64.1574C108.765 64.1115 108.743 64.0658 108.72 64.0209C108.71 64 108.699 63.9792 108.688 63.9585C108.665 63.9131 108.64 63.8683 108.615 63.8239C108.604 63.8043 108.592 63.7848 108.581 63.7655C108.555 63.7201 108.527 63.6756 108.499 63.6312C108.485 63.6089 108.47 63.587 108.456 63.565C108.433 63.5306 108.409 63.4967 108.386 63.463C108.372 63.443 108.358 63.4229 108.344 63.4031C108.31 63.3567 108.275 63.3112 108.239 63.2661C108.221 63.2429 108.202 63.2202 108.184 63.1975C108.162 63.1706 108.139 63.1439 108.116 63.1175C108.096 63.0944 108.077 63.0713 108.056 63.0487C108.02 63.0079 107.983 62.9678 107.945 62.9283C107.922 62.9047 107.898 62.8817 107.875 62.8586C107.854 62.8374 107.832 62.8164 107.811 62.7955C107.786 62.7717 107.76 62.7478 107.735 62.7245C107.713 62.7045 107.69 62.685 107.668 62.6654C107.623 62.6262 107.578 62.5878 107.532 62.5503C107.512 62.5341 107.492 62.5181 107.472 62.5022C107.442 62.4789 107.412 62.4559 107.382 62.4333C107.363 62.4193 107.344 62.4057 107.325 62.3921C107.268 62.3515 107.211 62.3119 107.153 62.2737C107.136 62.2627 107.119 62.2517 107.103 62.2408C107.069 62.2193 107.034 62.1982 107 62.1776C106.982 62.1666 106.963 62.1561 106.945 62.1455C106.868 62.1005 106.789 62.0572 106.709 62.0163C106.708 62.0158 106.706 62.0152 106.705 62.0148C106.668 61.9959 106.63 61.9778 106.592 61.9599C106.574 61.9512 106.555 61.9424 106.537 61.934C106.499 61.9167 106.46 61.8993 106.422 61.8829C105.968 61.6907 105.478 61.5674 104.966 61.5249L103.39 61.6508C101.22 62.185 99.6462 64.1498 99.7164 66.3734L109.175 65.6175C109.172 65.5909 109.17 65.5641 109.167 65.538Z" fill="#231F20"/>
<path d="M70.3964 70.6517C69.2393 70.7475 68.2475 69.9108 68.1812 68.7832C68.115 67.6556 68.9994 66.6637 70.1565 66.568C71.3137 66.4723 72.3055 67.3089 72.3717 68.4365C72.438 69.5642 71.5535 70.556 70.3964 70.6517Z" fill="#231F20"/>
<path d="M71.0176 68.575C71.0179 68.5587 71.0184 68.5425 71.0176 68.5262C71.0095 68.3717 70.9461 68.2354 70.8473 68.1318L71.6929 66.9101C71.497 66.7637 71.273 66.6506 71.03 66.578L70.476 67.9387C70.4172 67.929 70.3559 67.9261 70.2929 67.932C70.2108 67.9398 70.1331 67.9616 70.0614 67.9936L69.2651 66.7697C69.0325 66.8951 68.8242 67.0573 68.649 67.2471L69.7352 68.2777C69.6666 68.3897 69.6299 68.5204 69.637 68.6566C69.6378 68.6716 69.6399 68.6862 69.6417 68.7009L68.1293 69.2409C68.195 69.4837 68.3053 69.7064 68.4509 69.9018L69.8171 69.0617C69.9033 69.148 70.0153 69.2094 70.141 69.2372L70.0126 70.7332C70.1356 70.7416 70.2611 70.7407 70.389 70.7286C70.5224 70.716 70.6522 70.6918 70.7782 70.6582L70.5627 69.2031C70.689 69.1534 70.7972 69.0707 70.8768 68.9673L72.2405 69.5117C72.3577 69.2941 72.4381 69.0573 72.4744 68.8098L71.0176 68.575Z" fill="#E6E7E8"/>
<path d="M70.4157 68.2447C70.4191 68.3149 70.3614 68.3781 70.2868 68.3857C70.2123 68.3933 70.1489 68.3425 70.1455 68.2724C70.142 68.2021 70.1998 68.1391 70.2743 68.1314C70.3489 68.1238 70.4122 68.1744 70.4157 68.2447Z" fill="#D1D3D4"/>
<path d="M70.4624 68.9148C70.4658 68.9849 70.408 69.0481 70.3335 69.0557C70.2589 69.0634 70.1956 69.0126 70.1921 68.9424C70.1887 68.8723 70.2465 68.8091 70.321 68.8015C70.3955 68.7938 70.4589 68.8446 70.4624 68.9148Z" fill="#D1D3D4"/>
<path d="M70.6455 68.6974C70.72 68.69 70.7776 68.6269 70.7741 68.5565C70.7705 68.4861 70.7072 68.435 70.6327 68.4424C70.5582 68.4498 70.5006 68.5129 70.5041 68.5833C70.5077 68.6538 70.571 68.7048 70.6455 68.6974Z" fill="#D1D3D4"/>
<path d="M69.9752 68.7444C69.9007 68.7518 69.8373 68.7007 69.8338 68.6303C69.8303 68.56 69.8879 68.4968 69.9624 68.4894C70.0368 68.482 70.1002 68.5331 70.1037 68.6035C70.1072 68.6738 70.0496 68.737 69.9752 68.7444Z" fill="#D1D3D4"/>
<path d="M70.0936 64.9566C67.9648 65.1689 66.3211 66.9765 66.4221 68.9939C66.5231 71.0113 68.3306 72.4745 70.4593 72.2622C72.588 72.0499 74.2318 70.2424 74.1308 68.225C74.03 66.2077 72.2225 64.7443 70.0936 64.9566ZM70.3845 70.7677C69.1268 70.8931 68.0589 70.0286 67.9993 68.8367C67.9396 67.6448 68.9107 66.5769 70.1684 66.4515C71.4261 66.326 72.494 67.1905 72.5536 68.3824C72.6133 69.5744 71.6422 70.6422 70.3845 70.7677Z" fill="#75787A"/>
<path d="M70.1353 66.2061C68.7732 66.3188 67.7322 67.4862 67.8102 68.8136C67.8882 70.1409 69.0556 71.1257 70.4177 71.013C71.7797 70.9003 72.8207 69.7329 72.7427 68.4055C72.665 67.0782 71.4975 66.0934 70.1353 66.2061ZM70.3964 70.6516C69.2393 70.7473 68.2475 69.9107 68.1812 68.783C68.115 67.6554 68.9994 66.6636 70.1566 66.5679C71.3137 66.4721 72.3055 67.3087 72.3718 68.4364C72.438 69.564 71.5536 70.5559 70.3964 70.6516Z" fill="#D1D3D4"/>
<rect width="7.37673" height="2.06945" transform="matrix(0.997225 -0.0738419 0.0650668 0.997845 55.8489 65.4199)" fill="#545353"/>
<path d="M108.399 56.2465L103.834 55.4298L95.5412 50.6534C94.6243 50.1252 93.5545 49.888 92.4781 49.9738L64.2082 52.2276C62.578 52.3576 61.2763 53.6448 61.1774 55.225L60.61 64.2863L60.7817 67.4369C60.5127 67.4583 60.3074 67.6866 60.3232 67.9465L60.4126 69.4197C60.4283 69.6797 60.6593 69.8731 60.9282 69.8517L65.4377 69.4922L65.4347 69.4432L65.4746 69.44C65.4372 69.2496 65.4106 69.055 65.3986 68.8557C65.2457 66.3363 67.2419 64.1175 69.8484 63.9097C72.4549 63.7019 74.6998 65.5826 74.8527 68.102C74.8528 68.104 74.8529 68.1061 74.8531 68.108C74.872 68.4276 75.1487 68.6687 75.4793 68.6424L99.1844 66.7525C99.5104 66.7265 99.7524 66.4477 99.7323 66.1327C99.732 66.128 99.7317 66.1232 99.7314 66.1185C99.5785 63.5991 101.575 61.3803 104.181 61.1725C106.788 60.9647 109.032 62.8454 109.185 65.3648C109.186 65.3695 109.186 65.3743 109.186 65.379C109.204 65.6942 109.478 65.9318 109.804 65.9058L111.484 65.7719L111.085 59.1985C110.996 57.7241 109.895 56.514 108.399 56.2465Z" fill="#F1F2F2"/>
<path d="M87.511 52.6301L88.1261 57.1976C88.1825 57.6161 88.5627 57.9134 88.997 57.8786L100.798 56.9324C101.407 56.8836 101.621 56.1103 101.113 55.7931L94.6773 51.7721C94.1984 51.4518 93.6181 51.3014 93.0313 51.3458L88.2891 51.7018C87.8068 51.7379 87.4484 52.1655 87.511 52.6301Z" fill="#010101"/>
<path d="M61.088 69.8513L65.6063 69.4883L65.6033 69.4388L65.6433 69.4356C65.6058 69.2435 65.5792 69.0471 65.5671 68.8459C65.5156 67.9926 65.7076 67.1739 66.0829 66.4541L60.9117 66.8696L60.9411 67.4139C60.6716 67.4355 60.4659 67.6659 60.4817 67.9283L60.5713 69.4152C60.5871 69.6777 60.8185 69.873 61.088 69.8513Z" fill="#D1D3D4"/>
<path d="M109.783 66.3731L112.33 66.1678C112.743 66.1345 113.058 65.7809 113.033 65.3778L112.84 62.1544C112.815 61.7513 112.461 61.4516 112.049 61.4848L106.392 61.9409C107.939 62.5996 109.056 64.0599 109.163 65.8326C109.163 65.8346 109.163 65.8366 109.163 65.8386C109.182 66.1582 109.456 66.3995 109.783 66.3731Z" fill="#363434"/>
<path d="M32.9103 57.2694C32.9718 56.2626 33.7711 55.4517 34.7758 55.3768L54.4192 53.9133C55.4239 53.8384 56.3202 54.523 56.511 55.511L58.9321 68.0479C59.1601 69.2288 58.2999 70.3522 57.0991 70.4416L34.2544 72.1437C33.0536 72.2332 32.0567 71.2482 32.1302 70.0448L32.9103 57.2694Z" fill="#F1F2F2"/>
<path d="M45.4646 74.0648C44.3088 74.1585 43.3169 73.3187 43.2495 72.1891C43.182 71.0595 44.0644 70.0677 45.2203 69.9739C46.3761 69.8801 47.368 70.7199 47.4355 71.8496C47.5029 72.9792 46.6205 73.971 45.4646 74.0648Z" fill="#231F20"/>
<path d="M46.0831 71.9857C46.0834 71.9694 46.0839 71.9531 46.083 71.9368C46.0749 71.782 46.0114 71.6454 45.9126 71.5415L46.7569 70.3194C46.561 70.1724 46.337 70.0588 46.0941 69.9857L45.5413 71.3475C45.4825 71.3378 45.4213 71.3347 45.3583 71.3406C45.2763 71.3483 45.1987 71.3699 45.127 71.4019L44.3303 70.1749C44.0979 70.3002 43.8899 70.4622 43.7149 70.652L44.8012 71.6859C44.7327 71.798 44.6961 71.9288 44.7033 72.0652C44.7041 72.0803 44.7062 72.0948 44.7081 72.1096L43.1969 72.648C43.2627 72.8912 43.3731 73.1144 43.5188 73.3104L44.8836 72.4712C44.9698 72.5578 45.0818 72.6194 45.2074 72.6474L45.0802 74.1455C45.2031 74.1541 45.3286 74.1534 45.4564 74.1415C45.5897 74.1291 45.7194 74.105 45.8452 74.0716L45.6289 72.6139C45.7551 72.5644 45.8632 72.4818 45.9426 72.3784L47.306 72.9257C47.4229 72.708 47.5031 72.471 47.5393 72.2231L46.0831 71.9857Z" fill="#E6E7E8"/>
<path d="M45.4816 71.6543C45.485 71.7245 45.4273 71.7877 45.3528 71.7952C45.2783 71.8028 45.2149 71.7518 45.2115 71.6816C45.208 71.6112 45.2657 71.5482 45.3402 71.5406C45.4147 71.5331 45.4781 71.5839 45.4816 71.6543Z" fill="#D1D3D4"/>
<path d="M45.5282 72.3246C45.5317 72.3948 45.474 72.458 45.3995 72.4655C45.325 72.4731 45.2616 72.4221 45.2581 72.3519C45.2547 72.2817 45.3124 72.2185 45.3869 72.2109C45.4614 72.2034 45.5248 72.2543 45.5282 72.3246Z" fill="#D1D3D4"/>
<path d="M45.7115 72.1072C45.786 72.0999 45.8435 72.0368 45.84 71.9663C45.8364 71.8958 45.7731 71.8446 45.6986 71.8519C45.6241 71.8593 45.5666 71.9224 45.5702 71.9929C45.5737 72.0634 45.637 72.1146 45.7115 72.1072Z" fill="#D1D3D4"/>
<path d="M45.0411 72.1545C44.9667 72.1618 44.9033 72.1106 44.8998 72.0401C44.8962 71.9697 44.9538 71.9065 45.0283 71.8992C45.1027 71.8918 45.166 71.9431 45.1696 72.0135C45.1732 72.0839 45.1156 72.1471 45.0411 72.1545Z" fill="#D1D3D4"/>
<path d="M45.1576 68.3612C43.0299 68.5707 41.3879 70.3782 41.4899 72.3984C41.592 74.4187 43.3995 75.8865 45.5272 75.6771C47.6549 75.4676 49.2969 73.66 49.1949 71.6398C49.093 69.6197 47.2855 68.1517 45.1576 68.3612ZM45.4516 74.1804C44.1945 74.3042 43.1266 73.437 43.0664 72.2434C43.0061 71.0498 43.9762 69.9819 45.2332 69.8581C46.4903 69.7344 47.5582 70.6016 47.6185 71.7952C47.6788 72.9888 46.7086 74.0566 45.4516 74.1804Z" fill="#75787A"/>
<path d="M45.1986 69.6116C43.838 69.7219 42.7994 70.8893 42.8789 72.219C42.9583 73.5487 44.1257 74.5372 45.4863 74.4268C46.8469 74.3164 47.8855 73.149 47.8061 71.8194C47.7268 70.4897 46.5594 69.5012 45.1986 69.6116ZM45.4647 74.0648C44.3088 74.1585 43.317 73.3187 43.2495 72.1891C43.182 71.0595 44.0644 70.0677 45.2203 69.9739C46.3762 69.8802 47.368 70.72 47.4355 71.8496C47.503 72.9792 46.6206 73.971 45.4647 74.0648Z" fill="#D1D3D4"/>
<path d="M104.442 68.2822C103.285 68.378 102.293 67.5413 102.226 66.4137C102.16 65.286 103.045 64.2942 104.202 64.1985C105.359 64.1028 106.351 64.9394 106.417 66.067C106.483 67.1947 105.599 68.1865 104.442 68.2822Z" fill="#231F20"/>
<path d="M105.063 66.2056C105.063 66.1894 105.064 66.1731 105.063 66.1568C105.055 66.0023 104.991 65.866 104.893 65.7624L105.738 64.5407C105.542 64.3943 105.318 64.2812 105.075 64.2086L104.521 65.5693C104.462 65.5596 104.401 65.5567 104.338 65.5627C104.256 65.5704 104.178 65.5922 104.107 65.6242L103.31 64.4003C103.078 64.5258 102.869 64.6879 102.694 64.8777L103.781 65.9083C103.712 66.0204 103.675 66.151 103.682 66.2873C103.683 66.3023 103.685 66.3168 103.687 66.3316L102.175 66.8716C102.24 67.1143 102.351 67.337 102.496 67.5324L103.862 66.6924C103.949 66.7786 104.061 66.84 104.186 66.8678L104.058 68.3638C104.181 68.3722 104.306 68.3713 104.434 68.3592C104.568 68.3466 104.698 68.3224 104.823 68.2889L104.608 66.8337C104.734 66.784 104.843 66.7014 104.922 66.5979L106.286 67.1423C106.403 66.9247 106.483 66.6879 106.52 66.4404L105.063 66.2056Z" fill="#E6E7E8"/>
<path d="M104.332 66.0159C104.406 66.0083 104.464 65.9452 104.461 65.875C104.457 65.8048 104.394 65.754 104.319 65.7617C104.245 65.7693 104.187 65.8324 104.19 65.9026C104.194 65.9729 104.257 66.0236 104.332 66.0159Z" fill="#D1D3D4"/>
<path d="M104.508 66.5453C104.511 66.6154 104.453 66.6786 104.379 66.6862C104.304 66.6939 104.241 66.6431 104.237 66.5729C104.234 66.5028 104.292 66.4396 104.366 66.432C104.441 66.4243 104.504 66.4751 104.508 66.5453Z" fill="#D1D3D4"/>
<path d="M104.691 66.3284C104.616 66.3358 104.553 66.2847 104.549 66.2143C104.546 66.144 104.603 66.0808 104.678 66.0734C104.752 66.066 104.816 66.1171 104.819 66.1875C104.823 66.2578 104.765 66.321 104.691 66.3284Z" fill="#D1D3D4"/>
<path d="M104.02 66.3749C104.095 66.3675 104.152 66.3044 104.149 66.234C104.145 66.1635 104.082 66.1125 104.008 66.1199C103.933 66.1273 103.875 66.1904 103.879 66.2608C103.883 66.3312 103.946 66.3823 104.02 66.3749Z" fill="#D1D3D4"/>
<path d="M104.139 62.5872C102.01 62.7996 100.366 64.6071 100.467 66.6245C100.568 68.6419 102.376 70.1052 104.505 69.8928C106.633 69.6805 108.277 67.873 108.176 65.8556C108.075 63.8383 106.268 62.3749 104.139 62.5872ZM104.43 68.3983C103.172 68.5237 102.104 67.6592 102.045 66.4673C101.985 65.2754 102.956 64.2076 104.214 64.0821C105.471 63.9567 106.539 64.8212 106.599 66.0131C106.659 67.205 105.687 68.2728 104.43 68.3983Z" fill="#75787A"/>
<path d="M104.181 63.8367C102.819 63.9494 101.778 65.1168 101.855 66.4442C101.933 67.7715 103.101 68.7563 104.463 68.6436C105.825 68.5309 106.866 67.3635 106.788 66.0361C106.71 64.7088 105.543 63.7241 104.181 63.8367ZM104.442 68.2822C103.285 68.3779 102.293 67.5413 102.226 66.4137C102.16 65.286 103.045 64.2942 104.202 64.1985C105.359 64.1027 106.351 64.9394 106.417 66.067C106.483 67.1947 105.599 68.1865 104.442 68.2822Z" fill="#D1D3D4"/>
<path d="M74.1259 66.049C74.5819 66.68 74.8688 67.4341 74.9196 68.2591C74.9197 68.261 74.9198 68.2631 74.9199 68.265C74.9386 68.5768 75.2148 68.8119 75.5447 68.7861L99.2063 66.9293C99.5317 66.9038 99.7734 66.6317 99.7534 66.3243C99.7532 66.3196 99.7529 66.315 99.7526 66.3104C99.6012 63.852 101.594 61.6858 104.196 61.4817C106.798 61.2775 109.038 63.1115 109.189 65.57C109.189 65.5746 109.19 65.5792 109.19 65.5838C109.208 65.8914 109.481 66.1231 109.806 66.0976L111.483 65.9659L111.133 60.2808C109.401 60.3036 106.508 60.3755 103.672 60.5981C99.2091 60.9483 98.6382 64.1256 98.6382 64.1256L80.8456 65.5217L74.1259 66.049Z" fill="#545353"/>
<path d="M60.9432 67.3581L60.9457 67.3996C60.6768 67.4201 60.4725 67.6509 60.4893 67.9151L60.5846 69.4121C60.6014 69.6763 60.833 69.874 61.1019 69.8536L65.6089 69.5111L65.6058 69.4614L65.6456 69.4583C65.6074 69.2647 65.5801 69.0669 65.5672 68.8644C65.5254 68.2076 65.626 67.572 65.8414 66.986L60.9432 67.3581Z" fill="#545353"/>
<path d="M101.678 57.7275L100.476 57.8266C100.324 57.8392 100.202 57.714 100.222 57.5662L100.429 56.0172C100.445 55.904 100.54 55.8151 100.656 55.8055L101.56 55.7309C102.314 55.6688 102.951 56.0653 102.983 56.6165C103.016 57.168 102.431 57.6653 101.678 57.7275Z" fill="white"/>
<path d="M101.647 57.1351L100.449 57.2334C100.385 57.2386 100.327 57.2195 100.281 57.1848L100.23 57.5682C100.21 57.7147 100.332 57.8388 100.484 57.8264L101.682 57.7281C102.433 57.6665 103.016 57.1735 102.983 56.627C102.977 56.5237 102.95 56.4258 102.904 56.3355C102.754 56.7515 102.256 57.0852 101.647 57.1351Z" fill="#D1D3D4"/>
<path d="M111.015 59.5095C110.966 58.7402 110.653 58.0403 110.159 57.5015L108.496 57.6283C108.496 57.6283 109.062 59.7174 110.725 59.7667C110.831 59.7698 110.933 59.7709 111.031 59.7701L111.015 59.5095Z" fill="#D1D3D4"/>
<path d="M110.722 59.4836C109.675 59.4433 109.117 58.4256 108.893 57.8835L110.032 57.7967C110.429 58.2726 110.672 58.865 110.722 59.4836Z" fill="white"/>
<path d="M94.2523 51.8999C93.8828 51.7155 93.4649 51.6321 93.042 51.6652L92.1943 51.731L89.7988 57.4455L92.0043 57.2631L94.2523 51.8999Z" fill="#28211F"/>
<path d="M96.1434 53.1216L94.9038 52.3471L92.8545 57.2335L94.4751 57.0995L96.1434 53.1216Z" fill="#28211F"/>
<path d="M587.45 85.8157L585.883 85.5508C584.259 85.538 582.796 86.3339 581.977 87.6018C581.856 87.7908 581.748 87.9904 581.656 88.1993C581.655 88.2011 581.654 88.2027 581.653 88.2046C581.625 88.27 581.598 88.3366 581.572 88.4038C581.571 88.409 581.568 88.4141 581.566 88.4193C581.543 88.4824 581.521 88.5464 581.5 88.6107C581.497 88.6205 581.494 88.6301 581.49 88.6399C581.471 88.7005 581.455 88.7622 581.438 88.8239C581.434 88.8379 581.43 88.8515 581.426 88.8655C581.411 88.9249 581.398 88.9853 581.386 89.0459C581.382 89.0625 581.378 89.079 581.375 89.0957C581.368 89.1307 581.363 89.1665 581.357 89.2018L590.764 90.7927C591.005 88.6105 589.581 86.5359 587.45 85.8157Z" fill="#231F20"/>
<path d="M624.659 95.9434C624.661 95.9248 624.662 95.9063 624.664 95.8878C624.669 95.829 624.672 95.7703 624.674 95.7117C624.675 95.7006 624.676 95.6895 624.676 95.6786C624.678 95.6109 624.678 95.5437 624.677 95.4765C624.677 95.4585 624.676 95.4405 624.676 95.4225C624.675 95.3687 624.672 95.3149 624.669 95.2614C624.668 95.2448 624.667 95.2283 624.666 95.2118C624.661 95.1463 624.654 95.0808 624.647 95.0157C624.645 94.9988 624.642 94.982 624.64 94.9651C624.633 94.9141 624.626 94.8633 624.617 94.8126C624.614 94.7925 624.611 94.7724 624.607 94.7524C624.595 94.6894 624.583 94.6266 624.569 94.5643C624.566 94.5491 624.561 94.5341 624.558 94.5191C624.546 94.4696 624.534 94.4202 624.52 94.3713C624.514 94.3485 624.508 94.326 624.501 94.3034C624.487 94.2538 624.472 94.2046 624.456 94.1555C624.449 94.134 624.442 94.1124 624.434 94.091C624.417 94.0408 624.399 93.991 624.38 93.9414C624.371 93.9164 624.361 93.8918 624.351 93.8669C624.335 93.8281 624.319 93.7898 624.303 93.7515C624.293 93.7288 624.283 93.706 624.273 93.6834C624.249 93.6304 624.224 93.578 624.198 93.5258C624.185 93.4989 624.171 93.4725 624.157 93.446C624.141 93.4146 624.124 93.3834 624.107 93.3524C624.092 93.3252 624.077 93.2981 624.062 93.2713C624.034 93.2231 624.005 93.1752 623.976 93.1279C623.958 93.0996 623.94 93.0717 623.922 93.0436C623.905 93.018 623.888 92.9924 623.871 92.967C623.851 92.9379 623.831 92.9087 623.811 92.88C623.793 92.8553 623.775 92.8311 623.757 92.8067C623.721 92.7579 623.684 92.7097 623.646 92.6623C623.63 92.6417 623.614 92.6214 623.597 92.6012C623.572 92.5714 623.548 92.5419 623.522 92.5127C623.507 92.4946 623.491 92.4768 623.475 92.459C623.427 92.4059 623.379 92.3538 623.33 92.3027C623.315 92.2879 623.301 92.2732 623.287 92.2587C623.258 92.2296 623.229 92.2008 623.199 92.1724C623.183 92.1575 623.168 92.1429 623.152 92.1282C623.085 92.0658 623.016 92.0047 622.946 91.9457C622.945 91.9448 622.944 91.944 622.943 91.9434C622.91 91.916 622.876 91.8893 622.843 91.8627C622.827 91.8498 622.81 91.8368 622.793 91.8242C622.76 91.798 622.725 91.7719 622.691 91.7467C622.285 91.4502 621.83 91.2112 621.336 91.0445L619.769 90.7795C617.539 90.7622 615.612 92.2702 615.243 94.4309L624.651 96.0218C624.653 95.9954 624.657 95.9692 624.659 95.9434Z" fill="#231F20"/>
<path d="M585.719 92.2572C584.561 92.0546 583.744 90.9942 583.894 89.8888C584.044 88.7835 585.105 88.0516 586.262 88.2542C587.42 88.4568 588.237 89.5172 588.087 90.6226C587.937 91.7279 586.877 92.4598 585.719 92.2572Z" fill="#231F20"/>
<path d="M586.724 90.4288C586.727 90.4133 586.73 90.3977 586.732 90.3817C586.752 90.2305 586.713 90.0813 586.634 89.9539L587.684 89.0104C587.517 88.8147 587.316 88.6434 587.089 88.5058L586.302 89.6644C586.246 89.6387 586.186 89.6189 586.123 89.6072C586.041 89.5918 585.96 89.5912 585.884 89.6022L585.316 88.2002C585.064 88.2565 584.83 88.3551 584.624 88.4895L585.512 89.7856C585.425 89.8746 585.365 89.9905 585.348 90.1239C585.346 90.1386 585.346 90.1532 585.345 90.1679L583.758 90.2685C583.78 90.521 583.85 90.7664 583.959 90.9954L585.454 90.5647C585.524 90.6719 585.623 90.7622 585.742 90.824L585.351 92.2315C585.471 92.2738 585.595 92.3078 585.723 92.3317C585.856 92.3566 585.989 92.3693 586.119 92.372L586.164 90.9083C586.297 90.8955 586.419 90.8458 586.515 90.7682L587.763 91.6724C587.917 91.495 588.038 91.2889 588.118 91.0602L586.724 90.4288Z" fill="#E6E7E8"/>
<path d="M586.207 89.9397C586.198 90.009 586.13 90.054 586.056 90.04C585.981 90.0259 585.928 89.9582 585.937 89.8889C585.946 89.8194 586.013 89.7746 586.088 89.7886C586.162 89.8026 586.215 89.8702 586.207 89.9397Z" fill="#D1D3D4"/>
<path d="M586.104 90.6038C586.095 90.6732 586.028 90.7182 585.953 90.7041C585.879 90.6901 585.826 90.6224 585.834 90.5531C585.843 90.4837 585.911 90.4388 585.985 90.4528C586.06 90.4668 586.113 90.5345 586.104 90.6038Z" fill="#D1D3D4"/>
<path d="M586.337 90.4226C586.412 90.4364 586.479 90.3914 586.488 90.322C586.497 90.2527 586.444 90.1852 586.369 90.1714C586.295 90.1576 586.227 90.2026 586.218 90.2719C586.209 90.3413 586.262 90.4087 586.337 90.4226Z" fill="#D1D3D4"/>
<path d="M585.673 90.3205C585.598 90.3067 585.545 90.2392 585.554 90.1699C585.563 90.1006 585.63 90.0555 585.705 90.0694C585.779 90.0832 585.833 90.1507 585.824 90.22C585.815 90.2893 585.747 90.3343 585.673 90.3205Z" fill="#D1D3D4"/>
<path d="M586.442 86.6723C584.308 86.2674 582.375 87.5433 582.126 89.5223C581.876 91.5012 583.405 93.4337 585.539 93.8387C587.674 94.2436 589.606 92.9676 589.855 90.9887C590.105 89.0099 588.577 87.0773 586.442 86.6723ZM585.724 92.3726C584.463 92.1334 583.56 90.9916 583.707 89.8225C583.855 88.6533 584.996 87.8994 586.257 88.1387C587.518 88.3779 588.421 89.5196 588.274 90.6888C588.127 91.858 586.985 92.6118 585.724 92.3726Z" fill="#75787A"/>
<path d="M586.311 87.8995C584.948 87.661 583.7 88.5224 583.523 89.8235C583.346 91.1247 584.308 92.3728 585.671 92.6113C587.033 92.8498 588.282 91.9883 588.458 90.6872C588.635 89.3861 587.674 88.138 586.311 87.8995ZM585.719 92.257C584.561 92.0544 583.744 90.994 583.894 89.8887C584.044 88.7833 585.105 88.0514 586.262 88.254C587.42 88.4567 588.237 89.5171 588.087 90.6224C587.937 91.7278 586.877 92.4596 585.719 92.257Z" fill="#D1D3D4"/>
<rect width="7.38901" height="2.06138" transform="matrix(0.987198 0.157429 -0.14693 0.988879 572.612 83.9272)" fill="#545353"/>
<path d="M625.891 87.1724L621.588 85.2736L614.421 78.6515C613.628 77.9193 612.629 77.4301 611.559 77.2505L583.469 72.5355C581.85 72.2636 580.323 73.1867 579.914 74.685L577.572 83.2771L577.118 86.3545C576.851 86.3096 576.605 86.4795 576.57 86.7338L576.366 88.1749C576.33 88.4293 576.518 88.6719 576.785 88.7168L581.266 89.4689L581.273 89.421L581.313 89.4276C581.313 89.235 581.326 89.0411 581.353 88.8462C581.701 86.3816 584.091 84.7301 586.681 85.1648C589.27 85.5996 591.095 87.9584 590.747 90.423C590.747 90.4249 590.747 90.427 590.747 90.4289C590.702 90.7414 590.925 91.0411 591.254 91.0963L614.808 95.05C615.132 95.1044 615.423 94.8948 615.466 94.5863C615.466 94.5817 615.467 94.5771 615.468 94.5725C615.815 92.1079 618.205 90.4564 620.795 90.8911C623.385 91.3258 625.209 93.6846 624.861 96.1493C624.861 96.1539 624.86 96.1585 624.859 96.1631C624.815 96.4712 625.035 96.7668 625.359 96.8211L627.029 97.1014L627.936 90.671C628.139 89.2287 627.301 87.7946 625.891 87.1724Z" fill="#F1F2F2"/>
<path d="M606.262 78.3216L605.967 82.8793C605.94 83.2969 606.254 83.6771 606.686 83.75L618.422 85.7323C619.028 85.8345 619.389 85.1409 618.954 84.7103L613.445 79.2519C613.039 78.8254 612.501 78.5379 611.918 78.4368L607.206 77.6169C606.727 77.5333 606.292 77.8579 606.262 78.3216Z" fill="#010101"/>
<path d="M576.787 89.3649L581.283 90.126L581.29 90.0775L581.329 90.0843C581.33 89.8895 581.343 89.6933 581.37 89.4961C581.487 88.6595 581.836 87.9163 582.345 87.3135L577.199 86.4424L577.121 86.9752C576.853 86.9298 576.607 87.1016 576.571 87.3589L576.367 88.8166C576.331 89.074 576.519 89.3195 576.787 89.3649Z" fill="#D1D3D4"/>
<path d="M625.075 96.7769L627.613 97.2081C628.024 97.278 628.402 97.0138 628.457 96.6179L628.899 93.4519C628.954 93.056 628.666 92.6785 628.254 92.6086L622.618 91.6506C624.006 92.6705 624.816 94.3594 624.573 96.1006C624.572 96.1025 624.572 96.1045 624.572 96.1064C624.528 96.4202 624.749 96.7214 625.075 96.7769Z" fill="#363434"/>
<path d="M551.964 70.8319C552.235 69.8642 553.184 69.2584 554.178 69.4178L573.685 72.5471C574.679 72.7066 575.408 73.5815 575.388 74.5895L575.13 87.3325C575.105 88.5387 574.031 89.437 572.842 89.2462L550.161 85.6078C548.972 85.417 548.207 84.2237 548.532 83.0658L551.964 70.8319Z" fill="#F1F2F2"/>
<path d="M560.64 90.0889C559.486 89.8918 558.676 88.8314 558.83 87.7205C558.984 86.6097 560.044 85.8689 561.198 86.066C562.352 86.2632 563.162 87.3236 563.008 88.4344C562.854 89.5452 561.794 90.286 560.64 90.0889Z" fill="#231F20"/>
<path d="M561.651 88.2486C561.654 88.233 561.658 88.2174 561.66 88.2014C561.679 88.0497 561.641 87.9003 561.562 87.7729L562.613 86.824C562.446 86.6283 562.246 86.4572 562.019 86.3199L561.231 87.4837C561.175 87.4581 561.115 87.4384 561.052 87.4268C560.97 87.4116 560.89 87.4113 560.813 87.4225L560.248 86.0189C559.997 86.0761 559.763 86.1755 559.556 86.3109L560.442 87.6075C560.354 87.697 560.295 87.8133 560.278 87.947C560.276 87.9617 560.275 87.9764 560.274 87.9912L558.689 88.0967C558.711 88.3497 558.78 88.5955 558.888 88.8248L560.383 88.3886C560.452 88.4958 560.551 88.5861 560.67 88.6476L560.277 90.0597C560.396 90.1017 560.52 90.1354 560.648 90.159C560.782 90.1836 560.914 90.1959 561.044 90.1982L561.091 88.7309C561.224 88.7177 561.346 88.6675 561.442 88.5894L562.688 89.492C562.842 89.3138 562.963 89.1069 563.043 88.8774L561.651 88.2486Z" fill="#E6E7E8"/>
<path d="M561.135 87.7611C561.126 87.8306 561.058 87.8757 560.984 87.8618C560.91 87.8478 560.856 87.7801 560.865 87.7107C560.874 87.6411 560.942 87.5961 561.016 87.6101C561.091 87.624 561.144 87.6915 561.135 87.7611Z" fill="#D1D3D4"/>
<path d="M561.032 88.4254C561.024 88.4949 560.956 88.54 560.882 88.5261C560.807 88.5122 560.754 88.4444 560.763 88.375C560.772 88.3056 560.839 88.2605 560.914 88.2744C560.988 88.2883 561.041 88.356 561.032 88.4254Z" fill="#D1D3D4"/>
<path d="M561.265 88.2444C561.34 88.2581 561.407 88.213 561.416 88.1436C561.425 88.0741 561.372 88.0067 561.298 87.9929C561.223 87.9792 561.155 88.0243 561.147 88.0937C561.138 88.1632 561.191 88.2306 561.265 88.2444Z" fill="#D1D3D4"/>
<path d="M560.601 88.1426C560.527 88.1288 560.473 88.0613 560.482 87.9919C560.491 87.9226 560.559 87.8774 560.633 87.8911C560.708 87.9049 560.761 87.9724 560.752 88.0418C560.743 88.1111 560.675 88.1563 560.601 88.1426Z" fill="#D1D3D4"/>
<path d="M561.374 84.487C559.241 84.086 557.309 85.3683 557.058 87.3511C556.806 89.334 558.331 91.2665 560.464 91.6675C562.597 92.0686 564.529 90.7862 564.78 88.8034C565.032 86.8207 563.507 84.888 561.374 84.487ZM560.65 90.1986C559.39 89.9616 558.489 88.8199 558.638 87.6484C558.786 86.4769 559.928 85.7193 561.188 85.9563C562.448 86.1932 563.349 87.3349 563.2 88.5064C563.052 89.6779 561.91 90.4355 560.65 90.1986Z" fill="#75787A"/>
<path d="M561.247 85.7097C559.889 85.4777 558.641 86.3496 558.46 87.6571C558.278 88.9647 559.232 90.2129 560.591 90.4449C561.949 90.6769 563.197 89.805 563.378 88.4974C563.56 87.1899 562.606 85.9417 561.247 85.7097ZM560.64 90.0889C559.486 89.8918 558.676 88.8314 558.83 87.7205C558.984 86.6097 560.044 85.8689 561.198 86.066C562.352 86.2631 563.162 87.3235 563.008 88.4344C562.854 89.5452 561.794 90.286 560.64 90.0889Z" fill="#D1D3D4"/>
<path d="M619.447 97.4612C618.289 97.2586 617.472 96.1981 617.623 95.0928C617.773 93.9874 618.833 93.2556 619.991 93.4582C621.149 93.6608 621.966 94.7212 621.816 95.8265C621.665 96.9319 620.605 97.6638 619.447 97.4612Z" fill="#231F20"/>
<path d="M620.452 95.6328C620.455 95.6172 620.459 95.6017 620.461 95.5857C620.48 95.4344 620.442 95.2853 620.363 95.1579L621.413 94.2144C621.245 94.0187 621.045 93.8474 620.818 93.7098L620.031 94.8684C619.975 94.8427 619.915 94.8229 619.851 94.8111C619.769 94.7958 619.689 94.7952 619.612 94.8062L619.044 93.4041C618.792 93.4605 618.558 93.559 618.352 93.6935L619.241 94.9896C619.153 95.0786 619.094 95.1945 619.077 95.3278C619.075 95.3425 619.074 95.3572 619.073 95.3719L617.487 95.4724C617.509 95.7249 617.578 95.9704 617.687 96.1994L619.182 95.7687C619.252 95.8759 619.352 95.9662 619.471 96.028L619.079 97.4355C619.199 97.4778 619.323 97.5118 619.451 97.5357C619.585 97.5606 619.717 97.5733 619.847 97.576L619.892 96.1123C620.026 96.0995 620.147 96.0498 620.244 95.9722L621.492 96.8763C621.646 96.699 621.767 96.4929 621.847 96.2642L620.452 95.6328Z" fill="#E6E7E8"/>
<path d="M619.784 95.2439C619.859 95.258 619.926 95.2131 619.935 95.1436C619.944 95.0742 619.891 95.0066 619.816 94.9926C619.742 94.9785 619.674 95.0234 619.665 95.0929C619.657 95.1623 619.71 95.2299 619.784 95.2439Z" fill="#D1D3D4"/>
<path d="M619.833 95.8077C619.824 95.877 619.756 95.922 619.682 95.908C619.607 95.894 619.554 95.8263 619.563 95.7569C619.572 95.6876 619.639 95.6426 619.714 95.6566C619.788 95.6706 619.841 95.7384 619.833 95.8077Z" fill="#D1D3D4"/>
<path d="M620.065 95.6267C619.991 95.6129 619.937 95.5453 619.946 95.4761C619.955 95.4068 620.023 95.3617 620.098 95.3755C620.172 95.3893 620.225 95.4568 620.216 95.5261C620.208 95.5954 620.14 95.6405 620.065 95.6267Z" fill="#D1D3D4"/>
<path d="M619.401 95.524C619.476 95.5378 619.544 95.4928 619.552 95.4235C619.561 95.3541 619.508 95.2867 619.434 95.2728C619.359 95.259 619.291 95.304 619.282 95.3734C619.273 95.4427 619.327 95.5102 619.401 95.524Z" fill="#D1D3D4"/>
<path d="M620.171 91.8763C618.036 91.4713 616.104 92.7473 615.854 94.7263C615.605 96.7052 617.133 98.6377 619.268 99.0426C621.402 99.4476 623.335 98.1716 623.584 96.1927C623.834 94.2139 622.305 92.2812 620.171 91.8763ZM619.452 97.5766C618.191 97.3373 617.288 96.1956 617.436 95.0264C617.583 93.8572 618.725 93.1034 619.986 93.3427C621.247 93.5819 622.15 94.7236 622.002 95.8928C621.855 97.062 620.713 97.8158 619.452 97.5766Z" fill="#75787A"/>
<path d="M620.039 93.1035C618.676 92.865 617.428 93.7264 617.251 95.0275C617.075 96.3286 618.036 97.5768 619.399 97.8153C620.762 98.0537 622.01 97.1923 622.187 95.8912C622.364 94.5901 621.402 93.342 620.039 93.1035ZM619.447 97.461C618.289 97.2584 617.472 96.198 617.623 95.0926C617.773 93.9873 618.833 93.2554 619.991 93.458C621.149 93.6606 621.966 94.721 621.816 95.8264C621.665 96.9317 620.605 97.6636 619.447 97.461Z" fill="#D1D3D4"/>
<path d="M590.319 88.2335C590.638 88.9478 590.768 89.7396 590.653 90.5429C590.653 90.5448 590.653 90.5468 590.652 90.5487C590.609 90.8522 590.831 91.1438 591.159 91.198L614.639 95.0833C614.962 95.1368 615.253 94.9337 615.295 94.6341C615.295 94.6296 615.296 94.6251 615.297 94.6207C615.639 92.2269 618.018 90.6269 620.6 91.0541C623.181 91.4813 625.003 93.7764 624.661 96.1702C624.66 96.1747 624.66 96.1791 624.659 96.1836C624.615 96.4829 624.835 96.7704 625.158 96.8239L626.823 97.0993L627.615 91.5636C625.918 91.1708 623.079 90.547 620.264 90.0812C615.835 89.3484 614.644 92.2586 614.644 92.2586L596.987 89.337L590.319 88.2335Z" fill="#545353"/>
<path d="M577.137 86.9486L577.131 86.9892C576.864 86.9451 576.617 87.1191 576.58 87.3778L576.369 88.8439C576.332 89.1026 576.518 89.3483 576.786 89.3924L581.266 90.1324L581.273 90.0836L581.313 90.0902C581.315 89.8944 581.328 89.6973 581.357 89.4989C581.449 88.8557 581.677 88.2667 582.006 87.7528L577.137 86.9486Z" fill="#545353"/>
<path d="M619.05 86.5638L617.85 86.3546C617.698 86.3281 617.602 86.1765 617.65 86.0392L618.15 84.6006C618.187 84.4955 618.297 84.434 618.413 84.4543L619.315 84.6117C620.068 84.7429 620.618 85.2863 620.545 85.8253C620.471 86.3644 619.802 86.695 619.05 86.5638Z" fill="white"/>
<path d="M619.121 85.9891L617.928 85.7826C617.865 85.7716 617.811 85.7386 617.774 85.694L617.649 86.0487C617.602 86.1843 617.698 86.334 617.849 86.3601L619.042 86.5666C619.79 86.6961 620.456 86.3696 620.529 85.8374C620.543 85.7368 620.534 85.636 620.507 85.5378C620.28 85.8992 619.728 86.0941 619.121 85.9891Z" fill="#D1D3D4"/>
<path d="M627.754 90.391C627.862 89.6339 627.697 88.8806 627.322 88.2401L625.664 87.965C625.664 87.965 625.796 90.1251 627.417 90.5708C627.521 90.5993 627.62 90.6247 627.717 90.6475L627.754 90.391Z" fill="#D1D3D4"/>
<path d="M627.475 90.2922C626.454 90.0023 626.112 88.884 626.002 88.3059L627.139 88.4947C627.433 89.0504 627.552 89.6818 627.475 90.2922Z" fill="white"/>
<path d="M613.011 79.3502C612.682 79.0777 612.286 78.8904 611.862 78.8145L611.014 78.6617L607.558 83.5736L609.768 83.9602L613.011 79.3502Z" fill="#28211F"/>
<path d="M614.611 80.9298L613.536 79.8639L610.576 84.0684L612.202 84.3526L614.611 80.9298Z" fill="#28211F"/>
<path d="M1135.12 78.7738L1133.56 79.1198C1132.04 79.7231 1130.92 81.0208 1130.56 82.5151C1130.5 82.7379 1130.47 82.9651 1130.45 83.195C1130.45 83.197 1130.45 83.1989 1130.45 83.2009C1130.44 83.273 1130.44 83.3453 1130.43 83.4177C1130.43 83.4233 1130.43 83.4289 1130.43 83.4345C1130.43 83.5024 1130.43 83.5704 1130.43 83.6383C1130.43 83.6487 1130.43 83.659 1130.43 83.6694C1130.43 83.7331 1130.44 83.7971 1130.44 83.861C1130.44 83.8755 1130.44 83.8898 1130.45 83.9043C1130.45 83.9654 1130.46 84.0268 1130.47 84.0882C1130.47 84.1051 1130.47 84.1222 1130.47 84.139C1130.48 84.1743 1130.48 84.2096 1130.49 84.2448L1139.83 82.1669C1139.35 80.0374 1137.35 78.6391 1135.12 78.7738Z" fill="#231F20"/>
<path d="M1173.39 75.1438C1173.38 75.1258 1173.38 75.108 1173.37 75.0901C1173.36 75.0334 1173.34 74.9772 1173.33 74.9216C1173.32 74.9111 1173.32 74.9005 1173.32 74.8901C1173.3 74.8262 1173.28 74.7632 1173.25 74.7008C1173.25 74.6841 1173.24 74.6675 1173.23 74.6509C1173.22 74.6012 1173.2 74.5519 1173.18 74.5032C1173.17 74.4881 1173.16 74.4729 1173.16 74.458C1173.13 74.3986 1173.1 74.3399 1173.08 74.2821C1173.07 74.267 1173.06 74.2522 1173.05 74.2374C1173.03 74.1922 1173.01 74.1477 1172.98 74.1036C1172.97 74.0861 1172.96 74.0685 1172.95 74.0512C1172.92 73.9966 1172.89 73.9428 1172.86 73.8899C1172.85 73.877 1172.84 73.8645 1172.83 73.8518C1172.81 73.81 1172.78 73.7686 1172.75 73.728C1172.74 73.7091 1172.72 73.6904 1172.71 73.6717C1172.68 73.6308 1172.65 73.5906 1172.62 73.5509C1172.61 73.5334 1172.59 73.5159 1172.58 73.4987C1172.55 73.4583 1172.51 73.4187 1172.48 73.3795C1172.46 73.3598 1172.45 73.3404 1172.43 73.321C1172.4 73.2907 1172.38 73.261 1172.35 73.2315C1172.33 73.214 1172.31 73.1963 1172.3 73.1791C1172.26 73.1386 1172.22 73.0992 1172.18 73.0603C1172.16 73.0402 1172.13 73.0207 1172.11 73.0013C1172.09 72.9782 1172.06 72.9553 1172.04 72.9329C1172.01 72.9131 1171.99 72.8934 1171.97 72.8742C1171.93 72.8397 1171.88 72.8058 1171.84 72.7727C1171.82 72.753 1171.79 72.7339 1171.76 72.7146C1171.74 72.6969 1171.71 72.6795 1171.69 72.6623C1171.66 72.6425 1171.63 72.6228 1171.61 72.6037C1171.58 72.5873 1171.56 72.5716 1171.53 72.5556C1171.48 72.5237 1171.43 72.4927 1171.38 72.4627C1171.36 72.4497 1171.34 72.4369 1171.32 72.4243C1171.28 72.4058 1171.25 72.3877 1171.22 72.3699C1171.2 72.359 1171.18 72.3484 1171.16 72.3378C1171.09 72.3062 1171.03 72.2757 1170.97 72.2468C1170.95 72.2384 1170.93 72.23 1170.92 72.2218C1170.88 72.2057 1170.84 72.1899 1170.8 72.1747C1170.79 72.1666 1170.77 72.1589 1170.75 72.1512C1170.66 72.1183 1170.58 72.0872 1170.49 72.0588C1170.49 72.0584 1170.49 72.058 1170.49 72.0577C1170.45 72.0446 1170.41 72.0323 1170.37 72.0202C1170.35 72.0143 1170.33 72.0085 1170.31 72.0029C1170.27 71.9914 1170.23 71.9799 1170.19 71.9694C1169.72 71.8462 1169.21 71.7955 1168.69 71.8268L1167.14 72.1728C1165.04 73.0014 1163.72 75.1401 1164.06 77.2981L1173.4 75.2202C1173.4 75.1947 1173.39 75.1689 1173.39 75.1438Z" fill="#231F20"/>
<path d="M1135.61 85.4457C1134.46 85.7095 1133.36 85.0386 1133.16 83.9473C1132.96 82.8561 1133.72 81.7575 1134.88 81.4937C1136.03 81.2299 1137.13 81.9008 1137.33 82.9921C1137.53 84.0834 1136.76 85.182 1135.61 85.4457Z" fill="#231F20"/>
<path d="M1135.99 83.3299C1135.99 83.314 1135.98 83.298 1135.98 83.2822C1135.95 83.1325 1135.87 83.0086 1135.76 82.9217L1136.47 81.6062C1136.25 81.4916 1136.01 81.4135 1135.76 81.3778L1135.36 82.7868C1135.3 82.7858 1135.24 82.7918 1135.18 82.8068C1135.1 82.8262 1135.02 82.8587 1134.95 82.9004L1134 81.8202C1133.78 81.9763 1133.59 82.1648 1133.44 82.3755L1134.66 83.225C1134.6 83.3443 1134.58 83.4773 1134.61 83.6093C1134.61 83.6238 1134.61 83.6377 1134.62 83.6519L1133.16 84.3979C1133.25 84.6255 1133.39 84.8271 1133.56 84.9969L1134.84 83.9789C1134.93 84.0507 1135.05 84.0944 1135.18 84.1034L1135.24 85.583C1135.36 85.5734 1135.49 85.5544 1135.62 85.5241C1135.75 85.4925 1135.88 85.4501 1136 85.3991L1135.61 84.0091C1135.73 83.9423 1135.83 83.8459 1135.89 83.7334L1137.33 84.0679C1137.43 83.8384 1137.48 83.5956 1137.48 83.3486L1135.99 83.3299Z" fill="#E6E7E8"/>
<path d="M1135.33 83.0896C1135.35 83.1584 1135.3 83.2286 1135.22 83.2461C1135.15 83.2636 1135.08 83.2219 1135.07 83.1531C1135.05 83.0841 1135.1 83.0141 1135.18 82.9966C1135.25 82.9791 1135.32 83.0206 1135.33 83.0896Z" fill="#D1D3D4"/>
<path d="M1135.47 83.7477C1135.48 83.8165 1135.43 83.8866 1135.36 83.9041C1135.29 83.9217 1135.22 83.88 1135.2 83.8111C1135.19 83.7423 1135.24 83.6722 1135.31 83.6547C1135.39 83.6371 1135.46 83.6788 1135.47 83.7477Z" fill="#D1D3D4"/>
<path d="M1135.62 83.5059C1135.69 83.4885 1135.74 83.4186 1135.73 83.3498C1135.72 83.281 1135.65 83.2394 1135.58 83.2568C1135.5 83.2742 1135.45 83.3441 1135.46 83.4129C1135.48 83.4817 1135.55 83.5233 1135.62 83.5059Z" fill="#D1D3D4"/>
<path d="M1134.96 83.6425C1134.89 83.6599 1134.82 83.6182 1134.81 83.5495C1134.79 83.4808 1134.84 83.4108 1134.92 83.3934C1134.99 83.376 1135.06 83.4177 1135.07 83.4864C1135.09 83.5552 1135.04 83.6251 1134.96 83.6425Z" fill="#D1D3D4"/>
<path d="M1134.61 79.9182C1132.49 80.4266 1131.06 82.4287 1131.4 84.39C1131.75 86.3514 1133.76 87.5292 1135.88 87.0207C1138 86.5123 1139.43 84.5102 1139.08 82.5489C1138.73 80.5877 1136.73 79.4097 1134.61 79.9182ZM1135.62 85.5677C1134.37 85.8681 1133.18 85.1723 1132.98 84.0135C1132.77 82.8547 1133.62 81.6719 1134.87 81.3715C1136.12 81.0711 1137.31 81.767 1137.51 82.9257C1137.72 84.0845 1136.87 85.2674 1135.62 85.5677Z" fill="#75787A"/>
<path d="M1134.81 81.1436C1133.45 81.4541 1132.55 82.7472 1132.79 84.0317C1133.03 85.3163 1134.32 86.106 1135.68 85.7955C1137.03 85.485 1137.94 84.1919 1137.7 82.9073C1137.46 81.6227 1136.17 80.8331 1134.81 81.1436ZM1135.61 85.4457C1134.46 85.7095 1133.36 85.0386 1133.16 83.9473C1132.96 82.856 1133.72 81.7574 1134.88 81.4937C1136.03 81.2299 1137.13 81.9008 1137.33 82.9921C1137.53 84.0833 1136.76 85.1819 1135.61 85.4457Z" fill="#D1D3D4"/>
<rect width="7.39384" height="2.06377" transform="matrix(0.977714 -0.206884 0.197247 0.979821 1120.51 82.2487)" fill="#545353"/>
<path d="M1171.5 66.0206L1166.85 65.8622L1157.99 62.3635C1157.01 61.9766 1155.92 61.8948 1154.86 62.129L1126.99 68.2798C1125.38 68.6345 1124.25 70.0718 1124.35 71.6268L1124.92 80.5433L1125.49 83.592C1125.22 83.6505 1125.05 83.9018 1125.1 84.1532L1125.37 85.5774C1125.42 85.8287 1125.67 85.9851 1125.94 85.9266L1130.38 84.9455L1130.37 84.8981L1130.41 84.8894C1130.35 84.709 1130.3 84.5229 1130.26 84.3303C1129.8 81.8945 1131.5 79.4515 1134.07 78.8844C1136.64 78.3173 1139.12 79.8376 1139.58 82.2733C1139.58 82.2752 1139.59 82.2772 1139.59 82.2791C1139.64 82.5881 1139.95 82.7846 1140.28 82.7127L1163.64 77.5551C1163.97 77.4841 1164.17 77.1785 1164.11 76.874C1164.11 76.8695 1164.11 76.8649 1164.11 76.8603C1163.64 74.4246 1165.35 71.9816 1167.92 71.4145C1170.49 70.8474 1172.96 72.3677 1173.43 74.8034C1173.43 74.808 1173.43 74.8126 1173.43 74.8171C1173.49 75.122 1173.79 75.3155 1174.11 75.2446L1175.77 74.879L1174.55 68.524C1174.27 67.0985 1173.02 66.0723 1171.5 66.0206Z" fill="#F1F2F2"/>
<path d="M1150.15 65.393L1151.34 69.7664C1151.45 70.1671 1151.86 70.4039 1152.29 70.3088L1163.94 67.7235C1164.54 67.5902 1164.66 66.805 1164.11 66.5668L1157.19 63.5464C1156.67 63.301 1156.07 63.2358 1155.5 63.3618L1150.81 64.377C1150.34 64.4801 1150.03 64.9481 1150.15 65.393Z" fill="#010101"/>
<path d="M1126.27 85.9253L1130.74 84.9326L1130.73 84.8848L1130.77 84.876C1130.71 84.6935 1130.66 84.5053 1130.62 84.3105C1130.46 83.4838 1130.55 82.6567 1130.83 81.9002L1125.73 83.0363L1125.82 83.5641C1125.56 83.6233 1125.38 83.8774 1125.43 84.1316L1125.7 85.572C1125.75 85.8264 1126.01 85.9845 1126.27 85.9253Z" fill="#D1D3D4"/>
<path d="M1174.07 75.9254L1176.59 75.3628C1177 75.2717 1177.27 74.8807 1177.2 74.4894L1176.6 71.3605C1176.53 70.9692 1176.13 70.726 1175.73 70.8172L1170.13 72.0667C1171.76 72.492 1173.06 73.7635 1173.38 75.4842C1173.39 75.4861 1173.39 75.4881 1173.39 75.49C1173.44 75.8003 1173.75 75.9977 1174.07 75.9254Z" fill="#363434"/>
<path d="M1096.68 77.2842C1096.61 76.2789 1097.29 75.3688 1098.27 75.1596L1117.61 71.0481C1118.6 70.8389 1119.57 71.3957 1119.89 72.3481L1123.95 84.3903C1124.33 85.53 1123.63 86.7599 1122.45 87.0103L1099.97 91.7906C1098.79 92.041 1097.67 91.1982 1097.58 89.9952L1096.68 77.2842Z" fill="#F1F2F2"/>
<path d="M1111.37 92.1819C1110.22 92.4388 1109.13 91.7567 1108.92 90.6585C1108.71 89.5604 1109.47 88.4618 1110.62 88.2049C1111.76 87.948 1112.86 88.6301 1113.07 89.7282C1113.28 90.8264 1112.52 91.925 1111.37 92.1819Z" fill="#231F20"/>
<path d="M1111.74 90.0553C1111.73 90.0393 1111.73 90.0233 1111.73 90.0074C1111.7 89.8573 1111.62 89.7329 1111.51 89.6455L1112.21 88.3293C1112 88.2138 1111.76 88.1349 1111.5 88.0983L1111.11 89.5091C1111.05 89.508 1110.99 89.5138 1110.93 89.5286C1110.84 89.5479 1110.77 89.5802 1110.7 89.6218L1109.75 88.5365C1109.53 88.6924 1109.34 88.8807 1109.19 89.0914L1110.41 89.9462C1110.35 90.0657 1110.33 90.1988 1110.36 90.3312C1110.36 90.3457 1110.36 90.3597 1110.37 90.3739L1108.91 91.1173C1109.01 91.3456 1109.14 91.548 1109.31 91.7187L1110.59 90.7022C1110.68 90.7745 1110.8 90.8186 1110.93 90.828L1110.99 92.3109C1111.11 92.3017 1111.24 92.283 1111.37 92.253C1111.5 92.2217 1111.63 92.1796 1111.75 92.1289L1111.35 90.7347C1111.48 90.6682 1111.57 90.5719 1111.64 90.4593L1113.08 90.7987C1113.17 90.569 1113.22 90.3258 1113.23 90.0783L1111.74 90.0553Z" fill="#E6E7E8"/>
<path d="M1111.08 89.8128C1111.1 89.8814 1111.05 89.9514 1110.97 89.9689C1110.9 89.9864 1110.83 89.9448 1110.82 89.8762C1110.8 89.8074 1110.85 89.7376 1110.93 89.7201C1111 89.7026 1111.07 89.744 1111.08 89.8128Z" fill="#D1D3D4"/>
<path d="M1111.22 90.4707C1111.23 90.5393 1111.18 90.6092 1111.11 90.6267C1111.03 90.6442 1110.96 90.6027 1110.95 90.5341C1110.94 90.4654 1110.99 90.3955 1111.06 90.378C1111.14 90.3605 1111.21 90.402 1111.22 90.4707Z" fill="#D1D3D4"/>
<path d="M1111.37 90.2297C1111.44 90.2124 1111.49 90.1425 1111.48 90.0736C1111.47 90.0048 1111.4 89.9631 1111.32 89.9804C1111.25 89.9978 1111.2 90.0676 1111.21 90.1365C1111.23 90.2053 1111.3 90.2471 1111.37 90.2297Z" fill="#D1D3D4"/>
<path d="M1110.71 90.3663C1110.64 90.3837 1110.57 90.3419 1110.55 90.2731C1110.54 90.2043 1110.59 90.1343 1110.67 90.117C1110.74 90.0997 1110.81 90.1415 1110.82 90.2102C1110.84 90.279 1110.79 90.349 1110.71 90.3663Z" fill="#D1D3D4"/>
<path d="M1110.36 86.6358C1108.24 87.1408 1106.81 89.143 1107.16 91.1076C1107.51 93.0723 1109.51 94.2555 1111.63 93.7504C1113.75 93.2454 1115.18 91.2432 1114.83 89.2786C1114.48 87.314 1112.48 86.1306 1110.36 86.6358ZM1111.37 92.2949C1110.12 92.5934 1108.93 91.8943 1108.73 90.7336C1108.52 89.5728 1109.37 88.39 1110.62 88.0916C1111.87 87.7932 1113.05 88.4922 1113.26 89.653C1113.47 90.8137 1112.62 91.9965 1111.37 92.2949Z" fill="#75787A"/>
<path d="M1110.55 87.8526C1109.2 88.155 1108.3 89.4481 1108.55 90.7408C1108.79 92.0334 1110.09 92.8362 1111.44 92.5338C1112.79 92.2315 1113.68 90.9384 1113.44 89.6457C1113.19 88.353 1111.9 87.5502 1110.55 87.8526ZM1111.37 92.1819C1110.22 92.4388 1109.13 91.7567 1108.92 90.6586C1108.71 89.5604 1109.47 88.4618 1110.62 88.2049C1111.76 87.948 1112.86 88.6301 1113.07 89.7282C1113.28 90.8264 1112.52 91.925 1111.37 92.1819Z" fill="#D1D3D4"/>
<path d="M1169.03 78.5308C1167.88 78.7946 1166.78 78.1237 1166.58 77.0324C1166.37 75.9411 1167.14 74.8425 1168.3 74.5788C1169.45 74.315 1170.55 74.9859 1170.75 76.0772C1170.95 77.1685 1170.18 78.2671 1169.03 78.5308Z" fill="#231F20"/>
<path d="M1169.41 76.415C1169.41 76.3991 1169.4 76.3831 1169.4 76.3673C1169.37 76.2176 1169.29 76.0937 1169.18 76.0067L1169.89 74.6913C1169.67 74.5767 1169.43 74.4986 1169.18 74.4628L1168.78 75.8718C1168.72 75.8709 1168.66 75.8769 1168.6 75.8918C1168.52 75.9113 1168.44 75.9438 1168.37 75.9854L1167.42 74.9053C1167.2 75.0614 1167.01 75.2499 1166.86 75.4606L1168.08 76.3101C1168.02 76.4294 1168 76.5624 1168.03 76.6944C1168.03 76.7089 1168.03 76.7228 1168.04 76.7369L1166.58 77.483C1166.67 77.7106 1166.81 77.9121 1166.98 78.0819L1168.26 77.064C1168.35 77.1358 1168.47 77.1795 1168.6 77.1885L1168.66 78.6681C1168.78 78.6585 1168.91 78.6395 1169.04 78.6092C1169.17 78.5776 1169.3 78.5351 1169.42 78.4842L1169.03 77.0942C1169.15 77.0274 1169.25 76.931 1169.31 76.8185L1170.75 77.153C1170.85 76.9235 1170.9 76.6806 1170.9 76.4336L1169.41 76.415Z" fill="#E6E7E8"/>
<path d="M1168.64 76.3312C1168.72 76.3136 1168.77 76.2436 1168.75 76.1747C1168.74 76.1058 1168.67 76.0641 1168.6 76.0817C1168.52 76.0992 1168.47 76.1693 1168.49 76.2381C1168.5 76.307 1168.57 76.3487 1168.64 76.3312Z" fill="#D1D3D4"/>
<path d="M1168.89 76.8325C1168.9 76.9013 1168.85 76.9715 1168.78 76.989C1168.71 77.0065 1168.64 76.9648 1168.62 76.896C1168.61 76.8272 1168.66 76.757 1168.73 76.7395C1168.81 76.722 1168.88 76.7637 1168.89 76.8325Z" fill="#D1D3D4"/>
<path d="M1169.04 76.5916C1168.97 76.609 1168.9 76.5673 1168.88 76.4986C1168.87 76.4299 1168.92 76.3599 1169 76.3425C1169.07 76.3251 1169.14 76.3668 1169.15 76.4355C1169.16 76.5043 1169.11 76.5742 1169.04 76.5916Z" fill="#D1D3D4"/>
<path d="M1168.38 76.7276C1168.46 76.7102 1168.51 76.6403 1168.49 76.5715C1168.48 76.5027 1168.41 76.4611 1168.34 76.4785C1168.26 76.4959 1168.21 76.5658 1168.23 76.6346C1168.24 76.7034 1168.31 76.745 1168.38 76.7276Z" fill="#D1D3D4"/>
<path d="M1168.03 73.0033C1165.91 73.5117 1164.48 75.5138 1164.82 77.4751C1165.17 79.4364 1167.18 80.6143 1169.3 80.1058C1171.42 79.5974 1172.85 77.5953 1172.5 75.634C1172.15 73.6728 1170.15 72.4948 1168.03 73.0033ZM1169.04 78.6528C1167.78 78.9532 1166.6 78.2574 1166.4 77.0986C1166.19 75.9398 1167.04 74.757 1168.29 74.4566C1169.54 74.1562 1170.73 74.852 1170.93 76.0108C1171.14 77.1696 1170.29 78.3524 1169.04 78.6528Z" fill="#75787A"/>
<path d="M1168.23 74.2287C1166.87 74.5392 1165.97 75.8323 1166.21 77.1168C1166.45 78.4014 1167.74 79.191 1169.1 78.8805C1170.45 78.57 1171.36 77.2769 1171.12 75.9924C1170.88 74.7078 1169.59 73.9182 1168.23 74.2287ZM1169.03 78.5308C1167.88 78.7946 1166.78 78.1237 1166.58 77.0324C1166.37 75.9411 1167.14 74.8425 1168.3 74.5787C1169.45 74.315 1170.55 74.9859 1170.75 76.0771C1170.95 77.1684 1170.18 78.267 1169.03 78.5308Z" fill="#D1D3D4"/>
<path d="M1138.65 80.4617C1139.18 81.0117 1139.56 81.7046 1139.72 82.4992C1139.72 82.5011 1139.72 82.503 1139.72 82.5049C1139.78 82.8053 1140.08 82.9956 1140.4 82.9248L1163.69 77.8486C1164.01 77.7788 1164.21 77.481 1164.16 77.185C1164.15 77.1806 1164.15 77.1762 1164.15 77.1717C1163.69 74.8041 1165.4 72.4237 1167.96 71.8656C1170.52 71.3074 1172.98 72.7796 1173.44 75.1473C1173.44 75.1517 1173.44 75.1562 1173.44 75.1606C1173.5 75.457 1173.8 75.6444 1174.12 75.5746L1175.77 75.2148L1174.7 69.7394C1172.98 70.0011 1170.12 70.4711 1167.32 71.0796C1162.93 72.037 1162.77 75.203 1162.77 75.203L1145.26 79.0201L1138.65 80.4617Z" fill="#545353"/>
<path d="M1125.83 83.5171L1125.83 83.5572C1125.57 83.6154 1125.39 83.8695 1125.44 84.1246L1125.72 85.5705C1125.77 85.8257 1126.03 85.9855 1126.29 85.9274L1130.74 84.9527L1130.73 84.9047L1130.77 84.896C1130.71 84.7127 1130.66 84.5238 1130.62 84.3282C1130.5 83.6937 1130.52 83.0598 1130.66 82.4579L1125.83 83.5171Z" fill="#545353"/>
<path d="M1164.89 68.4548L1163.7 68.7271C1163.55 68.7616 1163.41 68.6577 1163.41 68.5109L1163.43 66.9727C1163.43 66.8602 1163.52 66.7598 1163.63 66.7334L1164.53 66.5286C1165.28 66.3579 1165.96 66.6506 1166.06 67.1825C1166.16 67.7145 1165.64 68.2841 1164.89 68.4548Z" fill="white"/>
<path d="M1164.79 67.8894L1163.61 68.1579C1163.54 68.1722 1163.48 68.1621 1163.43 68.1351L1163.43 68.5141C1163.43 68.659 1163.56 68.7615 1163.71 68.7275L1164.9 68.459C1165.64 68.2905 1166.16 67.7283 1166.06 67.2034C1166.05 67.1042 1166.01 67.0133 1165.95 66.9325C1165.85 67.3573 1165.39 67.7527 1164.79 67.8894Z" fill="#D1D3D4"/>
<path d="M1174.4 68.9681C1174.25 68.2203 1173.85 67.5784 1173.29 67.1205L1171.64 67.4835C1171.64 67.4835 1172.47 69.4522 1174.14 69.2621C1174.25 69.2499 1174.35 69.2364 1174.45 69.2215L1174.4 68.9681Z" fill="#D1D3D4"/>
<path d="M1174.1 68.9835C1173.05 69.0944 1172.36 68.1763 1172.07 67.6768L1173.2 67.428C1173.66 67.8376 1173.97 68.3839 1174.1 68.9835Z" fill="white"/>
<path d="M1156.83 63.6988C1156.44 63.5729 1156.01 63.5529 1155.58 63.6476L1154.74 63.8369L1153.02 69.7791L1155.22 69.2756L1156.83 63.6988Z" fill="#28211F"/>
<path d="M1158.85 64.6484L1157.5 64.0727L1156.03 69.1606L1157.65 68.7903L1158.85 64.6484Z" fill="#28211F"/>
<path d="M0.309021 83.6665C0.309021 83.6665 168.601 44.7496 610.885 98.9176C1053.17 153.086 1227.77 62.1045 1227.77 62.1045" stroke="white"/>
<path d="M1228.22 52.0028C1218.32 35.2338 1203.97 1.61402 1225.71 1.28712C1247.44 0.960225 1236.44 34.9614 1228.22 52.0028Z" fill="white" stroke="white"/>
<circle cx="1225.89" cy="12.9793" r="8.22221" transform="rotate(-5.92532 1225.89 12.9793)" fill="black"/>
</svg>
