<svg width="1243" height="156" viewBox="0 0 1243 156" fill="none" xmlns="http://www.w3.org/2000/svg">
<path d="M0.309082 122.891C0.309082 122.891 168.601 83.9745 610.885 138.142C1053.17 192.311 1227.77 101.329 1227.77 101.329" stroke="white"/>
<path d="M316.376 83.4487L315.85 86.0782L324.265 85.0264L321.635 82.3969L316.376 83.4487Z" fill="#00A0D4"/>
<g filter="url(#filter0_f_114_3992)">
<path d="M354.425 24L321 83.2961L322.363 85L397 51.0409L354.425 24Z" fill="url(#paint0_linear_114_3992)"/>
</g>
<g filter="url(#filter1_f_114_3992)">
<path d="M268.302 24L318 84.2682L315.973 86L205 51.4841L268.302 24Z" fill="url(#paint1_linear_114_3992)"/>
</g>
<path d="M313.426 99.016L311.854 99.2845C310.294 99.8088 309.101 101.04 308.651 102.502C308.584 102.72 308.533 102.943 308.5 103.169C308.5 103.171 308.499 103.173 308.499 103.175C308.489 103.246 308.481 103.318 308.474 103.389C308.474 103.395 308.473 103.4 308.472 103.406C308.466 103.473 308.463 103.54 308.46 103.607C308.459 103.618 308.458 103.628 308.458 103.638C308.456 103.701 308.456 103.765 308.456 103.828C308.456 103.843 308.456 103.857 308.456 103.871C308.457 103.932 308.461 103.993 308.465 104.054C308.466 104.071 308.466 104.088 308.467 104.105C308.47 104.14 308.475 104.175 308.478 104.21L317.919 102.598C317.574 100.468 315.66 98.9888 313.426 99.016Z" fill="#231F20"/>
<path d="M351.816 97.4458C351.813 97.4278 351.81 97.4099 351.806 97.392C351.795 97.3352 351.783 97.2789 351.77 97.2231C351.767 97.2125 351.765 97.2019 351.763 97.1915C351.747 97.1272 351.729 97.0638 351.711 97.001C351.706 96.9843 351.7 96.9676 351.695 96.9508C351.679 96.9007 351.663 96.851 351.646 96.8018C351.64 96.7866 351.635 96.7713 351.629 96.7562C351.607 96.6962 351.584 96.6368 351.559 96.5782C351.553 96.563 351.546 96.548 351.54 96.5329C351.52 96.4872 351.499 96.442 351.477 96.3972C351.469 96.3794 351.46 96.3615 351.452 96.344C351.424 96.2885 351.396 96.2337 351.366 96.1797C351.358 96.1666 351.35 96.1538 351.343 96.1409C351.319 96.0983 351.294 96.0559 351.268 96.0144C351.256 95.9951 351.244 95.9759 351.232 95.9568C351.205 95.915 351.178 95.8737 351.149 95.8329C351.137 95.815 351.124 95.7971 351.112 95.7793C351.082 95.7378 351.051 95.6971 351.02 95.6566C351.004 95.6363 350.989 95.6164 350.972 95.5964C350.947 95.5651 350.922 95.5343 350.896 95.5038C350.88 95.4858 350.865 95.4675 350.849 95.4496C350.812 95.4077 350.775 95.3668 350.736 95.3263C350.716 95.3054 350.696 95.2851 350.675 95.2648C350.651 95.2408 350.627 95.2169 350.603 95.1934C350.581 95.1728 350.56 95.1522 350.538 95.1322C350.499 95.096 350.459 95.0605 350.418 95.0257C350.393 95.0049 350.368 94.9848 350.344 94.9644C350.321 94.9459 350.298 94.9274 350.275 94.9092C350.248 94.8884 350.221 94.8676 350.194 94.8473C350.171 94.8299 350.147 94.8131 350.123 94.7961C350.076 94.7622 350.027 94.7292 349.979 94.697C349.958 94.6832 349.937 94.6694 349.915 94.6559C349.884 94.6361 349.852 94.6166 349.82 94.5974C349.8 94.5856 349.78 94.5741 349.76 94.5627C349.701 94.5285 349.641 94.4954 349.58 94.4637C349.562 94.4546 349.545 94.4454 349.528 94.4364C349.492 94.4187 349.456 94.4014 349.42 94.3846C349.401 94.3756 349.382 94.3671 349.363 94.3585C349.283 94.322 349.201 94.2873 349.117 94.2551C349.116 94.2546 349.115 94.2542 349.114 94.2539C349.075 94.239 349.036 94.2249 348.997 94.2111C348.978 94.2043 348.959 94.1976 348.939 94.1911C348.9 94.1778 348.861 94.1645 348.821 94.1522C348.353 94.0077 347.853 93.9335 347.336 93.9398L345.764 94.2083C343.621 94.9285 342.171 96.9821 342.388 99.1344L351.829 97.5223C351.824 97.4967 351.821 97.4709 351.816 97.4458Z" fill="#231F20"/>
<path d="M350.492 88.0837L345.864 87.7436L337.251 83.9818C336.299 83.5659 335.211 83.4424 334.137 83.6281L305.93 88.5043C304.303 88.7855 303.078 90.1401 303.077 91.6585L303.072 100.366L303.44 103.358C303.172 103.404 302.98 103.642 303.012 103.888L303.193 105.287C303.225 105.533 303.469 105.696 303.737 105.649L308.237 104.871L308.231 104.825L308.271 104.818C308.221 104.64 308.182 104.457 308.158 104.268C307.848 101.877 309.712 99.5655 312.312 99.1159C314.913 98.6663 317.281 100.246 317.591 102.637C317.591 102.639 317.592 102.641 317.592 102.643C317.631 102.946 317.923 103.149 318.253 103.092L341.906 99.0036C342.231 98.9473 342.456 98.6578 342.417 98.359C342.416 98.3545 342.416 98.35 342.415 98.3455C342.105 95.9545 343.968 93.6435 346.569 93.1939C349.17 92.7443 351.538 94.3238 351.848 96.7148C351.848 96.7193 351.849 96.7238 351.85 96.7283C351.887 97.0275 352.176 97.2281 352.502 97.1719L354.178 96.882L353.369 90.6437C353.188 89.2444 352.009 88.195 350.492 88.0837Z" fill="#F1F2F2"/>
<path d="M329.173 86.5902L330.074 90.9234C330.157 91.3205 330.557 91.5693 330.991 91.4935L342.79 89.4322C343.399 89.3258 343.566 88.5612 343.036 88.3057L336.32 85.0659C335.819 84.8046 335.227 84.7165 334.64 84.8164L329.897 85.6215C329.415 85.7032 329.081 86.1494 329.173 86.5902Z" fill="#010101"/>
<path d="M304.17 105.648L308.693 104.854L308.687 104.807L308.727 104.8C308.677 104.618 308.638 104.431 308.614 104.238C308.509 103.42 308.652 102.611 308.985 101.879L303.808 102.787L303.872 103.31C303.602 103.357 303.409 103.6 303.441 103.851L303.623 105.277C303.656 105.529 303.9 105.695 304.17 105.648Z" fill="#D1D3D4"/>
<path d="M313.53 105.677C312.363 105.886 311.306 105.167 311.169 104.072C311.032 102.977 311.866 101.92 313.033 101.712C314.199 101.503 315.256 102.222 315.393 103.317C315.531 104.411 314.696 105.468 313.53 105.677Z" fill="#231F20"/>
<path d="M314.035 103.585C314.035 103.569 314.034 103.553 314.033 103.537C314.016 103.388 313.943 103.263 313.837 103.173L314.628 101.899C314.42 101.778 314.185 101.692 313.933 101.648L313.447 103.025C313.387 103.022 313.324 103.026 313.261 103.038C313.177 103.055 313.1 103.084 313.028 103.123L312.147 102.021C311.918 102.167 311.715 102.346 311.548 102.549L312.713 103.432C312.649 103.548 312.619 103.679 312.634 103.81C312.636 103.825 312.639 103.839 312.642 103.853L311.133 104.536C311.214 104.765 311.339 104.969 311.498 105.143L312.841 104.184C312.934 104.258 313.051 104.306 313.181 104.319L313.136 105.783C313.262 105.778 313.389 105.764 313.519 105.739C313.654 105.712 313.785 105.675 313.911 105.629L313.608 104.242C313.734 104.18 313.84 104.088 313.915 103.98L315.334 104.363C315.441 104.139 315.509 103.901 315.532 103.658L314.035 103.585Z" fill="#E6E7E8"/>
<path d="M313.393 103.318C313.401 103.386 313.346 103.453 313.271 103.468C313.196 103.483 313.129 103.44 313.121 103.372C313.113 103.303 313.168 103.236 313.243 103.221C313.318 103.206 313.386 103.249 313.393 103.318Z" fill="#D1D3D4"/>
<path d="M313.493 103.982C313.5 104.05 313.446 104.118 313.371 104.133C313.295 104.148 313.228 104.104 313.22 104.036C313.213 103.968 313.267 103.9 313.343 103.885C313.418 103.87 313.485 103.914 313.493 103.982Z" fill="#D1D3D4"/>
<path d="M313.653 103.751C313.729 103.737 313.783 103.669 313.775 103.6C313.767 103.532 313.7 103.488 313.625 103.503C313.55 103.517 313.495 103.585 313.503 103.653C313.511 103.722 313.578 103.766 313.653 103.751Z" fill="#D1D3D4"/>
<path d="M312.989 103.851C312.914 103.865 312.846 103.821 312.839 103.753C312.831 103.684 312.885 103.617 312.96 103.602C313.035 103.588 313.103 103.631 313.11 103.7C313.118 103.768 313.064 103.836 312.989 103.851Z" fill="#D1D3D4"/>
<path d="M312.887 100.174C310.729 100.606 309.155 102.532 309.373 104.476C309.59 106.42 311.517 107.646 313.675 107.214C315.834 106.782 317.407 104.856 317.189 102.912C316.972 100.968 315.046 99.7421 312.887 100.174ZM313.514 105.774C312.239 106.029 311.101 105.305 310.972 104.156C310.844 103.008 311.773 101.87 313.048 101.615C314.324 101.359 315.462 102.084 315.59 103.232C315.719 104.381 314.789 105.519 313.514 105.774Z" fill="#75787A"/>
<path d="M312.989 101.36C311.616 101.606 310.633 102.85 310.795 104.139C310.956 105.428 312.2 106.274 313.574 106.028C314.947 105.782 315.929 104.538 315.767 103.249C315.606 101.96 314.362 101.115 312.989 101.36ZM313.53 105.677C312.363 105.886 311.306 105.167 311.169 104.072C311.032 102.977 311.866 101.92 313.033 101.712C314.199 101.503 315.256 102.221 315.393 103.316C315.531 104.411 314.696 105.468 313.53 105.677Z" fill="#D1D3D4"/>
<path d="M347.281 100.624C346.115 100.833 345.058 100.114 344.92 99.0194C344.783 97.9245 345.618 96.8676 346.784 96.6589C347.951 96.4502 349.008 97.1687 349.145 98.2637C349.282 99.3586 348.448 100.416 347.281 100.624Z" fill="#231F20"/>
<path d="M347.787 98.5319C347.786 98.5161 347.786 98.5003 347.784 98.4846C347.767 98.3357 347.695 98.2103 347.588 98.1204L348.379 96.8466C348.171 96.7255 347.937 96.6397 347.685 96.5951L347.199 97.9726C347.139 97.9695 347.076 97.9732 347.012 97.9856C346.929 98.0018 346.851 98.0312 346.78 98.0698L345.899 96.9681C345.669 97.1143 345.466 97.2936 345.299 97.4961L346.464 98.3798C346.401 98.4956 346.371 98.6262 346.386 98.7574C346.388 98.7719 346.391 98.7858 346.393 98.7999L344.884 99.4836C344.965 99.712 345.09 99.9161 345.25 100.09L346.593 99.131C346.685 99.2054 346.803 99.2531 346.932 99.2667L346.888 100.73C347.013 100.725 347.141 100.711 347.271 100.686C347.406 100.659 347.537 100.622 347.663 100.576L347.36 99.1889C347.486 99.1274 347.591 99.0357 347.666 98.9271L349.086 99.3101C349.193 99.0867 349.261 98.8487 349.284 98.6049L347.787 98.5319Z" fill="#E6E7E8"/>
<path d="M347.022 98.4157C347.098 98.4007 347.152 98.3332 347.145 98.2649C347.137 98.1965 347.07 98.1533 346.995 98.1682C346.919 98.1832 346.865 98.2507 346.872 98.319C346.88 98.3874 346.947 98.4307 347.022 98.4157Z" fill="#D1D3D4"/>
<path d="M347.244 98.9292C347.252 98.9975 347.197 99.0651 347.122 99.08C347.047 99.095 346.979 99.0516 346.972 98.9834C346.964 98.9151 347.019 98.8475 347.094 98.8325C347.169 98.8176 347.237 98.8609 347.244 98.9292Z" fill="#D1D3D4"/>
<path d="M347.405 98.6984C347.33 98.7131 347.262 98.6692 347.255 98.6007C347.247 98.5321 347.301 98.4646 347.376 98.4499C347.451 98.4353 347.519 98.4791 347.526 98.5477C347.534 98.6163 347.48 98.6838 347.405 98.6984Z" fill="#D1D3D4"/>
<path d="M346.74 98.7978C346.815 98.7832 346.87 98.7157 346.862 98.6471C346.854 98.5784 346.787 98.5347 346.712 98.5493C346.637 98.5639 346.582 98.6314 346.59 98.7001C346.598 98.7687 346.665 98.8124 346.74 98.7978Z" fill="#D1D3D4"/>
<path d="M346.639 95.1213C344.48 95.5533 342.907 97.4795 343.124 99.4235C343.342 101.368 345.268 102.593 347.427 102.161C349.585 101.729 351.158 99.803 350.941 97.859C350.724 95.9151 348.797 94.6893 346.639 95.1213ZM347.265 100.721C345.99 100.976 344.852 100.252 344.724 99.1035C344.595 97.955 345.525 96.8171 346.8 96.5618C348.075 96.3066 349.213 97.0307 349.342 98.1792C349.47 99.3278 348.541 100.466 347.265 100.721Z" fill="#75787A"/>
<path d="M346.74 96.3077C345.367 96.5533 344.385 97.7973 344.546 99.0862C344.708 100.375 345.952 101.221 347.325 100.975C348.698 100.73 349.68 99.4855 349.519 98.1966C349.358 96.9077 348.114 96.062 346.74 96.3077ZM347.281 100.624C346.115 100.833 345.058 100.114 344.921 99.0194C344.783 97.9245 345.618 96.8676 346.784 96.6589C347.951 96.4502 349.008 97.1687 349.145 98.2637C349.282 99.3587 348.448 100.416 347.281 100.624Z" fill="#D1D3D4"/>
<path d="M316.851 100.966C317.348 101.524 317.685 102.215 317.791 102.994C317.791 102.996 317.791 102.998 317.791 103C317.831 103.295 318.122 103.493 318.45 103.439L341.972 99.5459C342.296 99.4924 342.519 99.212 342.479 98.9217C342.478 98.9173 342.478 98.913 342.477 98.9086C342.162 96.5861 344.01 94.3484 346.597 93.9203C349.183 93.4923 351.543 95.0336 351.858 97.3561C351.858 97.3604 351.859 97.3648 351.859 97.3691C351.898 97.6598 352.186 97.8555 352.509 97.8019L354.177 97.526L353.449 92.1551C351.72 92.3325 348.834 92.6612 346.014 93.1279C341.578 93.8621 341.218 96.9327 341.218 96.9327L323.531 99.8601L316.851 100.966Z" fill="#545353"/>
<path d="M352.473 98.3181L355.012 97.8967C355.423 97.8284 355.713 97.4523 355.66 97.0564L355.232 93.8912C355.179 93.4954 354.802 93.23 354.391 93.2983L348.751 94.2344C350.35 94.7516 351.576 96.0972 351.811 97.8379C351.811 97.8399 351.812 97.8418 351.812 97.8438C351.854 98.1577 352.146 98.3723 352.473 98.3181Z" fill="#363434"/>
<path d="M303.878 103.233L303.884 103.273C303.616 103.317 303.426 103.561 303.461 103.817L303.659 105.269C303.693 105.525 303.939 105.697 304.207 105.653L308.7 104.912L308.694 104.863L308.733 104.857C308.682 104.671 308.641 104.481 308.614 104.285C308.528 103.648 308.585 103.019 308.761 102.428L303.878 103.233Z" fill="#545353"/>
<path d="M343.709 90.3363L342.502 90.5511C342.349 90.5783 342.218 90.4688 342.229 90.3233L342.343 88.7985C342.351 88.687 342.442 88.5913 342.559 88.5705L343.466 88.4089C344.223 88.2742 344.89 88.5964 344.957 89.1285C345.024 89.6609 344.465 90.2015 343.709 90.3363Z" fill="white"/>
<path d="M343.646 89.7737L342.448 89.9847C342.384 89.9959 342.324 89.9832 342.277 89.9542L342.249 90.3281C342.238 90.471 342.369 90.5785 342.52 90.5518L343.718 90.3408C344.469 90.2084 345.025 89.6774 344.958 89.1548C344.945 89.056 344.912 88.9645 344.86 88.8821C344.735 89.2969 344.255 89.6663 343.646 89.7737Z" fill="#D1D3D4"/>
<path d="M353.177 91.3777C353.075 90.6246 352.712 89.9639 352.178 89.4784L350.512 89.7552C350.512 89.7552 351.225 91.7609 352.902 91.6575C353.009 91.6508 353.112 91.6426 353.211 91.6328L353.177 91.3777Z" fill="#D1D3D4"/>
<path d="M352.881 91.3771C351.822 91.4334 351.191 90.4831 350.928 89.9702L352.07 89.7803C352.504 90.2122 352.789 90.7729 352.881 91.3771Z" fill="white"/>
<path d="M335.947 85.1404C335.56 84.9967 335.13 84.9567 334.703 85.0313L333.846 85.1803L331.769 91.0168L333.998 90.6181L335.947 85.1404Z" fill="#28211F"/>
<path d="M337.905 86.2001L336.595 85.5637L334.814 90.5649L336.455 90.2715L337.905 86.2001Z" fill="#28211F"/>
<line x1="277.609" y1="86.1277" x2="300.749" y2="93.4903" stroke="white"/>
<line x1="275.926" y1="93.9736" x2="300.114" y2="96.1193" stroke="white"/>
<line x1="276.382" y1="101.211" x2="300.501" y2="98.3929" stroke="white"/>
<rect x="316.856" y="88.6016" width="3.14474" height="9.43422" transform="rotate(-8.64681 316.856 88.6016)" fill="#02A4D1"/>
<rect x="323.546" y="90.765" width="3.14474" height="9.43422" transform="rotate(81.3532 323.546 90.765)" fill="#02A4D1"/>
<path d="M1125.46 88.9642L1124.22 91.3414L1132.59 92.6867L1130.8 89.4264L1125.46 88.9642Z" fill="#00A0D4"/>
<g filter="url(#filter2_f_114_3992)">
<path d="M1179 41.6257L1130.17 89.3448L1131 91.3684L1212.41 79.6182L1179 41.6257Z" fill="url(#paint2_linear_114_3992)"/>
</g>
<g filter="url(#filter3_f_114_3992)">
<path d="M1096.52 17.5795L1127.12 88.8028L1124.71 89.89L1028.59 26.186L1096.52 17.5795Z" fill="url(#paint3_linear_114_3992)"/>
</g>
<path d="M1118.19 103.1L1116.61 102.854C1114.99 102.858 1113.54 103.659 1112.75 104.921C1112.64 105.109 1112.53 105.308 1112.45 105.515C1112.44 105.517 1112.44 105.519 1112.44 105.52C1112.42 105.585 1112.39 105.652 1112.37 105.718C1112.37 105.723 1112.36 105.728 1112.36 105.734C1112.34 105.796 1112.32 105.86 1112.3 105.924C1112.3 105.933 1112.29 105.943 1112.29 105.952C1112.27 106.013 1112.26 106.074 1112.24 106.135C1112.24 106.149 1112.23 106.162 1112.23 106.176C1112.22 106.235 1112.21 106.295 1112.2 106.355C1112.19 106.371 1112.19 106.388 1112.19 106.404C1112.18 106.439 1112.17 106.474 1112.17 106.509L1121.62 107.987C1121.81 105.827 1120.34 103.79 1118.19 103.1Z" fill="#231F20"/>
<path d="M1155.6 112.527C1155.61 112.509 1155.61 112.49 1155.61 112.472C1155.61 112.414 1155.61 112.356 1155.61 112.298C1155.61 112.287 1155.61 112.276 1155.61 112.265C1155.61 112.198 1155.61 112.132 1155.61 112.065C1155.61 112.047 1155.61 112.03 1155.61 112.012C1155.61 111.959 1155.6 111.905 1155.6 111.853C1155.6 111.836 1155.59 111.82 1155.59 111.804C1155.59 111.739 1155.58 111.674 1155.57 111.61C1155.57 111.593 1155.56 111.577 1155.56 111.56C1155.55 111.51 1155.54 111.459 1155.53 111.409C1155.53 111.39 1155.53 111.37 1155.52 111.35C1155.51 111.288 1155.5 111.226 1155.48 111.164C1155.48 111.149 1155.47 111.135 1155.47 111.12C1155.46 111.071 1155.44 111.022 1155.43 110.974C1155.42 110.952 1155.41 110.929 1155.41 110.907C1155.39 110.858 1155.38 110.81 1155.36 110.761C1155.35 110.74 1155.34 110.719 1155.34 110.698C1155.32 110.648 1155.3 110.599 1155.28 110.55C1155.27 110.526 1155.26 110.502 1155.25 110.477C1155.23 110.439 1155.21 110.401 1155.2 110.364C1155.18 110.341 1155.17 110.319 1155.16 110.297C1155.14 110.244 1155.11 110.193 1155.09 110.142C1155.07 110.115 1155.06 110.089 1155.04 110.063C1155.03 110.032 1155.01 110.001 1154.99 109.971C1154.97 109.944 1154.96 109.918 1154.94 109.891C1154.91 109.844 1154.88 109.797 1154.85 109.75C1154.84 109.723 1154.82 109.695 1154.8 109.668C1154.78 109.642 1154.76 109.617 1154.74 109.592C1154.72 109.564 1154.7 109.535 1154.68 109.507C1154.66 109.483 1154.65 109.459 1154.63 109.435C1154.59 109.387 1154.55 109.34 1154.51 109.293C1154.5 109.273 1154.48 109.253 1154.46 109.233C1154.44 109.204 1154.41 109.175 1154.39 109.147C1154.37 109.129 1154.35 109.112 1154.34 109.094C1154.29 109.042 1154.24 108.991 1154.19 108.941C1154.17 108.927 1154.16 108.912 1154.14 108.898C1154.11 108.87 1154.08 108.841 1154.05 108.814C1154.04 108.799 1154.02 108.785 1154.01 108.77C1153.94 108.709 1153.87 108.65 1153.79 108.592C1153.79 108.591 1153.79 108.59 1153.79 108.59C1153.76 108.563 1153.72 108.537 1153.69 108.511C1153.67 108.498 1153.66 108.486 1153.64 108.473C1153.61 108.448 1153.57 108.422 1153.54 108.398C1153.12 108.109 1152.66 107.877 1152.16 107.717L1150.59 107.471C1148.36 107.477 1146.46 108.987 1146.14 111.127L1155.6 112.605C1155.6 112.578 1155.6 112.553 1155.6 112.527Z" fill="#231F20"/>
<path d="M1156.71 103.98L1152.35 102.148L1144.99 95.7277C1144.18 95.0178 1143.17 94.5455 1142.09 94.3752L1113.85 89.9014C1112.22 89.6434 1110.72 90.5491 1110.35 92.0105L1108.24 100.39L1107.87 103.39C1107.6 103.347 1107.36 103.514 1107.33 103.762L1107.17 105.167C1107.14 105.415 1107.33 105.65 1107.6 105.693L1112.11 106.406L1112.11 106.36L1112.15 106.366C1112.15 106.178 1112.16 105.989 1112.18 105.799C1112.46 103.397 1114.8 101.778 1117.41 102.191C1120.01 102.603 1121.9 104.893 1121.62 107.296C1121.62 107.297 1121.62 107.299 1121.62 107.301C1121.59 107.606 1121.82 107.897 1122.15 107.949L1145.83 111.701C1146.16 111.752 1146.44 111.547 1146.48 111.246C1146.48 111.242 1146.48 111.237 1146.48 111.233C1146.76 108.83 1149.1 107.211 1151.71 107.624C1154.31 108.036 1156.2 110.326 1155.92 112.729C1155.92 112.733 1155.92 112.738 1155.92 112.742C1155.88 113.043 1156.11 113.33 1156.44 113.381L1158.12 113.647L1158.85 107.379C1159.01 105.973 1158.13 104.58 1156.71 103.98Z" fill="#F1F2F2"/>
<path d="M1136.83 95.2161L1136.66 99.6824C1136.64 100.092 1136.97 100.463 1137.4 100.532L1149.21 102.423C1149.82 102.521 1150.17 101.84 1149.72 101.42L1144.05 96.0963C1143.63 95.6802 1143.08 95.4009 1142.5 95.3044L1137.76 94.5217C1137.27 94.4419 1136.85 94.7618 1136.83 95.2161Z" fill="#010101"/>
<path d="M1107.6 106.756L1112.13 107.483L1112.14 107.436L1112.18 107.442C1112.17 107.251 1112.18 107.058 1112.2 106.864C1112.3 106.042 1112.63 105.311 1113.12 104.717L1107.94 103.884L1107.87 104.407C1107.6 104.364 1107.36 104.534 1107.33 104.787L1107.17 106.219C1107.14 106.472 1107.33 106.712 1107.6 106.756Z" fill="#D1D3D4"/>
<path d="M1116.59 109.525C1115.43 109.333 1114.58 108.287 1114.71 107.188C1114.83 106.089 1115.88 105.352 1117.04 105.544C1118.21 105.735 1119.06 106.781 1118.93 107.88C1118.81 108.98 1117.76 109.716 1116.59 109.525Z" fill="#231F20"/>
<path d="M1117.56 107.706C1117.56 107.69 1117.57 107.675 1117.57 107.659C1117.58 107.51 1117.54 107.362 1117.46 107.237L1118.49 106.304C1118.31 106.111 1118.11 105.942 1117.87 105.806L1117.12 106.951C1117.06 106.926 1117 106.907 1116.93 106.895C1116.85 106.88 1116.77 106.879 1116.69 106.89L1116.08 105.507C1115.83 105.563 1115.6 105.66 1115.39 105.793L1116.32 107.072C1116.24 107.16 1116.18 107.274 1116.17 107.406C1116.17 107.421 1116.17 107.435 1116.17 107.45L1114.57 107.551C1114.6 107.8 1114.68 108.042 1114.8 108.268L1116.29 107.841C1116.36 107.947 1116.46 108.036 1116.58 108.097L1116.23 109.487C1116.35 109.529 1116.48 109.562 1116.61 109.585C1116.74 109.61 1116.88 109.622 1117.01 109.625L1117.01 108.18C1117.14 108.167 1117.27 108.118 1117.36 108.041L1118.64 108.932C1118.79 108.757 1118.91 108.553 1118.98 108.327L1117.56 107.706Z" fill="#E6E7E8"/>
<path d="M1117.03 107.217C1117.02 107.286 1116.96 107.33 1116.88 107.316C1116.81 107.302 1116.75 107.235 1116.76 107.166C1116.76 107.098 1116.83 107.054 1116.91 107.068C1116.98 107.082 1117.04 107.149 1117.03 107.217Z" fill="#D1D3D4"/>
<path d="M1116.94 107.883C1116.93 107.951 1116.87 107.995 1116.79 107.981C1116.72 107.967 1116.66 107.901 1116.67 107.832C1116.67 107.764 1116.74 107.719 1116.82 107.733C1116.89 107.747 1116.95 107.814 1116.94 107.883Z" fill="#D1D3D4"/>
<path d="M1117.17 107.694C1117.24 107.708 1117.31 107.663 1117.32 107.594C1117.32 107.526 1117.27 107.459 1117.19 107.445C1117.12 107.431 1117.05 107.476 1117.05 107.545C1117.04 107.614 1117.09 107.681 1117.17 107.694Z" fill="#D1D3D4"/>
<path d="M1116.5 107.604C1116.43 107.59 1116.37 107.524 1116.38 107.455C1116.39 107.386 1116.45 107.341 1116.53 107.355C1116.6 107.369 1116.66 107.436 1116.65 107.504C1116.64 107.573 1116.58 107.618 1116.5 107.604Z" fill="#D1D3D4"/>
<path d="M1117.17 104.004C1115.01 103.602 1113.1 104.856 1112.91 106.805C1112.72 108.755 1114.31 110.661 1116.47 111.064C1118.63 111.466 1120.54 110.212 1120.73 108.263C1120.92 106.314 1119.33 104.407 1117.17 104.004ZM1116.61 109.62C1115.34 109.382 1114.4 108.255 1114.51 107.104C1114.62 105.952 1115.75 105.211 1117.03 105.449C1118.3 105.686 1119.24 106.813 1119.13 107.965C1119.01 109.117 1117.89 109.857 1116.61 109.62Z" fill="#75787A"/>
<path d="M1117.08 105.191C1115.71 104.966 1114.48 105.833 1114.33 107.126C1114.19 108.42 1115.18 109.652 1116.56 109.877C1117.93 110.102 1119.16 109.236 1119.31 107.942C1119.45 106.648 1118.46 105.416 1117.08 105.191ZM1116.59 109.525C1115.43 109.333 1114.58 108.287 1114.71 107.188C1114.83 106.089 1115.88 105.353 1117.04 105.544C1118.21 105.735 1119.06 106.781 1118.93 107.881C1118.81 108.98 1117.76 109.716 1116.59 109.525Z" fill="#D1D3D4"/>
<path d="M1150.41 114.12C1149.24 113.929 1148.4 112.882 1148.52 111.783C1148.65 110.684 1149.69 109.948 1150.86 110.139C1152.03 110.33 1152.87 111.377 1152.75 112.476C1152.62 113.575 1151.58 114.311 1150.41 114.12Z" fill="#231F20"/>
<path d="M1151.38 112.301C1151.38 112.286 1151.38 112.27 1151.38 112.254C1151.4 112.105 1151.36 111.958 1151.27 111.832L1152.3 110.899C1152.13 110.706 1151.92 110.538 1151.69 110.402L1150.93 111.547C1150.87 111.521 1150.81 111.502 1150.75 111.49C1150.67 111.475 1150.59 111.475 1150.51 111.486L1149.9 110.102C1149.65 110.158 1149.42 110.256 1149.21 110.389L1150.14 111.667C1150.06 111.755 1150 111.87 1149.99 112.001C1149.98 112.016 1149.98 112.03 1149.98 112.045L1148.39 112.146C1148.42 112.395 1148.5 112.638 1148.61 112.864L1150.1 112.437C1150.18 112.542 1150.28 112.631 1150.4 112.692L1150.05 114.082C1150.17 114.124 1150.29 114.157 1150.42 114.181C1150.56 114.205 1150.69 114.218 1150.82 114.22L1150.83 112.775C1150.96 112.762 1151.08 112.713 1151.18 112.636L1152.46 113.528C1152.61 113.352 1152.72 113.149 1152.8 112.923L1151.38 112.301Z" fill="#E6E7E8"/>
<path d="M1150.7 111.911C1150.77 111.925 1150.84 111.881 1150.85 111.813C1150.85 111.744 1150.8 111.677 1150.72 111.663C1150.65 111.649 1150.58 111.693 1150.57 111.762C1150.57 111.83 1150.62 111.897 1150.7 111.911Z" fill="#D1D3D4"/>
<path d="M1150.76 112.478C1150.75 112.547 1150.68 112.591 1150.61 112.577C1150.53 112.563 1150.48 112.496 1150.48 112.428C1150.49 112.359 1150.56 112.315 1150.63 112.329C1150.71 112.343 1150.76 112.41 1150.76 112.478Z" fill="#D1D3D4"/>
<path d="M1150.99 112.29C1150.91 112.276 1150.86 112.209 1150.86 112.141C1150.87 112.072 1150.94 112.027 1151.01 112.041C1151.09 112.054 1151.14 112.121 1151.13 112.19C1151.13 112.259 1151.06 112.303 1150.99 112.29Z" fill="#D1D3D4"/>
<path d="M1150.32 112.199C1150.39 112.213 1150.46 112.168 1150.47 112.099C1150.48 112.031 1150.42 111.964 1150.35 111.95C1150.27 111.937 1150.2 111.981 1150.2 112.05C1150.19 112.119 1150.24 112.186 1150.32 112.199Z" fill="#D1D3D4"/>
<path d="M1150.99 108.6C1148.83 108.197 1146.92 109.451 1146.73 111.401C1146.53 113.35 1148.13 115.257 1150.29 115.659C1152.45 116.062 1154.35 114.808 1154.55 112.858C1154.74 110.909 1153.14 109.002 1150.99 108.6ZM1150.43 114.215C1149.15 113.977 1148.21 112.851 1148.33 111.699C1148.44 110.547 1149.57 109.806 1150.84 110.044C1152.12 110.282 1153.06 111.408 1152.95 112.56C1152.83 113.712 1151.7 114.453 1150.43 114.215Z" fill="#75787A"/>
<path d="M1150.9 109.787C1149.53 109.562 1148.3 110.428 1148.15 111.722C1148 113.016 1149 114.247 1150.37 114.472C1151.75 114.697 1152.98 113.831 1153.12 112.537C1153.27 111.243 1152.27 110.012 1150.9 109.787ZM1150.41 114.12C1149.24 113.929 1148.4 112.883 1148.52 111.783C1148.65 110.684 1149.69 109.948 1150.86 110.139C1152.03 110.331 1152.87 111.377 1152.75 112.476C1152.62 113.575 1151.58 114.311 1150.41 114.12Z" fill="#D1D3D4"/>
<path d="M1121.1 105.346C1121.44 106.038 1121.59 106.808 1121.49 107.59C1121.49 107.592 1121.49 107.594 1121.49 107.596C1121.45 107.891 1121.68 108.173 1122.01 108.223L1145.57 111.792C1145.9 111.841 1146.18 111.641 1146.22 111.349C1146.22 111.345 1146.22 111.34 1146.22 111.336C1146.5 109.004 1148.84 107.426 1151.43 107.818C1154.02 108.211 1155.9 110.427 1155.61 112.759C1155.61 112.763 1155.61 112.768 1155.61 112.772C1155.57 113.064 1155.8 113.342 1156.13 113.391L1157.8 113.644L1158.45 108.251C1156.75 107.884 1153.9 107.303 1151.07 106.875C1146.63 106.202 1145.51 109.044 1145.51 109.044L1127.79 106.36L1121.1 105.346Z" fill="#545353"/>
<path d="M1156.01 113.353L1158.55 113.737C1158.97 113.799 1159.34 113.528 1159.39 113.131L1159.78 109.954C1159.82 109.556 1159.53 109.184 1159.12 109.122L1153.47 108.268C1154.88 109.263 1155.71 110.938 1155.5 112.685C1155.5 112.687 1155.5 112.689 1155.5 112.691C1155.46 113.006 1155.69 113.303 1156.01 113.353Z" fill="#363434"/>
<path d="M1107.9 104.388L1107.9 104.429C1107.63 104.388 1107.38 104.564 1107.35 104.821L1107.17 106.279C1107.14 106.536 1107.33 106.778 1107.6 106.818L1112.1 107.494L1112.11 107.446L1112.15 107.452C1112.14 107.258 1112.15 107.062 1112.18 106.865C1112.26 106.225 1112.47 105.637 1112.79 105.123L1107.9 104.388Z" fill="#545353"/>
<path d="M1149.81 103.237L1148.61 103.04C1148.45 103.015 1148.35 102.866 1148.4 102.73L1148.86 101.3C1148.9 101.196 1149.01 101.134 1149.12 101.153L1150.03 101.301C1150.79 101.425 1151.35 101.958 1151.29 102.493C1151.23 103.027 1150.57 103.361 1149.81 103.237Z" fill="white"/>
<path d="M1149.87 102.671L1148.67 102.477C1148.61 102.467 1148.55 102.435 1148.51 102.391L1148.4 102.742C1148.35 102.876 1148.45 103.023 1148.6 103.047L1149.8 103.241C1150.55 103.362 1151.21 103.035 1151.27 102.509C1151.28 102.41 1151.27 102.311 1151.24 102.214C1151.03 102.573 1150.48 102.769 1149.87 102.671Z" fill="#D1D3D4"/>
<path d="M1158.58 106.918C1158.68 106.163 1158.5 105.414 1158.11 104.781L1156.44 104.529C1156.44 104.529 1156.62 106.679 1158.25 107.102C1158.36 107.129 1158.46 107.153 1158.55 107.174L1158.58 106.918Z" fill="#D1D3D4"/>
<path d="M1158.3 106.824C1157.27 106.549 1156.91 105.439 1156.78 104.864L1157.93 105.037C1158.23 105.587 1158.37 106.215 1158.3 106.824Z" fill="white"/>
<path d="M1143.64 96.1797C1143.3 95.9116 1142.9 95.7287 1142.47 95.6569L1141.62 95.5123L1138.26 100.427L1140.49 100.792L1143.64 96.1797Z" fill="#28211F"/>
<path d="M1145.27 97.7177L1144.16 96.6662L1141.29 100.876L1142.93 101.145L1145.27 97.7177Z" fill="#28211F"/>
<line x1="1087.49" y1="80.6858" x2="1107.64" y2="94.2306" stroke="white"/>
<line x1="1083.68" y1="87.747" x2="1106.3" y2="96.5767" stroke="white"/>
<line x1="1082.09" y1="94.8231" x2="1106.03" y2="98.8678" stroke="white"/>
<rect x="1124.47" y="94.0454" width="3.14474" height="9.43422" transform="rotate(7.60642 1124.47 94.0454)" fill="#02A4D1"/>
<rect x="1130.29" y="97.9949" width="3.14474" height="9.43422" transform="rotate(97.6064 1130.29 97.9949)" fill="#02A4D1"/>
<path d="M1228.22 91.2276C1218.32 74.4586 1203.97 40.8389 1225.71 40.512C1247.44 40.1851 1236.44 74.1862 1228.22 91.2276Z" fill="white" stroke="white"/>
<circle cx="1225.89" cy="52.204" r="8.22221" transform="rotate(-5.92532 1225.89 52.204)" fill="black"/>
<defs>
<filter id="filter0_f_114_3992" x="317" y="20" width="84" height="69" filterUnits="userSpaceOnUse" color-interpolation-filters="sRGB">
<feFlood flood-opacity="0" result="BackgroundImageFix"/>
<feBlend mode="normal" in="SourceGraphic" in2="BackgroundImageFix" result="shape"/>
<feGaussianBlur stdDeviation="2" result="effect1_foregroundBlur_114_3992"/>
</filter>
<filter id="filter1_f_114_3992" x="201" y="20" width="121" height="70" filterUnits="userSpaceOnUse" color-interpolation-filters="sRGB">
<feFlood flood-opacity="0" result="BackgroundImageFix"/>
<feBlend mode="normal" in="SourceGraphic" in2="BackgroundImageFix" result="shape"/>
<feGaussianBlur stdDeviation="2" result="effect1_foregroundBlur_114_3992"/>
</filter>
<filter id="filter2_f_114_3992" x="1126.17" y="37.6256" width="90.2389" height="57.7428" filterUnits="userSpaceOnUse" color-interpolation-filters="sRGB">
<feFlood flood-opacity="0" result="BackgroundImageFix"/>
<feBlend mode="normal" in="SourceGraphic" in2="BackgroundImageFix" result="shape"/>
<feGaussianBlur stdDeviation="2" result="effect1_foregroundBlur_114_3992"/>
</filter>
<filter id="filter3_f_114_3992" x="1024.59" y="13.5796" width="106.535" height="80.3104" filterUnits="userSpaceOnUse" color-interpolation-filters="sRGB">
<feFlood flood-opacity="0" result="BackgroundImageFix"/>
<feBlend mode="normal" in="SourceGraphic" in2="BackgroundImageFix" result="shape"/>
<feGaussianBlur stdDeviation="2" result="effect1_foregroundBlur_114_3992"/>
</filter>
<linearGradient id="paint0_linear_114_3992" x1="321.352" y1="84.6592" x2="376.956" y2="33.2578" gradientUnits="userSpaceOnUse">
<stop offset="0.0464299" stop-color="#00A1D4"/>
<stop offset="0.95219" stop-color="#00546E" stop-opacity="0"/>
</linearGradient>
<linearGradient id="paint1_linear_114_3992" x1="317.476" y1="85.6536" x2="263.274" y2="12.3554" gradientUnits="userSpaceOnUse">
<stop offset="0.0464299" stop-color="#03C7FD"/>
<stop offset="0.95219" stop-color="#00546E" stop-opacity="0"/>
</linearGradient>
<linearGradient id="paint2_linear_114_3992" x1="1130.13" y1="90.7564" x2="1198.1" y2="56.871" gradientUnits="userSpaceOnUse">
<stop offset="0.0464299" stop-color="#00A1D4"/>
<stop offset="0.95219" stop-color="#00546E" stop-opacity="0"/>
</linearGradient>
<linearGradient id="paint3_linear_114_3992" x1="1126.24" y1="89.9774" x2="1094.95" y2="5.09446" gradientUnits="userSpaceOnUse">
<stop offset="0.0464299" stop-color="#03C7FD"/>
<stop offset="0.95219" stop-color="#00546E" stop-opacity="0"/>
</linearGradient>
</defs>
</svg>
