<svg width="317" height="502" viewBox="0 0 317 502" fill="none" xmlns="http://www.w3.org/2000/svg">
<path d="M203.333 3C203.333 4.47276 204.527 5.66667 206 5.66667C207.473 5.66667 208.667 4.47276 208.667 3C208.667 1.52724 207.473 0.333333 206 0.333333C204.527 0.333333 203.333 1.52724 203.333 3ZM315.5 198L315.001 197.973L315.5 198ZM0.333333 499C0.333333 500.473 1.52724 501.667 3 501.667C4.47276 501.667 5.66667 500.473 5.66667 499C5.66667 497.527 4.47276 496.333 3 496.333C1.52724 496.333 0.333333 497.527 0.333333 499ZM205.675 3.3799C217.815 13.7677 231.207 22.8942 244.282 32.757C257.372 42.6316 270.182 53.2693 281.251 66.7301C303.369 93.6271 318.595 131.871 315.001 197.973L315.999 198.027C319.605 131.729 304.331 93.2229 282.024 66.0949C270.88 52.5432 257.996 41.8496 244.884 31.9586C231.756 22.0558 218.435 12.9823 206.325 2.6201L205.675 3.3799ZM315.001 197.973C312.757 239.241 299.798 266.215 279.745 286.587C259.667 306.984 232.45 320.794 201.595 335.675C139.905 365.426 63.9076 399.353 2.5745 498.737L3.4255 499.263C64.5924 400.147 140.345 366.324 202.03 336.575C232.862 321.706 260.239 307.828 280.458 287.288C300.702 266.722 313.743 239.509 315.999 198.027L315.001 197.973Z" fill="white"/>
</svg>
