<svg width="1269" height="205" viewBox="0 0 1269 205" fill="none" xmlns="http://www.w3.org/2000/svg">
<path d="M0.309021 171.891C0.309021 171.891 168.601 132.974 610.885 187.142C1053.17 241.311 1227.77 150.329 1227.77 150.329" stroke="white"/>
<path d="M316.376 132.449L315.85 135.078L324.265 134.026L321.635 131.397L316.376 132.449Z" fill="#00A0D4"/>
<g filter="url(#filter0_f_114_3992)">
<path d="M373.214 39.89L321.635 131.397L323.739 134.026L438.911 81.62L373.214 39.89Z" fill="url(#paint0_linear_114_3992)"/>
</g>
<g filter="url(#filter1_f_114_3992)">
<path d="M241.037 39.89L316.902 131.908L313.808 134.552L144.406 81.8532L241.037 39.89Z" fill="url(#paint1_linear_114_3992)"/>
</g>
<path d="M313.409 147.989L311.842 148.247C310.288 148.764 309.106 150.001 308.667 151.479C308.602 151.7 308.553 151.926 308.522 152.155C308.521 152.157 308.521 152.159 308.521 152.161C308.511 152.233 308.503 152.305 308.497 152.378C308.497 152.383 308.496 152.389 308.496 152.395C308.49 152.462 308.487 152.531 308.484 152.599C308.484 152.609 308.483 152.62 308.483 152.63C308.481 152.694 308.481 152.758 308.483 152.823C308.483 152.837 308.482 152.852 308.483 152.866C308.484 152.928 308.488 152.99 308.492 153.052C308.494 153.069 308.494 153.086 308.495 153.103C308.498 153.139 308.503 153.175 308.507 153.21L317.919 151.663C317.559 149.5 315.639 147.982 313.409 147.989Z" fill="#231F20"/>
<path d="M351.816 146.51C351.812 146.491 351.809 146.473 351.805 146.455C351.794 146.397 351.781 146.34 351.768 146.283C351.765 146.272 351.763 146.262 351.76 146.251C351.744 146.186 351.726 146.121 351.707 146.058C351.702 146.04 351.696 146.023 351.691 146.006C351.675 145.956 351.658 145.905 351.641 145.855C351.635 145.839 351.63 145.824 351.624 145.809C351.602 145.748 351.578 145.687 351.553 145.627C351.547 145.612 351.54 145.597 351.533 145.581C351.513 145.535 351.492 145.489 351.47 145.443C351.461 145.425 351.453 145.407 351.444 145.389C351.416 145.332 351.387 145.276 351.357 145.222C351.35 145.208 351.342 145.195 351.334 145.182C351.31 145.138 351.284 145.095 351.258 145.053C351.246 145.033 351.234 145.014 351.222 144.994C351.195 144.952 351.167 144.909 351.139 144.868C351.126 144.85 351.113 144.831 351.101 144.813C351.071 144.771 351.04 144.729 351.008 144.688C350.993 144.667 350.977 144.647 350.96 144.626C350.935 144.594 350.909 144.563 350.883 144.532C350.867 144.513 350.852 144.495 350.837 144.476C350.799 144.434 350.761 144.392 350.722 144.35C350.702 144.329 350.682 144.308 350.662 144.287C350.637 144.263 350.613 144.238 350.588 144.214C350.567 144.193 350.545 144.172 350.523 144.152C350.484 144.115 350.444 144.078 350.403 144.043C350.378 144.021 350.353 144.001 350.328 143.98C350.305 143.961 350.282 143.942 350.259 143.923C350.232 143.902 350.205 143.88 350.178 143.86C350.155 143.842 350.131 143.824 350.107 143.807C350.059 143.772 350.011 143.738 349.962 143.705C349.941 143.691 349.92 143.677 349.899 143.663C349.867 143.643 349.835 143.622 349.803 143.603C349.783 143.591 349.763 143.579 349.743 143.567C349.684 143.532 349.624 143.498 349.563 143.465C349.545 143.456 349.528 143.446 349.51 143.437C349.474 143.418 349.439 143.401 349.402 143.383C349.384 143.374 349.365 143.365 349.346 143.356C349.265 143.318 349.183 143.283 349.099 143.249C349.098 143.249 349.097 143.248 349.096 143.248C349.057 143.232 349.018 143.218 348.979 143.203C348.96 143.196 348.941 143.189 348.921 143.183C348.882 143.169 348.842 143.155 348.803 143.142C348.335 142.991 347.835 142.911 347.319 142.913L345.752 143.171C343.618 143.881 342.185 145.95 342.417 148.135L351.829 146.587C351.824 146.561 351.82 146.535 351.816 146.51Z" fill="#231F20"/>
<path d="M350.425 137.226L345.8 136.828L337.167 132.894C336.212 132.459 335.125 132.321 334.054 132.499L305.918 137.171C304.295 137.441 303.082 138.81 303.094 140.361L303.158 149.251L303.55 152.31C303.282 152.354 303.092 152.595 303.126 152.847L303.319 154.277C303.353 154.529 303.597 154.697 303.865 154.653L308.353 153.908L308.347 153.86L308.386 153.853C308.336 153.671 308.295 153.483 308.269 153.29C307.941 150.845 309.784 148.506 312.378 148.075C314.972 147.644 317.35 149.283 317.679 151.727C317.679 151.729 317.679 151.731 317.68 151.733C317.721 152.043 318.015 152.254 318.344 152.2L341.936 148.282C342.261 148.228 342.484 147.935 342.442 147.629C342.441 147.625 342.44 147.62 342.44 147.615C342.111 145.171 343.954 142.831 346.548 142.401C349.142 141.97 351.52 143.608 351.849 146.053C351.849 146.057 351.85 146.062 351.851 146.067C351.891 146.373 352.181 146.58 352.505 146.527L354.178 146.249L353.32 139.871C353.128 138.44 351.941 137.356 350.425 137.226Z" fill="#F1F2F2"/>
<path d="M329.179 135.498L330.113 139.913C330.199 140.318 330.6 140.575 331.033 140.503L342.792 138.535C343.399 138.433 343.56 137.658 343.029 137.392L336.3 134.025C335.798 133.754 335.206 133.658 334.621 133.753L329.894 134.52C329.413 134.598 329.084 135.048 329.179 135.498Z" fill="#010101"/>
<path d="M304.19 154.652L308.696 153.896L308.689 153.847L308.729 153.841C308.678 153.656 308.638 153.466 308.612 153.27C308.501 152.438 308.636 151.618 308.963 150.879L303.806 151.745L303.874 152.276C303.605 152.321 303.415 152.565 303.449 152.821L303.642 154.27C303.676 154.526 303.921 154.697 304.19 154.652Z" fill="#D1D3D4"/>
<path d="M313.545 154.698C312.387 154.895 311.33 154.158 311.184 153.051C311.039 151.945 311.859 150.888 313.018 150.691C314.176 150.494 315.233 151.231 315.378 152.338C315.524 153.444 314.703 154.501 313.545 154.698Z" fill="#231F20"/>
<path d="M314.027 152.595C314.027 152.579 314.026 152.563 314.024 152.547C314.005 152.396 313.932 152.267 313.825 152.174L314.595 150.896C314.387 150.769 314.153 150.677 313.903 150.628L313.437 152.017C313.377 152.013 313.315 152.015 313.252 152.027C313.17 152.042 313.093 152.07 313.023 152.108L312.135 150.974C311.909 151.118 311.71 151.296 311.546 151.499L312.713 152.417C312.651 152.533 312.623 152.665 312.64 152.799C312.642 152.814 312.645 152.828 312.647 152.842L311.158 153.509C311.241 153.742 311.368 153.951 311.528 154.131L312.849 153.182C312.942 153.259 313.059 153.309 313.188 153.326L313.161 154.81C313.286 154.808 313.412 154.796 313.541 154.772C313.674 154.748 313.804 154.713 313.929 154.668L313.611 153.254C313.735 153.194 313.839 153.103 313.912 152.994L315.326 153.409C315.429 153.184 315.494 152.944 315.514 152.697L314.027 152.595Z" fill="#E6E7E8"/>
<path d="M313.392 152.32C313.401 152.389 313.347 152.457 313.273 152.47C313.198 152.484 313.131 152.439 313.122 152.369C313.114 152.3 313.167 152.232 313.242 152.219C313.316 152.205 313.384 152.25 313.392 152.32Z" fill="#D1D3D4"/>
<path d="M313.492 152.984C313.5 153.053 313.446 153.121 313.372 153.135C313.298 153.148 313.23 153.103 313.222 153.034C313.213 152.964 313.267 152.897 313.341 152.883C313.416 152.869 313.483 152.915 313.492 152.984Z" fill="#D1D3D4"/>
<path d="M313.655 152.752C313.73 152.738 313.783 152.671 313.775 152.602C313.766 152.532 313.699 152.487 313.624 152.501C313.549 152.514 313.496 152.581 313.504 152.651C313.513 152.72 313.581 152.765 313.655 152.752Z" fill="#D1D3D4"/>
<path d="M312.991 152.851C312.916 152.865 312.848 152.82 312.84 152.75C312.831 152.681 312.885 152.614 312.959 152.6C313.034 152.587 313.101 152.632 313.11 152.701C313.119 152.771 313.065 152.838 312.991 152.851Z" fill="#D1D3D4"/>
<path d="M312.845 149.108C310.71 149.504 309.174 151.43 309.415 153.41C309.656 155.391 311.582 156.676 313.717 156.28C315.852 155.885 317.388 153.959 317.147 151.978C316.906 149.998 314.98 148.713 312.845 149.108ZM313.539 154.813C312.277 155.047 311.139 154.288 310.997 153.117C310.855 151.947 311.762 150.809 313.023 150.576C314.285 150.342 315.423 151.101 315.565 152.271C315.707 153.441 314.8 154.579 313.539 154.813Z" fill="#75787A"/>
<path d="M312.971 150.336C311.608 150.568 310.641 151.812 310.813 153.114C310.984 154.417 312.228 155.285 313.591 155.053C314.954 154.821 315.921 153.577 315.749 152.274C315.578 150.972 314.334 150.104 312.971 150.336ZM313.545 154.698C312.387 154.895 311.33 154.158 311.184 153.051C311.039 151.945 311.859 150.888 313.018 150.691C314.176 150.494 315.233 151.231 315.378 152.338C315.524 153.444 314.703 154.501 313.545 154.698Z" fill="#D1D3D4"/>
<path d="M347.296 149.645C346.138 149.842 345.081 149.105 344.936 147.999C344.79 146.892 345.611 145.835 346.769 145.638C347.927 145.441 348.984 146.178 349.13 147.285C349.275 148.391 348.454 149.448 347.296 149.645Z" fill="#231F20"/>
<path d="M347.779 147.543C347.778 147.527 347.778 147.511 347.776 147.495C347.757 147.343 347.684 147.215 347.577 147.121L348.347 145.843C348.139 145.716 347.905 145.625 347.655 145.575L347.189 146.964C347.129 146.96 347.067 146.963 347.004 146.974C346.921 146.989 346.844 147.017 346.774 147.055L345.886 145.921C345.66 146.065 345.461 146.243 345.297 146.446L346.464 147.364C346.403 147.481 346.375 147.613 346.391 147.746C346.393 147.761 346.396 147.775 346.399 147.789L344.91 148.456C344.993 148.689 345.119 148.899 345.279 149.078L346.601 148.129C346.694 148.206 346.811 148.257 346.94 148.273L346.913 149.758C347.037 149.755 347.164 149.743 347.292 149.72C347.426 149.695 347.555 149.66 347.68 149.616L347.363 148.202C347.487 148.142 347.591 148.05 347.664 147.942L349.077 148.356C349.181 148.131 349.246 147.891 349.265 147.644L347.779 147.543Z" fill="#E6E7E8"/>
<path d="M347.024 147.418C347.099 147.404 347.152 147.336 347.144 147.267C347.135 147.197 347.068 147.152 346.993 147.166C346.919 147.18 346.865 147.247 346.874 147.317C346.882 147.386 346.949 147.431 347.024 147.418Z" fill="#D1D3D4"/>
<path d="M347.243 147.931C347.252 148.001 347.198 148.068 347.123 148.082C347.049 148.096 346.982 148.05 346.973 147.981C346.965 147.911 347.018 147.844 347.093 147.83C347.167 147.817 347.235 147.862 347.243 147.931Z" fill="#D1D3D4"/>
<path d="M347.406 147.699C347.332 147.713 347.264 147.667 347.256 147.598C347.247 147.529 347.301 147.461 347.375 147.448C347.45 147.434 347.517 147.48 347.526 147.549C347.535 147.618 347.481 147.686 347.406 147.699Z" fill="#D1D3D4"/>
<path d="M346.742 147.799C346.817 147.785 346.87 147.718 346.861 147.648C346.853 147.579 346.785 147.534 346.711 147.547C346.636 147.561 346.583 147.628 346.591 147.697C346.6 147.767 346.667 147.812 346.742 147.799Z" fill="#D1D3D4"/>
<path d="M346.596 144.055C344.461 144.451 342.926 146.377 343.167 148.357C343.407 150.338 345.334 151.623 347.469 151.227C349.604 150.832 351.139 148.906 350.899 146.925C350.658 144.945 348.732 143.66 346.596 144.055ZM347.29 149.76C346.029 149.994 344.891 149.235 344.748 148.065C344.606 146.894 345.513 145.756 346.775 145.523C348.036 145.289 349.174 146.048 349.317 147.218C349.459 148.389 348.552 149.527 347.29 149.76Z" fill="#75787A"/>
<path d="M346.722 145.283C345.359 145.515 344.393 146.759 344.564 148.062C344.736 149.364 345.98 150.232 347.343 150C348.706 149.768 349.672 148.524 349.501 147.221C349.33 145.919 348.086 145.051 346.722 145.283ZM347.296 149.645C346.138 149.842 345.081 149.105 344.936 147.999C344.79 146.892 345.611 145.835 346.769 145.638C347.927 145.441 348.984 146.178 349.13 147.285C349.275 148.391 348.454 149.448 347.296 149.645Z" fill="#D1D3D4"/>
<path d="M316.873 149.881C317.375 150.461 317.717 151.176 317.828 151.98C317.828 151.982 317.828 151.984 317.829 151.986C317.87 152.29 318.163 152.498 318.491 152.445L341.986 148.666C342.309 148.614 342.53 148.327 342.488 148.027C342.487 148.023 342.487 148.018 342.486 148.014C342.154 145.618 343.986 143.33 346.569 142.915C349.152 142.499 351.524 144.11 351.856 146.507C351.857 146.511 351.857 146.516 351.858 146.52C351.898 146.82 352.188 147.025 352.511 146.973L354.177 146.705L353.409 141.163C351.681 141.329 348.797 141.639 345.98 142.092C341.549 142.805 341.212 145.965 341.212 145.965L323.545 148.807L316.873 149.881Z" fill="#545353"/>
<path d="M352.484 147.336L355.014 146.928C355.424 146.862 355.711 146.485 355.656 146.087L355.213 142.897C355.158 142.498 354.781 142.228 354.371 142.294L348.751 143.2C350.349 143.731 351.578 145.094 351.821 146.848C351.822 146.85 351.822 146.852 351.822 146.854C351.866 147.17 352.158 147.388 352.484 147.336Z" fill="#363434"/>
<path d="M303.877 152.209L303.883 152.25C303.615 152.293 303.428 152.538 303.464 152.797L303.668 154.264C303.704 154.523 303.95 154.699 304.218 154.656L308.701 153.937L308.694 153.888L308.734 153.881C308.681 153.694 308.639 153.501 308.612 153.303C308.522 152.659 308.576 152.024 308.749 151.428L303.877 152.209Z" fill="#545353"/>
<path d="M343.716 139.351L342.516 139.554C342.364 139.58 342.232 139.468 342.242 139.32L342.342 137.778C342.35 137.665 342.439 137.569 342.555 137.549L343.458 137.396C344.21 137.269 344.878 137.603 344.949 138.142C345.02 138.682 344.468 139.223 343.716 139.351Z" fill="white"/>
<path d="M343.646 138.775L342.452 138.976C342.389 138.987 342.329 138.973 342.281 138.943L342.257 139.324C342.247 139.469 342.378 139.58 342.529 139.554L343.723 139.354C344.471 139.228 345.021 138.693 344.95 138.16C344.937 138.06 344.902 137.966 344.85 137.882C344.729 138.302 344.253 138.673 343.646 138.775Z" fill="#D1D3D4"/>
<path d="M353.175 140.391C353.069 139.633 352.704 138.966 352.17 138.474L350.512 138.742C350.512 138.742 351.232 140.763 352.903 140.67C353.009 140.664 353.112 140.657 353.21 140.648L353.175 140.391Z" fill="#D1D3D4"/>
<path d="M352.881 140.387C351.827 140.436 351.192 139.477 350.928 138.96L352.065 138.777C352.499 139.214 352.786 139.779 352.881 140.387Z" fill="white"/>
<path d="M335.909 134.144C335.524 133.994 335.097 133.949 334.673 134.019L333.823 134.159L331.809 140.017L334.019 139.641L335.909 134.144Z" fill="#28211F"/>
<path d="M337.878 135.207L336.573 134.551L334.847 139.565L336.473 139.289L337.878 135.207Z" fill="#28211F"/>
<line x1="277.609" y1="135.128" x2="300.749" y2="142.49" stroke="white"/>
<line x1="275.926" y1="142.974" x2="300.114" y2="145.119" stroke="white"/>
<line x1="276.382" y1="150.211" x2="300.501" y2="147.393" stroke="white"/>
<rect x="316.856" y="137.602" width="3.14474" height="9.43422" transform="rotate(-8.64681 316.856 137.602)" fill="#02A4D1"/>
<rect x="323.546" y="139.765" width="3.14474" height="9.43422" transform="rotate(81.3532 323.546 139.765)" fill="#02A4D1"/>
<path d="M1125.46 137.964L1124.22 140.341L1132.59 141.687L1130.8 138.426L1125.46 137.964Z" fill="#00A0D4"/>
<g filter="url(#filter2_f_114_3992)">
<path d="M1205.93 65.0126L1130.8 138.426L1132.08 141.54L1257.32 123.462L1205.93 65.0126Z" fill="url(#paint2_linear_114_3992)"/>
</g>
<g filter="url(#filter3_f_114_3992)">
<path d="M1079.03 28.0187L1126.11 137.593L1122.4 139.265L974.52 41.2593L1079.03 28.0187Z" fill="url(#paint3_linear_114_3992)"/>
</g>
<path d="M1118.2 152.064L1116.63 151.828C1115.01 151.846 1113.56 152.671 1112.76 153.957C1112.64 154.148 1112.54 154.35 1112.45 154.561C1112.45 154.563 1112.45 154.565 1112.45 154.567C1112.42 154.633 1112.4 154.7 1112.37 154.768C1112.37 154.773 1112.37 154.778 1112.37 154.784C1112.34 154.847 1112.32 154.912 1112.3 154.977C1112.3 154.987 1112.3 154.996 1112.29 155.006C1112.28 155.067 1112.26 155.129 1112.24 155.191C1112.24 155.206 1112.24 155.219 1112.23 155.233C1112.22 155.293 1112.21 155.354 1112.2 155.415C1112.19 155.431 1112.19 155.448 1112.19 155.465C1112.18 155.5 1112.17 155.536 1112.17 155.572L1121.59 156.987C1121.8 154.796 1120.34 152.745 1118.2 152.064Z" fill="#231F20"/>
<path d="M1155.58 161.526C1155.58 161.507 1155.58 161.489 1155.58 161.47C1155.58 161.411 1155.59 161.352 1155.59 161.294C1155.59 161.282 1155.59 161.271 1155.59 161.26C1155.59 161.193 1155.59 161.125 1155.59 161.058C1155.59 161.04 1155.59 161.022 1155.58 161.004C1155.58 160.95 1155.58 160.896 1155.57 160.843C1155.57 160.826 1155.57 160.809 1155.57 160.793C1155.56 160.727 1155.56 160.662 1155.55 160.597C1155.55 160.58 1155.54 160.563 1155.54 160.546C1155.53 160.495 1155.52 160.445 1155.52 160.394C1155.51 160.374 1155.51 160.354 1155.5 160.334C1155.49 160.271 1155.48 160.208 1155.46 160.146C1155.46 160.131 1155.46 160.116 1155.45 160.101C1155.44 160.052 1155.43 160.002 1155.41 159.954C1155.4 159.931 1155.4 159.909 1155.39 159.886C1155.38 159.837 1155.36 159.788 1155.34 159.739C1155.34 159.717 1155.33 159.696 1155.32 159.674C1155.3 159.625 1155.28 159.575 1155.26 159.526C1155.25 159.501 1155.24 159.476 1155.23 159.452C1155.22 159.413 1155.2 159.375 1155.18 159.337C1155.17 159.314 1155.16 159.292 1155.15 159.269C1155.13 159.217 1155.1 159.165 1155.08 159.113C1155.06 159.086 1155.05 159.06 1155.03 159.034C1155.02 159.003 1155 158.972 1154.98 158.941C1154.97 158.914 1154.95 158.887 1154.93 158.86C1154.91 158.813 1154.88 158.765 1154.85 158.718C1154.83 158.69 1154.81 158.663 1154.79 158.635C1154.77 158.61 1154.76 158.584 1154.74 158.559C1154.72 158.53 1154.7 158.502 1154.68 158.473C1154.66 158.449 1154.64 158.425 1154.62 158.401C1154.59 158.353 1154.55 158.305 1154.51 158.258C1154.49 158.238 1154.48 158.218 1154.46 158.198C1154.43 158.169 1154.41 158.139 1154.38 158.111C1154.37 158.093 1154.35 158.075 1154.33 158.058C1154.29 158.006 1154.24 157.954 1154.19 157.904C1154.17 157.889 1154.16 157.875 1154.14 157.861C1154.11 157.832 1154.08 157.804 1154.05 157.776C1154.04 157.761 1154.02 157.747 1154.01 157.733C1153.94 157.671 1153.87 157.611 1153.8 157.554C1153.8 157.553 1153.8 157.552 1153.79 157.551C1153.76 157.525 1153.73 157.498 1153.69 157.472C1153.68 157.46 1153.66 157.447 1153.64 157.435C1153.61 157.409 1153.57 157.384 1153.54 157.359C1153.13 157.07 1152.67 156.839 1152.17 156.681L1150.6 156.446C1148.38 156.471 1146.48 158.018 1146.14 160.19L1155.57 161.605C1155.57 161.578 1155.57 161.552 1155.58 161.526Z" fill="#231F20"/>
<path d="M1156.66 152.796L1152.32 150.971L1145.02 144.495C1144.21 143.779 1143.21 143.307 1142.13 143.144L1113.96 138.868C1112.33 138.621 1110.82 139.561 1110.45 141.056L1108.28 149.628L1107.89 152.693C1107.62 152.652 1107.38 152.825 1107.35 153.078L1107.17 154.513C1107.14 154.766 1107.33 155.005 1107.6 155.045L1112.1 155.728L1112.1 155.68L1112.14 155.686C1112.14 155.495 1112.15 155.302 1112.17 155.108C1112.47 152.653 1114.82 150.977 1117.42 151.372C1120.02 151.766 1121.89 154.083 1121.59 156.538C1121.59 156.54 1121.59 156.542 1121.59 156.544C1121.55 156.855 1121.78 157.149 1122.11 157.199L1145.74 160.785C1146.06 160.835 1146.35 160.622 1146.39 160.315C1146.39 160.31 1146.39 160.306 1146.39 160.301C1146.69 157.847 1149.04 156.171 1151.64 156.565C1154.24 156.96 1156.11 159.277 1155.81 161.731C1155.81 161.736 1155.81 161.741 1155.81 161.745C1155.77 162.052 1156 162.343 1156.32 162.392L1158 162.646L1158.77 156.243C1158.95 154.806 1158.08 153.393 1156.66 152.796Z" fill="#F1F2F2"/>
<path d="M1136.87 144.231L1136.66 148.771C1136.64 149.187 1136.96 149.561 1137.4 149.627L1149.17 151.428C1149.78 151.521 1150.13 150.825 1149.68 150.403L1144.07 145.051C1143.65 144.633 1143.11 144.354 1142.52 144.262L1137.8 143.515C1137.31 143.439 1136.89 143.769 1136.87 144.231Z" fill="#010101"/>
<path d="M1107.6 155.797L1112.11 156.489L1112.12 156.44L1112.16 156.446C1112.16 156.252 1112.16 156.057 1112.19 155.86C1112.29 155.025 1112.62 154.28 1113.12 153.672L1107.96 152.88L1107.89 153.412C1107.62 153.371 1107.38 153.545 1107.35 153.802L1107.17 155.257C1107.14 155.514 1107.33 155.755 1107.6 155.797Z" fill="#D1D3D4"/>
<path d="M1116.58 158.544C1115.42 158.364 1114.59 157.318 1114.72 156.208C1114.85 155.098 1115.9 154.344 1117.06 154.524C1118.22 154.704 1119.05 155.75 1118.92 156.861C1118.79 157.971 1117.74 158.725 1116.58 158.544Z" fill="#231F20"/>
<path d="M1117.55 156.694C1117.56 156.678 1117.56 156.662 1117.56 156.646C1117.58 156.495 1117.54 156.346 1117.46 156.22L1118.49 155.255C1118.32 155.062 1118.11 154.895 1117.89 154.761L1117.12 155.936C1117.06 155.912 1117 155.893 1116.94 155.882C1116.86 155.868 1116.78 155.869 1116.7 155.882L1116.11 154.488C1115.86 154.55 1115.63 154.653 1115.43 154.791L1116.33 156.072C1116.25 156.163 1116.19 156.28 1116.18 156.414C1116.17 156.429 1116.17 156.444 1116.17 156.458L1114.59 156.589C1114.62 156.841 1114.69 157.086 1114.8 157.313L1116.29 156.854C1116.36 156.96 1116.46 157.048 1116.58 157.108L1116.21 158.525C1116.33 158.565 1116.46 158.597 1116.59 158.618C1116.72 158.641 1116.85 158.651 1116.98 158.651L1117 157.184C1117.14 157.169 1117.26 157.117 1117.35 157.038L1118.61 157.92C1118.76 157.739 1118.88 157.53 1118.95 157.3L1117.55 156.694Z" fill="#E6E7E8"/>
<path d="M1117.03 156.215C1117.02 156.284 1116.95 156.33 1116.88 156.318C1116.81 156.305 1116.75 156.238 1116.76 156.169C1116.77 156.099 1116.83 156.053 1116.91 156.066C1116.98 156.078 1117.04 156.145 1117.03 156.215Z" fill="#D1D3D4"/>
<path d="M1116.94 156.88C1116.93 156.95 1116.86 156.996 1116.79 156.983C1116.72 156.971 1116.66 156.904 1116.67 156.834C1116.68 156.765 1116.74 156.719 1116.82 156.731C1116.89 156.744 1116.95 156.811 1116.94 156.88Z" fill="#D1D3D4"/>
<path d="M1117.17 156.695C1117.24 156.708 1117.31 156.661 1117.32 156.592C1117.32 156.522 1117.27 156.456 1117.2 156.443C1117.12 156.431 1117.05 156.477 1117.05 156.546C1117.04 156.616 1117.09 156.683 1117.17 156.695Z" fill="#D1D3D4"/>
<path d="M1116.5 156.605C1116.43 156.592 1116.37 156.526 1116.38 156.456C1116.39 156.387 1116.46 156.341 1116.53 156.353C1116.6 156.366 1116.66 156.432 1116.65 156.502C1116.64 156.571 1116.58 156.618 1116.5 156.605Z" fill="#D1D3D4"/>
<path d="M1117.21 152.939C1115.07 152.572 1113.17 153.885 1112.95 155.871C1112.73 157.856 1114.29 159.763 1116.43 160.129C1118.57 160.496 1120.47 159.183 1120.69 157.198C1120.9 155.212 1119.35 153.306 1117.21 152.939ZM1116.59 158.658C1115.33 158.442 1114.41 157.315 1114.53 156.142C1114.66 154.969 1115.79 154.194 1117.05 154.41C1118.31 154.627 1119.23 155.753 1119.1 156.926C1118.98 158.099 1117.85 158.875 1116.59 158.658Z" fill="#75787A"/>
<path d="M1117.1 154.168C1115.74 153.956 1114.5 154.843 1114.35 156.15C1114.19 157.457 1115.17 158.688 1116.54 158.9C1117.9 159.112 1119.13 158.225 1119.29 156.918C1119.44 155.612 1118.46 154.38 1117.1 154.168ZM1116.58 158.544C1115.42 158.364 1114.59 157.318 1114.72 156.208C1114.85 155.098 1115.9 154.344 1117.06 154.524C1118.22 154.704 1119.05 155.75 1118.92 156.861C1118.79 157.971 1117.74 158.725 1116.58 158.544Z" fill="#D1D3D4"/>
<path d="M1150.4 163.14C1149.24 162.96 1148.41 161.913 1148.54 160.803C1148.67 159.693 1149.72 158.939 1150.87 159.119C1152.03 159.3 1152.87 160.346 1152.73 161.456C1152.6 162.566 1151.56 163.32 1150.4 163.14Z" fill="#231F20"/>
<path d="M1151.37 161.289C1151.37 161.274 1151.38 161.258 1151.38 161.242C1151.39 161.09 1151.35 160.941 1151.27 160.815L1152.3 159.851C1152.13 159.658 1151.93 159.49 1151.7 159.356L1150.94 160.532C1150.88 160.507 1150.82 160.488 1150.76 160.478C1150.67 160.464 1150.59 160.465 1150.52 160.477L1149.93 159.084C1149.68 159.145 1149.45 159.248 1149.24 159.387L1150.15 160.668C1150.06 160.759 1150.01 160.876 1149.99 161.01C1149.99 161.024 1149.99 161.039 1149.99 161.054L1148.41 161.184C1148.43 161.437 1148.51 161.681 1148.62 161.909L1150.11 161.449C1150.18 161.555 1150.28 161.644 1150.4 161.703L1150.03 163.12C1150.15 163.16 1150.27 163.192 1150.4 163.214C1150.54 163.236 1150.67 163.246 1150.8 163.247L1150.82 161.78C1150.95 161.765 1151.07 161.713 1151.17 161.633L1152.43 162.515C1152.58 162.334 1152.7 162.126 1152.77 161.895L1151.37 161.289Z" fill="#E6E7E8"/>
<path d="M1150.7 160.913C1150.77 160.926 1150.84 160.88 1150.85 160.81C1150.85 160.741 1150.8 160.674 1150.72 160.661C1150.65 160.649 1150.58 160.695 1150.58 160.764C1150.57 160.834 1150.62 160.901 1150.7 160.913Z" fill="#D1D3D4"/>
<path d="M1150.76 161.476C1150.75 161.546 1150.68 161.592 1150.61 161.579C1150.53 161.566 1150.48 161.499 1150.48 161.43C1150.49 161.36 1150.56 161.314 1150.63 161.327C1150.71 161.34 1150.76 161.406 1150.76 161.476Z" fill="#D1D3D4"/>
<path d="M1150.98 161.291C1150.91 161.278 1150.86 161.212 1150.86 161.142C1150.87 161.073 1150.94 161.026 1151.01 161.039C1151.09 161.051 1151.14 161.118 1151.13 161.187C1151.13 161.257 1151.06 161.303 1150.98 161.291Z" fill="#D1D3D4"/>
<path d="M1150.32 161.2C1150.39 161.213 1150.46 161.167 1150.47 161.097C1150.48 161.028 1150.42 160.961 1150.35 160.948C1150.27 160.936 1150.21 160.982 1150.2 161.052C1150.19 161.121 1150.24 161.188 1150.32 161.2Z" fill="#D1D3D4"/>
<path d="M1151.03 157.534C1148.89 157.168 1146.98 158.48 1146.77 160.466C1146.55 162.452 1148.11 164.358 1150.25 164.725C1152.38 165.091 1154.29 163.779 1154.5 161.793C1154.72 159.808 1153.16 157.901 1151.03 157.534ZM1150.41 163.254C1149.14 163.037 1148.22 161.911 1148.35 160.738C1148.48 159.565 1149.6 158.789 1150.87 159.006C1152.13 159.222 1153.05 160.349 1152.92 161.522C1152.79 162.695 1151.67 163.47 1150.41 163.254Z" fill="#75787A"/>
<path d="M1150.92 158.763C1149.55 158.551 1148.32 159.439 1148.17 160.745C1148.01 162.052 1148.99 163.284 1150.35 163.496C1151.72 163.708 1152.95 162.821 1153.11 161.514C1153.26 160.207 1152.28 158.976 1150.92 158.763ZM1150.4 163.14C1149.24 162.96 1148.41 161.914 1148.54 160.803C1148.67 159.693 1149.72 158.939 1150.87 159.12C1152.03 159.3 1152.87 160.346 1152.73 161.456C1152.6 162.566 1151.56 163.32 1150.4 163.14Z" fill="#D1D3D4"/>
<path d="M1121.12 154.438C1121.45 155.148 1121.59 155.939 1121.49 156.745C1121.49 156.747 1121.49 156.749 1121.49 156.751C1121.45 157.056 1121.68 157.344 1122.01 157.392L1145.55 160.85C1145.87 160.897 1146.16 160.689 1146.19 160.388C1146.19 160.383 1146.19 160.379 1146.19 160.374C1146.49 157.97 1148.84 156.323 1151.43 156.703C1154.02 157.083 1155.88 159.349 1155.58 161.753C1155.58 161.758 1155.58 161.762 1155.58 161.767C1155.54 162.067 1155.76 162.351 1156.09 162.399L1157.76 162.644L1158.45 157.084C1156.75 156.722 1153.9 156.149 1151.08 155.735C1146.64 155.083 1145.5 158.02 1145.5 158.02L1127.8 155.42L1121.12 154.438Z" fill="#545353"/>
<path d="M1156 162.37L1158.54 162.742C1158.95 162.802 1159.32 162.526 1159.37 162.126L1159.77 158.927C1159.82 158.527 1159.53 158.153 1159.12 158.093L1153.49 157.268C1154.89 158.261 1155.71 159.942 1155.49 161.701C1155.49 161.703 1155.49 161.705 1155.49 161.707C1155.45 162.025 1155.68 162.322 1156 162.37Z" fill="#363434"/>
<path d="M1107.91 153.386L1107.9 153.427C1107.64 153.388 1107.39 153.567 1107.36 153.827L1107.17 155.3C1107.14 155.559 1107.33 155.802 1107.6 155.841L1112.09 156.497L1112.1 156.448L1112.14 156.454C1112.13 156.257 1112.14 156.06 1112.17 155.86C1112.25 155.214 1112.47 154.62 1112.79 154.098L1107.91 153.386Z" fill="#545353"/>
<path d="M1149.8 152.25L1148.6 152.064C1148.45 152.04 1148.35 151.89 1148.4 151.752L1148.87 150.3C1148.91 150.194 1149.02 150.131 1149.13 150.149L1150.04 150.289C1150.79 150.405 1151.35 150.939 1151.28 151.481C1151.22 152.022 1150.56 152.367 1149.8 152.25Z" fill="white"/>
<path d="M1149.87 151.672L1148.67 151.488C1148.61 151.478 1148.55 151.446 1148.52 151.402L1148.4 151.76C1148.35 151.897 1148.45 152.045 1148.6 152.068L1149.8 152.252C1150.55 152.368 1151.21 152.027 1151.27 151.492C1151.28 151.391 1151.27 151.29 1151.24 151.193C1151.02 151.559 1150.47 151.765 1149.87 151.672Z" fill="#D1D3D4"/>
<path d="M1158.58 155.917C1158.67 155.157 1158.49 154.406 1158.11 153.772L1156.45 153.529C1156.45 153.529 1156.62 155.689 1158.24 156.104C1158.35 156.13 1158.45 156.154 1158.54 156.175L1158.58 155.917Z" fill="#D1D3D4"/>
<path d="M1158.29 155.824C1157.27 155.554 1156.91 154.44 1156.79 153.864L1157.93 154.031C1158.23 154.582 1158.36 155.212 1158.29 155.824Z" fill="white"/>
<path d="M1143.64 145.136C1143.3 144.87 1142.9 144.69 1142.48 144.622L1141.63 144.486L1138.26 149.473L1140.48 149.817L1143.64 145.136Z" fill="#28211F"/>
<path d="M1145.26 146.69L1144.17 145.643L1141.29 149.911L1142.92 150.164L1145.26 146.69Z" fill="#28211F"/>
<line x1="1087.49" y1="129.686" x2="1107.64" y2="143.231" stroke="white"/>
<line x1="1083.68" y1="136.747" x2="1106.3" y2="145.577" stroke="white"/>
<line x1="1082.09" y1="143.823" x2="1106.03" y2="147.868" stroke="white"/>
<rect x="1124.47" y="143.045" width="3.14474" height="9.43422" transform="rotate(7.60642 1124.47 143.045)" fill="#02A4D1"/>
<rect x="1130.29" y="146.995" width="3.14474" height="9.43422" transform="rotate(97.6064 1130.29 146.995)" fill="#02A4D1"/>
<path d="M1228.22 140.228C1218.32 123.459 1203.97 89.8389 1225.71 89.512C1247.44 89.1851 1236.44 123.186 1228.22 140.228Z" fill="white" stroke="white"/>
<circle cx="1225.89" cy="101.204" r="8.22221" transform="rotate(-5.92532 1225.89 101.204)" fill="black"/>
<defs>
<filter id="filter0_f_114_3992" x="317.635" y="35.89" width="125.276" height="102.136" filterUnits="userSpaceOnUse" color-interpolation-filters="sRGB">
<feFlood flood-opacity="0" result="BackgroundImageFix"/>
<feBlend mode="normal" in="SourceGraphic" in2="BackgroundImageFix" result="shape"/>
<feGaussianBlur stdDeviation="2" result="effect1_foregroundBlur_114_3992"/>
</filter>
<filter id="filter1_f_114_3992" x="140.406" y="35.89" width="180.496" height="102.662" filterUnits="userSpaceOnUse" color-interpolation-filters="sRGB">
<feFlood flood-opacity="0" result="BackgroundImageFix"/>
<feBlend mode="normal" in="SourceGraphic" in2="BackgroundImageFix" result="shape"/>
<feGaussianBlur stdDeviation="2" result="effect1_foregroundBlur_114_3992"/>
</filter>
<filter id="filter2_f_114_3992" x="1126.8" y="61.0126" width="134.521" height="84.527" filterUnits="userSpaceOnUse" color-interpolation-filters="sRGB">
<feFlood flood-opacity="0" result="BackgroundImageFix"/>
<feBlend mode="normal" in="SourceGraphic" in2="BackgroundImageFix" result="shape"/>
<feGaussianBlur stdDeviation="2" result="effect1_foregroundBlur_114_3992"/>
</filter>
<filter id="filter3_f_114_3992" x="970.52" y="24.0187" width="159.592" height="119.246" filterUnits="userSpaceOnUse" color-interpolation-filters="sRGB">
<feFlood flood-opacity="0" result="BackgroundImageFix"/>
<feBlend mode="normal" in="SourceGraphic" in2="BackgroundImageFix" result="shape"/>
<feGaussianBlur stdDeviation="2" result="effect1_foregroundBlur_114_3992"/>
</filter>
<linearGradient id="paint0_linear_114_3992" x1="322.179" y1="133.501" x2="407.987" y2="54.1832" gradientUnits="userSpaceOnUse">
<stop offset="0.0464299" stop-color="#00A1D4"/>
<stop offset="0.95219" stop-color="#00546E" stop-opacity="0"/>
</linearGradient>
<linearGradient id="paint1_linear_114_3992" x1="316.103" y1="134.024" x2="233.341" y2="22.1265" gradientUnits="userSpaceOnUse">
<stop offset="0.0464299" stop-color="#03C7FD"/>
<stop offset="0.95219" stop-color="#00546E" stop-opacity="0"/>
</linearGradient>
<linearGradient id="paint2_linear_114_3992" x1="1130.73" y1="140.598" x2="1235.31" y2="88.4669" gradientUnits="userSpaceOnUse">
<stop offset="0.0464299" stop-color="#00A1D4"/>
<stop offset="0.95219" stop-color="#00546E" stop-opacity="0"/>
</linearGradient>
<linearGradient id="paint3_linear_114_3992" x1="1124.75" y1="139.4" x2="1076.62" y2="8.81095" gradientUnits="userSpaceOnUse">
<stop offset="0.0464299" stop-color="#03C7FD"/>
<stop offset="0.95219" stop-color="#00546E" stop-opacity="0"/>
</linearGradient>
</defs>
</svg>
