<svg width="681" height="590" viewBox="0 0 681 590" fill="none" xmlns="http://www.w3.org/2000/svg">
<g filter="url(#filter0_f_344_73)">
<ellipse cx="159.135" cy="361.545" rx="95.1354" ry="103.545" fill="#95282D"/>
</g>
<path d="M269.865 330.071C277.475 330.051 285.071 329.532 292.671 330.099C293.174 330.138 293.981 330.57 294.343 330.5C294.798 330.41 295.154 329.324 295.92 329.599C297.711 333.307 293.571 336.646 290.492 337.912C289.903 338.155 284.555 339.86 285.51 337.966C287.541 336.3 289.976 335.044 291.62 332.945C288.913 332.467 286.113 332.785 283.364 332.714C279.32 332.608 275.998 332.487 271.906 332.714C270.913 332.769 268.462 332.458 267.815 332.926C265.226 336.348 262.557 339.777 259.706 342.988C256.434 346.67 255.082 346.676 253.625 351.97C253.253 353.313 252.769 354.774 253.128 356.136C254.006 356.937 260.491 350.938 261.381 350.163C262.243 349.416 263.493 348.756 264.255 348.016C265.78 346.529 266.04 344.673 268.263 343.417C268.84 343.09 272.108 341.805 271.765 343.328C271.72 343.526 269.471 345.785 269.045 346.353C268.251 347.413 263.714 354.309 264.601 355.178C265.976 355.207 267.667 353.874 268.779 353.021C272.803 349.942 277.449 343.648 281.255 341.347C284.821 339.191 283.453 342.427 282.572 344.34C280.855 348.07 278.272 351.566 276.315 355.178L286.478 347.051L287.07 347.644C285.193 349.426 283.472 351.39 281.576 353.149C278.993 355.55 275.017 358.148 272.842 360.677C270.352 363.567 268.045 368.038 265.748 371.277C262.307 376.126 253.317 388.13 247.992 390.104C245.618 390.982 242.263 390.261 242.142 387.326C242.004 384.006 247.543 378.885 249.889 376.696C256.011 370.986 262.884 366.067 269.391 360.811L276.789 348.964C275.261 350.163 274.056 351.746 272.601 353.024C268.997 356.191 261.436 362.007 262.089 352.553C259.991 354.614 257.662 357.139 254.88 358.257C250.203 360.135 249.934 355.2 250.491 351.836C248.463 353.669 244.189 358.613 241.321 358.456C240.146 358.392 238.96 357.155 238.79 356.005C238.569 354.495 239.678 352.063 240.408 350.72C240.652 350.275 243.269 346.734 243.077 346.577L240.69 346.442L236.621 351.236C233.222 354.06 225.981 360.26 221.319 358.174C219.028 357.149 219.157 353.675 219.842 351.672C220.941 348.458 226.785 342.703 230.277 342.501C233.004 342.344 233.895 344.645 232.837 346.978C231.306 350.358 225.436 354.899 221.56 354.947C221.931 356.87 223.367 356.748 224.904 356.258C226.952 355.607 235.522 349.775 237.111 348.141C237.531 347.708 239.607 344.901 239.671 344.504C239.726 344.174 239.306 343.417 239.252 342.873C238.819 338.582 243.529 338.383 243.795 340.979C243.917 342.187 242.936 343.123 242.603 344.183C244.381 344.234 246.589 342.2 248.088 343.6C248.703 344.174 248.678 344.773 248.309 345.468C247.515 346.974 244.868 349.272 243.699 350.9C243.193 351.602 240.709 355.204 241.408 355.902C241.824 355.963 242.154 355.854 242.539 355.719C243.92 355.232 250.879 349.387 251.693 348.134C252.872 346.321 253.541 342.517 254.832 340.514L258.863 333.188C254.358 333.644 249.85 334.051 245.355 334.621C241.754 335.079 239.415 336.345 235.551 336.534C234.138 336.601 232.7 336.524 231.283 336.502C229.912 334.925 232.056 334.544 233.273 334.256C241.933 332.202 251.76 332.218 260.59 330.788C261.788 329.192 262.951 327.561 264.489 326.26C266.274 324.748 269.532 322.415 271.797 323.959C272.752 326.305 270.897 328.18 269.862 330.077L269.865 330.071ZM266.956 330.272L268.904 326.725C267.434 327.597 266.44 328.946 265.322 330.195C265.264 330.856 265.47 330.388 265.739 330.372C266.037 330.356 266.815 330.356 266.956 330.272ZM264.842 332.942C264.396 333.015 263.563 332.788 263.217 332.99C262.906 333.172 259.831 338.316 259.392 339.085C259.042 339.697 258.6 340.408 258.389 341.068L261.961 336.874L264.838 332.939L264.842 332.942ZM221.569 353.024C225.455 351.707 229.537 348.907 231.126 345.013C231.056 344.267 228.98 345.145 228.576 345.327C225.802 346.593 222.62 350.163 221.569 353.024ZM264.842 367.377L259.581 371.556C256.348 374.328 246.025 383.067 245.105 386.739C244.564 388.905 248.024 386.887 248.803 386.364C253.567 383.16 260.846 373.463 264.217 368.541C264.371 368.313 265.034 367.576 264.842 367.374V367.377Z" fill="white"/>
<path d="M214.802 322.261C214.985 322.392 214.924 322.838 215.475 322.915C215.946 322.979 216.577 322.662 217.138 322.649C220.88 322.572 228.313 322.735 228.756 327.786C229.364 334.797 217.196 343.626 211.893 347.054C208.734 349.099 205.418 351.034 201.967 352.553C201.913 352.98 202.506 352.787 202.772 352.762C219.737 351.14 219.544 365.404 208.401 373.694C204.316 376.731 197.838 379.003 192.759 379.327C191.891 379.382 188.556 379.455 189.232 377.968C190.071 376.119 193.269 376.844 194.909 376.699C201.323 376.135 210.993 369.566 212.617 363.083C214.703 354.761 204.992 355.002 199.446 355.171C198.078 355.213 196.668 355.896 195.262 355.309C194.842 355.014 194.919 353.999 195.419 353.771C200.699 350.938 205.94 348.051 210.785 344.513C214.835 341.555 223.581 334.589 225.1 329.897C225.856 327.565 225.049 326.84 222.816 326.312C219.32 325.482 215.193 326.312 211.749 327.126C204.726 335.646 199.279 345.327 194.035 355.018C192.349 358.126 189.831 364.461 187.963 366.881C186.813 368.371 184.971 367.249 184.993 365.849C185.009 364.964 187.835 359.719 188.45 358.523C193.185 349.349 198.69 340.129 204.739 331.772C205.143 331.215 207.129 328.975 207.222 328.753C207.411 328.295 206.978 328.375 206.674 328.446C204.104 329.029 200.333 331.093 198.059 332.506C197.027 333.147 195.659 335.082 195.592 332.544C195.547 330.798 198.123 329.266 199.497 328.446C203.794 325.873 207.799 325.408 211.816 323.552C212.79 323.104 213.7 321.47 214.796 322.261H214.802Z" fill="white"/>
<path d="M303.337 348.243C307.178 348.525 310.216 351.679 309.2 355.665C308.79 357.277 306.192 359.52 304.634 358.046C305.016 356.29 306.185 355.197 305.948 353.169C305.759 351.554 304.051 349.868 302.424 349.958C301.104 352.56 296.141 357.017 293.177 354.938C291.056 353.451 292.21 350.57 294.029 349.333C296.057 347.955 298.617 348.224 300.828 347.763C301.495 345.952 302.433 343.997 302.023 342.023L293.299 348.362L292.584 348.118C292.572 347.804 296.102 343.853 296.634 343.328C297.784 342.196 301.581 338.78 303.01 338.678C303.705 338.63 304.151 338.934 304.532 339.508C305.887 341.546 304.285 346.119 303.337 348.234V348.243ZM299.508 349.682C297.522 349.721 294.465 350.496 294.116 352.784C294.741 354.037 297.509 351.967 298.201 351.358C298.409 351.175 299.78 349.91 299.508 349.679V349.682Z" fill="white"/>
<path d="M187.62 314.769C187.63 315.327 186.185 315.404 186.185 315.487V318.836H190.01V315.487L188.815 315.243V314.769H193.836C194.012 315.596 193.076 315.019 192.615 315.583C192.365 315.887 192.423 316.201 192.388 316.551C192.308 317.365 192.269 322.242 192.439 322.742C192.711 323.537 193.993 322.998 193.836 323.857H188.815V323.383L190.01 323.142V319.557H186.185L186.223 322.745C186.496 323.54 187.777 323.001 187.62 323.86H182.6C182.363 323.072 183.567 323.412 183.763 323.11L183.808 315.637C183.702 315.256 182.33 315.596 182.596 314.772H187.617L187.62 314.769Z" fill="white"/>
<path d="M202.922 314.769C202.829 315.545 203.227 316.576 202.563 317.156C201.487 315.452 200.404 315.019 198.379 315.25V318.836C198.924 318.845 199.481 318.9 199.997 318.659C200.766 318.304 200.593 317.147 201.487 317.163V320.87L201.006 321.114C200.481 319.47 200.093 319.403 198.376 319.553L198.482 322.915C198.863 323.453 200.968 323.351 201.551 323.088C202.054 322.857 202.48 321.761 202.849 321.293C202.999 321.101 202.842 320.851 203.393 320.992V323.86H194.547C194.371 323.033 195.306 323.61 195.768 323.046C196.018 322.742 195.96 322.428 195.995 322.079C196.075 321.265 196.114 316.387 195.944 315.887C195.672 315.093 194.39 315.631 194.547 314.772H202.916L202.922 314.769Z" fill="white"/>
<path d="M182.122 314.769C182.033 315.397 182.404 317.096 181.76 317.397L180.347 315.471L178.777 315.247V323.136L180.213 323.376V323.851H174.952V323.373C175.336 323.514 176.387 323.11 176.387 322.774V315.24C175.859 315.25 175.09 315.17 174.635 315.461C174.458 315.573 173.484 317.897 173.042 317.394V314.766H182.125L182.122 314.769Z" fill="white"/>
<path fill-rule="evenodd" clip-rule="evenodd" d="M127.625 409.869C109.25 369.756 84.7683 290.617 133.836 294.965C182.903 299.313 150.14 373.379 127.625 409.869ZM131.506 339.995C141.797 339.995 150.14 331.652 150.14 321.362C150.14 311.071 141.797 302.728 131.506 302.728C121.216 302.728 112.873 311.071 112.873 321.362C112.873 331.652 121.216 339.995 131.506 339.995Z" fill="white"/>
<path d="M127.625 409.869L127.17 410.077L127.559 410.927L128.05 410.132L127.625 409.869ZM133.836 294.965L133.88 294.467L133.836 294.965ZM128.079 409.661C118.901 389.624 108.213 359.871 105.937 335.697C104.798 323.6 105.776 312.991 110.013 305.695C112.125 302.058 115.047 299.242 118.935 297.463C122.828 295.682 127.721 294.925 133.791 295.463L133.88 294.467C127.683 293.918 122.607 294.683 118.519 296.554C114.426 298.427 111.354 301.394 109.149 305.192C104.751 312.765 103.797 323.633 104.942 335.791C107.233 360.129 117.974 390.001 127.17 410.077L128.079 409.661ZM133.791 295.463C145.905 296.536 152.879 301.888 156.272 309.818C159.688 317.802 159.513 328.486 157.084 340.263C152.229 363.801 138.444 391.382 127.199 409.607L128.05 410.132C139.32 391.866 153.174 364.169 158.063 340.465C160.506 328.62 160.728 317.691 157.191 309.425C153.631 301.104 146.3 295.567 133.88 294.467L133.791 295.463ZM149.64 321.362C149.64 331.376 141.521 339.495 131.506 339.495V340.495C142.073 340.495 150.64 331.929 150.64 321.362H149.64ZM131.506 303.228C141.521 303.228 149.64 311.347 149.64 321.362H150.64C150.64 310.795 142.073 302.228 131.506 302.228V303.228ZM113.373 321.362C113.373 311.347 121.492 303.228 131.506 303.228V302.228C120.94 302.228 112.373 310.795 112.373 321.362H113.373ZM131.506 339.495C121.492 339.495 113.373 331.376 113.373 321.362H112.373C112.373 331.929 120.94 340.495 131.506 340.495V339.495Z" fill="white"/>
<g filter="url(#filter1_f_344_73)">
<ellipse cx="519.407" cy="237.863" rx="80.9439" ry="88.3024" fill="#9AC128"/>
</g>
<path d="M591.427 170.865C591.947 174.757 590.395 179.09 586.13 179.671C581.65 180.279 575.601 179.353 570.884 180.035C566.206 181.267 566.504 187.656 571.104 188.381C579.239 189.663 589.344 185.483 595.81 192.182C595.878 184.868 599.353 177.942 605.514 173.985C606.82 173.146 611.153 170.865 612.422 170.865H630.594C632.724 170.865 631.131 177.169 629.02 178.694C622.688 183.269 612.542 175.902 606.197 185.327C601.146 192.829 604.97 204.305 614.301 205.347C621.129 206.109 626.448 204.209 628.398 197.198C624.711 196.954 619.862 198.192 616.958 195.338C615.829 194.227 613.715 188.42 615.555 188.42H637.175V197.511C636.479 205.035 629.21 211.675 623.732 213.527C613.396 217.026 604.589 213.012 598.328 204.72C598.435 208.565 592.147 214.75 588.609 214.75H561.978C561.121 200.201 579.281 206.997 587.97 205.335C590.261 204.895 591.427 201.761 590.488 199.718C588.465 195.321 574.129 197.853 569.335 197.049C559.03 195.324 555.97 180.616 563.642 174.098C564.752 173.155 569.21 170.868 570.44 170.868H591.432L591.427 170.865Z" fill="white"/>
<path d="M646.374 172.44C649.051 175.306 646.906 183.498 650.869 185.954C652.43 186.921 658.396 188.781 657.872 191.313C657.181 194.65 650.859 195.919 649.139 198.946C646.276 203.99 650.793 218.239 639.017 214.489C640.02 209.702 639.359 199.017 641.628 195.192C642.306 194.047 645.679 192.279 645.315 191.374C639.134 187.175 640.161 177.828 638.983 171.129C641.211 170.155 645.139 171.117 646.374 172.438V172.44Z" fill="white"/>
<path d="M669.699 172.301C667.022 175.179 669.167 183.411 665.204 185.876C663.643 186.848 657.677 188.715 658.201 191.259C658.892 194.611 665.214 195.887 666.934 198.929C669.797 203.997 665.28 218.31 677.056 214.543C676.053 209.734 676.714 199 674.445 195.157C673.767 194.008 670.395 192.233 670.758 191.322C676.939 187.104 675.912 177.715 677.09 170.985C674.862 170.006 670.934 170.973 669.699 172.301Z" fill="white"/>
<path fill-rule="evenodd" clip-rule="evenodd" d="M507.627 286.076C489.253 245.963 464.771 166.824 513.838 171.172C562.905 175.52 530.142 249.587 507.627 286.076ZM511.509 216.202C521.8 216.202 530.142 207.86 530.142 197.569C530.142 187.278 521.8 178.936 511.509 178.936C501.218 178.936 492.876 187.278 492.876 197.569C492.876 207.86 501.218 216.202 511.509 216.202Z" fill="white"/>
<path d="M507.627 286.076L507.172 286.285L507.562 287.135L508.052 286.339L507.627 286.076ZM513.838 171.172L513.882 170.674L513.838 171.172ZM508.082 285.868C498.903 265.832 488.216 236.078 485.94 211.905C484.801 199.807 485.778 189.199 490.016 181.902C492.128 178.265 495.05 175.45 498.938 173.67C502.831 171.889 507.724 171.132 513.794 171.67L513.882 170.674C507.685 170.125 502.61 170.89 498.522 172.761C494.429 174.634 491.357 177.601 489.151 181.4C484.753 188.972 483.799 199.84 484.944 211.998C487.236 236.336 497.976 266.208 507.172 286.285L508.082 285.868ZM513.794 171.67C525.907 172.743 532.881 178.096 536.274 186.025C539.691 194.01 539.515 204.693 537.086 216.47C532.232 240.008 518.446 267.589 507.201 285.814L508.052 286.339C519.323 268.074 533.177 240.377 538.066 216.672C540.508 204.827 540.731 193.898 537.194 185.632C533.633 177.311 526.302 171.775 513.882 170.674L513.794 171.67ZM529.642 197.569C529.642 207.584 521.524 215.702 511.509 215.702V216.702C522.076 216.702 530.642 208.136 530.642 197.569H529.642ZM511.509 179.436C521.524 179.436 529.642 187.554 529.642 197.569H530.642C530.642 187.002 522.076 178.436 511.509 178.436V179.436ZM493.376 197.569C493.376 187.554 501.494 179.436 511.509 179.436V178.436C500.942 178.436 492.376 187.002 492.376 197.569H493.376ZM511.509 215.702C501.494 215.702 493.376 207.584 493.376 197.569H492.376C492.376 208.136 500.942 216.702 511.509 216.702V215.702Z" fill="white"/>
<path d="M610.962 230.56C623.724 229.355 624.696 248.428 612.884 249.482C600.041 250.628 598.953 231.694 610.962 230.56Z" fill="white"/>
<path d="M638.315 244.63V230.814H640.747V249.181C640.029 249.088 639.079 249.447 638.535 248.891L627.533 235.064V249.181H625.102V230.814H627.302L638.303 244.63H638.315Z" fill="white"/>
<path d="M583.203 249.192V230.814H590.87C595.884 230.814 599.798 235.933 599.451 240.75C599.15 244.85 595.27 249.181 591.032 249.181H583.215L583.203 249.192ZM585.635 246.911H590.87C593.661 246.911 596.382 243.981 596.822 241.329C597.471 237.485 594.668 233.096 590.557 233.096H585.624V246.911H585.635Z" fill="white"/>
<path d="M565.891 230.814V242.279C565.891 243.055 566.666 244.931 567.176 245.545C569.098 247.872 573.788 247.803 575.479 245.186C575.745 244.769 576.359 243.31 576.359 242.881V230.814H578.791V243.032C578.791 243.449 578.189 245.243 577.957 245.695C574.819 252.099 563.447 250.015 563.447 242.58V230.814H565.879H565.891Z" fill="white"/>
<path fill-rule="evenodd" clip-rule="evenodd" d="M612.715 261.449C612.715 261.484 612.87 261.817 612.763 261.889C612.656 261.96 612.573 261.9 612.537 261.746C612.49 261.472 612.561 261.258 612.287 261.092C612.133 260.997 611.657 261.758 610.029 261.068C608.4 260.379 607.639 258.833 607.532 258.381C607.532 258.381 607.484 258.251 607.996 258.536C608.424 258.786 608.959 258.691 609.779 258.5C610.718 258.286 612.727 258.869 612.656 260.545C612.656 260.545 611.645 258.37 608.78 259.309C608.78 259.309 608.614 259.404 608.959 259.404C609.303 259.404 611.122 259.142 612.085 260.307C612.561 260.878 612.704 261.449 612.704 261.449H612.715Z" fill="white"/>
<path fill-rule="evenodd" clip-rule="evenodd" d="M576.086 262.174C572.995 262.174 570.332 264.469 569.904 267.512C569.476 270.615 571.497 272.79 574.838 272.79C576.277 272.79 577.846 272.22 578.987 271.304C579.427 270.924 579.142 270.52 579.142 270.52L578.654 269.806C578.654 269.806 578.333 269.402 577.858 269.699C577.394 270.02 576.455 270.365 575.599 270.365C574.137 270.365 573.209 269.45 573.364 268.154C573.483 268.154 578.25 268.154 579.677 268.154C580.129 268.154 580.224 267.809 580.259 267.655C580.295 267.488 580.319 267.334 580.343 267.179C580.521 265.966 580.271 264.825 579.629 263.91C578.856 262.804 577.572 262.174 576.098 262.174H576.086ZM577.953 266.133H573.685C573.685 266.133 573.958 264.171 576.027 264.171C578 264.171 577.953 266.133 577.953 266.133Z" fill="white"/>
<path fill-rule="evenodd" clip-rule="evenodd" d="M581.674 272.79C584.313 272.79 584.884 271.043 585.003 270.317C585.086 269.759 586.56 258.821 586.56 258.821H586.394C582.685 258.821 582.34 263.315 582.34 263.315C582.34 263.315 581.127 271.958 581.115 272.124C581.115 272.303 581.103 272.79 581.674 272.79Z" fill="white"/>
<path fill-rule="evenodd" clip-rule="evenodd" d="M609.815 262.459C609.815 262.459 609.969 262.84 609.47 264.861C608.971 266.882 608.495 269.462 609.042 270.817C609.589 272.172 610.742 273.206 612.145 273.29C612.109 273.29 611.646 271.934 611.776 270.757C611.895 269.592 612.597 266.834 612.846 265.562C613.096 264.29 612.573 263.113 611.586 262.733C610.611 262.352 609.827 262.435 609.827 262.435L609.815 262.459Z" fill="white"/>
<path fill-rule="evenodd" clip-rule="evenodd" d="M643.341 273.135C643.341 273.135 642.972 272.22 642.699 269.747C642.425 267.262 643.293 263.244 643.293 263.208L643.317 263.101L643.222 263.042C643.174 263.006 641.985 262.328 640.024 262.186C638.217 262.079 636.433 262.78 635.066 264.135C633.913 265.289 633.342 266.608 633.128 268.249C632.879 270.21 633.556 271.471 634.365 272.22C635.245 273.04 636.552 272.838 636.838 272.743C638.371 272.243 639.168 270.829 639.513 270.056C640.428 273.171 642.651 273.349 643.115 273.349C643.293 273.349 643.412 273.325 643.412 273.325L643.329 273.123L643.341 273.135ZM638.145 264.563C638.704 263.969 639.453 263.648 640.38 263.624C640.226 264.064 639.834 265.146 639.477 266.133C639.215 266.846 638.954 267.571 638.752 268.13C638.312 269.366 637.765 269.818 637.444 269.806C636.136 269.759 636.778 266.014 638.157 264.563H638.145Z" fill="white"/>
<path fill-rule="evenodd" clip-rule="evenodd" d="M592.588 262.174C589.497 262.174 586.834 264.469 586.406 267.512C585.978 270.615 587.999 272.79 591.34 272.79C592.766 272.79 594.347 272.22 595.489 271.304C595.929 270.924 595.643 270.52 595.643 270.52L595.156 269.818C595.156 269.818 594.835 269.414 594.359 269.711C593.896 270.032 592.956 270.377 592.1 270.377C590.638 270.377 589.711 269.462 589.865 268.166C589.972 268.166 594.752 268.166 596.178 268.166C596.63 268.166 596.725 267.821 596.761 267.667C596.796 267.512 596.82 267.346 596.844 267.191C597.01 265.978 596.773 264.837 596.131 263.922C595.358 262.816 594.062 262.186 592.6 262.186L592.588 262.174ZM594.443 266.133H590.174C590.174 266.133 590.448 264.171 592.505 264.171C594.478 264.171 594.431 266.133 594.431 266.133H594.443Z" fill="white"/>
<path fill-rule="evenodd" clip-rule="evenodd" d="M570.285 267.215C570.261 267.322 570.249 267.429 570.225 267.536C570.213 267.655 570.202 267.762 570.19 267.88C570.19 267.88 570.19 267.88 570.19 267.892C570.19 267.892 569.702 270.318 568.085 270.318C566.789 270.318 566.254 269.604 566.468 268.142C566.468 268.142 566.73 266.299 566.873 265.336C566.92 265.027 567.253 264.778 567.598 264.778C568.394 264.778 569.619 264.778 569.619 264.778L569.857 263.268C569.857 263.268 570.011 262.721 569.143 262.721C568.668 262.721 568.24 262.721 567.776 262.721C567.324 262.721 567.253 262.745 567.229 262.745C567.241 262.661 567.515 260.735 567.669 259.642C567.669 259.178 567.015 259.238 566.706 259.44C565.517 260.2 564.435 260.949 563.152 261.901C561.939 262.792 561.297 263.482 561.214 263.898C561.154 264.207 560.905 264.766 561.38 264.766C561.475 264.766 563.116 264.766 563.223 264.766C563.33 264.766 563.247 264.766 563.259 264.766C563.235 264.896 562.724 268.499 562.724 268.499C562.319 271.316 564.245 272.79 566.35 272.79C569.025 272.79 570.011 271.031 570.392 269.771C570.665 270.615 570.023 268.677 570.273 267.215H570.285Z" fill="white"/>
<path fill-rule="evenodd" clip-rule="evenodd" d="M597.094 263.161C597.843 265.883 597.95 266.692 597.545 270.496C597.379 271.982 597.129 273.04 596.927 273.884C596.594 275.251 596.38 276.167 596.785 277.641C597.427 279.971 599.721 280.351 599.911 280.328C599.947 279.983 599.769 279.412 599.721 277.867C599.662 275.715 600.078 274.609 600.185 274.134C600.434 274.169 600.684 274.181 600.934 274.181C602.967 274.181 605.083 273.147 605.986 271.72C607.591 269.355 607.354 266.81 606.664 265.36C606.165 264.302 605.356 263.636 604.477 263.565C602.622 263.398 601.314 265.55 600.839 266.561C599.971 263.505 598.39 263.161 597.106 263.161H597.094ZM603.43 270.341C602.788 271.97 601.944 272.671 600.577 272.695H600.565C600.541 272.695 600.529 272.695 600.506 272.695C600.625 272.232 601.148 270.175 601.54 268.927C602.016 267.405 602.574 266.608 603.157 266.608C603.181 266.608 603.216 266.608 603.24 266.608C603.347 266.62 603.442 266.703 603.525 266.834C603.918 267.488 603.87 269.224 603.43 270.329V270.341Z" fill="white"/>
<path fill-rule="evenodd" clip-rule="evenodd" d="M615.176 265.8C615.176 265.8 613.12 264.492 614.344 263.208C615.355 262.162 617.162 262.102 618.588 262.209C620.11 262.328 622.417 262.721 622.583 264.754C622.702 266.192 622.001 266.87 619.647 268.843C618.541 269.77 617.471 270.65 617.376 271.054C617.911 270.829 624.652 270.068 623.154 275.097C620.883 272.909 618.481 272.933 617.887 272.909C616.175 272.968 614.202 272.921 613.976 270.852C613.94 270.543 613.916 269.152 616.686 266.882C619.195 264.825 619.207 264.1 618.695 263.85C618.065 263.553 615.842 264.183 615.176 265.788V265.8Z" fill="white"/>
<path fill-rule="evenodd" clip-rule="evenodd" d="M624.937 265.812C624.937 265.812 622.88 264.504 624.105 263.22C625.115 262.174 626.922 262.115 628.349 262.233C629.871 262.352 632.177 262.745 632.344 264.778C632.463 266.216 631.761 266.894 629.407 268.867C628.302 269.806 627.232 270.674 627.136 271.078C627.671 270.841 634.412 270.092 632.914 275.12C630.644 272.933 628.242 272.957 627.648 272.933C625.936 272.981 623.962 272.945 623.736 270.876C623.701 270.567 623.677 269.176 626.447 266.906C628.955 264.849 628.967 264.124 628.456 263.886C627.826 263.589 625.603 264.219 624.937 265.824V265.812Z" fill="white"/>
<path d="M581.856 290.611C582.667 289.849 583.72 289.411 584.806 289.233C586.151 289.039 587.61 289.152 588.809 289.849C589.473 290.205 590.008 290.74 590.495 291.308C589.765 291.875 589.003 292.377 588.274 292.928C587.934 292.491 587.529 292.069 586.994 291.875C585.876 291.453 584.466 291.761 583.736 292.734C583.023 293.657 582.91 294.922 583.153 296.04C583.331 296.98 583.963 297.855 584.887 298.179C586.135 298.568 587.642 298.244 588.436 297.142C589.198 297.725 589.96 298.276 590.721 298.844C589.814 299.881 588.566 300.61 587.205 300.805C585.308 301.145 583.169 300.74 581.759 299.346C580.624 298.228 580.106 296.575 580.122 295.003C580.106 293.398 580.673 291.729 581.872 290.611" fill="white"/>
<path d="M595.162 289.33C596.718 288.958 598.452 289.168 599.83 290.011C600.786 290.594 601.531 291.486 601.969 292.507C602.666 294.111 602.65 295.991 601.969 297.612C601.483 298.763 600.591 299.735 599.473 300.286C597.707 301.177 595.519 301.145 593.752 300.237C592.196 299.427 591.143 297.774 590.932 296.056C590.802 294.938 590.851 293.787 591.272 292.734C591.872 291.032 593.396 289.703 595.178 289.33M595.94 291.778C595.259 291.923 594.676 292.345 594.303 292.928C593.703 293.917 593.606 295.165 593.914 296.251C594.173 297.191 594.903 298.001 595.859 298.228C596.702 298.39 597.674 298.325 598.355 297.774C599.214 297.126 599.538 296.024 599.522 294.986C599.506 294.144 599.295 293.252 598.728 292.604C598.063 291.794 596.896 291.518 595.908 291.761" fill="white"/>
<path d="M561.095 289.363C564.336 289.363 567.578 289.363 570.819 289.363C570.819 290.157 570.819 290.935 570.819 291.729C569.652 291.729 568.485 291.729 567.319 291.729C567.319 294.727 567.319 297.709 567.319 300.707C566.395 300.707 565.487 300.707 564.563 300.707C564.563 297.709 564.563 294.727 564.563 291.729C563.413 291.729 562.246 291.729 561.095 291.729C561.095 290.935 561.095 290.141 561.095 289.346" fill="white"/>
<path d="M573.574 289.363C574.369 289.363 575.163 289.347 575.941 289.379C577.448 293.171 579.02 296.931 580.56 300.708C579.539 300.708 578.501 300.708 577.48 300.708C577.286 300.157 577.059 299.606 576.881 299.054C575.357 299.054 573.834 299.054 572.327 299.054C572.116 299.606 571.905 300.157 571.694 300.724C570.722 300.724 569.75 300.724 568.761 300.724C570.349 296.931 571.986 293.155 573.574 289.363ZM573.169 296.818C573.753 296.818 574.336 296.769 574.92 296.786C575.292 296.802 575.665 296.818 576.022 296.769C575.535 295.44 575.098 294.111 574.644 292.783C574.142 294.128 573.655 295.489 573.153 296.834" fill="white"/>
<path d="M605.193 289.318C606.766 289.318 608.321 289.318 609.893 289.318C610.963 289.366 612.146 289.545 612.924 290.355C613.605 291.036 613.605 292.105 613.41 292.98C613.216 293.71 612.6 294.212 611.968 294.536C612.811 294.666 613.621 295.136 614.059 295.881C614.626 296.902 614.561 298.231 613.978 299.236C613.281 300.29 611.919 300.614 610.736 300.662C608.889 300.679 607.057 300.662 605.21 300.662C605.21 296.87 605.21 293.094 605.21 289.302M607.803 291.538C607.803 292.284 607.803 293.045 607.803 293.791C608.548 293.775 609.31 293.856 610.039 293.694C610.947 293.499 611.044 291.943 610.137 291.668C609.375 291.441 608.581 291.554 607.803 291.538ZM607.803 295.962C607.803 296.74 607.803 297.518 607.803 298.296C608.872 298.264 609.975 298.41 611.028 298.134C611.855 297.826 611.822 296.449 610.996 296.157C609.975 295.833 608.872 296.011 607.803 295.962Z" fill="white"/>
<path d="M615.517 289.318C618.37 289.318 621.222 289.318 624.074 289.318C624.074 290.112 624.074 290.906 624.074 291.7C622.146 291.7 620.217 291.7 618.305 291.7C618.305 292.381 618.305 293.078 618.305 293.758C619.926 293.791 621.546 293.71 623.151 293.807C623.118 294.585 623.167 295.346 623.102 296.124C621.498 296.124 619.893 296.124 618.305 296.124C618.305 296.854 618.305 297.583 618.305 298.312C620.266 298.312 622.243 298.312 624.204 298.312C624.204 299.106 624.204 299.901 624.204 300.695C621.303 300.695 618.418 300.695 615.517 300.695C615.517 296.919 615.517 293.126 615.517 289.35" fill="white"/>
<path d="M625.549 289.318C626.473 289.318 627.397 289.318 628.321 289.318C628.321 292.316 628.321 295.298 628.321 298.296C629.99 298.296 631.659 298.296 633.329 298.296C633.329 299.09 633.329 299.884 633.329 300.678C630.736 300.678 628.143 300.678 625.533 300.678C625.533 296.902 625.533 293.11 625.533 289.334" fill="white"/>
<path d="M634.69 289.318C635.614 289.318 636.522 289.318 637.445 289.318C637.445 292.316 637.445 295.298 637.445 298.296C639.115 298.296 640.784 298.296 642.453 298.296C642.453 299.09 642.453 299.884 642.453 300.678C639.86 300.678 637.283 300.678 634.69 300.678C634.69 296.886 634.69 293.11 634.69 289.318Z" fill="white"/>
<g filter="url(#filter2_f_344_73)">
<ellipse cx="377.493" cy="439.697" rx="80.9439" ry="88.3024" fill="#FF7C00"/>
</g>
<path d="M410.847 413.901C418.162 413.505 426.251 412.527 433.19 415.404C436.771 416.888 440.302 420.124 440.772 424.183C442.019 434.961 432.601 439.515 423.288 439.485V445.709H413.612V421.507H411.075L411.087 414.92L410.847 414.362V413.901ZM423.288 432.11C427.387 432.398 431.891 430.423 431.066 425.596C430.552 422.584 425.931 421.251 423.288 421.507V432.11Z" fill="white"/>
<path d="M515.329 433.032L515.073 433.509C517.538 440.479 525.842 438.654 530.876 435.798L534.562 442.367C527.763 447.686 514.868 447.709 509 440.977C503.351 434.493 503.994 423.052 510.604 417.472C517.022 412.05 528.922 412.592 533.698 419.959C536.195 423.81 536.405 428.443 535.923 432.891C535.709 433.463 535.463 433.034 535.375 433.034H515.331L515.329 433.032ZM526.964 426.809C526.533 419.378 515.748 419.802 514.983 426.809H526.964Z" fill="white"/>
<path d="M572.926 433.032L572.67 433.509C574.857 440.062 582.656 438.898 587.551 436.258L590.761 443.035C587.335 445.614 582.209 446.462 577.983 446.179C556.368 444.729 558.008 412.691 579.847 413.889C590.535 414.477 595.074 423.48 593.311 433.264C593.152 433.271 593.025 433.032 592.968 433.032H572.924H572.926ZM572.581 426.808H584.215C584.683 426.518 584.351 425.67 584.208 425.2C582.414 419.306 572.857 420.562 572.581 426.808Z" fill="white"/>
<path d="M456.185 414.199C477.9 411.965 481.641 442.454 460.927 445.677C438.687 449.136 434.808 416.397 456.185 414.199ZM456.87 422.489C448.414 423.718 449.205 439.034 459.98 437.356C462.459 436.969 465.09 434.219 465.429 431.743C466.207 426.043 462.876 421.616 456.87 422.489Z" fill="white"/>
<path d="M486.645 439.716V445.708H477.199V421.507L474.665 421.738V414.938C474.665 414.821 474.299 414.454 474.435 414.134C476.932 414 479.43 413.982 481.932 413.912C489.912 413.689 502.961 414.436 504.13 424.875C505.277 435.117 495.377 439.688 486.645 439.716ZM486.645 432.34C490.143 432.289 494.492 431.201 494.49 426.924C494.49 422.839 490.477 421.88 487.113 421.602L486.643 421.853V432.34H486.645Z" fill="white"/>
<path d="M597.695 436.259C599.723 437.731 606.227 439.771 608.065 437.764C609.18 436.547 607.957 435.565 606.911 434.989C604.195 433.493 601.188 433.267 598.4 431.287C593.684 427.94 593.18 420.482 597.573 416.66C602.686 412.214 613.931 412.853 617.937 418.668L612.784 424.266C611.067 422.321 608.337 420.883 605.697 421.33C603.335 421.731 602.944 423.851 604.987 425.156C609.155 427.814 615.463 427.581 617.265 433.617C620.276 443.72 609.383 446.935 601.531 445.67C600.414 445.49 594.613 443.904 594.733 442.639L597.695 436.259Z" fill="white"/>
<path d="M543.782 415.054L549.429 427.964L555.877 415.054H566.36L554.61 437.066V445.709H544.473V437.296L533.184 415.054H543.782Z" fill="white"/>
<path fill-rule="evenodd" clip-rule="evenodd" d="M365.429 487.496C347.055 447.383 322.573 368.244 371.641 372.591C420.708 376.939 387.945 451.006 365.429 487.496ZM369.311 417.622C379.602 417.622 387.945 409.279 387.945 398.988C387.945 388.698 379.602 380.355 369.311 380.355C359.021 380.355 350.678 388.698 350.678 398.988C350.678 409.279 359.021 417.622 369.311 417.622Z" fill="white"/>
<path d="M365.429 487.496L364.975 487.704L365.364 488.554L365.855 487.758L365.429 487.496ZM371.641 372.591L371.685 372.093L371.641 372.591ZM365.884 487.288C356.706 467.251 346.018 437.497 343.742 413.324C342.603 401.227 343.58 390.618 347.818 383.321C349.93 379.685 352.852 376.869 356.74 375.09C360.633 373.308 365.526 372.552 371.596 373.09L371.685 372.093C365.488 371.544 360.412 372.31 356.324 374.181C352.231 376.054 349.159 379.021 346.953 382.819C342.556 390.392 341.602 401.26 342.747 413.418C345.038 437.755 355.779 467.628 364.975 487.704L365.884 487.288ZM371.596 373.09C383.71 374.163 390.684 379.515 394.077 387.445C397.493 395.429 397.318 406.113 394.889 417.889C390.034 441.427 376.249 469.009 365.004 487.233L365.855 487.758C377.125 469.493 390.979 441.796 395.868 418.091C398.311 406.247 398.533 395.318 394.996 387.051C391.436 378.731 384.105 373.194 371.685 372.093L371.596 373.09ZM387.445 398.988C387.445 409.003 379.326 417.122 369.311 417.122V418.122C379.878 418.122 388.445 409.555 388.445 398.988H387.445ZM369.311 380.855C379.326 380.855 387.445 388.974 387.445 398.988H388.445C388.445 388.421 379.878 379.855 369.311 379.855V380.855ZM351.178 398.988C351.178 388.974 359.297 380.855 369.311 380.855V379.855C358.744 379.855 350.178 388.421 350.178 398.988H351.178ZM369.311 417.122C359.297 417.122 351.178 409.003 351.178 398.988H350.178C350.178 409.555 358.744 418.122 369.311 418.122V417.122Z" fill="white"/>
<g filter="url(#filter3_f_344_73)">
<circle cx="302" cy="176" r="96" fill="#D82300"/>
</g>
<path fill-rule="evenodd" clip-rule="evenodd" d="M283.573 236.357C265.199 196.244 240.717 117.105 289.784 121.453C338.852 125.8 306.088 199.867 283.573 236.357ZM287.455 166.483C297.746 166.483 306.088 158.14 306.088 147.849C306.088 137.559 297.746 129.216 287.455 129.216C277.164 129.216 268.822 137.559 268.822 147.849C268.822 158.14 277.164 166.483 287.455 166.483Z" fill="white"/>
<path d="M283.573 236.357L283.119 236.565L283.508 237.415L283.999 236.62L283.573 236.357ZM289.784 121.453L289.828 120.955L289.784 121.453ZM284.028 236.149C274.85 216.112 264.162 186.359 261.886 162.185C260.747 150.088 261.724 139.479 265.962 132.182C268.074 128.546 270.996 125.73 274.884 123.951C278.777 122.169 283.67 121.413 289.74 121.951L289.828 120.955C283.632 120.405 278.556 121.171 274.468 123.042C270.375 124.915 267.303 127.882 265.097 131.68C260.699 139.253 259.746 150.121 260.89 162.279C263.182 186.616 273.922 216.489 283.119 236.565L284.028 236.149ZM289.74 121.951C301.854 123.024 308.828 128.376 312.221 136.306C315.637 144.29 315.461 154.974 313.032 166.75C308.178 190.289 294.393 217.87 283.148 236.094L283.999 236.62C295.269 218.354 309.123 190.657 314.012 166.952C316.455 155.108 316.677 144.179 313.14 135.912C309.58 127.592 302.249 122.055 289.828 120.955L289.74 121.951ZM305.588 147.849C305.588 157.864 297.47 165.983 287.455 165.983V166.983C298.022 166.983 306.588 158.416 306.588 147.849H305.588ZM287.455 129.716C297.47 129.716 305.588 137.835 305.588 147.849H306.588C306.588 137.282 298.022 128.716 287.455 128.716V129.716ZM269.322 147.849C269.322 137.835 277.441 129.716 287.455 129.716V128.716C276.888 128.716 268.322 137.282 268.322 147.849H269.322ZM287.455 165.983C277.441 165.983 269.322 157.864 269.322 147.849H268.322C268.322 158.416 276.888 166.983 287.455 166.983V165.983Z" fill="white"/>
<path d="M356.244 149.724C364.873 149.402 375.395 150.251 382.812 154.989C385.125 156.467 388.305 159.404 388.846 162.201C389.055 163.283 389.019 163.944 387.705 163.959C371.097 163.916 354.47 163.953 337.876 164.06C336.335 164.071 331.073 164.298 329.975 163.802C328.117 162.964 330.456 159.377 331.297 158.4C336.633 152.204 348.463 150.012 356.244 149.723V149.724Z" fill="white"/>
<path d="M329.639 197.082L388.366 197.11C389.744 197.465 388.234 199.618 387.775 200.293C383.961 205.901 373.178 206.987 366.913 207.348C361.253 207.673 355.039 207.728 349.388 207.348C343.323 206.939 332.237 204.997 329.62 198.588C329.471 198.225 329.096 197.24 329.639 197.082Z" fill="white"/>
<path d="M365.232 186.264V181.018C365.232 180.978 365.379 180.474 365.413 180.384C366.122 178.485 370.044 178.784 370.129 181.013C369.854 184.991 370.479 189.425 370.129 193.347C369.944 195.404 366.904 195.938 365.642 194.463L360.342 187.791V193.649C360.342 193.684 360.119 194.237 360.079 194.304C359.144 195.852 355.742 195.611 355.548 193.551C355.242 190.302 355.591 186.207 355.555 182.846C355.546 182.034 355.309 181.416 355.58 180.537C356.121 178.788 359.101 178.732 360.086 180.149L365.231 186.262L365.232 186.264Z" fill="white"/>
<path d="M379.377 178.858C381.52 178.682 384.059 178.982 385.808 180.314C386.91 181.153 387.137 182.295 386.112 183.35C384.738 184.765 383.151 183.287 381.56 183.032C379.65 182.726 377.553 183.331 376.847 185.291C375.693 188.492 377.313 191.65 380.978 191.255C381.941 191.151 382.773 190.516 382.359 189.465C381.724 189.374 381.267 189.502 380.653 189.235C379.017 188.523 379.507 185.646 381.179 185.444C382.171 185.325 384.868 185.334 385.869 185.446C387.066 185.579 387.183 186.502 387.25 187.53C387.324 188.672 387.37 190.812 387.245 191.916C387.028 193.836 383.888 195.247 382.188 195.418C377.764 195.862 373.76 194.733 372.238 190.212C370.411 184.785 373.572 179.337 379.378 178.857L379.377 178.858Z" fill="white"/>
<path d="M336.905 185.652C338.43 184.171 339.752 182.484 341.234 180.964C341.769 180.416 342.515 179.529 343.225 179.287C345.071 178.659 347.179 180.412 346.132 182.295L341.803 187.115L346.076 191.814C347.45 193.765 344.98 195.859 343.02 195.073C342.631 194.917 342.29 194.552 341.999 194.261C340.441 192.71 339.089 190.908 337.57 189.316C337.474 189.215 336.909 188.588 336.805 188.707C336.856 190.212 337.043 191.951 336.911 193.448C336.702 195.822 332.328 195.883 332.112 193.653C332.411 189.56 331.734 184.942 332.112 180.911C332.304 178.883 335.781 178.629 336.621 180.079C336.685 180.189 336.905 180.737 336.905 180.813V185.652Z" fill="white"/>
<path d="M364.702 166.633C366.096 166.483 368.858 166.67 369.716 167.977C370.258 168.801 369.429 170.031 368.454 169.96C367.21 169.869 366.763 168.978 365.024 169.398C362.385 170.038 362.649 174.441 365.179 174.753C365.951 174.848 367.447 174.664 366.971 173.572C366.62 173.49 366.337 173.566 365.973 173.449C364.805 173.074 365.014 171.044 366.402 170.876C366.95 170.811 369.302 170.818 369.708 171.038C370.112 171.256 370.195 171.928 370.23 172.351C370.279 172.97 370.314 174.827 370.178 175.363C369.711 177.195 366.531 177.619 364.978 177.498C358.293 176.975 358.576 167.286 364.701 166.63L364.702 166.633Z" fill="white"/>
<path d="M349.821 179.261C351.104 179.075 352.779 179.362 352.902 180.917L352.895 193.742C352.608 195.765 348.49 195.938 348.113 193.754L348.121 180.719C348.334 179.91 349.011 179.38 349.823 179.262L349.821 179.261Z" fill="white"/>
<path d="M333.21 166.729C334.026 166.593 336.694 166.616 337.54 166.731C340.097 167.077 341.035 170.123 338.842 171.646C341.492 173.006 340.709 177.082 337.77 177.401C336.722 177.516 334.451 177.498 333.383 177.404C332.602 177.336 332.187 177.046 332.108 176.234C331.856 173.596 332.307 170.557 332.114 167.876C332.139 167.267 332.636 166.824 333.208 166.729H333.21ZM335.172 170.882C337.671 171.352 337.669 168.375 335.172 168.844V170.882ZM335.172 175.262C336.096 175.387 337.31 175.172 337.277 174.004C337.242 172.778 336.088 172.87 335.172 172.919V175.261V175.262Z" fill="white"/>
<path d="M354.228 173.327V176.535C354.228 176.608 353.918 177.06 353.817 177.143C353.085 177.737 351.55 177.559 351.193 176.615L351.172 167.775C351.184 167.298 351.573 166.786 352.044 166.711C352.791 166.593 356.057 166.604 356.804 166.729C357.427 166.835 358.339 167.473 358.713 167.978C359.773 169.413 359.445 171.833 357.843 172.714L357.79 172.867C358.113 173.618 359.911 175.215 359.942 175.926C359.99 176.956 357.807 178.096 357.083 177.043L354.228 173.327ZM354.228 171.289C355.261 171.389 356.2 171.253 356.17 170.013C356.143 168.844 355.191 168.755 354.228 168.844V171.289Z" fill="white"/>
<path d="M382.046 176.535C381.79 177.686 379.556 177.798 379.01 176.718L378.984 167.567C379.038 167.181 379.365 166.774 379.759 166.712C380.576 166.584 383.695 166.6 384.534 166.714C385.434 166.838 386.565 167.8 386.884 168.644C387.417 170.053 387.003 172.128 385.511 172.718V172.867C385.9 173.489 387.786 175.396 387.751 176.018C387.701 176.927 386.089 177.767 385.236 177.32C384.236 176.795 383.06 174.169 382.047 173.428C381.915 174.307 382.226 175.729 382.047 176.535H382.046ZM382.046 171.289C382.937 171.415 383.951 171.184 383.991 170.119C384.037 168.904 383.039 168.727 382.046 168.844V171.289Z" fill="white"/>
<path d="M342.894 166.631C343.518 166.618 344.386 166.915 344.524 167.594C344.787 169.577 344.251 172.177 344.554 174.085C344.723 175.157 346.481 175.212 346.683 174.085L346.742 167.319C347.743 166.212 349.706 166.364 349.851 168.078C349.988 169.682 350.001 172.901 349.835 174.487C349.409 178.569 341.697 178.309 341.386 174.707C341.188 172.436 341.536 169.881 341.394 167.579C341.497 166.933 342.322 166.646 342.894 166.634V166.631Z" fill="white"/>
<path d="M374.608 169.251V170.677H376.697C376.781 170.677 377.274 170.934 377.363 171.031C377.754 171.454 377.751 172.367 377.408 172.815C377.334 172.913 376.864 173.224 376.799 173.224H374.608V174.854C375.313 174.921 376.924 174.72 377.518 175.051C378.281 175.478 378.318 177.293 377.109 177.404C376.149 177.493 373.427 177.532 372.526 177.392C372.167 177.337 371.68 176.987 371.543 176.642L371.497 167.515C371.649 167.071 371.967 166.809 372.424 166.71L377.262 166.749C378.401 167.098 377.953 169.25 377.003 169.25H374.608V169.251Z" fill="white"/>
<defs>
<filter id="filter0_f_344_73" x="-16" y="178" width="350.271" height="367.09" filterUnits="userSpaceOnUse" color-interpolation-filters="sRGB">
<feFlood flood-opacity="0" result="BackgroundImageFix"/>
<feBlend mode="normal" in="SourceGraphic" in2="BackgroundImageFix" result="shape"/>
<feGaussianBlur stdDeviation="40" result="effect1_foregroundBlur_344_73"/>
</filter>
<filter id="filter1_f_344_73" x="358.463" y="69.561" width="321.888" height="336.605" filterUnits="userSpaceOnUse" color-interpolation-filters="sRGB">
<feFlood flood-opacity="0" result="BackgroundImageFix"/>
<feBlend mode="normal" in="SourceGraphic" in2="BackgroundImageFix" result="shape"/>
<feGaussianBlur stdDeviation="40" result="effect1_foregroundBlur_344_73"/>
</filter>
<filter id="filter2_f_344_73" x="216.549" y="271.395" width="321.888" height="336.605" filterUnits="userSpaceOnUse" color-interpolation-filters="sRGB">
<feFlood flood-opacity="0" result="BackgroundImageFix"/>
<feBlend mode="normal" in="SourceGraphic" in2="BackgroundImageFix" result="shape"/>
<feGaussianBlur stdDeviation="40" result="effect1_foregroundBlur_344_73"/>
</filter>
<filter id="filter3_f_344_73" x="126" y="0" width="352" height="352" filterUnits="userSpaceOnUse" color-interpolation-filters="sRGB">
<feFlood flood-opacity="0" result="BackgroundImageFix"/>
<feBlend mode="normal" in="SourceGraphic" in2="BackgroundImageFix" result="shape"/>
<feGaussianBlur stdDeviation="40" result="effect1_foregroundBlur_344_73"/>
</filter>
</defs>
</svg>
