<svg width="163" height="66" viewBox="0 0 163 66" fill="none" xmlns="http://www.w3.org/2000/svg">
<path d="M32.8409 38.7939H27.9867C23.0666 39.6218 18.9763 42.92 17.0382 47.366C16.7495 48.0287 16.508 48.7173 16.3189 49.4267C16.3174 49.4329 16.3153 49.4386 16.3137 49.4449C16.2545 49.6671 16.2021 49.892 16.1533 50.1179C16.1496 50.1356 16.145 50.1527 16.1413 50.1704C16.0967 50.3823 16.0582 50.5962 16.0229 50.8107C16.0177 50.8434 16.0105 50.8756 16.0053 50.9083C15.9736 51.1098 15.9486 51.3139 15.9253 51.518C15.9201 51.5643 15.9128 51.6094 15.9076 51.6557C15.8874 51.8514 15.8733 52.0493 15.8609 52.2477C15.8572 52.3022 15.851 52.3568 15.8484 52.4113C15.8427 52.5255 15.8427 52.6413 15.8396 52.7561H44.9885C44.7896 45.7285 39.5979 39.9313 32.8409 38.7939Z" fill="#231F20"/>
<path d="M150.916 52.5057C150.913 52.446 150.909 52.3868 150.906 52.3276C150.895 52.1391 150.881 51.9516 150.863 51.7652C150.86 51.7299 150.857 51.6945 150.854 51.6597C150.831 51.4447 150.804 51.2318 150.772 51.0199C150.764 50.9633 150.754 50.9067 150.745 50.8501C150.718 50.6808 150.688 50.512 150.655 50.3448C150.644 50.2929 150.635 50.2409 150.624 50.1895C150.582 49.9849 150.534 49.7813 150.484 49.5798C150.47 49.5274 150.455 49.4754 150.441 49.4235C150.399 49.2656 150.355 49.1093 150.307 48.9535C150.289 48.8917 150.271 48.8299 150.251 48.7686C150.19 48.5754 150.125 48.3838 150.056 48.1943C150.039 48.148 150.021 48.1029 150.004 48.0572C149.947 47.9071 149.888 47.7575 149.827 47.61C149.799 47.5415 149.77 47.4734 149.741 47.4054C149.676 47.2564 149.609 47.1089 149.54 46.9624C149.51 46.898 149.479 46.8336 149.448 46.7697C149.375 46.6202 149.299 46.4727 149.221 46.3257C149.181 46.252 149.141 46.1793 149.1 46.106C149.037 45.9918 148.971 45.8791 148.905 45.7669C148.865 45.7004 148.827 45.6334 148.787 45.5675C148.692 45.4127 148.594 45.2606 148.493 45.1094C148.441 45.0315 148.388 44.9552 148.335 44.8789C148.272 44.7885 148.208 44.6987 148.143 44.6099C148.086 44.532 148.03 44.4541 147.972 44.3777C147.868 44.2401 147.761 44.104 147.652 43.97C147.586 43.8901 147.519 43.8116 147.452 43.7327C147.39 43.6605 147.328 43.5889 147.265 43.5177C147.193 43.4362 147.12 43.3546 147.046 43.2747C146.983 43.2061 146.917 43.1391 146.852 43.0716C146.723 42.9366 146.59 42.8041 146.456 42.6743C146.397 42.6182 146.34 42.5627 146.281 42.5076C146.193 42.4266 146.106 42.3466 146.017 42.2677C145.962 42.2189 145.906 42.1711 145.85 42.1233C145.684 41.981 145.516 41.8418 145.344 41.7068C145.295 41.6679 145.246 41.6289 145.197 41.5905C145.096 41.5141 144.995 41.4388 144.893 41.3651C144.84 41.3261 144.786 41.2882 144.732 41.2503C144.502 41.0888 144.269 40.9325 144.03 40.7834C144.027 40.7814 144.024 40.7793 144.021 40.7777C143.91 40.7087 143.797 40.6422 143.684 40.5762C143.629 40.544 143.574 40.5118 143.518 40.4807C143.405 40.4163 143.29 40.3519 143.175 40.2906C141.821 39.5703 140.34 39.0582 138.776 38.7949H133.922C127.165 39.9323 121.973 45.73 121.774 52.7581H150.923C150.919 52.6735 150.919 52.5888 150.916 52.5057Z" fill="#231F20"/>
<path d="M150.216 24.0071L136.353 20.2565L111.777 2.98258C109.06 1.07249 105.82 0.0478516 102.499 0.0478516H15.272C10.2418 0.0478516 6.00506 3.80728 5.4068 8.80219L1.97612 37.4442L1.9164 47.4964C1.08651 47.4964 0.413452 48.1694 0.413452 48.9993V53.7018C0.413452 54.5317 1.08651 55.2048 1.9164 55.2048H15.8303V55.0484H15.9533C15.8739 54.4341 15.8287 53.8093 15.8287 53.1732C15.8287 45.1308 22.3717 38.5878 30.4141 38.5878C38.4564 38.5878 44.9994 45.1308 44.9994 53.1732C44.9994 53.1794 44.9994 53.1861 44.9994 53.1924C44.9979 54.2123 45.8028 55.0484 46.8228 55.0484H119.965C120.971 55.0484 121.766 54.2243 121.763 53.2183C121.763 53.2033 121.763 53.1882 121.763 53.1732C121.763 45.1308 128.305 38.5878 136.347 38.5878C144.39 38.5878 150.932 45.1308 150.932 53.1732C150.932 53.1882 150.932 53.2033 150.932 53.2183C150.929 54.2243 151.724 55.0484 152.73 55.0484H157.915V34.0655C157.915 29.3588 154.76 25.2358 150.216 24.0071Z" fill="#F1F2F2"/>
<path d="M87.0168 7.37826L88.0575 21.9491C88.1531 23.2843 89.2639 24.3188 90.6022 24.3188H126.97C128.847 24.3188 129.645 21.9325 128.147 20.8029L109.154 6.48397C107.744 5.35184 105.993 4.7302 104.185 4.72189L89.575 4.64555C88.0892 4.63724 86.9108 5.89609 87.0168 7.37826Z" fill="#010101"/>
<path d="M1.9164 55.2049H15.8303V55.0485H15.9533C15.8739 54.4342 15.8287 53.8094 15.8287 53.1732C15.8287 50.4743 16.5682 47.9462 17.8515 45.7754H1.92678L1.9164 47.4959C1.08651 47.4959 0.413452 48.169 0.413452 48.9989V53.7014C0.413452 54.5318 1.08651 55.2049 1.9164 55.2049Z" fill="#D1D3D4"/>
<path d="M30.4136 59.7396C26.8712 59.7396 23.9993 56.8677 23.9993 53.3254C23.9993 49.783 26.8712 46.9111 30.4136 46.9111C33.9559 46.9111 36.8278 49.783 36.8278 53.3254C36.8278 56.8677 33.9559 59.7396 30.4136 59.7396Z" fill="#231F20"/>
<path d="M32.6576 53.4293C32.6612 53.3779 32.6653 53.3265 32.6653 53.2745C32.6653 52.7827 32.495 52.3319 32.2125 51.9741L34.9649 48.357C34.3952 47.8345 33.7352 47.4092 33.0112 47.1064L31.1193 51.2512C30.9427 51.2029 30.7579 51.1754 30.5662 51.1754C30.3164 51.1754 30.078 51.2211 29.8558 51.3011L27.6398 47.1854C26.9158 47.5131 26.2599 47.9644 25.6996 48.5133L28.8239 52.1034C28.5985 52.4379 28.4666 52.8409 28.4666 53.2745C28.4666 53.3223 28.4707 53.369 28.4738 53.4163L23.8113 54.6741C23.9718 55.463 24.2704 56.2015 24.6801 56.8641L28.9475 54.6118C29.1947 54.9109 29.5239 55.1389 29.8999 55.2646L29.2746 59.9656C29.6454 60.0289 30.0256 60.0637 30.4146 60.0637C30.8202 60.0637 31.2169 60.0258 31.6033 59.9573L31.1816 55.2828C31.5716 55.1633 31.9123 54.9338 32.1694 54.63L36.2103 56.7629C36.5993 56.1085 36.8802 55.3825 37.0293 54.6092L32.6576 53.4293Z" fill="#E6E7E8"/>
<path d="M30.9054 52.2416C30.9054 52.4659 30.7231 52.6482 30.4988 52.6482C30.2744 52.6482 30.0921 52.4659 30.0921 52.2416C30.0921 52.0167 30.2744 51.835 30.4988 51.835C30.7231 51.835 30.9054 52.0167 30.9054 52.2416Z" fill="#D1D3D4"/>
<path d="M30.9054 54.3178C30.9054 54.5421 30.7231 54.7244 30.4988 54.7244C30.2744 54.7244 30.0921 54.5421 30.0921 54.3178C30.0921 54.0934 30.2744 53.9111 30.4988 53.9111C30.7231 53.9111 30.9054 54.0934 30.9054 54.3178Z" fill="#D1D3D4"/>
<path d="M31.5369 53.6853C31.7615 53.6853 31.9435 53.5033 31.9435 53.2787C31.9435 53.0541 31.7615 52.8721 31.5369 52.8721C31.3123 52.8721 31.1302 53.0541 31.1302 53.2787C31.1302 53.5033 31.3123 53.6853 31.5369 53.6853Z" fill="#D1D3D4"/>
<path d="M29.4606 53.6863C29.2363 53.6863 29.054 53.504 29.054 53.2797C29.054 53.0553 29.2363 52.873 29.4606 52.873C29.685 52.873 29.8672 53.0553 29.8672 53.2797C29.8672 53.504 29.685 53.6863 29.4606 53.6863Z" fill="#D1D3D4"/>
<path d="M30.4136 41.6348C23.9573 41.6348 18.7234 46.8686 18.7234 53.3249C18.7234 59.7812 23.9573 65.015 30.4136 65.015C36.8699 65.015 42.1037 59.7812 42.1037 53.3249C42.1042 46.8691 36.8704 41.6348 30.4136 41.6348ZM30.4136 60.2319C26.5991 60.2319 23.507 57.1399 23.507 53.3254C23.507 49.5109 26.5991 46.4188 30.4136 46.4188C34.228 46.4188 37.3201 49.5109 37.3201 53.3254C37.3201 57.1399 34.228 60.2319 30.4136 60.2319Z" fill="#75787A"/>
<path d="M30.4136 45.7744C26.2439 45.7744 22.8636 49.1547 22.8636 53.3244C22.8636 57.4941 26.2439 60.8744 30.4136 60.8744C34.5833 60.8744 37.9636 57.4941 37.9636 53.3244C37.9641 49.1547 34.5838 45.7744 30.4136 45.7744ZM30.4136 59.7392C26.8712 59.7392 23.9993 56.8673 23.9993 53.3249C23.9993 49.7826 26.8712 46.9107 30.4136 46.9107C33.9559 46.9107 36.8278 49.7826 36.8278 53.3249C36.8278 56.8673 33.9559 59.7392 30.4136 59.7392Z" fill="#D1D3D4"/>
<path d="M135.855 59.7396C132.312 59.7396 129.44 56.8677 129.44 53.3254C129.44 49.783 132.312 46.9111 135.855 46.9111C139.397 46.9111 142.269 49.783 142.269 53.3254C142.269 56.8677 139.397 59.7396 135.855 59.7396Z" fill="#231F20"/>
<path d="M138.099 53.4293C138.102 53.3779 138.106 53.3265 138.106 53.2745C138.106 52.7827 137.936 52.3319 137.654 51.9741L140.406 48.357C139.836 47.8345 139.177 47.4092 138.452 47.1064L136.56 51.2512C136.384 51.2029 136.199 51.1754 136.007 51.1754C135.757 51.1754 135.519 51.2211 135.297 51.3011L133.08 47.1854C132.356 47.5131 131.7 47.9644 131.141 48.5133L134.265 52.1034C134.039 52.4379 133.908 52.8409 133.908 53.2745C133.908 53.3223 133.912 53.369 133.915 53.4163L129.252 54.6741C129.413 55.463 129.711 56.2015 130.121 56.8641L134.388 54.6118C134.636 54.9109 134.965 55.1389 135.341 55.2646L134.716 59.9656C135.086 60.0289 135.467 60.0637 135.856 60.0637C136.261 60.0637 136.658 60.0258 137.044 59.9573L136.623 55.2828C137.013 55.1633 137.353 54.9338 137.61 54.63L141.651 56.7629C142.04 56.1085 142.321 55.3825 142.47 54.6092L138.099 53.4293Z" fill="#E6E7E8"/>
<path d="M135.94 52.6482C136.164 52.6482 136.346 52.4662 136.346 52.2416C136.346 52.017 136.164 51.835 135.94 51.835C135.715 51.835 135.533 52.017 135.533 52.2416C135.533 52.4662 135.715 52.6482 135.94 52.6482Z" fill="#D1D3D4"/>
<path d="M136.346 54.3178C136.346 54.5421 136.164 54.7244 135.94 54.7244C135.715 54.7244 135.533 54.5421 135.533 54.3178C135.533 54.0934 135.715 53.9111 135.94 53.9111C136.164 53.9111 136.346 54.0934 136.346 54.3178Z" fill="#D1D3D4"/>
<path d="M136.977 53.6863C136.753 53.6863 136.571 53.504 136.571 53.2797C136.571 53.0553 136.753 52.873 136.977 52.873C137.202 52.873 137.384 53.0553 137.384 53.2797C137.384 53.504 137.202 53.6863 136.977 53.6863Z" fill="#D1D3D4"/>
<path d="M134.902 53.6853C135.126 53.6853 135.308 53.5033 135.308 53.2787C135.308 53.0541 135.126 52.8721 134.902 52.8721C134.677 52.8721 134.495 53.0541 134.495 53.2787C134.495 53.5033 134.677 53.6853 134.902 53.6853Z" fill="#D1D3D4"/>
<path d="M135.855 41.6348C129.398 41.6348 124.164 46.8686 124.164 53.3249C124.164 59.7812 129.398 65.015 135.855 65.015C142.311 65.015 147.545 59.7812 147.545 53.3249C147.545 46.8691 142.311 41.6348 135.855 41.6348ZM135.855 60.2319C132.04 60.2319 128.948 57.1399 128.948 53.3254C128.948 49.5109 132.04 46.4188 135.855 46.4188C139.669 46.4188 142.761 49.5109 142.761 53.3254C142.761 57.1399 139.669 60.2319 135.855 60.2319Z" fill="#75787A"/>
<path d="M135.855 45.7744C131.685 45.7744 128.305 49.1547 128.305 53.3244C128.305 57.4941 131.685 60.8744 135.855 60.8744C140.024 60.8744 143.405 57.4941 143.405 53.3244C143.405 49.1547 140.025 45.7744 135.855 45.7744ZM135.855 59.7392C132.312 59.7392 129.44 56.8673 129.44 53.3249C129.44 49.7826 132.312 46.9107 135.855 46.9107C139.397 46.9107 142.269 49.7826 142.269 53.3249C142.269 56.8673 139.397 59.7392 135.855 59.7392Z" fill="#D1D3D4"/>
<path d="M42.9761 45.7752C44.2594 47.946 44.9989 50.4741 44.9989 53.1731C44.9989 53.1793 44.9989 53.186 44.9989 53.1923C44.9973 54.2122 45.8023 55.0484 46.8223 55.0484H119.964C120.97 55.0484 121.765 54.2242 121.762 53.2182C121.762 53.2032 121.762 53.1881 121.762 53.1731C121.762 45.1307 128.304 38.5877 136.347 38.5877C144.389 38.5877 150.932 45.1307 150.932 53.1731C150.932 53.1881 150.932 53.2032 150.932 53.2182C150.928 54.2242 151.724 55.0484 152.73 55.0484H157.915V36.4501C152.583 36.0819 143.669 35.5771 134.901 35.5771C121.106 35.5771 118.748 45.7752 118.748 45.7752H63.7477H42.9761Z" fill="#545353"/>
<path d="M152.731 55.0229H160.557C161.825 55.0229 162.853 53.9951 162.853 52.7269V42.586C162.853 41.3178 161.825 40.29 160.557 40.29H143.173C147.785 42.7428 150.932 47.597 150.932 53.1741C150.932 53.1803 150.932 53.1865 150.932 53.1928C150.931 54.1982 151.725 55.0229 152.731 55.0229Z" fill="#363434"/>
<path d="M1.91742 47.3662L1.9169 47.4966C1.08701 47.4966 0.413971 48.1696 0.413971 48.9995V53.702C0.413971 54.5319 1.08701 55.205 1.9169 55.205H15.8308V55.0486H15.9539C15.8744 54.4343 15.8292 53.8095 15.8292 53.1734C15.8292 51.1101 16.2623 49.147 17.0387 47.3662H1.91742Z" fill="#545353"/>
<path d="M129.563 26.5833H125.874C125.407 26.5833 125.055 26.1584 125.142 25.6993L126.056 20.8883C126.123 20.5367 126.43 20.2822 126.788 20.2822H129.563C131.876 20.2822 133.752 21.6927 133.752 23.4325C133.752 25.1728 131.876 26.5833 129.563 26.5833Z" fill="white"/>
<path d="M129.563 24.6949H125.874C125.678 24.6949 125.502 24.6191 125.37 24.4976L125.142 25.6988C125.055 26.1579 125.407 26.5827 125.874 26.5827H129.563C131.876 26.5827 133.752 25.1722 133.752 23.4324C133.752 23.1037 133.685 22.7864 133.561 22.4883C133.027 23.7674 131.439 24.6949 129.563 24.6949Z" fill="#D1D3D4"/>
<path d="M157.915 34.0657C157.915 31.6648 157.092 29.4166 155.685 27.626H150.571C150.571 27.626 151.899 34.249 156.978 34.7958C157.302 34.8306 157.614 34.8582 157.915 34.8789V34.0657Z" fill="#D1D3D4"/>
<path d="M157.028 33.9101C153.83 33.5373 152.319 30.2468 151.739 28.5117H155.242C156.367 30.0827 156.996 31.9788 157.028 33.9101Z" fill="white"/>
<path d="M107.708 6.96608C106.618 6.29562 105.362 5.92742 104.071 5.92171L101.481 5.9082L93.1771 23.1172H99.9154L107.708 6.96608Z" fill="#28211F"/>
<path d="M113.323 11.1565L109.7 8.4248L102.61 23.1171H107.552L113.323 11.1565Z" fill="#28211F"/>
</svg>
