<svg width="638" height="114" viewBox="0 0 638 114" fill="none" xmlns="http://www.w3.org/2000/svg">
<path d="M177.618 78.4175L172.752 78.1411C167.786 78.6732 163.55 81.6768 161.425 85.9293C161.109 86.5631 160.839 87.2251 160.62 87.9105C160.618 87.9165 160.616 87.922 160.614 87.928C160.546 88.1427 160.484 88.3604 160.426 88.5793C160.421 88.5964 160.416 88.613 160.411 88.6301C160.358 88.8355 160.311 89.0433 160.267 89.2517C160.26 89.2835 160.251 89.3147 160.245 89.3465C160.205 89.5424 160.172 89.7413 160.14 89.9403C160.133 89.9853 160.124 90.0292 160.116 90.0743C160.088 90.2653 160.066 90.4586 160.045 90.6526C160.039 90.7059 160.031 90.7591 160.026 90.8124C160.016 90.9242 160.011 91.0378 160.003 91.1503L189.224 92.8103C189.312 85.9029 184.345 79.9184 177.618 78.4175Z" fill="#231F20"/>
<path d="M295.037 97.7076C295.036 97.6489 295.035 97.5905 295.034 97.5323C295.031 97.3467 295.025 97.1619 295.014 96.9779C295.013 96.9431 295.011 96.9083 295.009 96.8739C294.996 96.6617 294.977 96.4512 294.954 96.2414C294.948 96.1854 294.94 96.1293 294.934 96.0733C294.913 95.9056 294.89 95.7382 294.864 95.5723C294.855 95.5207 294.848 95.4692 294.839 95.4181C294.805 95.2149 294.766 95.0125 294.723 94.8118C294.712 94.7596 294.699 94.7078 294.687 94.6561C294.652 94.4987 294.613 94.3428 294.572 94.1872C294.556 94.1255 294.54 94.0638 294.523 94.0026C294.47 93.8095 294.413 93.6178 294.351 93.4278C294.337 93.3815 294.32 93.3361 294.304 93.2903C294.254 93.1398 294.201 92.9897 294.146 92.8415C294.12 92.7726 294.094 92.7042 294.068 92.6358C294.009 92.4859 293.948 92.3373 293.885 92.1897C293.857 92.1247 293.829 92.0598 293.8 91.9953C293.733 91.8444 293.663 91.6954 293.59 91.5467C293.554 91.4721 293.517 91.3984 293.478 91.3242C293.42 91.2085 293.359 91.0942 293.297 90.9803C293.26 90.9129 293.224 90.8449 293.187 90.7779C293.098 90.6207 293.005 90.4658 292.911 90.3117C292.862 90.2323 292.812 90.1544 292.761 90.0764C292.702 89.9842 292.642 89.8924 292.58 89.8015C292.527 89.7219 292.474 89.6422 292.418 89.564C292.319 89.423 292.218 89.2834 292.114 89.1457C292.052 89.0635 291.987 88.9827 291.923 88.9014C291.864 88.8271 291.805 88.7532 291.745 88.6798C291.676 88.5957 291.606 88.5116 291.535 88.4289C291.475 88.358 291.412 88.2885 291.349 88.2186C291.225 88.0787 291.097 87.9412 290.968 87.8061C290.912 87.7478 290.856 87.69 290.799 87.6326C290.715 87.5481 290.63 87.4646 290.545 87.3821C290.491 87.3311 290.437 87.281 290.383 87.2309C290.223 87.0819 290.06 86.9357 289.893 86.7934C289.845 86.7524 289.798 86.7114 289.75 86.6709C289.653 86.5902 289.554 86.5106 289.455 86.4324C289.403 86.3912 289.351 86.3509 289.298 86.3106C289.075 86.139 288.847 85.9724 288.614 85.8125C288.611 85.8103 288.608 85.8081 288.605 85.8064C288.496 85.7323 288.386 85.6606 288.276 85.5895C288.222 85.5547 288.167 85.52 288.113 85.4862C288.002 85.4166 287.89 85.3469 287.777 85.2802C286.448 84.4962 284.986 83.9094 283.428 83.5619L278.562 83.2855C271.741 84.0168 266.299 89.4104 265.813 96.2957L295.034 97.9557C295.033 97.8724 295.037 97.7894 295.037 97.7076Z" fill="#231F20"/>
<path d="M295.798 69.9456L282.06 65.4976L258.132 47.2764C255.486 45.2616 252.281 44.0779 248.954 43.8864L161.57 38.8567C156.531 38.5667 152.136 41.9796 151.337 46.8041L146.753 74.4694L146.291 84.2447C145.459 84.1969 144.758 84.8128 144.725 85.6201L144.537 90.1948C144.503 91.0021 145.151 91.6957 145.982 91.7435L159.921 92.5458L159.927 92.3938L160.05 92.4009C159.995 91.7986 159.975 91.1883 160.001 90.5694C160.323 82.7458 167.14 76.7579 175.196 77.2217C183.253 77.6854 189.546 84.4278 189.224 92.2514C189.224 92.2575 189.223 92.2641 189.223 92.2701C189.181 93.2623 189.954 94.1221 190.975 94.1809L264.249 98.3984C265.257 98.4564 266.086 97.7005 266.123 96.7217C266.124 96.7071 266.125 96.6924 266.125 96.6778C266.447 88.8542 273.263 82.8663 281.32 83.3301C289.377 83.7938 295.669 90.5362 295.347 98.3598C295.347 98.3744 295.346 98.3891 295.346 98.4037C295.302 99.3821 296.066 100.23 297.073 100.288L302.268 100.587L303.108 80.1744C303.296 75.5957 300.3 71.4029 295.798 69.9456Z" fill="#F1F2F2"/>
<path d="M233.156 49.4718L233.616 63.7916C233.658 65.1038 234.73 66.1806 236.073 66.2583L272.542 68.3687C274.424 68.4776 275.32 66.1886 273.863 64.9963L255.391 49.8812C254.023 48.6915 252.291 47.9815 250.479 47.8684L235.831 46.9459C234.342 46.8516 233.11 48.0152 233.156 49.4718Z" fill="#010101"/>
<path d="M145.984 93.0114L159.945 93.8209L159.951 93.6675L160.075 93.6747C160.02 93.0673 160 92.4518 160.025 91.8277C160.133 89.18 160.977 86.7429 162.352 84.688L146.373 83.7615L146.294 85.4488C145.461 85.4005 144.759 86.0216 144.725 86.8357L144.537 91.449C144.503 92.2636 145.152 92.9631 145.984 93.0114Z" fill="#D1D3D4"/>
<path d="M174.275 99.0115C170.707 98.8027 167.929 95.7947 168.071 92.2934C168.213 88.7922 171.221 86.1229 174.789 86.3318C178.358 86.5406 181.135 89.5486 180.993 93.0499C180.851 96.5511 177.843 99.2204 174.275 99.0115Z" fill="#231F20"/>
<path d="M176.797 92.9349C176.802 92.8849 176.808 92.835 176.81 92.7842C176.827 92.3035 176.67 91.851 176.397 91.4816L179.309 88.137C178.75 87.5867 178.096 87.1251 177.374 86.7789L175.315 90.699C175.138 90.6396 174.952 90.5998 174.758 90.5865C174.505 90.5692 174.262 90.5973 174.034 90.66L171.933 86.483C171.188 86.7531 170.509 87.1487 169.922 87.6463L172.961 91.3727C172.722 91.6839 172.574 92.0687 172.559 92.4926C172.557 92.5393 172.56 92.5853 172.561 92.6317L167.797 93.5374C167.932 94.3197 168.209 95.0623 168.601 95.7385L173 93.8332C173.24 94.1428 173.565 94.3885 173.941 94.5374L173.146 99.0892C173.519 99.1769 173.902 99.2373 174.296 99.2644C174.707 99.2925 175.11 99.283 175.504 99.2428L175.238 94.6442C175.637 94.5546 175.99 94.3538 176.261 94.0747L180.279 96.4403C180.695 95.8276 181.005 95.1375 181.182 94.3919L176.797 92.9349Z" fill="#E6E7E8"/>
<path d="M175.084 91.6248C175.077 91.8417 174.886 92.0038 174.658 91.9862C174.429 91.9687 174.25 91.7781 174.257 91.5611C174.264 91.3437 174.455 91.1821 174.683 91.1997C174.911 91.2172 175.091 91.4073 175.084 91.6248Z" fill="#D1D3D4"/>
<path d="M174.983 93.6981C174.976 93.915 174.785 94.0771 174.557 94.0595C174.329 94.0419 174.149 93.8514 174.156 93.6344C174.163 93.4174 174.354 93.2554 174.582 93.273C174.811 93.2905 174.99 93.4811 174.983 93.6981Z" fill="#D1D3D4"/>
<path d="M175.644 93.074C175.872 93.0911 176.063 92.9284 176.07 92.7106C176.078 92.4929 175.898 92.3026 175.67 92.2855C175.442 92.2685 175.251 92.4311 175.244 92.6489C175.236 92.8666 175.416 93.057 175.644 93.074Z" fill="#D1D3D4"/>
<path d="M173.57 92.9738C173.342 92.9568 173.163 92.7662 173.17 92.5487C173.177 92.3312 173.368 92.1683 173.596 92.1853C173.824 92.2024 174.004 92.3929 173.996 92.6105C173.989 92.828 173.798 92.9909 173.57 92.9738Z" fill="#D1D3D4"/>
<path d="M174.914 81.2992C168.362 80.8177 162.881 85.5187 162.67 91.7993C162.459 98.0799 167.599 103.562 174.151 104.043C180.702 104.525 186.184 99.8237 186.395 93.5431C186.606 87.2631 181.466 81.7808 174.914 81.2992ZM174.307 99.3903C170.436 99.1058 167.399 95.8672 167.524 92.1566C167.648 88.4459 170.887 85.6686 174.758 85.9531C178.628 86.2376 181.665 89.4762 181.541 93.1868C181.416 96.8975 178.178 99.6748 174.307 99.3903Z" fill="#75787A"/>
<path d="M174.835 85.2087C170.635 84.9628 167.094 88.1046 166.927 92.226C166.76 96.3473 170.03 99.8878 174.23 100.134C178.43 100.38 181.97 97.2377 182.137 93.1163C182.305 88.995 179.036 85.4546 174.835 85.2087ZM174.275 99.0116C170.707 98.8027 167.929 95.7947 168.071 92.2935C168.213 88.7922 171.221 86.1229 174.789 86.3318C178.358 86.5407 181.135 89.5486 180.993 93.0499C180.851 96.5512 177.843 99.2204 174.275 99.0116Z" fill="#D1D3D4"/>
<path d="M279.592 104.131C276.024 103.922 273.246 100.914 273.388 97.4128C273.53 93.9115 276.538 91.2423 280.106 91.4511C283.674 91.66 286.452 94.668 286.31 98.1692C286.168 101.671 283.16 104.34 279.592 104.131Z" fill="#231F20"/>
<path d="M282.114 98.0543C282.119 98.0043 282.125 97.9543 282.127 97.9036C282.144 97.4228 281.987 96.9704 281.713 96.601L284.625 93.2564C284.067 92.7061 283.414 92.2446 282.691 91.8983L280.632 95.8184C280.454 95.759 280.268 95.7192 280.074 95.7059C279.821 95.6886 279.578 95.7167 279.35 95.7794L277.249 91.6024C276.504 91.8724 275.825 92.268 275.239 92.7657L278.278 96.4921C278.038 96.8033 277.891 97.1881 277.876 97.612C277.874 97.6587 277.877 97.7047 277.878 97.7511L273.114 98.6568C273.249 99.4391 273.526 100.182 273.918 100.858L278.316 98.9526C278.556 99.2621 278.882 99.5079 279.258 99.6568L278.462 104.209C278.835 104.296 279.219 104.357 279.613 104.384C280.024 104.412 280.427 104.402 280.82 104.362L280.555 99.7636C280.954 99.6739 281.307 99.4732 281.578 99.1941L285.595 101.56C286.012 100.947 286.321 100.257 286.499 99.5113L282.114 98.0543Z" fill="#E6E7E8"/>
<path d="M279.974 97.1056C280.203 97.1232 280.394 96.9614 280.401 96.7442C280.408 96.527 280.228 96.3367 280 96.3191C279.771 96.3015 279.581 96.4633 279.573 96.6805C279.566 96.8977 279.746 97.088 279.974 97.1056Z" fill="#D1D3D4"/>
<path d="M280.3 98.8175C280.293 99.0344 280.102 99.1965 279.874 99.1789C279.645 99.1614 279.466 98.9708 279.473 98.7538C279.48 98.5369 279.671 98.3748 279.899 98.3924C280.127 98.4099 280.307 98.6005 280.3 98.8175Z" fill="#D1D3D4"/>
<path d="M280.96 98.1939C280.732 98.1769 280.553 97.9863 280.56 97.7688C280.567 97.5513 280.758 97.3884 280.986 97.4054C281.214 97.4225 281.394 97.613 281.386 97.8306C281.379 98.0481 281.189 98.211 280.96 98.1939Z" fill="#D1D3D4"/>
<path d="M278.887 98.0926C279.115 98.1097 279.306 97.947 279.313 97.7292C279.32 97.5115 279.141 97.3212 278.913 97.3041C278.685 97.287 278.494 97.4497 278.486 97.6675C278.479 97.8852 278.658 98.0755 278.887 98.0926Z" fill="#D1D3D4"/>
<path d="M280.23 86.4186C273.679 85.937 268.197 90.638 267.987 96.9186C267.776 103.199 272.916 108.681 279.467 109.163C286.019 109.644 291.501 104.943 291.711 98.6625C291.923 92.3824 286.782 86.9001 280.23 86.4186ZM279.624 104.51C275.753 104.225 272.716 100.987 272.841 97.2759C272.965 93.5652 276.204 90.7879 280.074 91.0724C283.945 91.357 286.982 94.5955 286.857 98.3062C286.733 102.017 283.494 104.794 279.624 104.51Z" fill="#75787A"/>
<path d="M280.152 90.3281C275.951 90.0822 272.411 93.224 272.244 97.3454C272.077 101.467 275.346 105.007 279.546 105.253C283.746 105.499 287.287 102.357 287.454 98.2357C287.622 94.1144 284.352 90.5739 280.152 90.3281ZM279.592 104.131C276.024 103.922 273.246 100.914 273.388 97.4128C273.53 93.9116 276.538 91.2423 280.106 91.4512C283.674 91.66 286.452 94.668 286.31 98.1693C286.168 101.671 283.16 104.34 279.592 104.131Z" fill="#D1D3D4"/>
<path d="M187.37 85.2941C188.566 87.4393 189.204 89.8952 189.095 92.473C189.095 92.479 189.095 92.4854 189.094 92.4914C189.052 93.4654 189.823 94.3091 190.843 94.3661L264.001 98.459C265.007 98.5153 265.835 97.7726 265.873 96.8117C265.873 96.7973 265.874 96.7829 265.875 96.7685C266.199 89.0873 273.007 83.2042 281.051 83.6542C289.095 84.1042 295.375 90.7196 295.051 98.4008C295.05 98.4152 295.049 98.4296 295.049 98.444C295.005 99.4046 295.767 100.236 296.773 100.293L301.959 100.583L302.709 82.8195C297.391 82.1695 288.496 81.1886 279.726 80.6979C265.928 79.926 263.158 89.5342 263.158 89.5342L208.146 86.4565L187.37 85.2941Z" fill="#545353"/>
<path d="M296.657 100.254L304.502 100.673C305.773 100.741 306.848 99.7769 306.904 98.5188L307.348 88.4584C307.403 87.2003 306.418 86.1256 305.147 86.0576L287.722 85.1255C292.237 87.8061 295.179 92.7905 294.935 98.3232C294.935 98.3294 294.934 98.3356 294.934 98.3418C294.889 99.3391 295.648 100.2 296.657 100.254Z" fill="#363434"/>
<path d="M146.325 85.3427L146.318 85.4715C145.488 85.4272 144.784 86.0565 144.748 86.8769L144.543 91.5253C144.506 92.3457 145.151 93.0469 145.981 93.0913L159.911 93.8345L159.917 93.68L160.041 93.6866C159.988 93.075 159.97 92.455 159.998 91.8262C160.088 89.7866 160.607 87.8693 161.463 86.1504L146.325 85.3427Z" fill="#545353"/>
<path d="M274.891 70.7322L271.183 70.5156C270.713 70.4882 270.377 70.0491 270.483 69.6021L271.594 64.9173C271.676 64.5749 271.994 64.3423 272.354 64.3633L275.143 64.5263C277.468 64.6621 279.297 66.1615 279.227 67.875C279.158 69.589 277.216 70.8681 274.891 70.7322Z" fill="white"/>
<path d="M274.957 68.8866L271.257 68.6716C271.06 68.6601 270.887 68.5757 270.76 68.4492L270.483 69.611C270.377 70.055 270.713 70.4911 271.182 70.5184L274.881 70.7334C277.202 70.8683 279.139 69.5978 279.209 67.8958C279.222 67.5742 279.167 67.2599 279.054 66.961C278.468 68.1812 276.838 68.996 274.957 68.8866Z" fill="#D1D3D4"/>
<path d="M302.849 79.6287C302.954 77.2432 302.227 74.9652 300.893 73.1104L295.762 72.8358C295.762 72.8358 296.804 79.4878 301.876 80.3039C302.2 80.3559 302.512 80.4 302.813 80.4368L302.849 79.6287Z" fill="#D1D3D4"/>
<path d="M301.966 79.4263C298.772 78.884 297.4 75.5329 296.894 73.7775L300.41 73.9656C301.47 75.5873 302.018 77.5053 301.966 79.4263Z" fill="white"/>
<path d="M253.996 50.2628C252.922 49.5347 251.671 49.096 250.368 49.0141L247.756 48.8479L238.688 65.3938L245.486 65.7916L253.996 50.2628Z" fill="#28211F"/>
<path d="M259.415 54.6699L255.864 51.7483L248.11 65.8911L253.103 66.1832L259.415 54.6699Z" fill="#28211F"/>
<path d="M0.333333 3C0.333333 4.47276 1.52724 5.66667 3 5.66667C4.47276 5.66667 5.66667 4.47276 5.66667 3C5.66667 1.52724 4.47276 0.333333 3 0.333333C1.52724 0.333333 0.333333 1.52724 0.333333 3ZM179.5 109L179.574 108.506L179.5 109ZM391.5 89L391.654 89.4758L391.5 89ZM631.833 89C631.833 90.4728 633.027 91.6667 634.5 91.6667C635.973 91.6667 637.167 90.4728 637.167 89C637.167 87.5272 635.973 86.3333 634.5 86.3333C633.027 86.3333 631.833 87.5272 631.833 89ZM2.60353 3.30465C20.907 27.1243 51.7909 51.6628 84.732 71.2423C117.671 90.8207 152.735 105.481 179.426 109.494L179.574 108.506C153.065 104.519 118.129 89.9293 85.243 70.3827C52.3591 50.8372 21.593 26.3757 3.39647 2.69535L2.60353 3.30465ZM179.426 109.494C246.011 119.507 322.562 111.804 391.654 89.4758L391.346 88.5242C322.382 110.811 245.989 118.493 179.574 108.506L179.426 109.494ZM391.654 89.4758C432.621 76.2364 468.319 69.1246 506.253 68.875C544.191 68.6254 584.391 75.2389 634.363 89.4809L634.637 88.5191C584.609 74.2611 544.309 67.6246 506.247 67.875C468.181 68.1254 432.379 75.2636 391.346 88.5242L391.654 89.4758Z" fill="white"/>
</svg>
