<?xml version="1.0" encoding="UTF-8"?>
<svg id="Capa_1" xmlns="http://www.w3.org/2000/svg" version="1.1" xmlns:xlink="http://www.w3.org/1999/xlink" viewBox="0 0 430 465">
  <!-- Generator: Adobe Illustrator 29.0.1, SVG Export Plug-In . SVG Version: 2.1.0 Build 192)  -->
  <defs>
    <style>
      .st0 {
        mask: url(#mask-1);
      }

      .st1 {
        stroke-width: .9px;
      }

      .st1, .st2, .st3, .st4, .st5 {
        fill: none;
      }

      .st1, .st3, .st4, .st5 {
        stroke: #fffdfd;
        stroke-opacity: .8;
      }

      .st1, .st5 {
        stroke-linecap: round;
        stroke-linejoin: round;
      }

      .st6, .st7 {
        fill: #fff;
      }

      .st8 {
        mask: url(#mask);
      }

      .st9 {
        mask: url(#mask-2);
      }

      .st10 {
        fill: url(#Degradado_sin_nombre_2);
      }

      .st3 {
        stroke-miterlimit: 10;
      }

      .st7 {
        stroke: #fff;
      }

      .st11 {
        fill: url(#Degradado_sin_nombre);
      }

      .st4 {
        stroke-width: 2px;
      }

      .st5 {
        stroke-width: .8px;
      }

      .st12 {
        mask: url(#mask-4);
      }

      .st13 {
        clip-path: url(#clippath);
      }

      .st14 {
        fill: #d9d9d9;
      }

      .st15 {
        fill: #fffdfd;
        fill-opacity: .8;
      }

      .st16 {
        mask: url(#mask-3);
      }
    </style>
    <mask id="mask-1" x="-97" y="134.9" width="791.1" height="666.2" maskUnits="userSpaceOnUse">
      <g id="path-2-inside-1_486_49">
        <path class="st6" d="M56.8,290l-.9.3-.6.4-4.8,3.5-5.9-1.4-6.4.4-6.4-1.9-1.6.5-.9,2.6-1,3.9-3.9,1.1-2.3.5-2,1.2-4,1.9-4.1-1.8-1.8-1-1.9.2-6.3-.3-5-3.7-2.6-1.7-3,.9-1.9.6-1.9-.3-7-1-5.9,3.8-3.2,1.5h-3.4c0,0-1.5-2.2-1.5-2.2l.7-2.8.2-.9-.4-.6-2.2-.9-.5-2.1,1.9-3.4,3-2.5,1.6-.7,1.4-1,.7-3.1-2.7-1.6-2.6-1-.7-2.6-1.1-2.5-2.3.2-11.7,3.1-12,.9-2.6,1-2.1,1.8-4.1,4.8-5.5,3-4.1-.4v-4.1s.7-3.7.7-3.7l-.3-3.6-.4-1.6.3-1.3,4.4-5.5,4.9-5,1-.4,1-.4,2-1.1.6-1.9-1.5-1-2,.4-3.3.4-2-2.3,1-3,3-1.2,3.5-1.7,2.2-3.3-2.8-.3-2.6.7-3.1-.3-2.1-2v-3.4s2.1-2.3,2.1-2.3l2.4-2.1.4-3,.6-1.8,1.5-1.2,1.3-2-.9-2.1-1.7-.6-1.3,1.4-.4.4-.3.2-4.6.4c-7.7,10.6-9.3,2.1-8.3-5.8l4.6-5.7,1.7-.9-.2-1.8-2.4-1.8-2.9.7-1.7,1.8-2.4-.6-1.2-2.5,1.5-2.3.7-1.3-1-1.2-1.2-1.5-.5-1.9.7-1.7-.7-1.5-2.5-.2-2.4,1.3-1.2,1.4-1.5.3-.9-1.8.4-2.2.4-1.6.8-1.2,1.7-2.7-1.3-2.8v-1.5c-.1,0,.7-1.1.7-1.1l4.8-2.9,4.5-2.8-1.1-.6-1.1.2h-1.5c0,0-1-1-1-1v-1.5c0,0,1-1.2,1-1.2l1-.7.9-.3,7.3-.4,6.8-3.1-.9-3.2,3.2-1.4,3.9-1.6,2-4,1.6,3.9,2.9,2.5,4.1.4,4.2-.5,5.6-.8,5.2-2.5,3.4-1.2,1.7,4.5,3.2-4.5,4.2,1.7,3.4-1,2.8-2.3-.4-.7-.7-.4-1.3.2h-1.2c0,0-2.2-.3-2.2-.3l-1.6-1.2.8-1.5,1.4-1.4-1.3-.5-1.4.4-.9.2-.7-.4-.3-1.8.9-1.3.7-2.8,2-1.5,2.2-.2,1.7-1.1,4.2-2.6,4.5-2.1,4.5-3.1,4.4-3.6,4.2-1.7,2.4,3.7.7,1,1.2-.2,2.2-1.3,2.3-1.3,2-2,2.1-.4,2.6,2.1.6,3.6v1.4c.1,0,.7,1.8.7,1.8l2-2.8,3-1.4,3.1,1.1,2.3,2.2,1.4,1,1.6.9,3.6,2.6,2.1,3.7,2.4,4.5,5.1.8,11.8-.4,11.8.6,10.3,1.6,10.4.6,13.3-.4,13.2.6,2.9-.3,2.6-1.6,5.3-3.1s4.6,4,4.6,4.1c8.6,7.6,26.7,7,38.5,11.5,23.6,9.1,50.2,10.4,74.6,3.8,3-.8,5.9,1.3,6.3,4.4,0,0,0,.2,0,.3,4.1-5,11-7.6,17.4-6.5,3,.5,5.4,5.7,2.3,5.6,9.6,1.6,19,4.5,27.8,8.7,3.2-9,16.1-9.4,25-5.7,17.7,7.5,26.8,10.8,44.7,5.3l1.3-1.5.9-1.6,2.9-1.8,2.8,1.7,2,2.4,1.7,2.4,3.2,3.6,4.6,1.1h2.6s2-1.4,2-1.4l3.1-2.1,3.9.4,2.2,2.7-.2,3.3-.5,4.9-2.1,4.6-.8,2.7,1.7,2.2h2.2c0,.1,1.1-1.9,1.1-1.9l.8-1,.8-1,1-1.2h1.4c0,0,1.2,1.1,1.2,1.1v1.7c0,0,.1,4,.1,4l3.7,1.5,8,1.9,7.7,2.9,3.7.4,3.6-1,5.1-.3,2.6,4.3,1.3,2.7,2.1,2.2,8.2,4.2,8.9,1,4.4-.7h4.7c0,0,5.6,2.6,5.6,2.6l3.8,4.3,4.2,3.8,5.3-1.6,4.2-1.8,4.3-1.6,2.3-.2,1.8,1,3.5,2.2,3-2.7.9-.6,1,.5,4,2,4.4-.6,3-.2h3.1s2.4-.6,2.4-.6v-2.5s-1.4-4.6-1.4-4.6l1.5-3.9,4.9-1.2,5.2,1.4,6.7,2.6,7.1.9,2.8.3,2,1.3,4.6,3.1,5.4-.8,5.4.6,3.4,3.9,2,5.1.3,5.7.7,4.3,3.2,3.5,3.5.3,3.1-1.9,7.9-2.2,7.8,2.1,3.2.2,2.6-1.5,2-1.1,1.9.3v1.8c-.1,0-2,1.1-2,1.1l-.7,2.9,1.8,2.3,2.8,1.8,3.2-1.4,2-2.3,2.6-2,9.2-1.1,7.9,4.1,6.7,2.3h6.8s1.1-.4,1.1-.4l.8-1,4.9-6.1,7.1-3.2,6.6-2.3,7,2.6,2.3.5h2.8c0-.1.7,5.3.7,5.3l5.6,2.5,3,1.5.2,3.3-2.4,3.3h-4s-2.8-1.2-2.8-1.2l-2.7,1-.9,3.2,1.5,3.1,2.5,3.7,3.1,3.4,2.8,8.8-3.2,8.6-6,6.4-6.2,6.2-2.4,1.8-2.6,1.6-3.7,2-2.9,3.3-1.6,2-2.4,1.1-11.9,5.2-10.8,7.3-7.2,5.9-4.7,8.1-3.8,4.4-5.6,2-15.7,4.3-15.5,5-8.2,2.5-7.5,3.7-6.1,3.3-6.5,1.9-7.1,3.8-5.5,5.9-3.6,4.9-3.7,4.9-1.2,3.1,3,1.7,2.1.6,1.2,1.7.7,1,1,.7,1.9-.2,1.2,1-.9,2.4-2.3,1.3-6,2.3-6.3,1.6-2.5.7-1.9,2.3-5.1,10.6-5.9,10.1-4.8,8.3-6.5,7.2-2.4,2.4-1.1,3-2.2,5.2-4.3,3.6-1.1.8-.8,1-6.6,10.7-6.5,10.7v.2c0,0-.2.2-.2.2l-4.2,10.7-5.4,10.2-.9,4.1.6,4,2.6,7.4,3,7.2,1.5,5.7,1,5.7,6.4,10.9,10.7,6.8,7,4.1,5.4,6v1.6c0,0-1.2,1.3-1.2,1.3l-4.3,3.1-2.4,4.8-1.1,1-1.9-.3h-4.6c0,0-1.7,4.4-1.7,4.4l-1.2,2.6-2.5,1.2-6.4,2.2-6.4,2.1-3.6,1.9-1.9,3.2-1.9,4.4-4,2.4-3.7,3.5.3,5v2.8c-.1,0-2,1.4-2,1.4l-5.9,5-1,7.5-.7,4.2-2.2,3.6-1.8,2.3-.7,3.1-.2,4.2-3.3,3.3-2.1,2.9-1,4.3,1.8,3.1,3.5,2.3,2.5.8,1.3,2.1-1.7,2.1-2.8.5-4.6,1.1-4.5,1.6-2.2.4-2.2-1.2-1.4-1-1.7-.4-14.9,1.5-13.9,5.5-.6.3-.5.4-7.5,7.1-8,5.8-6.9,6.5-2.9,9.2-.3,2.5-1.6,2.2-1.9,2.7-.8,3.1-1.2,5.8-4.5,3.8-.6.5-.3.8-3.1,6.3-5,5-4.3,3-4.5-3.1-2.6-3.2-3.3-2.5-3.5-1.2-3.5.9-1.6.5-1.6-.4h-6.9s-4.6,5.4-4.6,5.4l-4.7,5.5-5.5,1.1-4.3-1.4-4-2-3-1.3-3.1-.3h-7.2s-7.2,0-7.2,0l-7.4.3-7.1,2.1-7.4.7-7.1-2.6-1.5-.9-1.6-.4h-8.2c0,.1-8-.6-8-.6h-9.9s-9.8,1.4-9.8,1.4l-7.1.8-7.1-.8-2.8.4-2.3,2-6.9,7.3-7.7,6.4-5.2,1.8-5.7-1.2-3.1-1-2.8.3-11.1,4.1-11.1,4.1-.6.4-.4.5-5.4,7.7-5.6,7.6-1.4,2.2-2.8.2-3.2.5-.8,3.1.7,4.6-2.2,3.7-6,1.4-5.8-1.6-5.7-2.7-5.5-3-2.2-1.4-1.9-1.8-4.2-4-5.6-1.6-1.8-.3-1.2-1.1-5.7-9.6-5.9-9.5-1.4-3.2-1.3-3.2-.7-3.8,3.6-1.7,1.7-.8-.9-1.7-3.2-2.5-4-1.1-4.8-1.7-2.2-6.8,1.4-3.5,3.5-1.3,1.2-.5,1.2-.4-8-11-9.2-10.1-5.5-4.3-6-3.6-5.2-2.7-5.1-3-5.5-2.9-6.3-1H-3.9c0,0-7.9-1-7.9-1l-2.3,1.5-2.2-.5-2.1-5.2-.3-5.7.4-9.2-3.3-8.6-.4-1.5.7-1.3,2.9-4.8,1.8-5.3,2.9-5,4.6-3.5,5.7-7,2.9-8.4,1.6-2.6,2.7.2,2.4.4,1.8-1.8,2.1-1.1,2.4,1,4.1.6,2.3-3.1.6-1.6,1.3-1,1.5-1.4v-2.2s-1.6-4.6-1.6-4.6l-4.8,1-3.7.4-2.4-2.6-4.7-10.7-6.2-10-.5-4.3,1.8-3.9,2.1-4.5.4-5.2,1.1-3.7,3.3-2.9,5.6-4.6,6.1-3.8.9-.7v-.9s-.4-5.4-.4-5.4l3.6-4,2.1-3.7-.7-4.2-2.5-2.5-3.3-.2h-3.4c0,.1-1.4-2.9-1.4-2.9l-.8-1.8-1.6-1.1-2.5-2.2-.9-3.1-.9-5-3.1-4.2-1.1-2.4.6-2.6.4-3.4-2.6-1.9-2-1.4v-2.6c0,0-.3-2.4-.3-2.4l-1.6-1.8-2.7-3.7-2.1-4-.5-1,.3-1,1-.6,1.3.3,6.9,1.6,7.1-.7h4.6c0,0,4.8.8,4.8.8l6.8-.5,2.9-6.2,1.2-3.2,1.7-3,4.6-9.6-.7-10.7-1.2-2.4-2.2-1.7-2.2-3-.5-3.8.7-2.2,2.3-1.5,1.4-.7,1.5-.4,4.1-1.6,3.1-3.4,1.7-4.5-.5-4.5-.2-3.4,1.8-3,1.7-2.4-.9-2.9-.9-1.7v-1.6c.1,0,1.3-6,1.3-6l-1.1-6-.4-4,1.5-3.9.3-1.3-.6-1.1-2.6-6.2-2.6-6.2-.4-1.7,1.9-.5,6.2-.6,2.6-5.9,1.8-2,1.9-1.4,6.2-5.5,7.8-2.7,2.1-1.1,1.9-1.5,3.5-3.8,4.2-3.2,1.3-1.3.8-1.9,2.1-4.7,3.4-3.9,1.7-3.1-1.4-3.4-6.4-5.3-8.3-.2-4.9-2.3v-6.5c0,0,1.4-7.3,1.4-7.3l-.5-7.1-.6-1.4h-1.8s-1.9.4-1.9.4h-1.9c0,.1-5.3-.5-5.3-.5l-.4-5.3Z"/>
      </g>
    </mask>
    <mask id="mask-2" x="168.6" y="449.9" width="2.7" height="4.7" maskUnits="userSpaceOnUse">
      <g id="path-3-inside-2_486_49">
        <path class="st6" d="M170.1,451.7h0s0,0,0,0h0Z"/>
      </g>
    </mask>
    <mask id="mask-3" x="169.1" y="490.4" width="2.9" height="4.2" maskUnits="userSpaceOnUse">
      <g id="path-5-inside-3_486_49">
        <path class="st6" d="M170.1,492v.2s0,0,.1-.1c0,0,0,0-.1,0Z"/>
      </g>
    </mask>
    <mask id="mask" x="-97" y="64" width="791.1" height="737.1" maskUnits="userSpaceOnUse">
      <g id="mask0_486_49">
        <g class="st0">
          <path class="st4" d="M56.8,290l-.9.3-.6.4-4.8,3.5-5.9-1.4-6.4.4-6.4-1.9-1.6.5-.9,2.6-1,3.9-3.9,1.1-2.3.5-2,1.2-4,1.9-4.1-1.8-1.8-1-1.9.2-6.3-.3-5-3.7-2.6-1.7-3,.9-1.9.6-1.9-.3-7-1-5.9,3.8-3.2,1.5h-3.4c0,0-1.5-2.2-1.5-2.2l.7-2.8.2-.9-.4-.6-2.2-.9-.5-2.1,1.9-3.4,3-2.5,1.6-.7,1.4-1,.7-3.1-2.7-1.6-2.6-1-.7-2.6-1.1-2.5-2.3.2-11.7,3.1-12,.9-2.6,1-2.1,1.8-4.1,4.8-5.5,3-4.1-.4v-4.1s.7-3.7.7-3.7l-.3-3.6-.4-1.6.3-1.3,4.4-5.5,4.9-5,1-.4,1-.4,2-1.1.6-1.9-1.5-1-2,.4-3.3.4-2-2.3,1-3,3-1.2,3.5-1.7,2.2-3.3-2.8-.3-2.6.7-3.1-.3-2.1-2v-3.4s2.1-2.3,2.1-2.3l2.4-2.1.4-3,.6-1.8,1.5-1.2,1.3-2-.9-2.1-1.7-.6-1.3,1.4-.4.4-.3.2-4.6.4c-7.7,10.6-9.3,2.1-8.3-5.8l4.6-5.7,1.7-.9-.2-1.8-2.4-1.8-2.9.7-1.7,1.8-2.4-.6-1.2-2.5,1.5-2.3.7-1.3-1-1.2-1.2-1.5-.5-1.9.7-1.7-.7-1.5-2.5-.2-2.4,1.3-1.2,1.4-1.5.3-.9-1.8.4-2.2.4-1.6.8-1.2,1.7-2.7-1.3-2.8v-1.5c-.1,0,.7-1.1.7-1.1l4.8-2.9,4.5-2.8-1.1-.6-1.1.2h-1.5c0,0-1-1-1-1v-1.5c0,0,1-1.2,1-1.2l1-.7.9-.3,7.3-.4,6.8-3.1-.9-3.2,3.2-1.4,3.9-1.6,2-4,1.6,3.9,2.9,2.5,4.1.4,4.2-.5,5.6-.8,5.2-2.5,3.4-1.2,1.7,4.5,3.2-4.5,4.2,1.7,3.4-1,2.8-2.3-.4-.7-.7-.4-1.3.2h-1.2c0,0-2.2-.3-2.2-.3l-1.6-1.2.8-1.5,1.4-1.4-1.3-.5-1.4.4-.9.2-.7-.4-.3-1.8.9-1.3.7-2.8,2-1.5,2.2-.2,1.7-1.1,4.2-2.6,4.5-2.1,4.5-3.1,4.4-3.6,4.2-1.7,2.4,3.7.7,1,1.2-.2,2.2-1.3,2.3-1.3,2-2,2.1-.4,2.6,2.1.6,3.6v1.4c.1,0,.7,1.8.7,1.8l2-2.8,3-1.4,3.1,1.1,2.3,2.2,1.4,1,1.6.9,3.6,2.6,2.1,3.7,2.4,4.5,5.1.8,11.8-.4,11.8.6,10.3,1.6,10.4.6,13.3-.4,13.2.6,2.9-.3,2.6-1.6,5.3-3.1s4.6,4,4.6,4.1c8.6,7.6,26.7,7,38.5,11.5,23.6,9.1,50.2,10.4,74.6,3.8,3-.8,5.9,1.3,6.3,4.4,0,0,0,.2,0,.3,4.1-5,11-7.6,17.4-6.5,3,.5,5.4,5.7,2.3,5.6,9.6,1.6,19,4.5,27.8,8.7,3.2-9,16.1-9.4,25-5.7,17.7,7.5,26.8,10.8,44.7,5.3l1.3-1.5.9-1.6,2.9-1.8,2.8,1.7,2,2.4,1.7,2.4,3.2,3.6,4.6,1.1h2.6s2-1.4,2-1.4l3.1-2.1,3.9.4,2.2,2.7-.2,3.3-.5,4.9-2.1,4.6-.8,2.7,1.7,2.2h2.2c0,.1,1.1-1.9,1.1-1.9l.8-1,.8-1,1-1.2h1.4c0,0,1.2,1.1,1.2,1.1v1.7c0,0,.1,4,.1,4l3.7,1.5,8,1.9,7.7,2.9,3.7.4,3.6-1,5.1-.3,2.6,4.3,1.3,2.7,2.1,2.2,8.2,4.2,8.9,1,4.4-.7h4.7c0,0,5.6,2.6,5.6,2.6l3.8,4.3,4.2,3.8,5.3-1.6,4.2-1.8,4.3-1.6,2.3-.2,1.8,1,3.5,2.2,3-2.7.9-.6,1,.5,4,2,4.4-.6,3-.2h3.1s2.4-.6,2.4-.6v-2.5s-1.4-4.6-1.4-4.6l1.5-3.9,4.9-1.2,5.2,1.4,6.7,2.6,7.1.9,2.8.3,2,1.3,4.6,3.1,5.4-.8,5.4.6,3.4,3.9,2,5.1.3,5.7.7,4.3,3.2,3.5,3.5.3,3.1-1.9,7.9-2.2,7.8,2.1,3.2.2,2.6-1.5,2-1.1,1.9.3v1.8c-.1,0-2,1.1-2,1.1l-.7,2.9,1.8,2.3,2.8,1.8,3.2-1.4,2-2.3,2.6-2,9.2-1.1,7.9,4.1,6.7,2.3h6.8s1.1-.4,1.1-.4l.8-1,4.9-6.1,7.1-3.2,6.6-2.3,7,2.6,2.3.5h2.8c0-.1.7,5.3.7,5.3l5.6,2.5,3,1.5.2,3.3-2.4,3.3h-4s-2.8-1.2-2.8-1.2l-2.7,1-.9,3.2,1.5,3.1,2.5,3.7,3.1,3.4,2.8,8.8-3.2,8.6-6,6.4-6.2,6.2-2.4,1.8-2.6,1.6-3.7,2-2.9,3.3-1.6,2-2.4,1.1-11.9,5.2-10.8,7.3-7.2,5.9-4.7,8.1-3.8,4.4-5.6,2-15.7,4.3-15.5,5-8.2,2.5-7.5,3.7-6.1,3.3-6.5,1.9-7.1,3.8-5.5,5.9-3.6,4.9-3.7,4.9-1.2,3.1,3,1.7,2.1.6,1.2,1.7.7,1,1,.7,1.9-.2,1.2,1-.9,2.4-2.3,1.3-6,2.3-6.3,1.6-2.5.7-1.9,2.3-5.1,10.6-5.9,10.1-4.8,8.3-6.5,7.2-2.4,2.4-1.1,3-2.2,5.2-4.3,3.6-1.1.8-.8,1-6.6,10.7-6.5,10.7v.2c0,0-.2.2-.2.2l-4.2,10.7-5.4,10.2-.9,4.1.6,4,2.6,7.4,3,7.2,1.5,5.7,1,5.7,6.4,10.9,10.7,6.8,7,4.1,5.4,6v1.6c0,0-1.2,1.3-1.2,1.3l-4.3,3.1-2.4,4.8-1.1,1-1.9-.3h-4.6c0,0-1.7,4.4-1.7,4.4l-1.2,2.6-2.5,1.2-6.4,2.2-6.4,2.1-3.6,1.9-1.9,3.2-1.9,4.4-4,2.4-3.7,3.5.3,5v2.8c-.1,0-2,1.4-2,1.4l-5.9,5-1,7.5-.7,4.2-2.2,3.6-1.8,2.3-.7,3.1-.2,4.2-3.3,3.3-2.1,2.9-1,4.3,1.8,3.1,3.5,2.3,2.5.8,1.3,2.1-1.7,2.1-2.8.5-4.6,1.1-4.5,1.6-2.2.4-2.2-1.2-1.4-1-1.7-.4-14.9,1.5-13.9,5.5-.6.3-.5.4-7.5,7.1-8,5.8-6.9,6.5-2.9,9.2-.3,2.5-1.6,2.2-1.9,2.7-.8,3.1-1.2,5.8-4.5,3.8-.6.5-.3.8-3.1,6.3-5,5-4.3,3-4.5-3.1-2.6-3.2-3.3-2.5-3.5-1.2-3.5.9-1.6.5-1.6-.4h-6.9s-4.6,5.4-4.6,5.4l-4.7,5.5-5.5,1.1-4.3-1.4-4-2-3-1.3-3.1-.3h-7.2s-7.2,0-7.2,0l-7.4.3-7.1,2.1-7.4.7-7.1-2.6-1.5-.9-1.6-.4h-8.2c0,.1-8-.6-8-.6h-9.9s-9.8,1.4-9.8,1.4l-7.1.8-7.1-.8-2.8.4-2.3,2-6.9,7.3-7.7,6.4-5.2,1.8-5.7-1.2-3.1-1-2.8.3-11.1,4.1-11.1,4.1-.6.4-.4.5-5.4,7.7-5.6,7.6-1.4,2.2-2.8.2-3.2.5-.8,3.1.7,4.6-2.2,3.7-6,1.4-5.8-1.6-5.7-2.7-5.5-3-2.2-1.4-1.9-1.8-4.2-4-5.6-1.6-1.8-.3-1.2-1.1-5.7-9.6-5.9-9.5-1.4-3.2-1.3-3.2-.7-3.8,3.6-1.7,1.7-.8-.9-1.7-3.2-2.5-4-1.1-4.8-1.7-2.2-6.8,1.4-3.5,3.5-1.3,1.2-.5,1.2-.4-8-11-9.2-10.1-5.5-4.3-6-3.6-5.2-2.7-5.1-3-5.5-2.9-6.3-1H-3.9c0,0-7.9-1-7.9-1l-2.3,1.5-2.2-.5-2.1-5.2-.3-5.7.4-9.2-3.3-8.6-.4-1.5.7-1.3,2.9-4.8,1.8-5.3,2.9-5,4.6-3.5,5.7-7,2.9-8.4,1.6-2.6,2.7.2,2.4.4,1.8-1.8,2.1-1.1,2.4,1,4.1.6,2.3-3.1.6-1.6,1.3-1,1.5-1.4v-2.2s-1.6-4.6-1.6-4.6l-4.8,1-3.7.4-2.4-2.6-4.7-10.7-6.2-10-.5-4.3,1.8-3.9,2.1-4.5.4-5.2,1.1-3.7,3.3-2.9,5.6-4.6,6.1-3.8.9-.7v-.9s-.4-5.4-.4-5.4l3.6-4,2.1-3.7-.7-4.2-2.5-2.5-3.3-.2h-3.4c0,.1-1.4-2.9-1.4-2.9l-.8-1.8-1.6-1.1-2.5-2.2-.9-3.1-.9-5-3.1-4.2-1.1-2.4.6-2.6.4-3.4-2.6-1.9-2-1.4v-2.6c0,0-.3-2.4-.3-2.4l-1.6-1.8-2.7-3.7-2.1-4-.5-1,.3-1,1-.6,1.3.3,6.9,1.6,7.1-.7h4.6c0,0,4.8.8,4.8.8l6.8-.5,2.9-6.2,1.2-3.2,1.7-3,4.6-9.6-.7-10.7-1.2-2.4-2.2-1.7-2.2-3-.5-3.8.7-2.2,2.3-1.5,1.4-.7,1.5-.4,4.1-1.6,3.1-3.4,1.7-4.5-.5-4.5-.2-3.4,1.8-3,1.7-2.4-.9-2.9-.9-1.7v-1.6c.1,0,1.3-6,1.3-6l-1.1-6-.4-4,1.5-3.9.3-1.3-.6-1.1-2.6-6.2-2.6-6.2-.4-1.7,1.9-.5,6.2-.6,2.6-5.9,1.8-2,1.9-1.4,6.2-5.5,7.8-2.7,2.1-1.1,1.9-1.5,3.5-3.8,4.2-3.2,1.3-1.3.8-1.9,2.1-4.7,3.4-3.9,1.7-3.1-1.4-3.4-6.4-5.3-8.3-.2-4.9-2.3v-6.5c0,0,1.4-7.3,1.4-7.3l-.5-7.1-.6-1.4h-1.8s-1.9.4-1.9.4h-1.9c0,.1-5.3-.5-5.3-.5l-.4-5.3Z"/>
        </g>
        <g class="st9">
          <path class="st15" d="M170.1,451.7h1c0,.1.3-1.7.3-1.7l-1.7.9.4.9ZM170,451.7l-.4-.9-1,.5.6.9.9-.5ZM170.1,451.7l-.9.5,1.4,2.4.4-2.8h-1ZM169.6,450.8h0s.9,1.8.9,1.8h0s-.9-1.8-.9-1.8ZM169.2,452.2h0s1.7-1,1.7-1h0s-1.7,1-1.7,1ZM171,451.8h0s-2-.3-2-.3h0s2,.3,2,.3Z"/>
        </g>
        <g class="st16">
          <path class="st15" d="M170.1,492l.4-.9-1.4-.7v1.6h1ZM170.1,492.2h-1v2.4l1.7-1.7-.7-.7ZM170.2,492.1l.7.7,1.1-1.1-1.4-.6-.4.9ZM169.1,492h0v.2h0s2,0,2,0h0v-.2h0s-2,0-2,0ZM170.8,492.9s0,0,.1-.1l-1.4-1.5s0,0-.2.1l1.4,1.4ZM170.6,491.1s0,0,0,0t0,0s0,0,0,0c0,0,0,0,0,0,0,0,0,0,0,0l-.9,1.8s0,0,0,0c0,0,0,0,0,0,0,0,0,0,0,0,0,0,0,0,0,0,0,0,0,0,.1,0l.8-1.9Z"/>
        </g>
        <path class="st5" d="M47,158l-5.7,4-4.7,5.3-9,1.6,4.9,7,11.9,7.8,7,4.9.4,2.9-5.7,7.8-3.7,3.3,6.6,4.5,4.9,4.1-3.7,6.1-2.9,6.1-12.3,2.9-2.9,5.3-.4,11.1,12.7,4.1,8.2,1.6,2,9.8-2.5,7-.4,5.7-7,4.1-6.6,3.7-2.5,5.3,5.7,7.4-1.2,4.9"/>
        <path class="st5" d="M51,271.8l7.4.8,9-2.1,10.2,1.2,17.2,1.6,12.3,4.1,8.6.8,6.1.4,7.8,6.1,4.9,2.9,7.8-10.7,7-8.6,7.8.4,2.5,4.1,2.9-4.9,1.2-4.9v-34l1.2-6.1,6.6-4.9,7-6.6,16-2.5,7.8,2.5,5.7,10.7,4.9,6.1,1.6,2.9,5.7-.4,1.6-5.3,2.9,4.5,4.9-.8s7.4-6.6,6.1-7c-1.2-.4-7.8-4.1-7.8-4.1l-6.6-.8,3.7-4.1,2.9-4.9,9.8-4.1,4.1-6.1,6.1-1.6h7.8l9,1.2h7l5.7,2.5-.4,5.7.8,4.9,7,2.5-.4,3.7-4.5,3.3-7.8-3.7-5.7,2-1.2,3.7,6.6.8s3.7,1.6,4.9,1.6,1.6,4.5,1.6,4.5l9.4,4.9,9.8,6.1-1.2,4.1-.4,2.9,5.7.8,1.2-4.9,6.6,4.1-1.6,3.7,4.3,6.7c2.9-.8,15.4.8,15.4.8l6.9,1.5h10.7l6.1-.8,4.9,5.7.8,4.5,3.3,3.3,6.1.8,2.9,4.9-.4,4.5-8.6,1.6-6.6,3.3,4.1,4.1,6.1,2.5,7.4.4,1.6,3.3,8.6,2.5,9,.4,5.7-6.1,1.2-9.8-6.1-5.3-.8-3.3.8-7,2-7.4.4-6.1,5.7-4.9.8-11.5,16-1.6,3.3-4.5,1.2-2.9c6.6-.8,4.1-7.8,4.1-7.8l2-3.2"/>
        <path class="st5" d="M496.2,401.8l-10.1,2.8-.8-4.5h-7.8l-12.3,4.5-7,4.5v5.7l6.6.4-.4,4.1,4.5,5.7-1.2,5.3-4.1,9-2.5,5.3h-13.9l-1.6,7c3.7,1.2,0,6.6,0,6.6l-7.8,3.3-6.1,4.5-.4,4.9.4,4.1-2.9,3.7h-5.3l.8-8.2-7.4-2.9-6.6,4.1-6.6,3.3v7.8l.4,4.5-5.3,5.3-1.2,4.9-7-.8-1.6,5.3-5.7,1.6,2.9,4.5.4,6.6v6.6l3.3-2.9,6.1,2.5,5.7,2.5,6.1.8c2.5.4,4.5,4.5,4.5,4.5l-2.5,4.9.8,8.6-6.6,4.9,1.2,3.7,6.6,6.1,4.1,2.9,4.5-2.9h7l.4,6.1-1.6,21.3-5.3,1.6.4,7,3.3,4.5-3.3,5.7-2.5,7,5.3,2.9,2.5,2.9-.4,7-4.5,5.3.8,3.7,1.2,7,5.7,1.6v6.1l4.9,3.7,7.4,2,4.1,2.5"/>
        <path class="st5" d="M385.7,693.4l-4.1-6.1-18.4-4.5-7.4-16-2.1-9,2.1-4.5-6.1-4.9-10.7-1.2-11.1-7.8-8.6-3.7-4.5-7.4,9-5.3.8-8.2-5.7-12.3-1.2-7.4-5.7,1.6-11.1-1.6,2-7.8,10.2-2.1,2.5-6.6-1.6-8.2-9,.8v-4.9l-5.3-5.7-4.5-3.3,2.5-4.9,2-3.3-1.6-5.7,1.2-7,7.4-7,2.5-4.1,8.6-.4,7.4-.8v5.3l10.2,3.3,7.8-1.2,7.8-2-.8-3.7,9.4.8v2.9l8.6-.8,6.1-4.1-3.3-2.5,7.4-.8,9-9"/>
        <path class="st5" d="M306.7,528.6l-5.8-7.7-8.2-1.6-3.3-5.7-.4-7.8,4.9-2-3.3-7.4-8.6-13.1-5.3-5.7,1.2-4.1v-8.2l2-4.1,4.1-9-3.7-6.6-4.9-4.9,1.6-5.7-9-12.3-4.9-5.7-1.6-6.1-5.3-4.1v-12.7l.4-6.1,5.7-9.4-3.3-7-.8-6.6,4.9-5.3,6.6.4,8.6-2-2.9-7.4-7.8.4-3.3-3.3v-6.6l-12.3-6.6-5.7-4.1-4.5,5.7-.8,4.1-5.3,1.2-9.4-7.4-3.3-3.3-4.9,4.9,2.9,3.3-2.5,2.5-10.7-.4h-7.4l-11.1,2.5-3.3,4.5-1.2,6.1-1.6,3.7-5.7,2.9-3.7,8.6-4.5,4.9-4.9-3.3-13.5-2.9-4.9,4.9.4,7,.4,7.4-2.5,5.3v7.4l-2.5,4.5-4.9,2.9-3.7,3.7.4,5.3-.4,3.3-7.8,4.5-9.8,9.4-5.7,3.3-1.6-5.7-6.6,5.3-14.8-7-9.4-9.4-9.4,4.9-12.3,8.2-1.2,4.5-16.8-1.2-12.3-4.9"/>
        <path class="st5" d="M17.7,619.7l13.6-1.6,1.2,8.2,5.7,2,7.8-.4,6.1,1.2,2,4.5,6.1-3.7,7.8,2,3.7,5.3,11.5.8,3.3-3.7c1.6-1.6,8.6-12.3,8.6-12.3,0,0,4.9-5.7,7-5.3,2,.4,7.4,1.6,7.4,1.6l-1.6,4.9-2.9,2,2,3.3,11.9-7.4s5.3-2,6.1-3.3c.8-1.2-5.3-14.3-5.3-14.3l-4.9-4.1,7.4-4.1,5.3-1.6.8-7.4,3.3-3.7,6.1-.4,3.7-4.9,2-3.3,5.7-.4,9.8,5.7.4,4.1,5.3,2.5,9.4,6.1,6.1,4.9,3.7,6.1,6.6,2.5,1.6,4.1,8.2-1.2-1.2-3.3,12.7.8.4,3.7,5.3,1.6,6.1-2.5,4.5-2.9,5.7-1.2,11.1,1.6,3.7-3.3h13.1l8.6-4.1,7.4-.4,3.3,3.3,1.6,2.5,8.6-1.2-.8-4.1,10.2-4.1"/>
        <path class="st5" d="M110,436.9l11.5,1.6,4.1,4.9,6.1-.4.4,3.3,4.9-4.5,3.7,5.7.4,7.4-5.7,6.1-1.2,11.1,5.7,3.7.4,12.3,1.6,6.6v10.2l10.2,3.3-1.2,7,3.3,3.7,14.3-2,2.9-3.3,1.6,2.9,2.5,4.9-5.3,4.5,2.9,6.6-3.7,6.1-6.6-1.2-1.6,5.3,2,6.1-7,5.7,4.9,7-4.1,4.9-7,4.1-2.4,3.8"/>
        <path class="st5" d="M211.8,227.5l-2.3,5.3-4.1,3.3-2,8.6-6.1,7,3.7,5.7-.4,7,4.5,3.7.4,7.4,4.5,8.2,11.1,5.7.4,5.3,7,5.7-4.5,4.9-4.1,2.5-6.1,2,3.3,5.7,1.2,5.7,2,5.7,2.1,5.7"/>
        <path class="st5" d="M134.5,287.8l4.1,9,1.6,4.9-1.6,7.8,2,3.3-7.4,5.7,3.3,6.1,2.5,7,.4,6.1-.4,7-.8,4.1s-1.6,3.3-2,6.1c-.4,2.9,0,11.1,0,11.1l6.1,3.3,3.7,3.7"/>
        <path class="st5" d="M249.8,332.9l8.2-6.4,4-2.3,4.5-8,4.2-3.3,4.6-4.8-3-6.2h4l2,6.2,5.7-5s3.5-4.8,7-8l3.5-3.3,3.9-2.5,5.8-1v-4.8l4.8-3.4s1.5-.3,1.3,5c-.3,5.3-2.8,3.5-.3,5.3l2.5,1.8,7-.3,3.3-8.5,7-3.2s-.3-4.7,5.3,0l5.5,4.7,5.3,5.5,3,3.3,3.3.3,5.6-2,1.6,11.1,1.6,9.4-2.5,3.3,3.7,3.3,1.6,5.7-7.8,4.5c-1.2,0-3.3,3.3-3.3,3.3l1.6,4.9-2,7.8s1.2,3.7-.8,3.7l-2.5-1.6-1.2-5.7-2.5,8.2.4,7.8-2.9,4.9,2.9,4.5,5.7,3.3,7.8-2,5.3,4.5,1.2,4.5,4.5,1.6,8.6,5.7-2.9,3.3-2.5,3.3,4.5,2.5,2.9,4.5.8,9.8-1.2,8.6-7,2-3.3,5.7-6.1,4.5,2.5,7.4,9,7.8,7,1.6,5.7,4.9,4.9,7.4-1.6,3.3,2,7,10.2,1.2,6.6-.8,1.2,2.9"/>
        <path class="st5" d="M278.4,357.9l7,1.2c0,2,5.3,1.6,5.3,1.6l1.6-4.5h9.8l2.5,2.5-.4,3.3,6.6.4,6.1,7,4.5,4.5,5.3,2.9h8.2l4.1-2.9,2-4.5,4.9-2.5"/>
        <path class="st5" d="M141.1,455l4.9,7,5.3-2.9.8-2.5,7.4-2.5,3.7-9.4,5.7-2.9,11.9,1.6-1.6,6.1,9-.4,9.8-2.9,11.1.8,4.5,2.5,11.1-.8,7.4,3.7,3.3,3.3,4.5,2.5h9l9.8-.8.4,3.3-1.6,3.3,6.1,2.5,6.6-1.2h7.8"/>
        <path class="st5" d="M260.7,372.6l-6.6-6.1-3.3-3.3-3.7,4.1-2.5,5.3-7,2-2.9,4.1.8,3.3c-5.3,2.5-10.2,3.7-10.2,3.7l-2.9,4.1.4,2.9.4,2.9-4.9,2.9c-4.5,0-7,2.9-7,2.9l.8,4.9-3.3,8.6-4.5,2h-9l-.4,4.5-2.9,4.5,4.9,2,.8,2.9-8.6,3.7-6.6,2.9-2,6.1"/>
        <path class="st1" d="M260.7,196v-8.2l14.8-6.8"/>
        <path class="st5" d="M113.4,624.7v7.7l3,5.6,2.2,7.3,8.2,11.6-6.7,5.4,2.6,5.4,7.9-4.4,3.5-3.1,5.4-.3s8.5-2.5,8.8-1.6c.3.9,3.5,11.3,3.5,11.3v7.9l1.9,6,2.8,6h9.4l3.5,4-1.6,4.9h-3.8l-.6,5.7h-4.1l-4.8-3.1-4.7,5,.9,5.4-10.7,4.7-7.2,6h-7.6l-2.5-4.1-5.7,4.1-3.6-6.6-3.5,4.1,2.1,4.4-2.1,3.1-6.4-2.8v-4.1l-12,4.7-6.6,5h-13.1l-6.4-3.4-7.6-.6-6.3,4.1s1.7-2.5,3.1-4.8c.9-1.5,1.6-2.9,1.8-3.6.4-1.8,1.1-7.2,1.1-11.2s-.4-10.5.4-15.1c.7-4.7-.4-9.4,1.6-11.2,1.9-1.8-.5-7.2,0-9,.5-1.8-3.7-6.8-4.1-7.9-.4-1.1-7.2-2.9-8.3-2.9s10.1-9,10.1-9h9l5.8-3.6v-14.2"/>
        <path class="st5" d="M127.4,777l-4.4-12-2.8-6.9h-5.7l-4.6,1.3-4.6-3.8,6.3-1.9h3.8l.9-3.8h5.7l3.8-6.3-.6-5.4-1.3-5.4,3.5-4.7h4.4l3.5,3.1,4.7-3.1v-12.3"/>
        <path class="st5" d="M169.3,695.2l4.3,4.4h3.7l3-2.2,2.1-4.1h3l2.8,1.2,1,4,2.7,5.5,1.5,4.7.6,3.5,6.1,4.6,6.1,4.9s-.7.7,6.5,3c7.2,2.2-.6.1,7.2,2.2,7.8,2.1,4.7-1.3,7.8,2.1,3.1,3.4,1.8-2.1,3.1,3.4l1.3,5.5-1.2,5.6,1.2,1.7"/>
        <path class="st5" d="M196.3,609.2l2.6,7.9,1.8,4.5-1.1,3.1-3.3,2.7-2.7,3.4v20.3h2.8l.7,2.3v3.8s-1.1-.4.8,2.3l1.9,2.6-.6,3,2.6,2.3,1.7,5.1,1.9,3.2,4.3,2.8.9,1.9,2.3,4.7h4.5l4.3-.8,3-3.4v-4.9l2.8-.2,2.6-.8,3.4-2.4,3.4-1.3,4.3-5.6,3.4-1.3,2.6,2.1,2.3,3.4,4.7-.6,1.7-1.3,11.3-4.3h3.5l4,2.1,5.6-3,3.8-1.9v-4.9l2.8-6.6,3.2-6.2,14.1-14.1,2.1-1.7,3.6-.2,4.9,1.2"/>
        <path class="st5" d="M190.6,701.3l3.7-3.2.6-4.8,5.9-7.4,3.9-1.9,3.3-2.5,2.8-1.2"/>
        <path class="st5" d="M274.8,744.4v-6.7l4-6.1-2-4.5-2-5.2,2-2.7,2-3.4-2-8.3,6-3.5v-6.1l5.2-4.5h2.6l5.7,1.9,7.6-1.9,1.2-4.7,2.4-3.7,7.4-3.6,1.8-4,2.6-6.4,2.1-3.1v-5.7l-2.4-5.7,3.5-3.8,1.4-5.6,4-7.7"/>
        <path class="st3" d="M424.7,228.4l2.8,10.8v7l-1.4,7.7,1.4,2.2,3.3,3.5v3.8l-1,4h3.9l3.4-4,2.7,6.4-1.7,8-2.4,8-5.1,2.7-3,5.6,7.2,4.6h12.8l5.1,5.6,2.9,11.4,5.3,4.2,8.2,1.1,3.1,3.9v3.4s.5.3,3.1,1c2.7.7.5-4.4,2.7.7l2.2,5.1,2.2,6.8v4.1h5.6l2.2,2.7h3.1l2.7-2.2,6.6-1.2.6-2.5"/>
        <path class="st3" d="M379.1,384.5l8.6-1.4,3.6-7.5,7-1.2h5.6l1.9-2.4,1.9-5.5h6l5.6-1.2,3.9,4.1,4.2,2.7,4.1-2.7s-3.5-1.5,2.1-1.7c5.6-.2,1.7.5,5.6-.2,3.9-.7,1,1.9,3.9-.7l2.9-2.7v-12.3s-.7-2.7,3.9-3.1l4.6-.5,4.8,2.4,9.9,9.4,8.5,6.4,7.3.2s1-1.5,3.9,1.4l2.9,2.9s-.7,1.5,1.9,1.7q2.7.2,2.7.2l1.4.6"/>
        <path class="st3" d="M393.5,457.8l6.8-3.7,3.6,1.8,1.6,1.8,6.4,1.7,3.4,2.6,1.2,2.2.3,3.3"/>
        <path class="st3" d="M284.1,452.1l6.3-1.7,4.8,1.7,3.4-4.2,2.4-15.1,2.8-4.8h6.4s.5,1.1,3.7,0c3.2-1.1-.2-2.8,3.2-1.1l3.5,1.7v-3.5l3.3-2.5,2.9-2,5.9-4.7,3-2.5s-1.3-1.7,5.5-2.2l6.9-.5,5.2,3,8.2,4,2.9,11.1"/>
        <path class="st3" d="M175.5,518l15.8-10.3,9.9,2,5.4,2.7,2.9-.7,3.2-4,3-4.1,5.1-1.1s2.9,1.1,3.3,3.1,3.8-2.1.4,2l-3.4,4.2-.3,1.8s-3.7.2-4.3,3c-.6,2.8-1.4-.2-.6,2.8.8,3-3.6,3.2.8,3,4.4-.2,1.6-.8,4.4-.2,2.8.6.4-2.6,2.8.6l2.4,3.2,4.6,2.7h9.3l4-1.5h4.8l3.6.4s1.4,1.6,4.8-1c3.4-2.6,2.2,1.6,3.4-2.6l1.2-4.2s-1-1.4,2.4-1l3.4.4,2-2.8s-3.6-1.8,3.8-3c7.3-1.2,10.8-1.1,10.8-1.1l5.3,1.2"/>
        <path class="st3" d="M11.3,532.5l4.1-5.7,3.1-7.4,3.5-2,2.5,3.1s.9,3.3,1,4.4l3-3.4s-7.2-1.6,0-2.3q7.2-.8,7.2-.8l5.1,2.5,2.9,1.2,1.6,4.1-1.6,3.9-3.3,4.9,2.7,1.2,7.8,1.4h11.3l10.3-1s2.9-4.5,4.9-.8l1.9,3.7,5.9,9.4,4.1-2.7,3.5-2,2.1,1s1.2,1.4,5.5-.2c4.3-1.6,1.2-1.2,4.3-1.6,3.1-.4.4,0,3.1-.4l2.7-.4h3.3l3.9,1.2,2.9-2.9v-5.1l3.7-.2,11.1,2.5,2.1-5-1-5.6s1-2.7,4.7-1.4l3.7,1.4,2.9-2.9,4.3-3.1,1.8-2.7"/>
        <path class="st3" d="M68.6,350.4l7,3.5,5.3,2.3h5.6l3.7,2.6h5.3v4.4h2.1l2.3-3.7,6.3-2.7s1.2-.1,5.8-.6l4.6-.5,5.3,1,4.2,3.6,4.2,2.8,3,.9,3.5-.9"/>
        <path class="st3" d="M159.5,273.1v4.4l3.9.9,1.3,3.2v4.3l-2.6,3.4v3.8l-1.7,3.4,1.7,2.6,4.9-2.6c1.1,1.7,4.7,8.5,4.7,8.5l3,1.9,6.2-4,4.3.9,2.1,3.2h2.6l3.4-2.1,2.6.4v6h4.5l1.9-1.3,4.3-.2,7.2.3"/>
        <path class="st3" d="M53.8,211.2h7l5.5-5.8,2.3-3.5h13.2l7.8-5.5h5.2l2.6,5.8,3.7,1.6,5.2,2.4,6.6-2.4,2.6-3.1h3.5s.3.9,3.5,0c3.2-.9-1.7.3,3.2-.9l4.9-1.1s.6-1.4,4.6-2.3c4-.9-.6-.6,4-.9l4.6-.3,7.2-1.7,5.5-5.8,4.9.3,3.3-.3,3.1,1.1,2.8.4,3.5,5.5,3.5,3.7,1,13.1"/>
        <path class="st3" d="M182,176l-2.3,2.2h-3.5l-1.7,2.5-1.8,2.5-1.1,2.8-1.8,1.3-.8,1.7"/>
        <path class="st5" d="M290.4,235.8l-4.1,6.5v4l2,4.8-2,4s1.8-3.5,0,6.5l-1.8,10,1,6.5,3,4,3.8,1.5,2.3,8.3"/>
        <path class="st5" d="M175.5,365.5l8.4,9.2,2.7,5.6,6.6,6.8-2.3,4.3,1,3.5,1.3,2.5,3.3,6,.8,5.5v5.8l1.7,2.2"/>
        <path class="st5" d="M373.5,186.5l-6.8,5-5.9,5.7,1.6,4.4-3.5,3.5-4.6,3.5v4.4l-8.2,6.8h-5.1v8.5l-3.5,4.5-1.9,7.9v2.7l-7.3,2.7h-4.1v4.9l3.5,3.5v3.8"/>
        <path class="st5" d="M328,185.5l-2.1,4.8-4.1,2.8,2.2,6.5-2.2,3.8-2.4,3h-6l-3,5.1-6.3-1.3-8.2-.3-3-3-3.4-8.8v-4.5l-3.4,2.3-1.6,2.2-7,1.9"/>
        <path class="st5" d="M340.9,224.2l-6.5-4.6-6.1-2.4h-11.8l-1.6-3.5c3.3-4.6,4.6-7.1,4.6-7.1"/>
        <path class="st5" d="M307.8,240.1l6.2,1.3.8,1.6,1.8-1.4v-4.1l1.1-1.6-1.6-4.3h-13.8v4.3l5.6,4.3Z"/>
        <path class="st3" d="M.5,140.3l-1.9,16.4-4.3,6.8-4.3,4.3-1.8,9.7-2.2,8.4v4.5s-2.5-2.9,0,6.1l2.5,9-1.1,6.2-2.6,3.7v5.5s-1.8,1.9,1.5,3.3l3.2,1.4-.7,5.9.7,4.3,2.8,7.1v3.8l5.1,2,1.8,4.1,9.8,5.6,10.3-6.3h8.2l4.1-9.4"/>
        <path class="st3" d="M427.3,570.6h4.1l1.3,3.2,7-1.6h4.1l3.4,1.6c1.3,1.5,5.8,0,5.8,0l-1.7-3.2,1.7-2.8,3-1.7h1.9l5.2-1.7s-.9-3.7,6-4.5c6.9-.7-1.1-.9,6.9-.7l8,.2,7.1.7"/>
        <path class="st3" d="M323.9,637.6l9.4-6.4,7.9-8,4.5-5.4,3.2-2.1,1.5-2.4v-4.9l4.9.8,5.8,1.8,7.5-2.6,4.1-3.4h4.7l1.9.9,2.6,3.3,5.5-.8,2.7-3.4v-4.9l-1.3-5.1.4-5.6.9-3.2,1.1-4.7,4.7-3.9,1.9-2.1s0-2.8,3.9-1.2l3.9,1.6,3.4-1.6,3.6,1.6,6.9,4.9,1.5,5.9"/>
      </g>
    </mask>
    <linearGradient id="Degradado_sin_nombre_2" data-name="Degradado sin nombre 2" x1="-51.2" y1="1489.3" x2="-51.2" y2="1033.3" gradientTransform="translate(-149.2 -911.8) rotate(-180) scale(1 -1)" gradientUnits="userSpaceOnUse">
      <stop offset="0" stop-color="#000" stop-opacity="0"/>
      <stop offset=".2" stop-color="#000" stop-opacity=".5"/>
      <stop offset=".7" stop-color="#000"/>
    </linearGradient>
    <mask id="mask-4" x="-383" y="-99" width="570.1" height="896.9" maskUnits="userSpaceOnUse">
      <g id="mask1_486_49">
        <rect class="st10" x="-518.5" y="121.5" width="841" height="456" transform="translate(-430.1 203.2) rotate(-81.9)"/>
      </g>
    </mask>
    <clipPath id="clippath">
      <rect class="st2" width="430" height="465"/>
    </clipPath>
    <linearGradient id="Degradado_sin_nombre" data-name="Degradado sin nombre" x1="465.2" y1="813.3" x2="464.7" y2="551" gradientTransform="translate(-537.5 -114.5) rotate(90) scale(1 -1)" gradientUnits="userSpaceOnUse">
      <stop offset="0" stop-color="#000" stop-opacity="0"/>
      <stop offset=".1" stop-color="#000" stop-opacity=".3"/>
      <stop offset=".3" stop-color="#000" stop-opacity=".7"/>
      <stop offset=".4" stop-color="#000"/>
    </linearGradient>
  </defs>
  <rect class="st2" x="-64.8" y="-192.8" width="493.5" height="846" transform="translate(-78.4 365.5) rotate(-79.1)"/>
  <g class="st8">
    <rect class="st14" y="64" width="430" height="303"/>
  </g>
  <image width="925" height="645" transform="translate(-86.7 -34.2) scale(.7)" xlink:href="sombra azul (1).png"/>
  <path class="st7" d="M387.7,221.1c-3.6-12.7-7.3-37.3,7.1-33.7,14.3,3.5,1.3,24-7.1,33.7Z"/>
  <circle cx="392.9" cy="195.1" r="5.6" transform="translate(140.4 553.8) rotate(-81.3)"/>
  <path class="st7" d="M311.5,210.8c-6-11.9-14.2-35.5.7-34.7,14.9.8,5.7,23.5-.7,34.7Z"/>
  <circle cx="311.8" cy="184.1" r="5.6" transform="translate(-6.2 11) rotate(-2)"/>
  <path class="st7" d="M313.4,273.6c-9.5-9.7-24.7-30.1-10.1-33.9,14.7-3.8,12.8,21,10.1,33.9Z"/>
  <circle cx="305.4" cy="247.6" r="5.7" transform="translate(-65.4 116.8) rotate(-19.6)"/>
  <path class="st7" d="M259.8,237.3c-8.2-12.1-20.6-36.5-4.4-37.8,16.2-1.3,9.7,24.7,4.4,37.8Z"/>
  <circle cx="256.1" cy="208.2" r="6.2" transform="translate(-1.9 2.3) rotate(-.5)"/>
  <path class="st7" d="M108.9,171.1c-2.3-12.9-3.5-37.5,10.3-32.6,13.8,4.9-1.1,23.8-10.3,32.6Z"/>
  <circle cx="116.6" cy="145.9" r="5.5" transform="translate(-53.7 222.4) rotate(-75.6)"/>
  <path class="st7" d="M206.7,192c-7.8-12.2-19.5-36.7-3.3-37.6,16.1-.9,8.9,24.7,3.3,37.6Z"/>
  <circle cx="203.8" cy="163.1" r="6.1"/>
  <g class="st12">
    <rect width="159" height="356"/>
  </g>
  <g class="st13">
    <rect class="st11" x="13.5" y="-97.8" width="265" height="896.5" transform="translate(-219.3 453.7) rotate(-83.2)"/>
  </g>
</svg>