<svg width="351" height="368" viewBox="0 0 351 368" fill="none" xmlns="http://www.w3.org/2000/svg">
<g filter="url(#filter0_f_114_3702)">
<ellipse cx="175.135" cy="183.545" rx="95.1354" ry="103.545" fill="#95282D"/>
</g>
<path d="M285.865 152.071C293.475 152.051 301.071 151.532 308.671 152.099C309.174 152.138 309.981 152.57 310.343 152.5C310.798 152.41 311.154 151.324 311.92 151.599C313.711 155.307 309.571 158.646 306.492 159.912C305.903 160.155 300.555 161.86 301.51 159.966C303.541 158.3 305.976 157.044 307.62 154.945C304.913 154.467 302.112 154.785 299.363 154.714C295.32 154.608 291.998 154.487 287.906 154.714C286.913 154.769 284.462 154.458 283.815 154.926C281.226 158.348 278.557 161.777 275.706 164.988C272.434 168.67 271.082 168.676 269.624 173.97C269.253 175.313 268.769 176.774 269.128 178.136C270.006 178.937 276.491 172.938 277.381 172.163C278.243 171.416 279.493 170.756 280.255 170.016C281.78 168.529 282.04 166.673 284.263 165.417C284.84 165.09 288.108 163.805 287.765 165.328C287.72 165.526 285.471 167.785 285.045 168.353C284.25 169.413 279.714 176.309 280.601 177.178C281.976 177.207 283.667 175.874 284.779 175.021C288.803 171.942 293.449 165.648 297.255 163.347C300.821 161.191 299.453 164.427 298.572 166.34C296.855 170.07 294.272 173.566 292.315 177.178L302.478 169.051L303.07 169.644C301.193 171.426 299.472 173.39 297.576 175.149C294.993 177.55 291.017 180.148 288.842 182.677C286.352 185.567 284.045 190.038 281.748 193.277C278.307 198.126 269.317 210.13 263.992 212.104C261.618 212.982 258.263 212.261 258.142 209.326C258.004 206.006 263.543 200.885 265.889 198.696C272.011 192.986 278.884 188.067 285.391 182.811L292.789 170.964C291.261 172.163 290.056 173.746 288.601 175.024C284.997 178.191 277.436 184.007 278.089 174.553C275.991 176.614 273.661 179.139 270.88 180.257C266.203 182.135 265.934 177.2 266.491 173.836C264.463 175.669 260.189 180.613 257.321 180.456C256.146 180.392 254.96 179.155 254.79 178.005C254.569 176.495 255.678 174.063 256.408 172.72C256.652 172.275 259.269 168.734 259.077 168.577L256.69 168.442L252.621 173.236C249.222 176.06 241.981 182.26 237.319 180.174C235.028 179.149 235.156 175.675 235.842 173.672C236.941 170.458 242.785 164.703 246.277 164.501C249.004 164.344 249.895 166.645 248.837 168.978C247.306 172.358 241.436 176.899 237.559 176.947C237.931 178.87 239.366 178.748 240.904 178.258C242.952 177.607 251.522 171.775 253.111 170.141C253.531 169.708 255.607 166.901 255.671 166.504C255.726 166.174 255.306 165.417 255.252 164.873C254.819 160.582 259.529 160.383 259.795 162.979C259.917 164.187 258.936 165.123 258.603 166.183C260.381 166.234 262.589 164.2 264.088 165.6C264.703 166.174 264.678 166.773 264.309 167.468C263.515 168.974 260.868 171.272 259.699 172.9C259.192 173.602 256.709 177.204 257.408 177.902C257.824 177.963 258.154 177.854 258.539 177.719C259.92 177.232 266.879 171.387 267.692 170.134C268.872 168.321 269.541 164.517 270.832 162.514L274.863 155.188C270.358 155.644 265.85 156.051 261.355 156.621C257.754 157.079 255.415 158.345 251.551 158.534C250.138 158.601 248.7 158.524 247.283 158.502C245.912 156.925 248.056 156.544 249.273 156.256C257.933 154.202 267.76 154.218 276.59 152.788C277.788 151.192 278.951 149.561 280.489 148.26C282.274 146.748 285.532 144.415 287.797 145.959C288.752 148.305 286.897 150.18 285.862 152.077L285.865 152.071ZM282.956 152.272L284.904 148.725C283.433 149.597 282.44 150.946 281.322 152.195C281.264 152.856 281.469 152.388 281.739 152.372C282.037 152.356 282.815 152.356 282.956 152.272ZM280.841 154.942C280.396 155.015 279.563 154.788 279.217 154.99C278.906 155.172 275.83 160.316 275.392 161.085C275.042 161.697 274.6 162.408 274.389 163.068L277.961 158.874L280.838 154.939L280.841 154.942ZM237.569 175.024C241.455 173.707 245.537 170.907 247.126 167.013C247.056 166.267 244.98 167.145 244.576 167.327C241.801 168.593 238.62 172.163 237.569 175.024ZM280.841 189.377L275.581 193.556C272.348 196.328 262.025 205.067 261.105 208.739C260.564 210.905 264.024 208.887 264.803 208.364C269.567 205.16 276.846 195.463 280.217 190.541C280.37 190.313 281.034 189.576 280.841 189.374V189.377Z" fill="white"/>
<path d="M230.802 144.261C230.985 144.392 230.924 144.838 231.475 144.915C231.946 144.979 232.577 144.662 233.138 144.649C236.88 144.572 244.313 144.735 244.756 149.786C245.364 156.797 233.196 165.626 227.893 169.054C224.734 171.099 221.418 173.034 217.967 174.553C217.913 174.98 218.506 174.787 218.772 174.762C235.736 173.14 235.544 187.404 224.401 195.694C220.316 198.731 213.838 201.003 208.759 201.327C207.891 201.382 204.556 201.455 205.232 199.968C206.071 198.119 209.269 198.844 210.909 198.699C217.323 198.135 226.993 191.566 228.617 185.083C230.703 176.761 220.992 177.002 215.446 177.171C214.078 177.213 212.668 177.896 211.262 177.309C210.842 177.014 210.919 175.999 211.419 175.771C216.699 172.938 221.94 170.051 226.785 166.513C230.834 163.555 239.581 156.589 241.1 151.897C241.856 149.565 241.049 148.84 238.815 148.312C235.32 147.482 231.193 148.312 227.749 149.126C220.726 157.646 215.279 167.327 210.034 177.018C208.349 180.126 205.831 186.461 203.963 188.881C202.813 190.371 200.971 189.249 200.993 187.849C201.009 186.964 203.835 181.719 204.45 180.523C209.185 171.349 214.69 162.129 220.739 153.772C221.143 153.215 223.129 150.975 223.222 150.753C223.411 150.295 222.978 150.375 222.674 150.446C220.104 151.029 216.333 153.093 214.059 154.506C213.027 155.147 211.659 157.082 211.592 154.544C211.547 152.798 214.123 151.266 215.497 150.446C219.794 147.873 223.799 147.408 227.816 145.552C228.79 145.104 229.7 143.47 230.796 144.261H230.802Z" fill="white"/>
<path d="M319.337 170.243C323.178 170.525 326.216 173.679 325.2 177.665C324.79 179.277 322.192 181.52 320.634 180.046C321.016 178.29 322.185 177.197 321.948 175.169C321.759 173.554 320.051 171.868 318.424 171.958C317.104 174.56 312.141 179.017 309.177 176.938C307.056 175.451 308.21 172.57 310.029 171.333C312.057 169.955 314.617 170.224 316.828 169.763C317.495 167.952 318.433 165.997 318.023 164.023L309.299 170.362L308.584 170.118C308.572 169.804 312.102 165.853 312.634 165.328C313.784 164.196 317.581 160.78 319.01 160.678C319.705 160.63 320.151 160.934 320.532 161.508C321.887 163.546 320.285 168.119 319.337 170.234V170.243ZM315.508 171.682C313.522 171.721 310.465 172.496 310.116 174.784C310.741 176.037 313.509 173.967 314.201 173.358C314.409 173.175 315.78 171.91 315.508 171.679V171.682Z" fill="white"/>
<path d="M203.62 136.769C203.63 137.327 202.185 137.404 202.185 137.487V140.836H206.01V137.487L204.815 137.243V136.769H209.836C210.012 137.596 209.076 137.019 208.615 137.583C208.365 137.887 208.423 138.201 208.388 138.551C208.308 139.365 208.269 144.242 208.439 144.742C208.711 145.537 209.993 144.998 209.836 145.857H204.815V145.383L206.01 145.142V141.557H202.185L202.223 144.745C202.496 145.54 203.777 145.001 203.62 145.86H198.6C198.363 145.072 199.567 145.412 199.763 145.11L199.807 137.637C199.702 137.256 198.33 137.596 198.596 136.772H203.617L203.62 136.769Z" fill="white"/>
<path d="M218.922 136.769C218.829 137.545 219.227 138.576 218.563 139.156C217.487 137.452 216.404 137.019 214.379 137.25V140.836C214.924 140.845 215.481 140.9 215.997 140.659C216.766 140.304 216.593 139.147 217.487 139.163V142.87L217.006 143.114C216.481 141.47 216.093 141.403 214.376 141.553L214.482 144.915C214.863 145.453 216.968 145.351 217.551 145.088C218.054 144.857 218.48 143.761 218.848 143.293C218.999 143.101 218.842 142.851 219.393 142.992V145.86H210.547C210.371 145.033 211.306 145.61 211.768 145.046C212.018 144.742 211.96 144.428 211.995 144.079C212.075 143.265 212.114 138.387 211.944 137.887C211.672 137.093 210.39 137.631 210.547 136.772H218.916L218.922 136.769Z" fill="white"/>
<path d="M198.122 136.769C198.032 137.397 198.404 139.096 197.76 139.397L196.347 137.471L194.777 137.247V145.136L196.213 145.376V145.851H190.952V145.373C191.336 145.514 192.387 145.11 192.387 144.774V137.24C191.858 137.25 191.09 137.17 190.635 137.461C190.458 137.573 189.484 139.897 189.042 139.394V136.766H198.125L198.122 136.769Z" fill="white"/>
<path fill-rule="evenodd" clip-rule="evenodd" d="M143.625 231.869C125.25 191.756 100.768 112.617 149.836 116.965C198.903 121.313 166.14 195.379 143.625 231.869ZM147.506 161.995C157.797 161.995 166.14 153.652 166.14 143.362C166.14 133.071 157.797 124.728 147.506 124.728C137.216 124.728 128.873 133.071 128.873 143.362C128.873 153.652 137.216 161.995 147.506 161.995Z" fill="white"/>
<path d="M143.625 231.869L143.17 232.077L143.559 232.927L144.05 232.132L143.625 231.869ZM149.836 116.965L149.88 116.467L149.836 116.965ZM144.079 231.661C134.901 211.624 124.213 181.871 121.937 157.697C120.798 145.6 121.776 134.991 126.013 127.695C128.125 124.058 131.047 121.242 134.935 119.463C138.828 117.682 143.721 116.925 149.791 117.463L149.88 116.467C143.683 115.918 138.607 116.683 134.519 118.554C130.426 120.427 127.354 123.394 125.149 127.192C120.751 134.765 119.797 145.633 120.942 157.791C123.233 182.129 133.974 212.001 143.17 232.077L144.079 231.661ZM149.791 117.463C161.905 118.536 168.879 123.888 172.272 131.818C175.688 139.802 175.513 150.486 173.084 162.263C168.229 185.801 154.444 213.382 143.199 231.607L144.05 232.132C155.32 213.866 169.174 186.169 174.063 162.465C176.506 150.62 176.728 139.691 173.191 131.425C169.631 123.104 162.3 117.567 149.88 116.467L149.791 117.463ZM165.64 143.362C165.64 153.376 157.521 161.495 147.506 161.495V162.495C158.073 162.495 166.64 153.929 166.64 143.362H165.64ZM147.506 125.228C157.521 125.228 165.64 133.347 165.64 143.362H166.64C166.64 132.795 158.073 124.228 147.506 124.228V125.228ZM129.373 143.362C129.373 133.347 137.492 125.228 147.506 125.228V124.228C136.94 124.228 128.373 132.795 128.373 143.362H129.373ZM147.506 161.495C137.492 161.495 129.373 153.376 129.373 143.362H128.373C128.373 153.929 136.94 162.495 147.506 162.495V161.495Z" fill="white"/>
<defs>
<filter id="filter0_f_114_3702" x="0" y="0" width="350.271" height="367.09" filterUnits="userSpaceOnUse" color-interpolation-filters="sRGB">
<feFlood flood-opacity="0" result="BackgroundImageFix"/>
<feBlend mode="normal" in="SourceGraphic" in2="BackgroundImageFix" result="shape"/>
<feGaussianBlur stdDeviation="40" result="effect1_foregroundBlur_114_3702"/>
</filter>
</defs>
</svg>
