<svg width="402" height="337" viewBox="0 0 402 337" fill="none" xmlns="http://www.w3.org/2000/svg">
<g filter="url(#filter0_f_114_3725)">
<ellipse cx="161.493" cy="168.697" rx="80.9439" ry="88.3024" fill="#FF7C00"/>
</g>
<path d="M194.847 142.901C202.162 142.505 210.251 141.527 217.19 144.404C220.771 145.888 224.302 149.124 224.772 153.183C226.019 163.961 216.6 168.515 207.288 168.485V174.709H197.612V150.507H195.075L195.087 143.92L194.847 143.362V142.901ZM207.288 161.11C211.387 161.398 215.891 159.423 215.066 154.596C214.552 151.584 209.931 150.251 207.288 150.507V161.11Z" fill="white"/>
<path d="M299.329 162.032L299.073 162.509C301.538 169.479 309.841 167.654 314.875 164.798L318.562 171.367C311.763 176.686 298.868 176.709 293 169.977C287.351 163.493 287.994 152.052 294.603 146.472C301.022 141.05 312.922 141.592 317.698 148.959C320.195 152.81 320.405 157.443 319.923 161.891C319.709 162.463 319.462 162.034 319.375 162.034H299.331L299.329 162.032ZM310.963 155.809C310.533 148.378 299.748 148.802 298.983 155.809H310.963Z" fill="white"/>
<path d="M356.926 162.032L356.67 162.509C358.857 169.062 366.655 167.898 371.551 165.258L374.761 172.035C371.335 174.614 366.208 175.462 361.983 175.179C340.368 173.729 342.008 141.691 363.847 142.889C374.535 143.477 379.073 152.48 377.311 162.264C377.152 162.271 377.025 162.032 376.968 162.032H356.924H356.926ZM356.581 155.808H368.215C368.683 155.518 368.351 154.67 368.208 154.2C366.414 148.306 356.857 149.562 356.581 155.808Z" fill="white"/>
<path d="M240.185 143.199C261.9 140.965 265.641 171.454 244.927 174.677C222.687 178.136 218.808 145.397 240.185 143.199ZM240.87 151.489C232.414 152.718 233.205 168.034 243.98 166.356C246.459 165.969 249.09 163.219 249.429 160.743C250.207 155.043 246.876 150.616 240.87 151.489Z" fill="white"/>
<path d="M270.645 168.716V174.708H261.199V150.507L258.665 150.738V143.938C258.665 143.821 258.299 143.454 258.435 143.134C260.932 143 263.429 142.982 265.931 142.912C273.912 142.689 286.961 143.436 288.129 153.875C289.277 164.117 279.377 168.688 270.645 168.716ZM270.645 161.34C274.143 161.289 278.492 160.201 278.49 155.924C278.49 151.839 274.477 150.88 271.113 150.602L270.643 150.853V161.34H270.645Z" fill="white"/>
<path d="M381.695 165.259C383.723 166.731 390.227 168.771 392.065 166.764C393.18 165.547 391.957 164.565 390.911 163.989C388.195 162.493 385.188 162.267 382.4 160.287C377.684 156.94 377.18 149.482 381.573 145.66C386.686 141.214 397.931 141.853 401.937 147.668L396.783 153.266C395.067 151.321 392.337 149.883 389.697 150.33C387.335 150.731 386.944 152.851 388.987 154.156C393.155 156.814 399.463 156.581 401.265 162.617C404.276 172.72 393.383 175.935 385.531 174.67C384.414 174.49 378.613 172.904 378.732 171.639L381.695 165.259Z" fill="white"/>
<path d="M327.782 144.054L333.429 156.964L339.877 144.054H350.36L338.61 166.066V174.709H328.473V166.296L317.184 144.054H327.782Z" fill="white"/>
<path fill-rule="evenodd" clip-rule="evenodd" d="M149.429 216.496C131.055 176.383 106.573 97.2437 155.64 101.591C204.708 105.939 171.944 180.006 149.429 216.496ZM153.311 146.622C163.602 146.622 171.945 138.279 171.945 127.988C171.945 117.698 163.602 109.355 153.311 109.355C143.021 109.355 134.678 117.698 134.678 127.988C134.678 138.279 143.021 146.622 153.311 146.622Z" fill="white"/>
<path d="M149.429 216.496L148.975 216.704L149.364 217.554L149.855 216.758L149.429 216.496ZM155.64 101.591L155.685 101.093L155.64 101.591ZM149.884 216.288C140.706 196.251 130.018 166.497 127.742 142.324C126.603 130.227 127.58 119.618 131.818 112.321C133.93 108.685 136.852 105.869 140.74 104.09C144.633 102.308 149.526 101.552 155.596 102.09L155.685 101.093C149.488 100.544 144.412 101.31 140.324 103.181C136.231 105.054 133.159 108.021 130.953 111.819C126.556 119.392 125.602 130.26 126.746 142.418C129.038 166.755 139.779 196.628 148.975 216.704L149.884 216.288ZM155.596 102.09C167.71 103.163 174.684 108.515 178.077 116.445C181.493 124.429 181.317 135.113 178.889 146.889C174.034 170.427 160.249 198.009 149.004 216.233L149.855 216.758C161.125 198.493 174.979 170.796 179.868 147.091C182.311 135.247 182.533 124.318 178.996 116.051C175.436 107.731 168.105 102.194 155.685 101.093L155.596 102.09ZM171.445 127.988C171.445 138.003 163.326 146.122 153.311 146.122V147.122C163.878 147.122 172.445 138.555 172.445 127.988H171.445ZM153.311 109.855C163.326 109.855 171.445 117.974 171.445 127.988H172.445C172.445 117.421 163.878 108.855 153.311 108.855V109.855ZM135.178 127.988C135.178 117.974 143.297 109.855 153.311 109.855V108.855C142.744 108.855 134.178 117.421 134.178 127.988H135.178ZM153.311 146.122C143.297 146.122 135.178 138.003 135.178 127.988H134.178C134.178 138.555 142.744 147.122 153.311 147.122V146.122Z" fill="white"/>
<defs>
<filter id="filter0_f_114_3725" x="0.548767" y="0.39502" width="321.888" height="336.605" filterUnits="userSpaceOnUse" color-interpolation-filters="sRGB">
<feFlood flood-opacity="0" result="BackgroundImageFix"/>
<feBlend mode="normal" in="SourceGraphic" in2="BackgroundImageFix" result="shape"/>
<feGaussianBlur stdDeviation="40" result="effect1_foregroundBlur_114_3725"/>
</filter>
</defs>
</svg>
