<svg width="323" height="338" viewBox="0 0 323 338" fill="none" xmlns="http://www.w3.org/2000/svg">
<g filter="url(#filter0_f_114_3715)">
<ellipse cx="161.407" cy="168.863" rx="80.9439" ry="88.3024" fill="#9AC128"/>
</g>
<path d="M233.427 101.865C233.947 105.757 232.395 110.09 228.13 110.671C223.65 111.279 217.601 110.353 212.884 111.035C208.206 112.267 208.504 118.656 213.104 119.381C221.239 120.663 231.344 116.483 237.81 123.182C237.878 115.868 241.353 108.942 247.514 104.985C248.82 104.146 253.153 101.865 254.422 101.865H272.594C274.724 101.865 273.131 108.169 271.02 109.694C264.688 114.269 254.542 106.902 248.198 116.327C243.146 123.829 246.97 135.305 256.301 136.347C263.129 137.109 268.448 135.209 270.398 128.198C266.711 127.954 261.862 129.192 258.958 126.338C257.829 125.227 255.716 119.42 257.555 119.42H279.175V128.511C278.479 136.035 271.21 142.675 265.732 144.527C255.396 148.026 246.589 144.012 240.328 135.72C240.436 139.564 234.147 145.75 230.609 145.75H203.978C203.121 131.201 221.281 137.997 229.97 136.335C232.261 135.895 233.427 132.761 232.488 130.718C230.465 126.321 216.129 128.853 211.335 128.049C201.03 126.324 197.97 111.616 205.642 105.098C206.752 104.155 211.21 101.868 212.44 101.868H233.432L233.427 101.865Z" fill="white"/>
<path d="M288.374 103.44C291.051 106.306 288.906 114.498 292.869 116.954C294.43 117.921 300.397 119.781 299.872 122.313C299.181 125.65 292.859 126.919 291.139 129.946C288.276 134.99 292.793 149.239 281.017 145.489C282.02 140.702 281.359 130.017 283.628 126.192C284.306 125.047 287.679 123.279 287.315 122.374C281.134 118.175 282.162 108.828 280.983 102.129C283.211 101.155 287.139 102.117 288.374 103.438V103.44Z" fill="white"/>
<path d="M311.699 103.301C309.022 106.179 311.167 114.411 307.204 116.876C305.643 117.848 299.677 119.715 300.201 122.259C300.892 125.611 307.214 126.887 308.934 129.929C311.797 134.997 307.28 149.31 319.056 145.543C318.053 140.734 318.714 130 316.445 126.157C315.767 125.008 312.395 123.233 312.758 122.322C318.939 118.104 317.912 108.715 319.09 101.985C316.862 101.006 312.934 101.973 311.699 103.301Z" fill="white"/>
<path fill-rule="evenodd" clip-rule="evenodd" d="M149.627 217.076C131.253 176.963 106.771 97.8243 155.838 102.172C204.905 106.52 172.142 180.587 149.627 217.076ZM153.509 147.202C163.8 147.202 172.142 138.86 172.142 128.569C172.142 118.278 163.8 109.936 153.509 109.936C143.218 109.936 134.876 118.278 134.876 128.569C134.876 138.86 143.218 147.202 153.509 147.202Z" fill="white"/>
<path d="M149.627 217.076L149.172 217.285L149.562 218.135L150.052 217.339L149.627 217.076ZM155.838 102.172L155.882 101.674L155.838 102.172ZM150.082 216.868C140.903 196.832 130.216 167.078 127.94 142.905C126.801 130.807 127.778 120.199 132.016 112.902C134.128 109.265 137.05 106.45 140.938 104.67C144.831 102.889 149.724 102.132 155.794 102.67L155.882 101.674C149.685 101.125 144.61 101.89 140.522 103.761C136.429 105.634 133.357 108.601 131.151 112.4C126.753 119.972 125.799 130.84 126.944 142.998C129.236 167.336 139.976 197.208 149.172 217.285L150.082 216.868ZM155.794 102.67C167.907 103.743 174.881 109.096 178.274 117.025C181.691 125.01 181.515 135.693 179.086 147.47C174.232 171.008 160.446 198.589 149.201 216.814L150.052 217.339C161.323 199.074 175.177 171.377 180.066 147.672C182.508 135.827 182.731 124.898 179.194 116.632C175.633 108.311 168.302 102.775 155.882 101.674L155.794 102.67ZM171.642 128.569C171.642 138.584 163.524 146.702 153.509 146.702V147.702C164.076 147.702 172.642 139.136 172.642 128.569H171.642ZM153.509 110.436C163.524 110.436 171.642 118.554 171.642 128.569H172.642C172.642 118.002 164.076 109.436 153.509 109.436V110.436ZM135.376 128.569C135.376 118.554 143.494 110.436 153.509 110.436V109.436C142.942 109.436 134.376 118.002 134.376 128.569H135.376ZM153.509 146.702C143.494 146.702 135.376 138.584 135.376 128.569H134.376C134.376 139.136 142.942 147.702 153.509 147.702V146.702Z" fill="white"/>
<path d="M252.962 161.56C265.724 160.355 266.696 179.428 254.884 180.482C242.041 181.628 240.953 162.694 252.962 161.56Z" fill="white"/>
<path d="M280.315 175.63V161.814H282.747V180.181C282.029 180.088 281.079 180.447 280.535 179.891L269.533 166.064V180.181H267.102V161.814H269.302L280.303 175.63H280.315Z" fill="white"/>
<path d="M225.203 180.192V161.814H232.87C237.884 161.814 241.798 166.933 241.451 171.75C241.15 175.85 237.27 180.181 233.032 180.181H225.215L225.203 180.192ZM227.635 177.911H232.87C235.661 177.911 238.382 174.981 238.822 172.329C239.471 168.485 236.668 164.096 232.557 164.096H227.624V177.911H227.635Z" fill="white"/>
<path d="M207.891 161.814V173.279C207.891 174.055 208.666 175.931 209.176 176.545C211.098 178.872 215.788 178.803 217.479 176.186C217.746 175.769 218.359 174.31 218.359 173.881V161.814H220.791V174.032C220.791 174.449 220.189 176.243 219.957 176.695C216.819 183.099 205.447 181.015 205.447 173.58V161.814H207.879H207.891Z" fill="white"/>
<path fill-rule="evenodd" clip-rule="evenodd" d="M254.716 192.449C254.716 192.484 254.87 192.817 254.763 192.889C254.656 192.96 254.573 192.9 254.537 192.746C254.49 192.472 254.561 192.258 254.288 192.092C254.133 191.997 253.657 192.758 252.029 192.068C250.4 191.379 249.639 189.833 249.532 189.381C249.532 189.381 249.484 189.251 249.996 189.536C250.424 189.786 250.959 189.691 251.779 189.5C252.718 189.286 254.727 189.869 254.656 191.545C254.656 191.545 253.646 189.37 250.78 190.309C250.78 190.309 250.614 190.404 250.959 190.404C251.303 190.404 253.122 190.142 254.085 191.307C254.561 191.878 254.704 192.449 254.704 192.449H254.716Z" fill="white"/>
<path fill-rule="evenodd" clip-rule="evenodd" d="M218.086 193.174C214.995 193.174 212.332 195.469 211.904 198.512C211.476 201.615 213.497 203.79 216.838 203.79C218.277 203.79 219.846 203.22 220.987 202.304C221.427 201.924 221.142 201.52 221.142 201.52L220.654 200.806C220.654 200.806 220.333 200.402 219.858 200.699C219.394 201.02 218.455 201.365 217.599 201.365C216.137 201.365 215.209 200.45 215.364 199.154C215.483 199.154 220.25 199.154 221.677 199.154C222.129 199.154 222.224 198.809 222.259 198.655C222.295 198.488 222.319 198.334 222.343 198.179C222.521 196.966 222.271 195.825 221.629 194.91C220.857 193.804 219.573 193.174 218.098 193.174H218.086ZM219.953 197.133H215.685C215.685 197.133 215.958 195.171 218.027 195.171C220.001 195.171 219.953 197.133 219.953 197.133Z" fill="white"/>
<path fill-rule="evenodd" clip-rule="evenodd" d="M223.674 203.79C226.313 203.79 226.884 202.043 227.003 201.317C227.086 200.759 228.56 189.821 228.56 189.821H228.394C224.685 189.821 224.34 194.315 224.34 194.315C224.34 194.315 223.127 202.958 223.115 203.124C223.115 203.303 223.104 203.79 223.674 203.79Z" fill="white"/>
<path fill-rule="evenodd" clip-rule="evenodd" d="M251.815 193.459C251.815 193.459 251.969 193.84 251.47 195.861C250.971 197.882 250.495 200.462 251.042 201.817C251.589 203.172 252.742 204.206 254.145 204.29C254.109 204.29 253.646 202.934 253.776 201.757C253.895 200.592 254.597 197.834 254.846 196.562C255.096 195.29 254.573 194.113 253.586 193.733C252.611 193.352 251.827 193.435 251.827 193.435L251.815 193.459Z" fill="white"/>
<path fill-rule="evenodd" clip-rule="evenodd" d="M285.341 204.135C285.341 204.135 284.972 203.22 284.699 200.747C284.425 198.262 285.293 194.244 285.293 194.208L285.317 194.101L285.222 194.042C285.174 194.006 283.985 193.328 282.024 193.186C280.217 193.079 278.433 193.78 277.066 195.135C275.913 196.289 275.342 197.608 275.128 199.249C274.879 201.21 275.556 202.471 276.365 203.22C277.245 204.04 278.552 203.838 278.838 203.743C280.371 203.243 281.168 201.829 281.513 201.056C282.428 204.171 284.651 204.349 285.115 204.349C285.293 204.349 285.412 204.325 285.412 204.325L285.329 204.123L285.341 204.135ZM280.145 195.563C280.704 194.969 281.453 194.648 282.38 194.624C282.226 195.064 281.834 196.146 281.477 197.133C281.215 197.846 280.954 198.571 280.752 199.13C280.312 200.366 279.765 200.818 279.444 200.806C278.136 200.759 278.778 197.014 280.157 195.563H280.145Z" fill="white"/>
<path fill-rule="evenodd" clip-rule="evenodd" d="M234.588 193.174C231.497 193.174 228.834 195.469 228.406 198.512C227.978 201.615 229.999 203.79 233.34 203.79C234.766 203.79 236.347 203.22 237.489 202.304C237.929 201.924 237.643 201.52 237.643 201.52L237.156 200.818C237.156 200.818 236.835 200.414 236.359 200.711C235.896 201.032 234.957 201.377 234.101 201.377C232.638 201.377 231.711 200.462 231.865 199.166C231.972 199.166 236.752 199.166 238.178 199.166C238.63 199.166 238.725 198.821 238.761 198.667C238.797 198.512 238.82 198.346 238.844 198.191C239.011 196.978 238.773 195.837 238.131 194.922C237.358 193.816 236.062 193.186 234.6 193.186L234.588 193.174ZM236.443 197.133H232.175C232.175 197.133 232.448 195.171 234.505 195.171C236.478 195.171 236.431 197.133 236.431 197.133H236.443Z" fill="white"/>
<path fill-rule="evenodd" clip-rule="evenodd" d="M212.285 198.215C212.261 198.322 212.249 198.429 212.225 198.536C212.213 198.655 212.202 198.762 212.19 198.88C212.19 198.88 212.19 198.88 212.19 198.892C212.19 198.892 211.702 201.318 210.085 201.318C208.79 201.318 208.255 200.604 208.469 199.142C208.469 199.142 208.73 197.299 208.873 196.336C208.92 196.027 209.253 195.778 209.598 195.778C210.394 195.778 211.619 195.778 211.619 195.778L211.857 194.268C211.857 194.268 212.011 193.721 211.143 193.721C210.668 193.721 210.24 193.721 209.776 193.721C209.325 193.721 209.253 193.745 209.229 193.745C209.241 193.661 209.515 191.735 209.669 190.642C209.669 190.178 209.015 190.238 208.706 190.44C207.517 191.2 206.436 191.949 205.152 192.901C203.939 193.792 203.297 194.482 203.214 194.898C203.154 195.207 202.905 195.766 203.38 195.766C203.475 195.766 205.116 195.766 205.223 195.766C205.33 195.766 205.247 195.766 205.259 195.766C205.235 195.896 204.724 199.499 204.724 199.499C204.319 202.316 206.245 203.79 208.35 203.79C211.025 203.79 212.011 202.031 212.392 200.771C212.665 201.615 212.023 199.677 212.273 198.215H212.285Z" fill="white"/>
<path fill-rule="evenodd" clip-rule="evenodd" d="M239.094 194.161C239.843 196.883 239.95 197.692 239.546 201.496C239.379 202.982 239.129 204.04 238.927 204.884C238.594 206.251 238.38 207.167 238.785 208.641C239.427 210.971 241.721 211.351 241.911 211.328C241.947 210.983 241.769 210.412 241.721 208.867C241.662 206.715 242.078 205.609 242.185 205.134C242.434 205.169 242.684 205.181 242.934 205.181C244.967 205.181 247.083 204.147 247.986 202.72C249.591 200.355 249.354 197.81 248.664 196.36C248.165 195.302 247.356 194.636 246.477 194.565C244.622 194.398 243.314 196.55 242.839 197.561C241.971 194.505 240.39 194.161 239.106 194.161H239.094ZM245.43 201.341C244.788 202.97 243.944 203.671 242.577 203.695H242.565C242.541 203.695 242.53 203.695 242.506 203.695C242.625 203.232 243.148 201.175 243.54 199.927C244.016 198.405 244.574 197.608 245.157 197.608C245.181 197.608 245.216 197.608 245.24 197.608C245.347 197.62 245.442 197.703 245.526 197.834C245.918 198.488 245.87 200.224 245.43 201.329V201.341Z" fill="white"/>
<path fill-rule="evenodd" clip-rule="evenodd" d="M257.176 196.8C257.176 196.8 255.12 195.492 256.344 194.208C257.355 193.162 259.162 193.102 260.589 193.209C262.11 193.328 264.417 193.721 264.583 195.754C264.702 197.192 264.001 197.87 261.647 199.843C260.541 200.77 259.471 201.65 259.376 202.054C259.911 201.829 266.652 201.068 265.154 206.097C262.883 203.909 260.482 203.933 259.887 203.909C258.175 203.968 256.202 203.921 255.976 201.852C255.94 201.543 255.916 200.152 258.686 197.882C261.195 195.825 261.207 195.1 260.696 194.85C260.065 194.553 257.842 195.183 257.176 196.788V196.8Z" fill="white"/>
<path fill-rule="evenodd" clip-rule="evenodd" d="M266.937 196.812C266.937 196.812 264.88 195.504 266.105 194.22C267.115 193.174 268.923 193.115 270.349 193.233C271.871 193.352 274.177 193.745 274.344 195.778C274.463 197.216 273.761 197.894 271.407 199.867C270.302 200.806 269.232 201.674 269.137 202.078C269.672 201.841 276.412 201.092 274.914 206.12C272.644 203.933 270.242 203.957 269.648 203.933C267.936 203.981 265.962 203.945 265.736 201.876C265.701 201.567 265.677 200.176 268.447 197.906C270.955 195.849 270.967 195.124 270.456 194.886C269.826 194.589 267.603 195.219 266.937 196.824V196.812Z" fill="white"/>
<path d="M223.856 221.611C224.667 220.849 225.72 220.411 226.806 220.233C228.151 220.039 229.61 220.152 230.809 220.849C231.474 221.205 232.008 221.74 232.495 222.308C231.765 222.875 231.004 223.377 230.274 223.928C229.934 223.491 229.529 223.069 228.994 222.875C227.876 222.453 226.466 222.761 225.736 223.734C225.023 224.657 224.91 225.922 225.153 227.04C225.331 227.98 225.963 228.855 226.887 229.179C228.135 229.568 229.642 229.244 230.436 228.142C231.198 228.725 231.96 229.276 232.722 229.844C231.814 230.881 230.566 231.61 229.205 231.805C227.308 232.145 225.169 231.74 223.759 230.346C222.625 229.228 222.106 227.575 222.122 226.003C222.106 224.398 222.673 222.729 223.873 221.611" fill="white"/>
<path d="M237.162 220.33C238.718 219.958 240.452 220.168 241.83 221.011C242.786 221.594 243.531 222.486 243.969 223.507C244.666 225.111 244.65 226.991 243.969 228.612C243.483 229.763 242.591 230.735 241.473 231.286C239.707 232.177 237.519 232.145 235.752 231.237C234.196 230.427 233.143 228.774 232.932 227.056C232.802 225.938 232.851 224.787 233.272 223.734C233.872 222.032 235.396 220.703 237.178 220.33M237.94 222.778C237.259 222.923 236.676 223.345 236.303 223.928C235.704 224.917 235.606 226.165 235.914 227.251C236.174 228.191 236.903 229.001 237.859 229.228C238.702 229.39 239.674 229.325 240.355 228.774C241.214 228.126 241.538 227.024 241.522 225.986C241.506 225.144 241.295 224.252 240.728 223.604C240.063 222.794 238.896 222.518 237.908 222.761" fill="white"/>
<path d="M203.095 220.363C206.337 220.363 209.578 220.363 212.819 220.363C212.819 221.157 212.819 221.935 212.819 222.729C211.652 222.729 210.486 222.729 209.319 222.729C209.319 225.727 209.319 228.709 209.319 231.707C208.395 231.707 207.487 231.707 206.563 231.707C206.563 228.709 206.563 225.727 206.563 222.729C205.413 222.729 204.246 222.729 203.095 222.729C203.095 221.935 203.095 221.141 203.095 220.346" fill="white"/>
<path d="M215.575 220.363C216.369 220.363 217.163 220.347 217.941 220.379C219.448 224.171 221.02 227.931 222.56 231.708C221.539 231.708 220.501 231.708 219.48 231.708C219.286 231.157 219.059 230.606 218.881 230.054C217.357 230.054 215.834 230.054 214.327 230.054C214.116 230.606 213.905 231.157 213.695 231.724C212.722 231.724 211.75 231.724 210.761 231.724C212.349 227.931 213.986 224.155 215.575 220.363ZM215.169 227.818C215.753 227.818 216.336 227.769 216.92 227.786C217.292 227.802 217.665 227.818 218.022 227.769C217.536 226.44 217.098 225.111 216.644 223.783C216.142 225.128 215.656 226.489 215.153 227.834" fill="white"/>
<path d="M247.194 220.318C248.766 220.318 250.321 220.318 251.894 220.318C252.963 220.366 254.146 220.545 254.924 221.355C255.605 222.036 255.605 223.105 255.41 223.98C255.216 224.71 254.6 225.212 253.968 225.536C254.811 225.666 255.621 226.136 256.059 226.881C256.626 227.902 256.561 229.231 255.978 230.236C255.281 231.29 253.919 231.614 252.736 231.662C250.889 231.679 249.057 231.662 247.21 231.662C247.21 227.87 247.21 224.094 247.21 220.302M249.803 222.538C249.803 223.284 249.803 224.045 249.803 224.791C250.548 224.775 251.31 224.856 252.039 224.694C252.947 224.499 253.044 222.943 252.137 222.668C251.375 222.441 250.581 222.554 249.803 222.538ZM249.803 226.962C249.803 227.74 249.803 228.518 249.803 229.296C250.873 229.264 251.975 229.41 253.028 229.134C253.855 228.826 253.822 227.449 252.996 227.157C251.975 226.833 250.873 227.011 249.803 226.962Z" fill="white"/>
<path d="M257.517 220.318C260.37 220.318 263.222 220.318 266.075 220.318C266.075 221.112 266.075 221.906 266.075 222.7C264.146 222.7 262.217 222.7 260.305 222.7C260.305 223.381 260.305 224.078 260.305 224.758C261.926 224.791 263.546 224.71 265.151 224.807C265.118 225.585 265.167 226.346 265.102 227.124C263.498 227.124 261.893 227.124 260.305 227.124C260.305 227.854 260.305 228.583 260.305 229.312C262.266 229.312 264.243 229.312 266.204 229.312C266.204 230.106 266.204 230.901 266.204 231.695C263.303 231.695 260.418 231.695 257.517 231.695C257.517 227.919 257.517 224.126 257.517 220.35" fill="white"/>
<path d="M267.549 220.318C268.473 220.318 269.397 220.318 270.321 220.318C270.321 223.316 270.321 226.298 270.321 229.296C271.99 229.296 273.659 229.296 275.329 229.296C275.329 230.09 275.329 230.884 275.329 231.678C272.736 231.678 270.143 231.678 267.533 231.678C267.533 227.902 267.533 224.11 267.533 220.334" fill="white"/>
<path d="M276.69 220.318C277.614 220.318 278.522 220.318 279.445 220.318C279.445 223.316 279.445 226.298 279.445 229.296C281.115 229.296 282.784 229.296 284.453 229.296C284.453 230.09 284.453 230.884 284.453 231.678C281.86 231.678 279.283 231.678 276.69 231.678C276.69 227.886 276.69 224.11 276.69 220.318Z" fill="white"/>
<defs>
<filter id="filter0_f_114_3715" x="0.46344" y="0.561035" width="321.888" height="336.605" filterUnits="userSpaceOnUse" color-interpolation-filters="sRGB">
<feFlood flood-opacity="0" result="BackgroundImageFix"/>
<feBlend mode="normal" in="SourceGraphic" in2="BackgroundImageFix" result="shape"/>
<feGaussianBlur stdDeviation="40" result="effect1_foregroundBlur_114_3715"/>
</filter>
</defs>
</svg>
