<svg width="352" height="352" viewBox="0 0 352 352" fill="none" xmlns="http://www.w3.org/2000/svg">
<g filter="url(#filter0_f_114_3739)">
<circle cx="176" cy="176" r="96" fill="#D82300"/>
</g>
<path fill-rule="evenodd" clip-rule="evenodd" d="M157.573 236.357C139.199 196.244 114.717 117.105 163.784 121.453C212.852 125.8 180.088 199.867 157.573 236.357ZM161.455 166.483C171.746 166.483 180.088 158.14 180.088 147.849C180.088 137.559 171.746 129.216 161.455 129.216C151.164 129.216 142.822 137.559 142.822 147.849C142.822 158.14 151.164 166.483 161.455 166.483Z" fill="white"/>
<path d="M157.573 236.357L157.119 236.565L157.508 237.415L157.999 236.62L157.573 236.357ZM163.784 121.453L163.828 120.955L163.784 121.453ZM158.028 236.149C148.85 216.112 138.162 186.359 135.886 162.185C134.747 150.088 135.724 139.479 139.962 132.182C142.074 128.546 144.996 125.73 148.884 123.951C152.777 122.169 157.67 121.413 163.74 121.951L163.828 120.955C157.632 120.405 152.556 121.171 148.468 123.042C144.375 124.915 141.303 127.882 139.097 131.68C134.699 139.253 133.746 150.121 134.89 162.279C137.182 186.616 147.922 216.489 157.119 236.565L158.028 236.149ZM163.74 121.951C175.854 123.024 182.828 128.376 186.221 136.306C189.637 144.29 189.461 154.974 187.033 166.75C182.178 190.289 168.393 217.87 157.148 236.094L157.999 236.62C169.269 218.354 183.123 190.657 188.012 166.952C190.455 155.108 190.677 144.179 187.14 135.912C183.58 127.592 176.249 122.055 163.828 120.955L163.74 121.951ZM179.588 147.849C179.588 157.864 171.47 165.983 161.455 165.983V166.983C172.022 166.983 180.588 158.416 180.588 147.849H179.588ZM161.455 129.716C171.47 129.716 179.588 137.835 179.588 147.849H180.588C180.588 137.282 172.022 128.716 161.455 128.716V129.716ZM143.322 147.849C143.322 137.835 151.441 129.716 161.455 129.716V128.716C150.888 128.716 142.322 137.282 142.322 147.849H143.322ZM161.455 165.983C151.441 165.983 143.322 157.864 143.322 147.849H142.322C142.322 158.416 150.888 166.983 161.455 166.983V165.983Z" fill="white"/>
<path d="M230.244 149.724C238.873 149.402 249.395 150.251 256.812 154.989C259.125 156.467 262.305 159.404 262.846 162.201C263.055 163.283 263.019 163.944 261.705 163.959C245.097 163.916 228.47 163.953 211.876 164.06C210.335 164.071 205.073 164.298 203.974 163.802C202.117 162.964 204.456 159.377 205.297 158.4C210.633 152.204 222.463 150.012 230.244 149.723V149.724Z" fill="white"/>
<path d="M203.639 197.082L262.366 197.11C263.744 197.465 262.234 199.618 261.775 200.293C257.961 205.901 247.178 206.987 240.913 207.348C235.253 207.673 229.038 207.728 223.388 207.348C217.323 206.939 206.237 204.997 203.62 198.588C203.471 198.225 203.096 197.24 203.639 197.082Z" fill="white"/>
<path d="M239.232 186.264V181.018C239.232 180.978 239.379 180.474 239.413 180.384C240.121 178.485 244.044 178.784 244.129 181.013C243.854 184.991 244.479 189.425 244.129 193.347C243.944 195.404 240.904 195.938 239.642 194.463L234.342 187.791V193.649C234.342 193.684 234.119 194.237 234.079 194.304C233.144 195.852 229.742 195.611 229.548 193.551C229.242 190.302 229.591 186.207 229.555 182.846C229.546 182.034 229.309 181.416 229.58 180.537C230.121 178.788 233.1 178.732 234.086 180.149L239.231 186.262L239.232 186.264Z" fill="white"/>
<path d="M253.376 178.858C255.52 178.682 258.059 178.982 259.808 180.314C260.91 181.153 261.137 182.295 260.112 183.35C258.738 184.765 257.15 183.287 255.56 183.032C253.65 182.726 251.553 183.331 250.847 185.291C249.693 188.492 251.313 191.65 254.978 191.255C255.94 191.151 256.773 190.516 256.359 189.465C255.724 189.374 255.266 189.502 254.653 189.235C253.017 188.523 253.507 185.646 255.179 185.444C256.171 185.325 258.868 185.334 259.869 185.446C261.066 185.579 261.183 186.502 261.25 187.53C261.324 188.672 261.37 190.812 261.245 191.916C261.028 193.836 257.888 195.247 256.188 195.418C251.764 195.862 247.76 194.733 246.238 190.212C244.411 184.785 247.571 179.337 253.378 178.857L253.376 178.858Z" fill="white"/>
<path d="M210.905 185.652C212.43 184.171 213.752 182.484 215.234 180.964C215.769 180.416 216.515 179.529 217.225 179.287C219.07 178.659 221.179 180.412 220.132 182.295L215.803 187.115L220.076 191.814C221.45 193.765 218.98 195.859 217.02 195.073C216.631 194.917 216.29 194.552 215.999 194.261C214.441 192.71 213.089 190.908 211.57 189.316C211.473 189.215 210.909 188.588 210.805 188.707C210.856 190.212 211.043 191.951 210.911 193.448C210.701 195.822 206.328 195.883 206.112 193.653C206.411 189.56 205.734 184.942 206.112 180.911C206.304 178.883 209.781 178.629 210.621 180.079C210.685 180.189 210.905 180.737 210.905 180.813V185.652Z" fill="white"/>
<path d="M238.702 166.633C240.096 166.483 242.858 166.67 243.716 167.977C244.258 168.801 243.429 170.031 242.454 169.96C241.21 169.869 240.763 168.978 239.024 169.398C236.385 170.038 236.649 174.441 239.179 174.753C239.951 174.848 241.447 174.664 240.971 173.572C240.62 173.49 240.337 173.566 239.973 173.449C238.805 173.074 239.014 171.044 240.402 170.876C240.95 170.811 243.302 170.818 243.708 171.038C244.112 171.256 244.195 171.928 244.229 172.351C244.278 172.97 244.314 174.827 244.178 175.363C243.711 177.195 240.531 177.619 238.978 177.498C232.293 176.975 232.576 167.286 238.701 166.63L238.702 166.633Z" fill="white"/>
<path d="M223.821 179.261C225.104 179.075 226.779 179.362 226.902 180.917L226.895 193.742C226.608 195.765 222.49 195.938 222.113 193.754L222.121 180.719C222.334 179.91 223.011 179.38 223.823 179.262L223.821 179.261Z" fill="white"/>
<path d="M207.21 166.729C208.026 166.593 210.694 166.616 211.54 166.731C214.097 167.077 215.035 170.123 212.842 171.646C215.492 173.006 214.709 177.082 211.77 177.401C210.722 177.516 208.451 177.498 207.383 177.404C206.602 177.336 206.187 177.046 206.108 176.234C205.856 173.596 206.307 170.557 206.114 167.876C206.139 167.267 206.636 166.824 207.208 166.729H207.21ZM209.172 170.882C211.671 171.352 211.669 168.375 209.172 168.844V170.882ZM209.172 175.262C210.096 175.387 211.31 175.172 211.278 174.004C211.242 172.778 210.088 172.87 209.172 172.919V175.261V175.262Z" fill="white"/>
<path d="M228.228 173.327V176.535C228.228 176.608 227.918 177.06 227.817 177.143C227.085 177.737 225.55 177.559 225.193 176.615L225.172 167.775C225.184 167.298 225.573 166.786 226.044 166.711C226.791 166.593 230.057 166.604 230.804 166.729C231.427 166.835 232.339 167.473 232.713 167.978C233.773 169.413 233.445 171.833 231.843 172.714L231.79 172.867C232.113 173.618 233.911 175.215 233.942 175.926C233.99 176.956 231.807 178.096 231.083 177.043L228.228 173.327ZM228.228 171.289C229.261 171.389 230.199 171.253 230.17 170.013C230.143 168.844 229.191 168.755 228.228 168.844V171.289Z" fill="white"/>
<path d="M256.046 176.535C255.791 177.686 253.556 177.798 253.01 176.718L252.985 167.567C253.038 167.181 253.365 166.774 253.76 166.712C254.576 166.584 257.695 166.6 258.534 166.714C259.434 166.838 260.565 167.8 260.884 168.644C261.417 170.053 261.003 172.128 259.511 172.718V172.867C259.9 173.489 261.786 175.396 261.751 176.018C261.701 176.927 260.089 177.767 259.236 177.32C258.236 176.795 257.06 174.169 256.047 173.428C255.915 174.307 256.226 175.729 256.047 176.535H256.046ZM256.046 171.289C256.937 171.415 257.951 171.184 257.991 170.119C258.037 168.904 257.039 168.727 256.046 168.844V171.289Z" fill="white"/>
<path d="M216.894 166.631C217.518 166.618 218.386 166.915 218.524 167.594C218.787 169.577 218.251 172.177 218.554 174.085C218.723 175.157 220.481 175.212 220.683 174.085L220.742 167.319C221.743 166.212 223.706 166.364 223.851 168.078C223.988 169.682 224.001 172.901 223.835 174.487C223.409 178.569 215.697 178.309 215.386 174.707C215.188 172.436 215.536 169.881 215.394 167.579C215.497 166.933 216.322 166.646 216.894 166.634V166.631Z" fill="white"/>
<path d="M248.608 169.251V170.677H250.697C250.781 170.677 251.274 170.934 251.363 171.031C251.754 171.454 251.751 172.367 251.408 172.815C251.334 172.913 250.864 173.224 250.799 173.224H248.608V174.854C249.313 174.921 250.924 174.72 251.518 175.051C252.281 175.478 252.318 177.293 251.109 177.404C250.149 177.493 247.427 177.532 246.526 177.392C246.167 177.337 245.68 176.987 245.543 176.642L245.497 167.515C245.649 167.071 245.967 166.809 246.424 166.71L251.262 166.749C252.401 167.098 251.953 169.25 251.002 169.25H248.608V169.251Z" fill="white"/>
<defs>
<filter id="filter0_f_114_3739" x="0" y="0" width="352" height="352" filterUnits="userSpaceOnUse" color-interpolation-filters="sRGB">
<feFlood flood-opacity="0" result="BackgroundImageFix"/>
<feBlend mode="normal" in="SourceGraphic" in2="BackgroundImageFix" result="shape"/>
<feGaussianBlur stdDeviation="40" result="effect1_foregroundBlur_114_3739"/>
</filter>
</defs>
</svg>
