<svg width="35" height="46" viewBox="0 0 35 46" fill="none" xmlns="http://www.w3.org/2000/svg">
<path d="M2.87231 5.0733L26.155 27.9029V8.09487L26.2797 7.98296H31.9341L32.0588 8.09487V40.2876L8.69298 17.3834V37.3779H2.87231V5.0733Z" fill="white"/>
<path d="M0.627233 0L23.993 22.8296V6.04312H34.2208V26.1869H33.0567V7.08761H25.074V25.3662L1.70821 2.53662V16.0777C1.70821 16.1098 2.10984 16.3858 2.16971 16.5582C2.45409 17.3773 1.71487 18.057 0.788549 17.7981C0.116678 17.6101 -0.0803936 16.7715 0.375281 16.297C0.46758 16.2008 0.626401 16.2023 0.626401 16.1896V0H0.627233Z" fill="white"/>
<path d="M9.77396 19.92L33.0566 42.8242V30.626C33.0566 30.573 32.4687 30.2276 32.4812 29.7389C32.5161 28.3714 34.7903 28.5594 34.5492 29.9501C34.5076 30.1918 34.2208 30.3753 34.2208 30.4022V45.3608L10.8549 22.4566V39.3177H0.627197V20.9645H1.70818V38.4224C1.76888 38.4425 1.80796 38.3478 1.83291 38.3478H9.77396V19.92Z" fill="white"/>
</svg>
