<svg width="406" height="73" viewBox="0 0 406 73" fill="none" xmlns="http://www.w3.org/2000/svg">
<path d="M50.4663 55.6244L48.9036 55.4458C47.2882 55.5293 45.8459 56.4324 45.0527 57.7813C44.9345 57.9824 44.8305 58.1935 44.7427 58.4131C44.7419 58.4151 44.741 58.4168 44.7403 58.4188C44.7128 58.4876 44.6873 58.5575 44.663 58.6279C44.6612 58.6334 44.659 58.6387 44.6572 58.6442C44.6347 58.7102 44.6142 58.7771 44.5947 58.8444C44.5917 58.8546 44.5882 58.8646 44.5853 58.8749C44.5674 58.9381 44.5516 59.0024 44.5363 59.0667C44.5329 59.0813 44.5288 59.0955 44.5254 59.11C44.5114 59.1718 44.4994 59.2345 44.4878 59.2974C44.4845 59.3147 44.4805 59.3319 44.4775 59.3492C44.4714 59.3855 44.4669 59.4225 44.4616 59.459L53.8454 60.5313C54.0489 58.2791 52.5983 56.2363 50.4663 55.6244Z" fill="#231F20"/>
<path d="M87.9071 64.4375C87.9086 64.4183 87.9097 64.3993 87.9109 64.3803C87.9146 64.3196 87.9172 64.2592 87.9184 64.199C87.9188 64.1876 87.9193 64.1762 87.9194 64.165C87.9204 64.0955 87.9197 64.0265 87.9176 63.9576C87.917 63.9392 87.916 63.9208 87.9153 63.9024C87.9131 63.8473 87.9096 63.7923 87.9055 63.7376C87.9041 63.7207 87.9031 63.7037 87.9015 63.6869C87.8956 63.62 87.8881 63.5532 87.8794 63.487C87.8771 63.4697 87.8744 63.4526 87.8718 63.4355C87.8643 63.3835 87.8559 63.3319 87.8466 63.2804C87.8429 63.26 87.8394 63.2396 87.8354 63.2193C87.8231 63.1553 87.8096 63.0917 87.7946 63.0286C87.791 63.0133 87.7867 62.9982 87.7829 62.9829C87.7704 62.9329 87.7572 62.883 87.7431 62.8336C87.7365 62.8106 87.7299 62.7879 87.7231 62.7651C87.7081 62.7151 87.6921 62.6655 87.6755 62.6162C87.6681 62.5945 87.6607 62.5728 87.6531 62.5512C87.6352 62.5008 87.6164 62.4509 87.5967 62.401C87.5868 62.376 87.5767 62.3513 87.5663 62.3264C87.5503 62.2876 87.5335 62.2492 87.5164 62.2109C87.5062 62.1882 87.4964 62.1654 87.486 62.1429C87.4613 62.0899 87.4355 62.0377 87.4088 61.9857C87.3951 61.9589 87.3809 61.9326 87.3666 61.9063C87.3498 61.8751 87.3327 61.844 87.3152 61.8133C87.2999 61.7863 87.2848 61.7594 87.269 61.7328C87.2406 61.685 87.2114 61.6376 87.1814 61.5908C87.1633 61.5629 87.1446 61.5353 87.126 61.5077C87.1089 61.4823 87.0917 61.4572 87.0742 61.4321C87.0541 61.4034 87.0338 61.3747 87.0129 61.3464C86.9951 61.3222 86.9766 61.2984 86.9583 61.2744C86.9216 61.2265 86.884 61.1794 86.8457 61.1329C86.8291 61.1129 86.8126 61.093 86.7957 61.0732C86.7707 61.0442 86.7455 61.0154 86.7199 60.9869C86.704 60.9693 86.6878 60.9519 86.6717 60.9346C86.6238 60.8831 86.5749 60.8324 86.5247 60.783C86.5103 60.7687 86.4961 60.7545 86.4817 60.7404C86.4523 60.7123 86.4226 60.6846 86.3924 60.6572C86.3769 60.6428 86.3609 60.6287 86.345 60.6146C86.2772 60.5546 86.2081 60.4961 86.1369 60.4397C86.136 60.4389 86.135 60.4381 86.1341 60.4375C86.1009 60.4114 86.0672 60.386 86.0334 60.3608C86.0169 60.3485 86.0003 60.3361 85.9836 60.3242C85.9494 60.2994 85.9151 60.2746 85.8803 60.2508C85.4717 59.9709 85.0147 59.7529 84.521 59.6112L82.9583 59.4327C80.7398 59.5474 78.8477 61.2085 78.5162 63.4462L87.9 64.5184C87.9019 64.4912 87.9051 64.4642 87.9071 64.4375Z" fill="#231F20"/>
<path d="M88.7782 55.2236L84.459 53.5185L77.2065 47.1088C76.4046 46.4 75.4006 45.9543 74.3318 45.8323L46.2595 42.6266C44.6406 42.4418 43.1342 43.4845 42.7518 45.0548L40.5591 54.0591L40.1578 57.2613C39.8907 57.2308 39.6485 57.4206 39.617 57.6852L39.4383 59.1842C39.4067 59.4488 39.5978 59.6881 39.8648 59.7186L44.3428 60.2299L44.3487 60.1801L44.3883 60.1846C44.3861 59.9858 44.3953 59.785 44.4195 59.5822C44.7252 57.0185 47.0796 55.1732 49.6679 55.4688C52.2562 55.7643 54.1132 58.0906 53.8076 60.6543C53.8073 60.6563 53.8071 60.6584 53.8068 60.6604C53.7676 60.9855 53.9948 61.2816 54.3231 61.3191L77.8625 64.0071C78.1862 64.0441 78.4734 63.8106 78.5107 63.4898C78.5112 63.485 78.5118 63.4802 78.5124 63.4754C78.8181 60.9117 81.1723 59.0663 83.7606 59.3619C86.3489 59.6574 88.2058 61.9837 87.9001 64.5474C87.8995 64.5522 87.899 64.557 87.8984 64.5618C87.859 64.8823 88.0837 65.1743 88.4075 65.2112L90.0762 65.4018L90.8737 58.7129C91.0526 57.2125 90.1938 55.7823 88.7782 55.2236Z" fill="#F1F2F2"/>
<path d="M69.0543 47.5852L68.8347 52.2757C68.8146 52.7055 69.1328 53.0767 69.5637 53.1259L81.272 54.4626C81.876 54.5316 82.224 53.799 81.7847 53.3833L76.2151 48.1133C75.8045 47.7 75.2642 47.4372 74.6825 47.3681L69.982 46.8067C69.504 46.7494 69.0767 47.108 69.0543 47.5852Z" fill="#010101"/>
<path d="M39.8968 59.7238L44.3764 60.2352L44.3824 60.1853L44.422 60.1898C44.4198 59.9904 44.4291 59.789 44.4534 59.5855C44.5563 58.7225 44.8908 57.9413 45.3867 57.2943L40.2597 56.7089L40.1907 57.2587C39.9235 57.2282 39.6812 57.4187 39.6495 57.6841L39.4702 59.1878C39.4386 59.4534 39.6296 59.6933 39.8968 59.7238Z" fill="#D1D3D4"/>
<path d="M48.8892 62.2497C47.7477 62.1195 46.9319 61.0934 47.0673 59.9581C47.2027 58.8228 48.238 58.008 49.3796 58.1383C50.5212 58.2685 51.3369 59.2946 51.2015 60.4299C51.0661 61.5652 50.0308 62.38 48.8892 62.2497Z" fill="#231F20"/>
<path d="M49.8556 60.3069C49.8587 60.2906 49.8621 60.2743 49.8641 60.2578C49.883 60.1009 49.8454 59.951 49.7679 59.8267L50.7964 58.7708C50.6326 58.5838 50.4358 58.4246 50.2136 58.3022L49.4427 59.5571C49.3876 59.5354 49.3289 59.52 49.267 59.5132C49.1863 59.5043 49.1076 59.5104 49.0327 59.528L48.4757 58.1358C48.2292 58.2146 48 58.3352 47.7978 58.4903L48.6685 59.7472C48.5828 59.8458 48.5246 59.9697 48.5079 60.108C48.5061 60.1233 48.5056 60.1384 48.5048 60.1535L46.9504 60.3886C46.9718 60.646 47.0397 60.8923 47.1465 61.1183L48.6117 60.5519C48.68 60.6561 48.7775 60.7406 48.8941 60.7941L48.5109 62.2716C48.6282 62.3051 48.7496 62.3297 48.8753 62.3436C49.0063 62.3581 49.1359 62.3601 49.2633 62.352L49.3074 60.8456C49.438 60.8214 49.5569 60.7603 49.6516 60.6725L50.8745 61.4971C51.0254 61.3022 51.1441 61.0806 51.2221 60.8392L49.8556 60.3069Z" fill="#E6E7E8"/>
<path d="M49.3367 59.8628C49.328 59.9344 49.2616 59.9863 49.1885 59.9786C49.1155 59.9709 49.0633 59.9064 49.0721 59.8348C49.0808 59.7631 49.1472 59.7114 49.2202 59.7191C49.2932 59.7268 49.3455 59.7911 49.3367 59.8628Z" fill="#D1D3D4"/>
<path d="M49.2586 60.5303C49.2498 60.6019 49.1834 60.6538 49.1104 60.6461C49.0374 60.6383 48.9852 60.5739 48.9939 60.5023C49.0027 60.4307 49.0691 60.3788 49.1421 60.3866C49.2151 60.3943 49.2673 60.4587 49.2586 60.5303Z" fill="#D1D3D4"/>
<path d="M49.4834 60.3516C49.5564 60.3593 49.6227 60.3074 49.6315 60.2356C49.6402 60.1639 49.5881 60.0994 49.5151 60.0917C49.442 60.0839 49.3757 60.1358 49.367 60.2076C49.3582 60.2793 49.4103 60.3438 49.4834 60.3516Z" fill="#D1D3D4"/>
<path d="M48.8154 60.2734C48.7424 60.2657 48.6903 60.2011 48.699 60.1295C48.7077 60.0578 48.7741 60.0058 48.8471 60.0135C48.9201 60.0213 48.9723 60.0858 48.9635 60.1575C48.9548 60.2292 48.8884 60.2812 48.8154 60.2734Z" fill="#D1D3D4"/>
<path d="M49.5874 56.4704C47.5004 56.2446 45.6061 57.7282 45.3563 59.7843C45.1065 61.8403 46.5958 63.6901 48.6828 63.9159C50.7697 64.1417 52.664 62.6581 52.9138 60.602C53.1638 58.5462 51.6745 56.6962 49.5874 56.4704ZM48.8678 62.3927C47.6348 62.2593 46.7549 61.1665 46.9025 59.9518C47.0501 58.737 48.1693 57.8605 49.4023 57.9939C50.6353 58.1273 51.5152 59.2202 51.3676 60.4349C51.22 61.6496 50.1008 62.5262 48.8678 62.3927Z" fill="#75787A"/>
<path d="M49.4234 57.7738C48.0796 57.6204 46.861 58.5795 46.7016 59.9158C46.5423 61.2522 47.5024 62.4599 48.8462 62.6133C50.1899 62.7666 51.4085 61.8076 51.5679 60.4712C51.7274 59.1349 50.7673 57.9272 49.4234 57.7738ZM48.8896 62.2494C47.748 62.1192 46.9322 61.0931 47.0676 59.9578C47.203 58.8225 48.2383 58.0077 49.3799 58.138C50.5215 58.2682 51.3372 59.2943 51.2018 60.4296C51.0664 61.5649 50.0311 62.3797 48.8896 62.2494Z" fill="#D1D3D4"/>
<path d="M82.7857 66.217C81.6441 66.0867 80.8284 65.0607 80.9638 63.9254C81.0992 62.7901 82.1345 61.9753 83.2761 62.1055C84.4177 62.2358 85.2334 63.2619 85.098 64.3972C84.9626 65.5325 83.9273 66.3473 82.7857 66.217Z" fill="#231F20"/>
<path d="M83.7521 64.2746C83.7552 64.2584 83.7585 64.2421 83.7605 64.2255C83.7795 64.0686 83.7419 63.9187 83.6644 63.7945L84.6929 62.7386C84.5291 62.5516 84.3324 62.3924 84.1101 62.27L83.3392 63.5249C83.2841 63.5032 83.2254 63.4878 83.1635 63.481C83.0828 63.4721 83.0041 63.4781 82.9292 63.4957L82.372 62.1036C82.1255 62.1823 81.8963 62.3029 81.6943 62.4581L82.565 63.7149C82.4793 63.8136 82.4211 63.9375 82.4044 64.0758C82.4026 64.0911 82.4021 64.1061 82.4013 64.1213L80.8468 64.3564C80.8682 64.6138 80.9362 64.86 81.043 65.0861L82.5082 64.5196C82.5765 64.6239 82.674 64.7084 82.7906 64.7619L82.4074 66.2394C82.5247 66.2729 82.6461 66.2975 82.7718 66.3114C82.9028 66.3258 83.0325 66.3279 83.1598 66.3198L83.2039 64.8134C83.3345 64.7892 83.4533 64.7281 83.5481 64.6403L84.771 65.4649C84.9219 65.27 85.0406 65.0484 85.1186 64.807L83.7521 64.2746Z" fill="#E6E7E8"/>
<path d="M83.085 63.9464C83.1581 63.9541 83.2244 63.9023 83.2332 63.8306C83.2419 63.7589 83.1898 63.6946 83.1167 63.6869C83.0436 63.6791 82.9773 63.7309 82.9685 63.8026C82.9598 63.8743 83.012 63.9386 83.085 63.9464Z" fill="#D1D3D4"/>
<path d="M83.1551 64.4981C83.1463 64.5697 83.0799 64.6216 83.0069 64.6138C82.9339 64.6061 82.8817 64.5417 82.8904 64.4701C82.8992 64.3985 82.9656 64.3466 83.0386 64.3543C83.1116 64.3621 83.1638 64.4265 83.1551 64.4981Z" fill="#D1D3D4"/>
<path d="M83.3789 64.3198C83.3059 64.3121 83.2537 64.2475 83.2625 64.1758C83.2712 64.1041 83.3376 64.0522 83.4106 64.0599C83.4836 64.0677 83.5357 64.1322 83.527 64.2039C83.5183 64.2756 83.452 64.3276 83.3789 64.3198Z" fill="#D1D3D4"/>
<path d="M82.7119 64.2412C82.7849 64.249 82.8513 64.1971 82.86 64.1253C82.8688 64.0535 82.8166 63.9891 82.7436 63.9813C82.6705 63.9736 82.6042 64.0255 82.5955 64.0972C82.5867 64.169 82.6389 64.2334 82.7119 64.2412Z" fill="#D1D3D4"/>
<path d="M83.4839 60.4382C81.3969 60.2124 79.5026 61.696 79.2528 63.7521C79.003 65.8081 80.4923 67.6579 82.5792 67.8837C84.6662 68.1095 86.5605 66.6258 86.8103 64.5698C87.0603 62.514 85.5708 60.664 83.4839 60.4382ZM82.7643 66.3605C81.5313 66.2271 80.6514 65.1343 80.799 63.9195C80.9466 62.7048 82.0657 61.8283 83.2988 61.9617C84.5318 62.0951 85.4116 63.1879 85.264 64.4027C85.1165 65.6174 83.9973 66.4939 82.7643 66.3605Z" fill="#75787A"/>
<path d="M83.3198 61.7416C81.9761 61.5882 80.7575 62.5472 80.5981 63.8836C80.4387 65.22 81.3989 66.4277 82.7427 66.5811C84.0864 66.7344 85.3052 65.7754 85.4645 64.439C85.6239 63.1026 84.6638 61.8949 83.3198 61.7416ZM82.786 66.2172C81.6445 66.0869 80.8287 65.0609 80.9641 63.9256C81.0995 62.7902 82.1348 61.9754 83.2764 62.1057C84.418 62.236 85.2337 63.2621 85.0983 64.3974C84.9629 65.5327 83.9276 66.3475 82.786 66.2172Z" fill="#D1D3D4"/>
<path d="M53.4439 58.2853C53.7749 59.0189 53.9176 59.8455 53.8159 60.6989C53.8156 60.7009 53.8154 60.7031 53.8152 60.705C53.7762 61.0275 54.0037 61.3215 54.3318 61.359L77.8615 64.049C78.1851 64.0859 78.4719 63.8546 78.5088 63.5364C78.5094 63.5316 78.5099 63.5268 78.5105 63.5221C78.8135 60.979 81.1648 59.1507 83.752 59.4464C86.3392 59.7422 88.1974 62.0518 87.8944 64.5949C87.8938 64.5996 87.8932 64.6044 87.8927 64.6092C87.8536 64.9271 88.0785 65.217 88.4021 65.254L90.0701 65.4447L90.7708 59.5637C89.0694 59.2512 86.2211 58.7638 83.4003 58.4413C78.9625 57.934 77.8196 61.072 77.8196 61.072L60.1261 59.0492L53.4439 58.2853Z" fill="#545353"/>
<path d="M88.3901 65.3362L90.9089 65.6276C91.317 65.6748 91.6868 65.3834 91.7349 64.9766L92.1195 61.7236C92.1676 61.3168 91.8759 60.9488 91.4677 60.9016L85.873 60.2544C87.264 61.2129 88.0929 62.8872 87.8814 64.6762C87.8811 64.6782 87.8809 64.6802 87.8807 64.6822C87.842 65.0047 88.0663 65.2988 88.3901 65.3362Z" fill="#363434"/>
<path d="M40.1975 57.2117L40.1924 57.2535C39.9254 57.2226 39.6834 57.4133 39.6519 57.6794L39.4737 59.1872C39.4422 59.4532 39.6332 59.6941 39.9002 59.725L44.376 60.2428L44.382 60.1927L44.4216 60.1973C44.4193 59.9973 44.4284 59.7953 44.4526 59.5914C44.5308 58.9298 44.7445 58.3165 45.0618 57.7745L40.1975 57.2117Z" fill="#545353"/>
<path d="M82.0131 55.3223L80.8248 55.1867C80.6742 55.1695 80.5771 55.0206 80.6228 54.8769L81.1008 53.3711C81.1358 53.2611 81.2444 53.1909 81.3597 53.2041L82.2536 53.3061C82.9989 53.3912 83.5494 53.9115 83.483 54.4682C83.4166 55.025 82.7584 55.4074 82.0131 55.3223Z" fill="white"/>
<path d="M82.0857 54.7195L80.8981 54.5839C80.8349 54.5767 80.7812 54.546 80.7434 54.5024L80.6243 54.8775C80.5787 55.0208 80.6759 55.1694 80.8262 55.1865L82.0138 55.3221C82.7587 55.4071 83.4163 55.0258 83.4825 54.4704C83.4951 54.3654 83.4856 54.2617 83.4568 54.1619C83.2364 54.5507 82.6898 54.7884 82.0857 54.7195Z" fill="#D1D3D4"/>
<path d="M90.8481 58.797C90.9393 58.0264 90.7598 57.2741 90.3747 56.647L88.7285 56.4565C88.7285 56.4565 88.9046 58.6318 90.5187 58.9964C90.6218 59.0197 90.7211 59.0401 90.8173 59.058L90.8481 58.797Z" fill="#D1D3D4"/>
<path d="M90.5693 58.7128C89.5532 58.474 89.1914 57.3623 89.0703 56.7842L90.1988 56.9147C90.5017 57.4605 90.6322 58.0921 90.5693 58.7128Z" fill="white"/>
<path d="M75.7381 48.1995C75.4121 47.9444 75.0214 47.7802 74.6052 47.7308L73.7709 47.6312L70.4357 52.8435L72.608 53.0914L75.7381 48.1995Z" fill="#28211F"/>
<path d="M77.3834 49.7563L76.3191 48.7468L73.4703 53.1977L75.0641 53.3796L77.3834 49.7563Z" fill="#28211F"/>
<path d="M245.356 61.3331L243.786 61.4226C242.208 61.7792 240.94 62.9142 240.388 64.3783C240.305 64.5965 240.239 64.8222 240.189 65.0535C240.189 65.0556 240.189 65.0574 240.188 65.0595C240.173 65.132 240.159 65.2052 240.147 65.2787C240.147 65.2844 240.145 65.29 240.144 65.2957C240.134 65.3646 240.125 65.4341 240.117 65.5036C240.116 65.5142 240.114 65.5247 240.113 65.5353C240.106 65.6006 240.101 65.6667 240.097 65.7327C240.096 65.7476 240.095 65.7623 240.094 65.7772C240.09 65.8405 240.089 65.9043 240.089 65.9683C240.088 65.9859 240.087 66.0035 240.087 66.0211C240.087 66.0579 240.089 66.0951 240.09 66.132L249.52 65.5947C249.338 63.3407 247.561 61.574 245.356 61.3331Z" fill="#231F20"/>
<path d="M283.75 63.6587C283.748 63.6395 283.746 63.6206 283.744 63.6016C283.738 63.5412 283.73 63.4813 283.721 63.4217C283.719 63.4104 283.718 63.3991 283.716 63.388C283.705 63.3193 283.693 63.2514 283.679 63.184C283.675 63.1659 283.671 63.1479 283.667 63.1299C283.656 63.076 283.643 63.0224 283.63 62.9692C283.626 62.9527 283.622 62.9362 283.617 62.9199C283.6 62.855 283.581 62.7904 283.562 62.7266C283.556 62.71 283.551 62.6936 283.545 62.6772C283.529 62.6272 283.512 62.5779 283.494 62.5287C283.487 62.5092 283.48 62.4896 283.473 62.4703C283.45 62.4094 283.426 62.349 283.4 62.2894C283.394 62.2748 283.387 62.2607 283.381 62.2463C283.36 62.1991 283.339 62.1522 283.316 62.1059C283.306 62.0844 283.295 62.0631 283.285 62.0418C283.262 61.9951 283.237 61.9489 283.213 61.9031C283.202 61.883 283.191 61.8629 283.18 61.8429C283.153 61.7962 283.126 61.7503 283.099 61.7045C283.084 61.6815 283.07 61.6589 283.056 61.6361C283.033 61.6006 283.01 61.5656 282.987 61.5308C282.973 61.5102 282.96 61.4893 282.946 61.4689C282.912 61.4209 282.878 61.3739 282.843 61.3272C282.825 61.3031 282.806 61.2795 282.788 61.256C282.766 61.2281 282.744 61.2004 282.721 61.1731C282.702 61.1491 282.682 61.1251 282.662 61.1017C282.626 61.0594 282.589 61.0177 282.552 60.9766C282.529 60.9521 282.506 60.9282 282.483 60.9041C282.462 60.882 282.44 60.8601 282.419 60.8384C282.394 60.8136 282.369 60.7887 282.344 60.7644C282.322 60.7435 282.3 60.7232 282.278 60.7027C282.234 60.6617 282.189 60.6216 282.143 60.5824C282.123 60.5654 282.104 60.5487 282.084 60.5321C282.054 60.5076 282.024 60.4836 281.994 60.4598C281.976 60.4452 281.957 60.4309 281.938 60.4165C281.882 60.3739 281.825 60.3323 281.767 60.2921C281.751 60.2805 281.734 60.2688 281.718 60.2574C281.684 60.2347 281.65 60.2124 281.616 60.1906C281.598 60.1791 281.58 60.1679 281.562 60.1567C281.485 60.109 281.407 60.0631 281.327 60.0196C281.326 60.019 281.325 60.0184 281.324 60.018C281.286 59.9978 281.249 59.9786 281.211 59.9594C281.193 59.9501 281.175 59.9408 281.156 59.9318C281.118 59.9132 281.08 59.8946 281.042 59.8771C280.592 59.6706 280.104 59.5334 279.594 59.4777L278.023 59.5671C275.856 60.057 274.274 62.0154 274.327 64.2769L283.757 63.7396C283.754 63.7125 283.753 63.6853 283.75 63.6587Z" fill="#231F20"/>
<path d="M283.043 54.4304L278.497 53.4837L270.261 48.3991C269.351 47.8368 268.285 47.5681 267.211 47.6294L239.002 49.2386C237.376 49.3314 236.068 50.6148 235.958 52.2272L235.327 61.4732L235.475 64.697C235.207 64.7123 235 64.9405 235.014 65.2066L235.093 66.7142C235.107 66.9803 235.336 67.1836 235.604 67.1683L240.104 66.9116L240.101 66.8615L240.141 66.8592C240.105 66.6637 240.08 66.4643 240.069 66.2603C239.935 63.6819 241.942 61.4635 244.543 61.3152C247.144 61.1668 249.369 63.1438 249.503 65.7222C249.503 65.7242 249.503 65.7263 249.503 65.7283C249.52 66.0553 249.794 66.3086 250.124 66.2897L273.778 64.9404C274.103 64.9218 274.347 64.6429 274.329 64.3205C274.329 64.3156 274.328 64.3108 274.328 64.306C274.194 61.7276 276.2 59.5092 278.801 59.3608C281.402 59.2125 283.627 61.1895 283.761 63.7678C283.762 63.7727 283.762 63.7775 283.762 63.7823C283.778 64.1049 284.049 64.3544 284.374 64.3359L286.051 64.2402L285.701 57.5131C285.622 56.0041 284.533 54.7405 283.043 54.4304Z" fill="#F1F2F2"/>
<path d="M262.309 50.2534L262.889 54.9131C262.942 55.3401 263.319 55.6517 263.752 55.627L275.517 54.9556C276.124 54.921 276.342 54.14 275.839 53.8049L269.455 49.5575C268.98 49.22 268.403 49.0527 267.818 49.0834L263.09 49.3286C262.61 49.3534 262.25 49.7794 262.309 50.2534Z" fill="#010101"/>
<path d="M235.636 67.1679L240.138 66.9109L240.135 66.8607L240.175 66.8584C240.139 66.6623 240.114 66.4622 240.103 66.2576C240.058 65.3896 240.255 64.5629 240.634 63.8411L235.482 64.1351L235.507 64.6887C235.239 64.704 235.032 64.9329 235.046 65.1998L235.125 66.7121C235.139 66.9792 235.368 67.1832 235.636 67.1679Z" fill="#D1D3D4"/>
<path d="M244.928 68.1292C243.781 68.1947 242.803 67.3221 242.743 66.1803C242.684 65.0385 243.566 64.0597 244.713 63.9942C245.86 63.9287 246.838 64.8012 246.898 65.9431C246.957 67.0849 246.075 68.0637 244.928 68.1292Z" fill="#231F20"/>
<path d="M245.55 66.0508C245.55 66.0342 245.551 66.0176 245.55 66.0009C245.542 65.8431 245.479 65.7018 245.382 65.5925L246.216 64.3772C246.023 64.2208 245.802 64.0973 245.562 64.0144L245.016 65.382C244.958 65.37 244.897 65.3648 244.835 65.3686C244.754 65.3735 244.677 65.3929 244.607 65.4229L243.821 64.1456C243.592 64.2651 243.386 64.4229 243.213 64.6101L244.285 65.7008C244.217 65.8126 244.181 65.9445 244.188 66.0837C244.189 66.0991 244.191 66.114 244.193 66.1291L242.701 66.6248C242.765 66.8748 242.874 67.1059 243.018 67.3105L244.366 66.5035C244.451 66.5946 244.561 66.6613 244.685 66.6942L244.558 68.2154C244.68 68.2284 244.804 68.2321 244.93 68.2244C245.061 68.2164 245.189 68.1964 245.314 68.1668L245.101 66.6748C245.226 66.6287 245.332 66.5483 245.411 66.4458L246.756 67.0507C246.872 66.833 246.951 66.5944 246.987 66.3433L245.55 66.0508Z" fill="#E6E7E8"/>
<path d="M244.961 65.7011C244.965 65.7731 244.908 65.8355 244.835 65.8403C244.762 65.8451 244.699 65.7905 244.696 65.7184C244.692 65.6462 244.749 65.584 244.822 65.5792C244.895 65.5744 244.958 65.6289 244.961 65.7011Z" fill="#D1D3D4"/>
<path d="M244.998 66.372C245.001 66.444 244.944 66.5064 244.871 66.5112C244.798 66.516 244.736 66.4614 244.732 66.3893C244.728 66.3173 244.785 66.2549 244.858 66.2501C244.932 66.2453 244.994 66.3 244.998 66.372Z" fill="#D1D3D4"/>
<path d="M245.189 66.1576C245.262 66.1529 245.318 66.0905 245.315 66.0183C245.311 65.946 245.249 65.8914 245.176 65.8962C245.102 65.9009 245.046 65.9633 245.049 66.0355C245.053 66.1077 245.115 66.1624 245.189 66.1576Z" fill="#D1D3D4"/>
<path d="M244.518 66.1943C244.444 66.199 244.382 66.1443 244.379 66.0722C244.375 66 244.432 65.9375 244.505 65.9328C244.578 65.928 244.64 65.9827 244.644 66.0549C244.648 66.127 244.591 66.1895 244.518 66.1943Z" fill="#D1D3D4"/>
<path d="M244.633 62.3153C242.538 62.4472 240.923 64.2311 241.026 66.2997C241.129 68.3683 242.911 69.9382 245.006 69.8063C247.101 69.6743 248.716 67.8904 248.613 65.8219C248.51 63.7534 246.728 62.1833 244.633 62.3153ZM244.93 68.2738C243.692 68.3517 242.64 67.4242 242.579 66.2021C242.518 64.9799 243.472 63.926 244.71 63.8481C245.947 63.7701 247 64.6976 247.061 65.9198C247.122 67.1419 246.168 68.1958 244.93 68.2738Z" fill="#75787A"/>
<path d="M244.694 63.6279C243.344 63.7051 242.306 64.8572 242.376 66.2012C242.446 67.5452 243.597 68.5723 244.947 68.4952C246.297 68.4181 247.335 67.266 247.265 65.9219C247.196 64.5779 246.044 63.5508 244.694 63.6279ZM244.928 68.1292C243.781 68.1948 242.803 67.3222 242.743 66.1803C242.684 65.0385 243.566 64.0597 244.713 63.9942C245.86 63.9287 246.838 64.8013 246.898 65.9431C246.957 67.0849 246.075 68.0637 244.928 68.1292Z" fill="#D1D3D4"/>
<path d="M279.005 66.282C277.858 66.3475 276.88 65.475 276.82 64.3331C276.761 63.1913 277.643 62.2125 278.79 62.147C279.937 62.0815 280.915 62.9541 280.975 64.0959C281.034 65.2377 280.152 66.2165 279.005 66.282Z" fill="#231F20"/>
<path d="M279.627 64.2036C279.627 64.187 279.628 64.1704 279.627 64.1538C279.619 63.9959 279.556 63.8546 279.459 63.7453L280.293 62.5301C280.1 62.3736 279.879 62.2501 279.639 62.1672L279.093 63.5348C279.035 63.5228 278.974 63.5176 278.912 63.5214C278.831 63.5263 278.755 63.5457 278.684 63.5758L277.898 62.2985C277.669 62.4179 277.463 62.5757 277.291 62.7629L278.362 63.8536C278.294 63.9654 278.258 64.0974 278.265 64.2366C278.266 64.2519 278.268 64.2668 278.27 64.2819L276.778 64.7776C276.843 65.0276 276.951 65.2588 277.095 65.4634L278.443 64.6563C278.528 64.7474 278.638 64.8141 278.762 64.847L278.636 66.3682C278.757 66.3812 278.881 66.3849 279.007 66.3772C279.138 66.3692 279.267 66.3492 279.391 66.3196L279.178 64.8276C279.303 64.7816 279.41 64.7012 279.488 64.5986L280.833 65.2035C280.949 64.9858 281.028 64.7472 281.064 64.4961L279.627 64.2036Z" fill="#E6E7E8"/>
<path d="M278.912 63.9932C278.986 63.9884 279.042 63.926 279.039 63.8539C279.035 63.7818 278.973 63.7273 278.899 63.732C278.826 63.7368 278.769 63.7992 278.773 63.8713C278.777 63.9434 278.839 63.9979 278.912 63.9932Z" fill="#D1D3D4"/>
<path d="M279.075 64.5248C279.078 64.5969 279.022 64.6593 278.948 64.6641C278.875 64.6688 278.813 64.6142 278.809 64.5422C278.806 64.4701 278.862 64.4077 278.936 64.4029C279.009 64.3982 279.071 64.4528 279.075 64.5248Z" fill="#D1D3D4"/>
<path d="M279.266 64.311C279.193 64.3157 279.13 64.261 279.127 64.1889C279.123 64.1167 279.18 64.0542 279.253 64.0495C279.326 64.0447 279.388 64.0994 279.392 64.1716C279.396 64.2437 279.339 64.3062 279.266 64.311Z" fill="#D1D3D4"/>
<path d="M278.595 64.3471C278.668 64.3423 278.725 64.2799 278.721 64.2077C278.718 64.1355 278.655 64.0808 278.582 64.0856C278.509 64.0904 278.452 64.1528 278.456 64.225C278.459 64.2972 278.522 64.3519 278.595 64.3471Z" fill="#D1D3D4"/>
<path d="M278.71 60.4681C276.615 60.6001 275.001 62.3839 275.104 64.4525C275.207 66.5211 276.989 68.091 279.084 67.9591C281.179 67.8271 282.793 66.0433 282.69 63.9747C282.587 61.9063 280.805 60.3362 278.71 60.4681ZM279.007 66.4266C277.769 66.5046 276.717 65.5771 276.656 64.3549C276.595 63.1328 277.549 62.0789 278.787 62.0009C280.024 61.923 281.077 62.8505 281.138 64.0726C281.199 65.2948 280.245 66.3487 279.007 66.4266Z" fill="#75787A"/>
<path d="M278.771 61.7808C277.421 61.8579 276.383 63.01 276.453 64.354C276.523 65.698 277.674 66.7251 279.024 66.648C280.375 66.5709 281.413 65.4188 281.343 64.0748C281.273 62.7307 280.122 61.7037 278.771 61.7808ZM279.005 66.2821C277.858 66.3476 276.88 65.475 276.821 64.3332C276.761 63.1914 277.643 62.2126 278.79 62.147C279.937 62.0815 280.915 62.9541 280.975 64.0959C281.034 65.2377 280.152 66.2166 279.005 66.2821Z" fill="#D1D3D4"/>
<path d="M248.743 63.4492C249.194 64.1159 249.475 64.9063 249.52 65.7646C249.52 65.7666 249.52 65.7687 249.52 65.7707C249.537 66.0951 249.811 66.3462 250.14 66.3274L273.785 64.9816C274.11 64.9631 274.354 64.6864 274.336 64.3665C274.336 64.3618 274.335 64.357 274.335 64.3522C274.202 61.7946 276.208 59.5934 278.808 59.4454C281.408 59.2975 283.632 61.2579 283.765 63.8155C283.765 63.8202 283.765 63.825 283.766 63.8298C283.781 64.1498 284.052 64.3973 284.377 64.3787L286.053 64.2833L285.745 58.3688C284.015 58.3498 281.125 58.3533 278.291 58.5146C273.831 58.7685 273.238 62.055 273.238 62.055L255.458 63.067L248.743 63.4492Z" fill="#545353"/>
<path d="M284.379 64.4618L286.91 64.3211C287.321 64.2983 287.636 63.9484 287.614 63.5393L287.44 60.2682C287.419 59.8591 287.069 59.5461 286.658 59.5689L281.035 59.8813C282.569 60.5896 283.67 62.0988 283.765 63.8978C283.765 63.8998 283.766 63.9018 283.766 63.9038C283.782 64.2282 284.053 64.4799 284.379 64.4618Z" fill="#363434"/>
<path d="M235.507 64.641L235.509 64.683C235.24 64.6979 235.034 64.927 235.048 65.1945L235.129 66.7106C235.143 66.9782 235.372 67.1831 235.64 67.1682L240.139 66.9182L240.137 66.8678L240.176 66.8656C240.14 66.669 240.115 66.4684 240.104 66.2633C240.069 65.5981 240.175 64.9574 240.396 64.3693L235.507 64.641Z" fill="#545353"/>
<path d="M276.393 55.6768L275.199 55.7449C275.048 55.7536 274.927 55.6234 274.948 55.474L275.163 53.9089C275.179 53.7945 275.274 53.7069 275.39 53.7003L276.288 53.649C277.037 53.6062 277.668 54.0255 277.697 54.5854C277.726 55.1454 277.142 55.634 276.393 55.6768Z" fill="white"/>
<path d="M276.363 55.0705L275.17 55.1386C275.106 55.1422 275.048 55.1211 275.003 55.0845L274.95 55.4744C274.929 55.6234 275.05 55.7533 275.201 55.7447L276.394 55.6766C277.143 55.6338 277.726 55.1463 277.697 54.5877C277.692 54.4822 277.665 54.3815 277.619 54.2881C277.468 54.7087 276.97 55.0358 276.363 55.0705Z" fill="#D1D3D4"/>
<path d="M285.69 57.6002C285.649 56.8253 285.345 56.1145 284.859 55.5619L283.204 55.6538C283.204 55.6538 283.747 57.7675 285.4 57.8527C285.505 57.8581 285.607 57.8614 285.704 57.8627L285.69 57.6002Z" fill="#D1D3D4"/>
<path d="M285.401 57.5645C284.36 57.5017 283.814 56.4676 283.597 55.9185L284.731 55.8554C285.122 56.3419 285.358 56.9421 285.401 57.5645Z" fill="white"/>
<path d="M269 49.7232C268.635 49.5271 268.222 49.4316 267.804 49.4537L266.965 49.4972L264.563 55.2003L266.746 55.0756L269 49.7232Z" fill="#28211F"/>
<path d="M270.885 50.9782L269.665 50.1642L267.614 55.0342L269.215 54.9428L270.885 50.9782Z" fill="#28211F"/>
<path d="M402 57C402 57 160.639 90.75 1 57" stroke="white"/>
<path d="M391.173 51.9546C381.281 35.1856 366.931 1.5658 388.665 1.2389C410.399 0.912008 399.393 34.9131 391.173 51.9546Z" fill="white" stroke="white"/>
<circle cx="388.845" cy="12.931" r="8.22221" transform="rotate(-5.92532 388.845 12.931)" fill="black"/>
</svg>
