<svg width="406" height="124" viewBox="0 0 406 124" fill="none" xmlns="http://www.w3.org/2000/svg">
<path d="M402 108C402 108 160.639 141.75 1 108" stroke="white"/>
<path d="M190.526 97.0518L190 99.6813L198.414 98.6295L195.785 96L190.526 97.0518Z" fill="#00A0D4"/>
<path d="M187.4 111.736L185.909 111.917C184.429 112.354 183.296 113.519 182.866 114.957C182.802 115.171 182.753 115.392 182.721 115.616C182.721 115.618 182.721 115.62 182.721 115.622C182.711 115.693 182.703 115.764 182.696 115.835C182.696 115.84 182.695 115.846 182.695 115.851C182.689 115.918 182.685 115.985 182.682 116.052C182.682 116.063 182.681 116.073 182.68 116.083C182.678 116.146 182.678 116.21 182.678 116.273C182.678 116.288 182.678 116.302 182.678 116.316C182.679 116.377 182.682 116.438 182.686 116.5C182.687 116.517 182.687 116.534 182.688 116.551C182.69 116.586 182.695 116.621 182.698 116.657L191.65 115.573C191.328 113.422 189.518 111.834 187.4 111.736Z" fill="#231F20"/>
<path d="M224.193 111.472C224.19 111.454 224.187 111.436 224.184 111.418C224.173 111.36 224.162 111.303 224.149 111.246C224.147 111.235 224.144 111.224 224.142 111.214C224.127 111.148 224.11 111.084 224.092 111.02C224.087 111.002 224.082 110.985 224.077 110.968C224.062 110.917 224.046 110.866 224.03 110.816C224.025 110.8 224.02 110.785 224.014 110.769C223.993 110.708 223.971 110.647 223.947 110.587C223.941 110.571 223.934 110.555 223.928 110.54C223.908 110.493 223.888 110.446 223.868 110.4C223.859 110.382 223.851 110.363 223.843 110.345C223.816 110.288 223.788 110.231 223.759 110.176C223.752 110.162 223.745 110.149 223.738 110.135C223.714 110.091 223.69 110.047 223.665 110.004C223.653 109.984 223.642 109.964 223.63 109.944C223.604 109.901 223.577 109.858 223.55 109.816C223.538 109.797 223.525 109.778 223.513 109.76C223.484 109.716 223.455 109.674 223.424 109.631C223.409 109.61 223.394 109.589 223.378 109.568C223.354 109.536 223.329 109.503 223.303 109.471C223.288 109.452 223.274 109.433 223.258 109.414C223.223 109.37 223.186 109.327 223.148 109.284C223.129 109.262 223.109 109.241 223.089 109.219C223.066 109.194 223.042 109.169 223.018 109.144C222.997 109.122 222.977 109.1 222.955 109.079C222.917 109.04 222.878 109.002 222.839 108.965C222.815 108.943 222.79 108.921 222.766 108.9C222.744 108.88 222.722 108.86 222.699 108.841C222.673 108.818 222.647 108.796 222.62 108.774C222.598 108.755 222.574 108.737 222.551 108.719C222.505 108.682 222.458 108.646 222.411 108.612C222.39 108.596 222.37 108.582 222.349 108.567C222.318 108.545 222.287 108.524 222.256 108.503C222.237 108.49 222.217 108.477 222.198 108.465C222.14 108.427 222.081 108.391 222.022 108.356C222.005 108.346 221.988 108.336 221.971 108.326C221.936 108.306 221.901 108.287 221.866 108.268C221.847 108.258 221.829 108.248 221.81 108.239C221.731 108.198 221.652 108.158 221.57 108.122C221.569 108.121 221.568 108.121 221.567 108.12C221.529 108.103 221.491 108.087 221.453 108.071C221.434 108.063 221.415 108.055 221.396 108.048C221.358 108.032 221.319 108.017 221.28 108.002C220.824 107.832 220.335 107.731 219.828 107.71L218.288 107.897C216.186 108.507 214.755 110.495 214.954 112.67L224.205 111.55C224.201 111.524 224.197 111.498 224.193 111.472Z" fill="#231F20"/>
<path d="M222.899 102.829L218.502 102.193L210.312 97.8014C209.406 97.3158 208.373 97.1217 207.353 97.2452L180.563 100.49C179.019 100.677 177.857 101.989 177.859 103.545L177.871 112.47L178.227 115.559C177.972 115.59 177.79 115.822 177.821 116.077L177.996 117.521C178.027 117.776 178.258 117.958 178.513 117.927L182.787 117.409L182.781 117.361L182.819 117.357C182.771 117.171 182.734 116.981 182.711 116.785C182.411 114.315 184.178 112.062 186.648 111.763C189.118 111.464 191.37 113.23 191.67 115.7C191.67 115.702 191.67 115.704 191.67 115.706C191.708 116.019 191.986 116.246 192.299 116.208L214.763 113.488C215.072 113.45 215.286 113.168 215.247 112.859C215.247 112.854 215.246 112.849 215.245 112.845C214.946 110.375 216.712 108.122 219.182 107.823C221.652 107.524 223.905 109.29 224.204 111.76C224.205 111.764 224.205 111.769 224.206 111.774C224.242 112.083 224.517 112.306 224.826 112.269L226.419 112.076L225.638 105.632C225.463 104.186 224.341 103.037 222.899 102.829Z" fill="#F1F2F2"/>
<path d="M202.87 100.072L203.732 104.509C203.811 104.915 204.191 105.192 204.602 105.142L215.771 103.789C216.347 103.719 216.504 102.957 216.002 102.666L209.636 98.9744C209.161 98.6791 208.6 98.5533 208.044 98.618L203.554 99.138C203.098 99.1907 202.783 99.6212 202.87 100.072Z" fill="#010101"/>
<path d="M181.275 107.691C181.008 107.723 180.759 107.542 180.708 107.278L179.846 102.841C179.818 102.699 179.85 102.557 179.935 102.44C180.02 102.323 180.146 102.249 180.29 102.232L199.82 99.8803C200.292 99.8233 200.728 100.146 200.811 100.615L201.466 104.291C201.509 104.536 201.452 104.782 201.303 104.982C201.155 105.183 200.937 105.31 200.689 105.34L181.275 107.691Z" fill="#F1F2F2"/>
<path d="M178.514 117.927L182.787 117.409L182.781 117.361L182.819 117.356C182.772 117.171 182.734 116.98 182.711 116.785C182.61 115.956 182.743 115.152 183.057 114.438L178.166 115.03L178.227 115.559C177.972 115.59 177.79 115.822 177.821 116.076L177.996 117.521C178.027 117.776 178.259 117.957 178.514 117.927Z" fill="#D1D3D4"/>
<path d="M187.433 118.259C186.346 118.391 185.357 117.616 185.225 116.528C185.093 115.44 185.868 114.451 186.956 114.32C188.044 114.188 189.033 114.963 189.165 116.051C189.297 117.139 188.521 118.128 187.433 118.259Z" fill="#231F20"/>
<path d="M187.888 116.238C187.887 116.222 187.886 116.206 187.884 116.19C187.866 116.039 187.797 115.907 187.697 115.807L188.408 114.594C188.213 114.455 187.995 114.349 187.761 114.283L187.334 115.626C187.278 115.618 187.22 115.616 187.162 115.623C187.085 115.633 187.013 115.656 186.948 115.688L186.114 114.507C185.904 114.634 185.719 114.797 185.568 114.987L186.661 115.973C186.604 116.084 186.579 116.213 186.595 116.346C186.597 116.361 186.6 116.375 186.602 116.389L185.217 116.949C185.296 117.186 185.415 117.401 185.565 117.59L186.792 116.739C186.879 116.822 186.989 116.879 187.109 116.904L187.092 118.371C187.208 118.377 187.326 118.373 187.446 118.359C187.57 118.344 187.691 118.317 187.807 118.282L187.503 116.862C187.619 116.811 187.715 116.728 187.782 116.625L189.103 117.13C189.198 116.914 189.257 116.681 189.274 116.438L187.888 116.238Z" fill="#E6E7E8"/>
<path d="M187.305 115.938C187.313 116.007 187.264 116.07 187.195 116.078C187.126 116.087 187.064 116.038 187.055 115.969C187.047 115.9 187.096 115.837 187.165 115.829C187.234 115.82 187.297 115.869 187.305 115.938Z" fill="#D1D3D4"/>
<path d="M187.382 116.576C187.39 116.645 187.341 116.708 187.272 116.716C187.203 116.724 187.141 116.675 187.132 116.606C187.124 116.537 187.173 116.475 187.242 116.466C187.311 116.458 187.374 116.507 187.382 116.576Z" fill="#D1D3D4"/>
<path d="M187.553 116.359C187.622 116.35 187.671 116.288 187.662 116.219C187.654 116.15 187.591 116.101 187.522 116.109C187.453 116.117 187.404 116.18 187.413 116.249C187.421 116.318 187.484 116.367 187.553 116.359Z" fill="#D1D3D4"/>
<path d="M186.915 116.436C186.846 116.444 186.783 116.395 186.775 116.326C186.767 116.257 186.816 116.194 186.885 116.186C186.954 116.178 187.016 116.227 187.025 116.296C187.033 116.365 186.984 116.427 186.915 116.436Z" fill="#D1D3D4"/>
<path d="M186.76 112.699C184.777 112.939 183.365 114.741 183.605 116.724C183.845 118.707 185.647 120.12 187.63 119.88C189.613 119.639 191.026 117.837 190.785 115.854C190.545 113.872 188.743 112.459 186.76 112.699ZM187.452 118.411C186.28 118.553 185.216 117.718 185.074 116.546C184.932 115.375 185.767 114.31 186.938 114.168C188.11 114.026 189.174 114.861 189.316 116.033C189.458 117.204 188.624 118.269 187.452 118.411Z" fill="#75787A"/>
<path d="M186.915 113.97C185.634 114.125 184.721 115.289 184.877 116.57C185.032 117.85 186.196 118.763 187.476 118.608C188.757 118.453 189.669 117.289 189.514 116.008C189.359 114.727 188.195 113.815 186.915 113.97ZM187.434 118.259C186.346 118.391 185.357 117.616 185.225 116.528C185.094 115.44 185.869 114.451 186.957 114.319C188.045 114.187 189.034 114.963 189.165 116.051C189.297 117.138 188.522 118.127 187.434 118.259Z" fill="#D1D3D4"/>
<path d="M219.817 114.338C218.729 114.469 217.74 113.694 217.609 112.606C217.477 111.518 218.252 110.529 219.34 110.398C220.428 110.266 221.417 111.041 221.549 112.129C221.68 113.217 220.905 114.206 219.817 114.338Z" fill="#231F20"/>
<path d="M220.272 112.316C220.272 112.3 220.271 112.284 220.269 112.268C220.251 112.117 220.182 111.985 220.082 111.886L220.792 110.672C220.598 110.533 220.38 110.427 220.146 110.361L219.719 111.704C219.663 111.696 219.605 111.694 219.546 111.702C219.47 111.711 219.398 111.734 219.333 111.767L218.499 110.585C218.289 110.713 218.104 110.876 217.953 111.065L219.046 112.051C218.989 112.162 218.963 112.291 218.979 112.424C218.981 112.439 218.984 112.453 218.987 112.468L217.602 113.027C217.68 113.264 217.8 113.479 217.95 113.668L219.177 112.817C219.264 112.9 219.374 112.958 219.494 112.982L219.477 114.449C219.593 114.455 219.711 114.451 219.83 114.437C219.955 114.422 220.075 114.396 220.191 114.36L219.888 112.94C220.003 112.889 220.099 112.806 220.167 112.703L221.488 113.208C221.583 112.992 221.642 112.759 221.659 112.516L220.272 112.316Z" fill="#E6E7E8"/>
<path d="M219.58 112.157C219.649 112.148 219.698 112.085 219.69 112.017C219.681 111.948 219.619 111.898 219.55 111.907C219.481 111.915 219.432 111.978 219.44 112.047C219.448 112.116 219.511 112.165 219.58 112.157Z" fill="#D1D3D4"/>
<path d="M219.767 112.654C219.775 112.723 219.726 112.786 219.657 112.794C219.588 112.803 219.525 112.753 219.517 112.684C219.509 112.616 219.558 112.553 219.627 112.544C219.696 112.536 219.759 112.585 219.767 112.654Z" fill="#D1D3D4"/>
<path d="M219.938 112.437C219.869 112.445 219.807 112.396 219.798 112.327C219.79 112.258 219.839 112.195 219.908 112.187C219.977 112.179 220.04 112.228 220.048 112.297C220.056 112.366 220.007 112.428 219.938 112.437Z" fill="#D1D3D4"/>
<path d="M219.301 112.514C219.37 112.506 219.419 112.443 219.41 112.374C219.402 112.305 219.339 112.256 219.27 112.264C219.201 112.273 219.152 112.335 219.161 112.404C219.169 112.473 219.232 112.522 219.301 112.514Z" fill="#D1D3D4"/>
<path d="M219.144 108.777C217.161 109.017 215.748 110.819 215.989 112.802C216.229 114.785 218.031 116.198 220.014 115.958C221.997 115.718 223.409 113.915 223.169 111.933C222.929 109.95 221.127 108.537 219.144 108.777ZM219.836 114.489C218.664 114.631 217.6 113.796 217.458 112.624C217.316 111.453 218.15 110.388 219.322 110.246C220.494 110.104 221.558 110.939 221.7 112.111C221.842 113.282 221.007 114.347 219.836 114.489Z" fill="#75787A"/>
<path d="M219.298 110.048C218.018 110.203 217.105 111.367 217.26 112.648C217.415 113.929 218.579 114.841 219.86 114.686C221.141 114.531 222.053 113.367 221.898 112.086C221.743 110.806 220.579 109.893 219.298 110.048ZM219.818 114.337C218.73 114.469 217.741 113.694 217.609 112.606C217.477 111.518 218.253 110.529 219.341 110.397C220.429 110.265 221.417 111.041 221.549 112.129C221.681 113.217 220.906 114.205 219.818 114.337Z" fill="#D1D3D4"/>
<path d="M190.773 113.503C191.248 114.122 191.569 114.871 191.669 115.7C191.67 115.702 191.67 115.704 191.67 115.706C191.707 116.019 191.986 116.246 192.299 116.208L214.763 113.487C215.072 113.45 215.285 113.167 215.247 112.859C215.246 112.854 215.246 112.849 215.245 112.845C214.946 110.375 216.712 108.122 219.182 107.823C221.652 107.523 223.905 109.29 224.204 111.76C224.205 111.764 224.205 111.769 224.206 111.774C224.242 112.083 224.517 112.306 224.826 112.269L226.418 112.076L225.727 106.364C224.075 106.449 221.319 106.626 218.626 106.952C214.389 107.465 214.044 110.685 214.044 110.685L197.152 112.731L190.773 113.503Z" fill="#545353"/>
<path d="M224.825 112.261L227.229 111.97C227.618 111.922 227.896 111.568 227.848 111.179L227.471 108.064C227.424 107.675 227.07 107.398 226.681 107.445L221.342 108.091C222.849 108.673 223.997 110.047 224.204 111.76C224.204 111.762 224.204 111.764 224.205 111.765C224.242 112.074 224.516 112.298 224.825 112.261Z" fill="#545353"/>
<path d="M178.222 115.519L178.227 115.559C177.972 115.59 177.791 115.822 177.821 116.077L177.996 117.521C178.027 117.776 178.259 117.958 178.514 117.927L182.787 117.409L182.781 117.361L182.819 117.357C182.772 117.171 182.735 116.981 182.711 116.785C182.634 116.152 182.694 115.533 182.867 114.957L178.222 115.519Z" fill="#545353"/>
<path d="M216.652 104.388L215.519 104.526C215.375 104.543 215.252 104.426 215.261 104.281L215.363 102.77C215.371 102.659 215.455 102.57 215.565 102.556L216.417 102.453C217.128 102.367 217.757 102.731 217.821 103.265C217.886 103.799 217.362 104.302 216.652 104.388Z" fill="white"/>
<path d="M216.582 103.809L215.449 103.946C215.388 103.953 215.332 103.936 215.287 103.904L215.261 104.281C215.251 104.426 215.375 104.543 215.519 104.526L216.652 104.388C217.362 104.302 217.886 103.799 217.821 103.265C217.809 103.164 217.777 103.069 217.727 102.982C217.611 103.395 217.158 103.739 216.582 103.809Z" fill="#D1D3D4"/>
<path d="M225.639 105.631C225.549 104.894 225.213 104.234 224.714 103.737L223.144 103.927C223.144 103.927 223.798 105.911 225.378 105.891C225.479 105.889 225.576 105.886 225.669 105.881L225.639 105.631Z" fill="#D1D3D4"/>
<path d="M225.359 105.617C224.363 105.621 223.777 104.667 223.534 104.156L224.61 104.025C225.014 104.466 225.278 105.025 225.359 105.617Z" fill="white"/>
<path d="M209.21 99.1765C208.85 99.0111 208.451 98.9447 208.054 98.991L207.258 99.0832L205.348 104.677L207.418 104.427L209.21 99.1765Z" fill="#28211F"/>
<path d="M211.09 100.254L209.876 99.5502L208.245 104.326L209.762 104.143L211.09 100.254Z" fill="#28211F"/>
<g filter="url(#filter0_f_525_1378)">
<path d="M246.807 4L195.229 95.5069L197.332 98.1365L312.505 45.73L246.807 4Z" fill="url(#paint0_linear_525_1378)"/>
</g>
<g filter="url(#filter1_f_525_1378)">
<path d="M114.631 4L190.496 96.0182L187.402 98.6624L18.0002 45.9631L114.631 4Z" fill="url(#paint1_linear_525_1378)"/>
</g>
<line x1="151.203" y1="99.2379" x2="174.343" y2="106.601" stroke="white"/>
<line x1="149.52" y1="107.083" x2="173.708" y2="109.229" stroke="white"/>
<line x1="149.976" y1="114.321" x2="174.095" y2="111.503" stroke="white"/>
<rect x="190.45" y="101.711" width="3.14474" height="9.43422" transform="rotate(-8.64681 190.45 101.711)" fill="#02A4D1"/>
<rect x="197.141" y="103.875" width="3.14474" height="9.43422" transform="rotate(81.3532 197.141 103.875)" fill="#02A4D1"/>
<path d="M391.173 102.955C381.281 86.1856 366.931 52.5658 388.665 52.2389C410.399 51.912 399.393 85.9131 391.173 102.955Z" fill="white" stroke="white"/>
<circle cx="388.845" cy="63.931" r="8.22221" transform="rotate(-5.92532 388.845 63.931)" fill="black"/>
<defs>
<filter id="filter0_f_525_1378" x="191.229" y="0" width="125.276" height="102.136" filterUnits="userSpaceOnUse" color-interpolation-filters="sRGB">
<feFlood flood-opacity="0" result="BackgroundImageFix"/>
<feBlend mode="normal" in="SourceGraphic" in2="BackgroundImageFix" result="shape"/>
<feGaussianBlur stdDeviation="2" result="effect1_foregroundBlur_525_1378"/>
</filter>
<filter id="filter1_f_525_1378" x="14" y="0" width="180.496" height="102.663" filterUnits="userSpaceOnUse" color-interpolation-filters="sRGB">
<feFlood flood-opacity="0" result="BackgroundImageFix"/>
<feBlend mode="normal" in="SourceGraphic" in2="BackgroundImageFix" result="shape"/>
<feGaussianBlur stdDeviation="2" result="effect1_foregroundBlur_525_1378"/>
</filter>
<linearGradient id="paint0_linear_525_1378" x1="195.772" y1="97.6106" x2="281.581" y2="18.2931" gradientUnits="userSpaceOnUse">
<stop offset="0.0464299" stop-color="#00A1D4"/>
<stop offset="0.95219" stop-color="#00546E" stop-opacity="0"/>
</linearGradient>
<linearGradient id="paint1_linear_525_1378" x1="189.697" y1="98.1335" x2="106.935" y2="-13.7635" gradientUnits="userSpaceOnUse">
<stop offset="0.0464299" stop-color="#03C7FD"/>
<stop offset="0.95219" stop-color="#00546E" stop-opacity="0"/>
</linearGradient>
</defs>
</svg>
