<svg width="406" height="73" viewBox="0 0 406 73" fill="none" xmlns="http://www.w3.org/2000/svg">
<path d="M402 57C402 57 160.639 90.75 1 57" stroke="white"/>
<path d="M391.173 51.9546C381.281 35.1856 366.931 1.5658 388.665 1.2389C410.399 0.912007 399.393 34.9131 391.173 51.9546Z" fill="white" stroke="white"/>
<circle cx="388.845" cy="12.931" r="8.22221" transform="rotate(-5.92532 388.845 12.931)" fill="black"/>
<rect width="7.40704" height="2.0471" transform="matrix(0.998154 -0.0351305 0.0222437 0.998724 271.745 59.6445)" fill="#545353"/>
<path d="M249.23 50.4725C249.337 49.4711 250.169 48.6935 251.174 48.6566L270.985 47.9299C271.989 47.8931 272.852 48.6085 273.001 49.6005L274.871 62.0746C275.049 63.2634 274.141 64.355 272.938 64.3991L249.911 65.2438C248.708 65.2879 247.756 64.2645 247.884 63.0645L249.23 50.4725Z" fill="#F1F2F2"/>
<path d="M261 67.7914C259.817 67.8535 258.851 67.0074 258.844 65.9016C258.836 64.7959 259.788 63.8491 260.972 63.7869C262.155 63.7248 263.121 64.5709 263.129 65.6767C263.137 66.7824 262.184 67.7292 261 67.7914Z" fill="#231F20"/>
<path d="M261.752 65.7738C261.753 65.7581 261.755 65.7423 261.755 65.7265C261.755 65.5767 261.698 65.4434 261.603 65.341L262.543 64.1759C262.35 64.03 262.127 63.9158 261.881 63.8404L261.232 65.1463C261.172 65.1357 261.109 65.1316 261.044 65.136C260.959 65.1418 260.878 65.1613 260.803 65.1908L260.056 63.989C259.809 64.1055 259.586 64.2582 259.394 64.4383L260.451 65.459C260.374 65.566 260.328 65.6918 260.328 65.8238C260.328 65.8384 260.329 65.8525 260.33 65.8668L258.744 66.3579C258.797 66.5944 258.898 66.8123 259.036 67.0046L260.489 66.2199C260.573 66.3052 260.684 66.367 260.812 66.3966L260.593 67.8424C260.719 67.8531 260.848 67.8549 260.98 67.8459C261.118 67.8365 261.253 67.8157 261.384 67.7859L261.248 66.3724C261.38 66.327 261.496 66.2492 261.584 66.1507L262.954 66.7064C263.087 66.4982 263.184 66.2706 263.236 66.0317L261.752 65.7738Z" fill="#E6E7E8"/>
<path d="M261.143 65.4291C261.143 65.4979 261.08 65.5581 261.004 65.5634C260.927 65.5688 260.865 65.5172 260.865 65.4484C260.866 65.3795 260.928 65.3194 261.005 65.3141C261.082 65.3087 261.144 65.3601 261.143 65.4291Z" fill="#D1D3D4"/>
<path d="M261.163 66.1005C261.162 66.1693 261.1 66.2295 261.023 66.2348C260.947 66.2402 260.885 66.1886 260.885 66.1198C260.885 66.051 260.948 65.9908 261.025 65.9854C261.101 65.9801 261.163 66.0317 261.163 66.1005Z" fill="#D1D3D4"/>
<path d="M261.349 65.8898C261.426 65.8847 261.488 65.8245 261.488 65.7554C261.489 65.6863 261.427 65.6345 261.35 65.6396C261.274 65.6448 261.212 65.7049 261.211 65.774C261.211 65.8431 261.273 65.895 261.349 65.8898Z" fill="#D1D3D4"/>
<path d="M260.678 65.9093C260.601 65.9145 260.539 65.8626 260.54 65.7936C260.54 65.7245 260.602 65.6643 260.679 65.6591C260.755 65.654 260.817 65.7059 260.817 65.7749C260.816 65.844 260.754 65.9042 260.678 65.9093Z" fill="#D1D3D4"/>
<path d="M261.013 62.2466C258.809 62.4052 257.011 64.1197 256.996 66.0762C256.982 68.0327 258.757 69.4902 260.961 69.3316C263.165 69.1731 264.963 67.4585 264.978 65.5021C264.992 63.5457 263.217 62.0881 261.013 62.2466ZM260.972 67.8822C259.669 67.9759 258.621 67.1148 258.629 65.9589C258.638 64.803 259.7 63.79 261.002 63.6964C262.305 63.6027 263.353 64.4638 263.345 65.6197C263.336 66.7756 262.274 67.7885 260.972 67.8822Z" fill="#75787A"/>
<path d="M260.969 63.4321C259.576 63.5052 258.455 64.6196 258.464 65.9212C258.474 67.2228 259.61 68.2187 261.003 68.1455C262.396 68.0724 263.517 66.958 263.508 65.6564C263.499 64.3548 262.362 63.3589 260.969 63.4321ZM261.001 67.7912C259.817 67.8533 258.852 67.0072 258.844 65.9014C258.836 64.7957 259.788 63.8489 260.972 63.7868C262.155 63.7246 263.121 64.5707 263.129 65.6765C263.137 66.7822 262.184 67.7291 261.001 67.7912Z" fill="#D1D3D4"/>
<path d="M287.738 59.3782L286.238 59.4683C284.734 59.8153 283.533 60.9098 283.017 62.3187C282.94 62.5287 282.878 62.7459 282.833 62.9685C282.832 62.9704 282.832 62.9722 282.831 62.9742C282.817 63.0439 282.805 63.1143 282.794 63.185C282.794 63.1905 282.793 63.1959 282.792 63.2014C282.782 63.2677 282.774 63.3345 282.767 63.4014C282.766 63.4116 282.764 63.4216 282.763 63.4318C282.757 63.4947 282.753 63.5581 282.75 63.6216C282.749 63.636 282.748 63.6501 282.747 63.6644C282.744 63.7253 282.744 63.7866 282.744 63.8481C282.744 63.865 282.743 63.882 282.743 63.8989C282.743 63.9343 282.745 63.97 282.747 64.0055L291.748 63.4643C291.556 61.2978 289.845 59.6039 287.738 59.3782Z" fill="#231F20"/>
<path d="M324.48 61.3382C324.478 61.3198 324.476 61.3015 324.473 61.2832C324.466 61.2249 324.458 61.1671 324.449 61.1096C324.448 61.0987 324.446 61.0878 324.444 61.0771C324.433 61.0108 324.42 60.9453 324.406 60.8802C324.403 60.8628 324.398 60.8455 324.394 60.8281C324.383 60.7761 324.37 60.7244 324.356 60.6731C324.352 60.6572 324.348 60.6413 324.344 60.6256C324.326 60.5629 324.307 60.5007 324.287 60.4392C324.282 60.4232 324.276 60.4074 324.271 60.3915C324.255 60.3434 324.237 60.2957 324.219 60.2483C324.212 60.2295 324.205 60.2107 324.198 60.1921C324.175 60.1334 324.151 60.0752 324.125 60.0177C324.119 60.0037 324.112 59.99 324.106 59.9762C324.085 59.9307 324.063 59.8855 324.041 59.8409C324.031 59.8202 324.02 59.7997 324.01 59.7791C323.986 59.7341 323.962 59.6897 323.938 59.6456C323.927 59.6262 323.916 59.6068 323.904 59.5876C323.878 59.5426 323.851 59.4984 323.824 59.4543C323.81 59.4322 323.795 59.4104 323.781 59.3885C323.759 59.3543 323.736 59.3206 323.712 59.2871C323.699 59.2672 323.685 59.2472 323.671 59.2275C323.638 59.1813 323.604 59.136 323.569 59.0911C323.551 59.0679 323.532 59.0452 323.514 59.0226C323.492 58.9958 323.47 58.9691 323.448 58.9429C323.428 58.9198 323.409 58.8967 323.389 58.8741C323.353 58.8335 323.316 58.7933 323.279 58.7539C323.257 58.7303 323.234 58.7073 323.211 58.6841C323.19 58.6629 323.169 58.6419 323.147 58.621C323.123 58.5971 323.098 58.5732 323.073 58.5498C323.051 58.5298 323.029 58.5103 323.007 58.4906C322.963 58.4512 322.919 58.4127 322.873 58.375C322.854 58.3587 322.834 58.3426 322.814 58.3267C322.785 58.3032 322.755 58.2801 322.726 58.2573C322.707 58.2432 322.688 58.2295 322.67 58.2157C322.614 58.1748 322.558 58.1349 322.5 58.0963C322.484 58.0852 322.468 58.074 322.451 58.063C322.418 58.0413 322.384 58.0199 322.35 57.999C322.332 57.9879 322.315 57.9772 322.297 57.9665C322.22 57.9208 322.143 57.8768 322.064 57.8352C322.063 57.8346 322.062 57.834 322.061 57.8336C322.024 57.8143 321.987 57.7958 321.95 57.7775C321.932 57.7686 321.913 57.7597 321.895 57.7511C321.857 57.7333 321.82 57.7155 321.782 57.6987C321.336 57.5013 320.854 57.3709 320.35 57.3193L318.801 57.4124C316.666 57.8948 315.117 59.7924 315.185 61.9756L324.487 61.4164C324.484 61.3902 324.482 61.3639 324.48 61.3382Z" fill="#231F20"/>
<path d="M323.71 52.6321L319.359 51.7313L311.449 46.8532C310.574 46.3138 309.555 46.0575 308.529 46.1192L281.592 47.7388C280.039 47.8322 278.8 49.0718 278.708 50.6254L278.181 59.5341L278.349 62.6394C278.093 62.6548 277.897 62.8752 277.913 63.1314L278 64.5836C278.016 64.8399 278.236 65.0353 278.492 65.0199L282.789 64.7615L282.786 64.7132L282.824 64.711C282.788 64.5227 282.763 64.3306 282.751 64.1342C282.601 61.6506 284.5 59.5085 286.984 59.3592C289.468 59.2099 291.61 61.109 291.759 63.5925C291.759 63.5945 291.759 63.5965 291.759 63.5985C291.778 63.9135 292.042 64.1567 292.357 64.1378L314.944 62.7797C315.255 62.7611 315.485 62.4918 315.465 62.1812C315.465 62.1766 315.465 62.1719 315.464 62.1673C315.315 59.6837 317.214 57.5416 319.698 57.3923C322.181 57.243 324.323 59.1421 324.472 61.6256C324.473 61.6303 324.473 61.635 324.473 61.6396C324.491 61.9503 324.752 62.1901 325.062 62.1714L326.664 62.0751L326.274 55.5953C326.187 54.1418 325.136 52.9272 323.71 52.6321Z" fill="#F1F2F2"/>
<path d="M303.884 48.6704L304.476 53.1508C304.53 53.5613 304.892 53.8602 305.306 53.8353L316.537 53.16C317.116 53.1252 317.318 52.3735 316.835 52.0525L310.703 47.9833C310.247 47.6598 309.695 47.5004 309.136 47.5314L304.623 47.7791C304.164 47.8041 303.824 48.2147 303.884 48.6704Z" fill="#010101"/>
<path d="M281.868 54.9696C281.6 54.9857 281.362 54.7895 281.327 54.5228L280.735 50.0425C280.716 49.8991 280.756 49.7587 280.848 49.6471C280.94 49.5355 281.07 49.4694 281.214 49.4608L300.851 48.2941C301.326 48.2659 301.741 48.6142 301.796 49.087L302.227 52.7959C302.256 53.0436 302.184 53.2852 302.023 53.4764C301.863 53.6676 301.638 53.7811 301.389 53.7961L281.868 54.9696Z" fill="#F1F2F2"/>
<path d="M278.492 65.0198L282.789 64.7614L282.786 64.7131L282.824 64.7109C282.788 64.5226 282.762 64.3305 282.75 64.1341C282.7 63.3006 282.882 62.5062 283.238 61.812L278.32 62.1076L278.349 62.6392C278.092 62.6546 277.897 62.8749 277.912 63.1312L278 64.5834C278.015 64.8398 278.235 65.0352 278.492 65.0198Z" fill="#D1D3D4"/>
<path d="M287.377 65.8913C286.283 65.9571 285.343 65.1235 285.277 64.0296C285.212 62.9357 286.045 61.9955 287.139 61.9297C288.233 61.864 289.173 62.6975 289.239 63.7914C289.305 64.8853 288.471 65.8255 287.377 65.8913Z" fill="#231F20"/>
<path d="M287.953 63.9011C287.953 63.8852 287.953 63.8692 287.952 63.8532C287.943 63.7013 287.882 63.5653 287.788 63.46L288.571 62.2919C288.385 62.1411 288.174 62.022 287.945 61.942L287.437 63.2571C287.382 63.2454 287.324 63.2404 287.265 63.2439C287.188 63.2486 287.115 63.2671 287.048 63.2959L286.287 62.0661C286.07 62.1807 285.876 62.3323 285.713 62.5122L286.744 63.5629C286.681 63.6703 286.648 63.7972 286.656 63.9311C286.657 63.9459 286.659 63.9602 286.661 63.9748L285.244 64.4498C285.308 64.6904 285.414 64.9129 285.553 65.1099L286.829 64.3352C286.911 64.423 287.017 64.4872 287.135 64.5191L287.029 65.9824C287.145 65.9951 287.263 65.9988 287.383 65.9915C287.509 65.984 287.63 65.9649 287.748 65.9366L287.531 64.5009C287.65 64.4568 287.751 64.3796 287.824 64.281L289.112 64.8646C289.22 64.6553 289.293 64.4259 289.325 64.1843L287.953 63.9011Z" fill="#E6E7E8"/>
<path d="M287.39 63.567C287.394 63.6363 287.341 63.696 287.272 63.7001C287.202 63.7043 287.143 63.6514 287.138 63.5821C287.134 63.5127 287.187 63.4532 287.256 63.449C287.326 63.4448 287.385 63.4976 287.39 63.567Z" fill="#D1D3D4"/>
<path d="M287.428 64.2081C287.432 64.2774 287.379 64.3371 287.31 64.3413C287.24 64.3454 287.181 64.2925 287.176 64.2232C287.172 64.1539 287.225 64.0943 287.295 64.0901C287.364 64.0859 287.423 64.1388 287.428 64.2081Z" fill="#D1D3D4"/>
<path d="M287.612 64.0009C287.682 63.9968 287.735 63.9371 287.73 63.8678C287.726 63.7984 287.667 63.7456 287.597 63.7498C287.528 63.7539 287.475 63.8135 287.479 63.8829C287.483 63.9522 287.543 64.0051 287.612 64.0009Z" fill="#D1D3D4"/>
<path d="M286.971 64.0395C286.901 64.0437 286.842 63.9908 286.838 63.9215C286.833 63.8522 286.886 63.7925 286.956 63.7883C287.025 63.7842 287.085 63.8371 287.089 63.9064C287.093 63.9757 287.04 64.0353 286.971 64.0395Z" fill="#D1D3D4"/>
<path d="M287.041 60.3005C285.047 60.4204 283.528 62.1338 283.648 64.1276C283.768 66.1214 285.481 67.6405 287.475 67.5206C289.469 67.4007 290.988 65.6873 290.868 63.6935C290.748 61.6999 289.035 60.1806 287.041 60.3005ZM287.386 66.0436C286.208 66.1144 285.196 65.2169 285.125 64.039C285.054 62.861 285.952 61.8487 287.13 61.7779C288.307 61.7071 289.32 62.6045 289.391 63.7825C289.461 64.9604 288.564 65.9727 287.386 66.0436Z" fill="#75787A"/>
<path d="M287.118 61.5791C285.83 61.6565 284.849 62.7631 284.926 64.0508C285.004 65.3384 286.11 66.3195 287.398 66.2421C288.686 66.1647 289.667 65.0581 289.589 63.7704C289.512 62.4827 288.405 61.5016 287.118 61.5791ZM287.377 65.8915C286.283 65.9573 285.343 65.1238 285.277 64.0298C285.211 62.9359 286.045 61.9957 287.139 61.93C288.233 61.8642 289.173 62.6977 289.239 63.7917C289.304 64.8856 288.471 65.8258 287.377 65.8915Z" fill="#D1D3D4"/>
<path d="M319.939 63.9333C318.845 63.9991 317.905 63.1655 317.839 62.0716C317.773 60.9777 318.607 60.0375 319.701 59.9717C320.794 59.906 321.735 60.7395 321.8 61.8334C321.866 62.9273 321.033 63.8675 319.939 63.9333Z" fill="#231F20"/>
<path d="M320.514 61.9431C320.514 61.9272 320.515 61.9112 320.514 61.8952C320.505 61.7433 320.444 61.6072 320.35 61.502L321.133 60.3339C320.947 60.1831 320.735 60.064 320.506 59.984L319.999 61.299C319.943 61.2874 319.886 61.2823 319.827 61.2859C319.749 61.2905 319.677 61.3091 319.61 61.3379L318.849 60.1081C318.631 60.2227 318.437 60.3743 318.274 60.5542L319.306 61.6048C319.242 61.7123 319.209 61.8392 319.217 61.9731C319.218 61.9879 319.22 62.0022 319.222 62.0168L317.806 62.4918C317.87 62.7324 317.976 62.9549 318.115 63.1519L319.391 62.3772C319.472 62.4649 319.578 62.5292 319.697 62.5611L319.591 64.0244C319.707 64.0371 319.825 64.0408 319.945 64.0335C320.07 64.026 320.192 64.0069 320.31 63.9786L320.093 62.5429C320.211 62.4988 320.312 62.4215 320.386 62.323L321.673 62.9066C321.781 62.6973 321.855 62.4679 321.886 62.2263L320.514 61.9431Z" fill="#E6E7E8"/>
<path d="M319.833 61.7421C319.902 61.738 319.955 61.6784 319.951 61.609C319.947 61.5397 319.887 61.4868 319.818 61.491C319.749 61.4952 319.696 61.5548 319.7 61.6241C319.704 61.6935 319.764 61.7463 319.833 61.7421Z" fill="#D1D3D4"/>
<path d="M319.989 62.2501C319.993 62.3194 319.94 62.3791 319.871 62.3832C319.802 62.3874 319.742 62.3345 319.738 62.2652C319.734 62.1959 319.787 62.1363 319.856 62.1321C319.925 62.1279 319.985 62.1808 319.989 62.2501Z" fill="#D1D3D4"/>
<path d="M320.173 62.0429C320.104 62.0471 320.044 61.9942 320.04 61.9249C320.036 61.8556 320.089 61.7959 320.158 61.7918C320.227 61.7876 320.287 61.8405 320.291 61.9098C320.295 61.9791 320.242 62.0387 320.173 62.0429Z" fill="#D1D3D4"/>
<path d="M319.532 62.0815C319.602 62.0773 319.654 62.0177 319.65 61.9484C319.646 61.879 319.587 61.8262 319.517 61.8303C319.448 61.8345 319.395 61.8941 319.399 61.9635C319.403 62.0328 319.463 62.0857 319.532 62.0815Z" fill="#D1D3D4"/>
<path d="M319.602 58.3425C317.608 58.4624 316.089 60.1758 316.209 62.1696C316.329 64.1634 318.043 65.6825 320.036 65.5626C322.03 65.4427 323.549 63.7293 323.429 61.7355C323.31 59.7419 321.596 58.2226 319.602 58.3425ZM319.948 64.0855C318.77 64.1564 317.757 63.2589 317.686 62.081C317.616 60.903 318.513 59.8907 319.691 59.8199C320.869 59.7491 321.881 60.6465 321.952 61.8245C322.023 63.0024 321.125 64.0147 319.948 64.0855Z" fill="#75787A"/>
<path d="M319.679 59.621C318.392 59.6985 317.41 60.8051 317.488 62.0928C317.565 63.3804 318.672 64.3615 319.96 64.2841C321.247 64.2067 322.228 63.1 322.151 61.8124C322.074 60.5247 320.967 59.5436 319.679 59.621ZM319.938 63.9335C318.845 63.9993 317.904 63.1658 317.839 62.0718C317.773 60.9779 318.606 60.0377 319.7 59.9719C320.794 59.9062 321.734 60.7397 321.8 61.8336C321.866 62.9276 321.032 63.8678 319.938 63.9335Z" fill="#D1D3D4"/>
<path d="M290.997 61.3456C291.434 61.9921 291.709 62.7591 291.759 63.5926C291.759 63.5945 291.759 63.5966 291.759 63.5985C291.778 63.9135 292.042 64.1568 292.357 64.1378L314.944 62.7798C315.255 62.7611 315.485 62.4918 315.465 62.1812C315.465 62.1766 315.465 62.1719 315.464 62.1673C315.315 59.6837 317.214 57.5417 319.698 57.3923C322.181 57.243 324.323 59.1421 324.472 61.6257C324.473 61.6303 324.473 61.635 324.473 61.6396C324.491 61.9503 324.752 62.1901 325.062 62.1714L326.664 62.0751L326.318 56.3318C324.665 56.3171 321.903 56.3267 319.195 56.4895C314.935 56.7456 314.396 59.9387 314.396 59.9387L297.411 60.9599L290.997 61.3456Z" fill="#545353"/>
<path d="M325.062 62.1632L327.479 62.0179C327.87 61.9944 328.169 61.6579 328.145 61.2663L327.957 58.1346C327.933 57.743 327.597 57.4447 327.205 57.4682L321.837 57.791C323.306 58.4629 324.369 59.9034 324.472 61.6257C324.472 61.6276 324.472 61.6296 324.472 61.6315C324.491 61.942 324.751 62.1819 325.062 62.1632Z" fill="#545353"/>
<path d="M278.347 62.599L278.349 62.6393C278.093 62.6547 277.898 62.8751 277.913 63.1313L278 64.5835C278.016 64.8398 278.236 65.0352 278.492 65.0198L282.789 64.7614L282.786 64.7131L282.824 64.7108C282.788 64.5226 282.763 64.3305 282.751 64.134C282.713 63.4969 282.81 62.8826 283.017 62.3183L278.347 62.599Z" fill="#545353"/>
<path d="M317.38 53.8113L316.241 53.8798C316.096 53.8884 315.98 53.7638 315.998 53.6204L316.191 52.1177C316.205 52.0079 316.295 51.9236 316.406 51.9169L317.263 51.8654C317.977 51.8225 318.583 52.2232 318.615 52.7605C318.647 53.2979 318.094 53.7683 317.38 53.8113Z" fill="white"/>
<path d="M317.345 53.228L316.206 53.2965C316.145 53.3002 316.089 53.28 316.046 53.2449L315.998 53.6201C315.98 53.7635 316.096 53.8881 316.241 53.8795L317.38 53.811C318.094 53.768 318.647 53.2976 318.615 52.7604C318.609 52.6588 318.582 52.5621 318.538 52.4724C318.397 52.8773 317.924 53.1932 317.345 53.228Z" fill="#D1D3D4"/>
<path d="M326.274 55.5955C326.23 54.854 325.934 54.1751 325.466 53.6482L323.887 53.7432C323.887 53.7432 324.42 55.7638 325.998 55.8384C326.099 55.8431 326.196 55.8458 326.289 55.8466L326.274 55.5955Z" fill="#D1D3D4"/>
<path d="M325.997 55.564C325.003 55.5082 324.475 54.5202 324.264 53.9951L325.346 53.9301C325.722 54.3943 325.952 54.9682 325.997 55.564Z" fill="white"/>
<path d="M310.266 48.1589C309.917 47.9721 309.522 47.8817 309.123 47.904L308.323 47.9479L306.078 53.4164L308.159 53.2913L310.266 48.1589Z" fill="#28211F"/>
<path d="M312.078 49.3488L310.908 48.5725L308.992 53.2413L310.518 53.1495L312.078 49.3488Z" fill="#28211F"/>
<rect width="7.40704" height="2.0471" transform="matrix(0.995059 0.086051 -0.098912 0.994063 93.6025 59.8076)" fill="#545353"/>
<path d="M72.3646 47.9751C72.5921 46.994 73.5125 46.323 74.5139 46.4081L94.2669 48.0868C95.2683 48.1719 96.0387 48.9866 96.0662 49.9894L96.4107 62.598C96.4436 63.7996 95.4103 64.7732 94.2104 64.6713L71.251 62.7201C70.0511 62.6181 69.2302 61.4869 69.5029 60.3113L72.3646 47.9751Z" fill="#F1F2F2"/>
<path d="M81.9505 66.5921C80.7684 66.5105 79.9123 65.5536 80.0383 64.455C80.1644 63.3565 81.2249 62.532 82.407 62.6137C83.589 62.6954 84.4452 63.6523 84.3191 64.7509C84.193 65.8494 83.1325 66.6738 81.9505 66.5921Z" fill="#231F20"/>
<path d="M82.9402 64.6803C82.9434 64.6649 82.9468 64.6494 82.9488 64.6337C82.9677 64.4852 82.927 64.3459 82.8446 64.2327L83.9194 63.1901C83.7457 63.0219 83.5375 62.8815 83.3028 62.7769L82.5005 63.9945C82.4423 63.9767 82.3805 63.965 82.3153 63.9616C82.2304 63.957 82.1475 63.9665 82.0689 63.9866L81.4729 62.7032C81.2141 62.789 80.9738 62.9135 80.7621 63.0691L81.6871 64.2103C81.5977 64.3072 81.5374 64.4265 81.5207 64.5575C81.5189 64.5719 81.5185 64.5861 81.5178 64.6005L79.8838 64.8958C79.9081 65.137 79.9814 65.3655 80.0953 65.5731L81.633 64.9702C81.7057 65.065 81.8089 65.1399 81.932 65.1847L81.5391 66.5933C81.6628 66.6192 81.7908 66.6366 81.9231 66.6436C82.061 66.651 82.1974 66.6468 82.3315 66.6331L82.3672 65.2134C82.5044 65.1844 82.6291 65.1213 82.7282 65.0342L84.0208 65.7518C84.1782 65.5612 84.3016 65.347 84.3819 65.1161L82.9402 64.6803Z" fill="#E6E7E8"/>
<path d="M82.3784 64.2641C82.3697 64.3323 82.3003 64.3845 82.2236 64.3806C82.1469 64.3766 82.0917 64.3179 82.1004 64.2497C82.1091 64.1813 82.1785 64.1292 82.2552 64.1332C82.3319 64.1372 82.3872 64.1957 82.3784 64.2641Z" fill="#D1D3D4"/>
<path d="M82.3159 64.933C82.3072 65.0013 82.2378 65.0535 82.1611 65.0495C82.0844 65.0455 82.0292 64.9868 82.0379 64.9186C82.0466 64.8504 82.116 64.7982 82.1927 64.8021C82.2694 64.8061 82.3246 64.8648 82.3159 64.933Z" fill="#D1D3D4"/>
<path d="M82.5273 64.7465C82.6038 64.7507 82.6729 64.6985 82.6816 64.6299C82.6902 64.5614 82.6351 64.5024 82.5586 64.4983C82.482 64.4941 82.4129 64.5463 82.4043 64.6148C82.3956 64.6834 82.4507 64.7423 82.5273 64.7465Z" fill="#D1D3D4"/>
<path d="M81.8583 64.6845C81.7818 64.6803 81.7267 64.6213 81.7353 64.5528C81.744 64.4843 81.8131 64.4321 81.8896 64.4363C81.9661 64.4404 82.0212 64.4994 82.0126 64.5679C82.004 64.6364 81.9348 64.6886 81.8583 64.6845Z" fill="#D1D3D4"/>
<path d="M82.6347 61.0891C80.4277 60.9795 78.4349 62.4635 78.1836 64.4039C77.9323 66.3442 79.5176 68.006 81.7245 68.1156C83.9315 68.2252 85.9243 66.7412 86.1756 64.8009C86.4271 62.8607 84.8418 61.1988 82.6347 61.0891ZM81.9107 66.6782C80.6068 66.6134 79.6702 65.6316 79.8187 64.4852C79.9672 63.3389 81.1446 62.4621 82.4485 62.5269C83.7523 62.5917 84.6889 63.5734 84.5405 64.7198C84.392 65.8662 83.2146 66.7429 81.9107 66.6782Z" fill="#75787A"/>
<path d="M82.4481 62.261C81.0567 62.1649 79.8084 63.1352 79.66 64.4283C79.5116 65.7215 80.5193 66.8477 81.9107 66.9439C83.3021 67.04 84.5504 66.0697 84.6988 64.7766C84.8474 63.4835 83.8397 62.3572 82.4481 62.261ZM81.9511 66.5918C80.7691 66.5101 79.9129 65.5533 80.039 64.4547C80.1651 63.3561 81.2256 62.5317 82.4077 62.6134C83.5897 62.6951 84.4458 63.652 84.3198 64.7505C84.1937 65.8491 83.1332 66.6735 81.9511 66.5918Z" fill="#D1D3D4"/>
<path d="M109.51 61.4799L108.011 61.3878C106.476 61.55 105.15 62.4908 104.467 63.8269C104.365 64.0261 104.278 64.2341 104.206 64.4496C104.205 64.4515 104.205 64.4532 104.204 64.4551C104.182 64.5226 104.161 64.591 104.142 64.6599C104.14 64.6653 104.138 64.6705 104.137 64.6758C104.119 64.7404 104.103 64.8058 104.088 64.8713C104.086 64.8813 104.083 64.8911 104.081 64.9011C104.067 64.9628 104.056 65.0253 104.045 65.0879C104.042 65.1021 104.039 65.1159 104.037 65.13C104.027 65.1901 104.019 65.2509 104.011 65.312C104.009 65.3287 104.006 65.3455 104.004 65.3622C104 65.3974 103.998 65.4332 103.995 65.4686L112.996 66.0218C113.068 63.848 111.574 61.9594 109.51 61.4799Z" fill="#231F20"/>
<path d="M145.743 67.8768C145.744 67.8582 145.744 67.8398 145.744 67.8214C145.744 67.7627 145.743 67.7043 145.741 67.6461C145.74 67.6351 145.74 67.6241 145.74 67.6133C145.737 67.5461 145.732 67.4796 145.726 67.4133C145.724 67.3955 145.722 67.3778 145.72 67.3601C145.715 67.307 145.708 67.2541 145.701 67.2016C145.699 67.1853 145.697 67.169 145.694 67.1529C145.685 67.0886 145.674 67.0245 145.661 66.961C145.658 66.9445 145.654 66.9281 145.651 66.9117C145.64 66.862 145.629 66.8126 145.617 66.7634C145.612 66.7439 145.607 66.7243 145.602 66.7049C145.586 66.6438 145.57 66.5831 145.551 66.523C145.547 66.5084 145.542 66.494 145.537 66.4795C145.522 66.4318 145.506 66.3843 145.489 66.3374C145.481 66.3155 145.474 66.2939 145.466 66.2722C145.448 66.2247 145.429 66.1777 145.41 66.1309C145.402 66.1104 145.393 66.0898 145.384 66.0694C145.364 66.0216 145.342 65.9743 145.32 65.9272C145.309 65.9036 145.298 65.8802 145.286 65.8567C145.268 65.8201 145.249 65.7838 145.23 65.7478C145.219 65.7264 145.208 65.7048 145.196 65.6836C145.169 65.6337 145.14 65.5846 145.111 65.5358C145.096 65.5106 145.081 65.4859 145.065 65.4612C145.047 65.4319 145.028 65.4028 145.009 65.374C144.992 65.3488 144.976 65.3235 144.959 65.2987C144.928 65.254 144.897 65.2097 144.864 65.166C144.845 65.1399 144.825 65.1143 144.805 65.0885C144.787 65.0649 144.768 65.0414 144.75 65.0181C144.728 64.9914 144.707 64.9647 144.684 64.9385C144.666 64.916 144.646 64.8939 144.627 64.8717C144.588 64.8273 144.548 64.7836 144.507 64.7407C144.49 64.7222 144.473 64.7038 144.455 64.6856C144.429 64.6588 144.402 64.6323 144.375 64.606C144.359 64.5898 144.342 64.5739 144.325 64.558C144.275 64.5106 144.224 64.4642 144.171 64.4189C144.156 64.4059 144.141 64.3929 144.126 64.38C144.096 64.3543 144.065 64.329 144.034 64.3041C144.018 64.291 144.001 64.2782 143.985 64.2654C143.914 64.2108 143.843 64.1577 143.77 64.1068C143.769 64.1061 143.768 64.1054 143.767 64.1049C143.733 64.0813 143.698 64.0585 143.663 64.0358C143.646 64.0247 143.629 64.0137 143.612 64.0029C143.577 63.9807 143.542 63.9585 143.506 63.9372C143.088 63.6873 142.625 63.4995 142.131 63.3872L140.582 63.292C138.404 63.5121 136.637 65.2081 136.44 67.3835L145.741 67.9552C145.741 67.9289 145.743 67.9026 145.743 67.8768Z" fill="#231F20"/>
<path d="M146.034 59.1416L141.824 57.7203L134.563 51.9199C133.761 51.2785 132.779 50.9006 131.754 50.8376L104.82 49.1819C103.266 49.0865 101.887 50.1669 101.607 51.6979L100.004 60.4771L99.7949 63.5799C99.5387 63.5642 99.3181 63.7592 99.3023 64.0155L99.213 65.4676C99.1973 65.7238 99.3923 65.9444 99.6486 65.9602L103.945 66.2243L103.948 66.176L103.986 66.1783C103.973 65.9871 103.971 65.7933 103.983 65.5969C104.136 63.1135 106.28 61.2173 108.764 61.37C111.247 61.5226 113.143 63.6672 112.991 66.1506C112.991 66.1525 112.99 66.1546 112.99 66.1565C112.97 66.4714 113.203 66.7449 113.518 66.7643L136.103 68.1526C136.414 68.1716 136.675 67.9322 136.693 67.6216C136.694 67.6169 136.694 67.6123 136.694 67.6076C136.847 65.1242 138.991 63.228 141.475 63.3807C143.958 63.5333 145.854 65.6779 145.701 68.1613C145.701 68.1659 145.701 68.1706 145.7 68.1752C145.68 68.4858 145.91 68.7554 146.221 68.7745L147.822 68.8729L148.22 62.3936C148.31 60.9403 147.413 59.6073 146.034 59.1416Z" fill="#F1F2F2"/>
<path d="M126.834 52.8073L126.879 57.3264C126.883 57.7405 127.206 58.081 127.62 58.1064L138.85 58.7967C139.429 58.8323 139.721 58.1106 139.28 57.7334L133.687 52.9514C133.273 52.575 132.744 52.3498 132.186 52.313L127.676 52.0121C127.217 51.9813 126.829 52.3477 126.834 52.8073Z" fill="#010101"/>
<path d="M104.217 56.393C103.948 56.3765 103.736 56.1529 103.733 55.8839L103.688 51.3649C103.687 51.2203 103.744 51.0858 103.849 50.9862C103.954 50.8865 104.091 50.8367 104.235 50.8456L123.868 52.0664C124.343 52.0959 124.713 52.492 124.71 52.9679L124.689 56.7017C124.687 56.9511 124.586 57.1822 124.404 57.3525C124.222 57.5229 123.984 57.6083 123.736 57.593L104.217 56.393Z" fill="#F1F2F2"/>
<path d="M99.6484 65.9602L103.945 66.2243L103.948 66.1761L103.986 66.1784C103.973 65.9872 103.971 65.7934 103.983 65.597C104.034 64.7636 104.31 63.997 104.748 63.351L99.8306 63.0487L99.7947 63.5798C99.5385 63.5641 99.3178 63.7591 99.3021 64.0154L99.2128 65.4675C99.1971 65.7239 99.3921 65.9445 99.6484 65.9602Z" fill="#D1D3D4"/>
<path d="M108.362 67.9019C107.268 67.8346 106.436 66.8933 106.503 65.7995C106.57 64.7056 107.512 63.8734 108.606 63.9406C109.699 64.0078 110.532 64.9491 110.465 66.043C110.397 67.1368 109.456 67.9691 108.362 67.9019Z" fill="#231F20"/>
<path d="M109.174 65.9958C109.176 65.98 109.178 65.9642 109.179 65.9482C109.189 65.7963 109.145 65.6539 109.064 65.538L109.983 64.4733C109.817 64.3012 109.621 64.1573 109.403 64.0501L108.74 65.2941C108.687 65.2758 108.63 65.2638 108.571 65.2601C108.494 65.2554 108.419 65.265 108.349 65.2855L107.743 63.9725C107.513 64.06 107.302 64.1869 107.119 64.3458L108.015 65.5136C107.94 65.6126 107.891 65.7346 107.883 65.8685C107.882 65.8832 107.882 65.8977 107.882 65.9124L106.419 66.2123C106.453 66.4589 106.532 66.6926 106.646 66.905L108.006 66.2905C108.077 66.3876 108.174 66.4642 108.288 66.5102L108.005 67.9499C108.119 67.9765 108.235 67.9945 108.356 68.0019C108.481 68.0096 108.604 68.0054 108.725 67.9915L108.683 66.5401C108.806 66.5106 108.915 66.4462 109.001 66.3573L110.208 67.0926C110.34 66.8979 110.441 66.6791 110.502 66.4431L109.174 65.9958Z" fill="#E6E7E8"/>
<path d="M108.656 65.5956C108.651 65.6649 108.592 65.7177 108.522 65.7134C108.453 65.7092 108.4 65.6494 108.404 65.5802C108.409 65.5107 108.468 65.458 108.538 65.4623C108.607 65.4666 108.66 65.5262 108.656 65.5956Z" fill="#D1D3D4"/>
<path d="M108.616 66.2367C108.612 66.306 108.552 66.3588 108.483 66.3545C108.414 66.3503 108.361 66.2905 108.365 66.2213C108.37 66.152 108.429 66.0992 108.499 66.1034C108.568 66.1077 108.621 66.1674 108.616 66.2367Z" fill="#D1D3D4"/>
<path d="M108.823 66.0538C108.892 66.058 108.952 66.0053 108.956 65.9359C108.961 65.8666 108.908 65.8069 108.838 65.8026C108.769 65.7984 108.709 65.8511 108.705 65.9205C108.701 65.9898 108.754 66.0495 108.823 66.0538Z" fill="#D1D3D4"/>
<path d="M108.182 66.0142C108.113 66.01 108.06 65.9502 108.065 65.8809C108.069 65.8117 108.129 65.7588 108.198 65.7631C108.267 65.7673 108.32 65.8271 108.316 65.8964C108.311 65.9656 108.252 66.0185 108.182 66.0142Z" fill="#D1D3D4"/>
<path d="M108.705 62.3112C106.712 62.1887 104.996 63.7055 104.874 65.6991C104.751 67.6927 106.268 69.4082 108.262 69.5307C110.255 69.6533 111.971 68.1365 112.093 66.1429C112.216 64.1494 110.699 62.4338 108.705 62.3112ZM108.352 68.0538C107.175 67.9814 106.278 66.9679 106.351 65.7901C106.423 64.6122 107.437 63.7161 108.615 63.7885C109.793 63.8609 110.689 64.8744 110.616 66.0522C110.544 67.2301 109.53 68.1262 108.352 68.0538Z" fill="#75787A"/>
<path d="M108.627 63.5896C107.34 63.5105 106.232 64.4901 106.153 65.7776C106.073 67.0652 107.053 68.1731 108.341 68.2523C109.628 68.3314 110.736 67.3518 110.815 66.0642C110.895 64.7767 109.915 63.6687 108.627 63.5896ZM108.362 67.9017C107.268 67.8345 106.436 66.8932 106.503 65.7993C106.571 64.7055 107.512 63.8732 108.606 63.9405C109.7 64.0077 110.532 64.949 110.465 66.0428C110.397 67.1367 109.456 67.969 108.362 67.9017Z" fill="#D1D3D4"/>
<path d="M140.922 69.9028C139.828 69.8356 138.996 68.8943 139.063 67.8005C139.13 66.7066 140.071 65.8743 141.165 65.9416C142.259 66.0088 143.091 66.9501 143.024 68.044C142.957 69.1378 142.016 69.9701 140.922 69.9028Z" fill="#231F20"/>
<path d="M141.735 67.9968C141.737 67.981 141.739 67.9652 141.74 67.9491C141.749 67.7973 141.705 67.6549 141.625 67.539L142.543 66.4743C142.377 66.3022 142.182 66.1583 141.964 66.0511L141.301 67.295C141.247 67.2768 141.191 67.2648 141.132 67.2611C141.055 67.2564 140.98 67.266 140.91 67.2864L140.304 65.9735C140.074 66.0609 139.863 66.1879 139.679 66.3467L140.576 67.5146C140.5 67.6136 140.452 67.7355 140.443 67.8694C140.443 67.8842 140.443 67.8987 140.443 67.9134L138.979 68.2133C139.014 68.4599 139.092 68.6936 139.206 68.906L140.567 68.2915C140.637 68.3886 140.735 68.4652 140.848 68.5112L140.566 69.9509C140.679 69.9775 140.796 69.9955 140.916 70.0028C141.041 70.0105 141.165 70.0064 141.285 69.9925L141.244 68.5411C141.366 68.5116 141.476 68.4472 141.561 68.3583L142.768 69.0936C142.901 68.8989 143.001 68.6801 143.062 68.4441L141.735 67.9968Z" fill="#E6E7E8"/>
<path d="M141.082 67.7144C141.151 67.7187 141.211 67.6659 141.215 67.5966C141.219 67.5272 141.167 67.4675 141.097 67.4633C141.028 67.459 140.968 67.5118 140.964 67.5811C140.96 67.6505 141.012 67.7101 141.082 67.7144Z" fill="#D1D3D4"/>
<path d="M141.176 68.2377C141.172 68.307 141.112 68.3598 141.043 68.3555C140.973 68.3513 140.921 68.2915 140.925 68.2222C140.929 68.153 140.989 68.1001 141.058 68.1044C141.127 68.1087 141.18 68.1684 141.176 68.2377Z" fill="#D1D3D4"/>
<path d="M141.383 68.0547C141.313 68.0505 141.26 67.9907 141.265 67.9215C141.269 67.8522 141.329 67.7994 141.398 67.8036C141.467 67.8079 141.52 67.8676 141.516 67.9369C141.512 68.0062 141.452 68.059 141.383 68.0547Z" fill="#D1D3D4"/>
<path d="M140.742 68.0152C140.811 68.0195 140.871 67.9667 140.875 67.8973C140.88 67.828 140.827 67.7683 140.757 67.7641C140.688 67.7598 140.628 67.8126 140.624 67.8819C140.62 67.9513 140.673 68.0109 140.742 68.0152Z" fill="#D1D3D4"/>
<path d="M141.265 64.3122C139.271 64.1897 137.556 65.7065 137.433 67.7001C137.311 69.6937 138.828 71.4092 140.821 71.5317C142.815 71.6543 144.53 70.1375 144.653 68.1439C144.776 66.1504 143.259 64.4348 141.265 64.3122ZM140.912 70.0548C139.734 69.9824 138.838 68.9689 138.91 67.791C138.983 66.6132 139.996 65.7171 141.174 65.7895C142.352 65.8619 143.248 66.8754 143.176 68.0532C143.103 69.2311 142.09 70.1272 140.912 70.0548Z" fill="#75787A"/>
<path d="M141.187 65.5906C139.899 65.5114 138.791 66.4911 138.712 67.7786C138.633 69.0662 139.613 70.1741 140.9 70.2533C142.188 70.3324 143.296 69.3528 143.375 68.0652C143.454 66.7777 142.475 65.6697 141.187 65.5906ZM140.922 69.9027C139.828 69.8355 138.996 68.8942 139.063 67.8003C139.13 66.7065 140.071 65.8742 141.165 65.9414C142.259 66.0087 143.091 66.95 143.024 68.0438C142.957 69.1377 142.016 69.9699 140.922 69.9027Z" fill="#D1D3D4"/>
<path d="M112.507 63.8277C112.862 64.5224 113.042 65.3171 112.991 66.1505C112.991 66.1524 112.991 66.1545 112.99 66.1564C112.971 66.4713 113.203 66.7448 113.518 66.7642L136.103 68.1525C136.414 68.1716 136.675 67.9322 136.693 67.6215C136.694 67.6168 136.694 67.6122 136.694 67.6075C136.847 65.1242 138.991 63.2279 141.475 63.3806C143.958 63.5332 145.854 65.6778 145.701 68.1612C145.701 68.1658 145.701 68.1705 145.701 68.1751C145.68 68.4857 145.91 68.7553 146.221 68.7744L147.822 68.8728L148.175 63.1299C146.536 62.915 143.793 62.59 141.085 62.4235C136.826 62.1617 135.904 65.266 135.904 65.266L118.921 64.222L112.507 63.8277Z" fill="#545353"/>
<path d="M146.221 68.7664L148.638 68.9149C149.03 68.939 149.366 68.6411 149.391 68.2495L149.583 65.1181C149.607 64.7265 149.309 64.3897 148.918 64.3656L143.55 64.0356C144.927 64.8806 145.807 66.4392 145.701 68.1613C145.701 68.1633 145.701 68.1652 145.701 68.1671C145.681 68.4775 145.911 68.7473 146.221 68.7664Z" fill="#545353"/>
<path d="M99.7973 63.5398L99.7946 63.58C99.5384 63.5643 99.3178 63.7593 99.302 64.0156L99.2127 65.4676C99.197 65.7239 99.392 65.9445 99.6483 65.9603L103.945 66.2244L103.948 66.1761L103.986 66.1784C103.973 65.9872 103.971 65.7934 103.983 65.597C104.022 64.9599 104.193 64.3619 104.467 63.8268L99.7973 63.5398Z" fill="#545353"/>
<path d="M139.608 59.545L138.469 59.475C138.325 59.4661 138.224 59.3282 138.26 59.1881L138.633 57.7199C138.661 57.6126 138.76 57.5398 138.871 57.5466L139.728 57.5993C140.442 57.6432 140.994 58.1144 140.961 58.6516C140.928 59.1889 140.322 59.5889 139.608 59.545Z" fill="white"/>
<path d="M139.644 58.9618L138.505 58.8918C138.444 58.8881 138.391 58.8613 138.353 58.8213L138.26 59.1879C138.224 59.328 138.325 59.4659 138.469 59.4747L139.608 59.5447C140.322 59.5887 140.928 59.1887 140.961 58.6515C140.967 58.55 140.953 58.4507 140.92 58.3563C140.731 58.7412 140.223 58.9974 139.644 58.9618Z" fill="#D1D3D4"/>
<path d="M148.221 62.3935C148.266 61.6522 148.055 60.9423 147.654 60.3627L146.075 60.2656C146.075 60.2656 146.36 62.3359 147.917 62.6012C148.017 62.6181 148.113 62.6325 148.205 62.6446L148.221 62.3935Z" fill="#D1D3D4"/>
<path d="M147.949 62.3289C146.968 62.153 146.564 61.1083 146.418 60.5615L147.5 60.628C147.817 61.1345 147.976 61.7319 147.949 62.3289Z" fill="white"/>
<path d="M133.232 53.0727C132.908 52.845 132.527 52.7074 132.128 52.6812L131.329 52.6278L128.438 57.7841L130.519 57.912L133.232 53.0727Z" fill="#28211F"/>
<path d="M134.886 54.4731L133.819 53.5608L131.351 57.9631L132.877 58.0569L134.886 54.4731Z" fill="#28211F"/>
</svg>
