<svg width="256" height="99" viewBox="0 0 256 99" fill="none" xmlns="http://www.w3.org/2000/svg">
<path d="M32.6364 97.2727C26.5758 97.2727 21.1515 96.1364 16.3636 93.8636C11.5758 91.5606 7.77273 88.4091 4.95455 84.4091C2.16667 80.4091 0.681819 75.8333 0.5 70.6818H16.8636C17.1667 74.5 18.8182 77.6212 21.8182 80.0455C24.8182 82.4394 28.4242 83.6364 32.6364 83.6364C35.9394 83.6364 38.8788 82.8788 41.4545 81.3636C44.0303 79.8485 46.0606 77.7424 47.5455 75.0455C49.0303 72.3485 49.7576 69.2727 49.7273 65.8182C49.7576 62.303 49.0152 59.1818 47.5 56.4545C45.9849 53.7273 43.9091 51.5909 41.2727 50.0455C38.6364 48.4697 35.6061 47.6818 32.1818 47.6818C29.3939 47.6515 26.6515 48.1667 23.9545 49.2273C21.2576 50.2879 19.1212 51.6818 17.5455 53.4091L2.31818 50.9091L7.18182 2.90909H61.1818V17H21.1364L18.4545 41.6818H19C20.7273 39.6515 23.1667 37.9697 26.3182 36.6364C29.4697 35.2727 32.9242 34.5909 36.6818 34.5909C42.3182 34.5909 47.3485 35.9242 51.7727 38.5909C56.197 41.2273 59.6818 44.8636 62.2273 49.5C64.7727 54.1364 66.0455 59.4394 66.0455 65.4091C66.0455 71.5606 64.6212 77.0455 61.7727 81.8636C58.9545 86.6515 55.0303 90.4242 50 93.1818C45 95.9091 39.2121 97.2727 32.6364 97.2727ZM115.682 97.7727C108.197 97.7727 101.773 95.8788 96.4091 92.0909C91.0758 88.2727 86.9697 82.7727 84.0909 75.5909C81.2424 68.3788 79.8182 59.697 79.8182 49.5455C79.8485 39.3939 81.2879 30.7576 84.1364 23.6364C87.0152 16.4848 91.1212 11.0303 96.4545 7.27273C101.818 3.51515 108.227 1.63636 115.682 1.63636C123.136 1.63636 129.545 3.51515 134.909 7.27273C140.273 11.0303 144.379 16.4848 147.227 23.6364C150.106 30.7879 151.545 39.4242 151.545 49.5455C151.545 59.7273 150.106 68.4242 147.227 75.6364C144.379 82.8182 140.273 88.303 134.909 92.0909C129.576 95.8788 123.167 97.7727 115.682 97.7727ZM115.682 83.5455C121.5 83.5455 126.091 80.6818 129.455 74.9545C132.848 69.197 134.545 60.7273 134.545 49.5455C134.545 42.1515 133.773 35.9394 132.227 30.9091C130.682 25.8788 128.5 22.0909 125.682 19.5455C122.864 16.9697 119.53 15.6818 115.682 15.6818C109.894 15.6818 105.318 18.5606 101.955 24.3182C98.5909 30.0455 96.8939 38.4545 96.8636 49.5455C96.8333 56.9697 97.5758 63.2121 99.0909 68.2727C100.636 73.3333 102.818 77.1515 105.636 79.7273C108.455 82.2727 111.803 83.5455 115.682 83.5455ZM216.42 78.5455V73.6364C216.42 70.0303 217.178 66.7121 218.693 63.6818C220.239 60.6515 222.481 58.2121 225.42 56.3636C228.36 54.5152 231.92 53.5909 236.102 53.5909C240.405 53.5909 244.011 54.5152 246.92 56.3636C249.83 58.1818 252.027 60.6061 253.511 63.6364C255.027 66.6667 255.784 70 255.784 73.6364V78.5455C255.784 82.1515 255.027 85.4697 253.511 88.5C251.996 91.5303 249.769 93.9697 246.83 95.8182C243.92 97.6667 240.345 98.5909 236.102 98.5909C231.86 98.5909 228.269 97.6667 225.33 95.8182C222.39 93.9697 220.163 91.5303 218.648 88.5C217.163 85.4697 216.42 82.1515 216.42 78.5455ZM228.284 73.6364V78.5455C228.284 80.9394 228.86 83.1364 230.011 85.1364C231.163 87.1364 233.193 88.1364 236.102 88.1364C239.042 88.1364 241.057 87.1515 242.148 85.1818C243.269 83.1818 243.83 80.9697 243.83 78.5455V73.6364C243.83 71.2121 243.299 69 242.239 67C241.178 64.9697 239.133 63.9545 236.102 63.9545C233.254 63.9545 231.239 64.9697 230.057 67C228.875 69 228.284 71.2121 228.284 73.6364ZM169.102 25.2727V20.3636C169.102 16.7273 169.875 13.3939 171.42 10.3636C172.966 7.33333 175.208 4.90909 178.148 3.0909C181.087 1.24242 184.648 0.318176 188.83 0.318176C193.102 0.318176 196.693 1.24242 199.602 3.0909C202.542 4.90909 204.754 7.33333 206.239 10.3636C207.723 13.3939 208.466 16.7273 208.466 20.3636V25.2727C208.466 28.9091 207.708 32.2424 206.193 35.2727C204.708 38.2727 202.496 40.6818 199.557 42.5C196.617 44.3182 193.042 45.2273 188.83 45.2273C184.557 45.2273 180.951 44.3182 178.011 42.5C175.102 40.6818 172.89 38.2576 171.375 35.2273C169.86 32.197 169.102 28.8788 169.102 25.2727ZM181.057 20.3636V25.2727C181.057 27.697 181.617 29.9091 182.739 31.9091C183.89 33.8788 185.92 34.8636 188.83 34.8636C191.739 34.8636 193.739 33.8788 194.83 31.9091C195.951 29.9091 196.511 27.697 196.511 25.2727V20.3636C196.511 17.9394 195.981 15.7273 194.92 13.7273C193.86 11.697 191.83 10.6818 188.83 10.6818C185.951 10.6818 183.936 11.697 182.784 13.7273C181.633 15.7576 181.057 17.9697 181.057 20.3636ZM174.284 96L238.284 2.90909H249.648L185.648 96H174.284Z" fill="white"/>
</svg>
