<svg width="282" height="54" viewBox="0 0 282 54" fill="none" xmlns="http://www.w3.org/2000/svg">
<mask id="path-1-outside-1_481_39" maskUnits="userSpaceOnUse" x="0" y="0" width="282" height="54" fill="black">
<rect fill="white" width="282" height="54"/>
<path d="M19.7955 51.6662C15.83 51.6662 12.4277 51.0079 9.58842 49.6914C6.74917 48.359 4.65542 46.527 3.30717 44.1953C1.97479 41.8636 1.57031 39.183 2.09375 36.1534H15.2273C15.0528 37.0893 15.1718 37.9299 15.5842 38.6754C16.0124 39.4051 16.6628 39.9761 17.5352 40.3885C18.4076 40.8009 19.4148 41.0071 20.5568 41.0071C21.9209 41.0071 23.1502 40.7295 24.2447 40.1744C25.355 39.6192 26.2591 38.8975 26.957 38.0092C27.6708 37.121 28.107 36.1851 28.2656 35.2017C28.4401 34.1866 28.2736 33.3617 27.766 32.7273C27.2584 32.0769 26.505 31.6011 25.5057 31.2997C24.5064 30.9825 23.3326 30.8239 21.9844 30.8239H16.75L18.2727 21.6875H22.9361C24.2843 21.6875 25.5215 21.4416 26.6477 20.9499C27.7739 20.4582 28.7098 19.7841 29.4553 18.9276C30.2008 18.0552 30.6607 17.0717 30.8352 15.9773C30.978 15.1366 30.9066 14.407 30.6211 13.7884C30.3514 13.1539 29.8677 12.6622 29.1697 12.3132C28.4877 11.9642 27.5836 11.7898 26.4574 11.7898C25.236 11.7898 24.0623 12.0039 22.9361 12.4322C21.8099 12.8604 20.8661 13.4553 20.1048 14.2166C19.3434 14.978 18.8913 15.8504 18.7486 16.8338H6.18608C6.67779 13.8518 7.90708 11.2187 9.87393 8.93466C11.8408 6.65057 14.3152 4.85819 17.2972 3.55753C20.2951 2.25686 23.5705 1.60653 27.1236 1.60653C30.8352 1.60653 33.9917 2.28859 36.593 3.6527C39.1944 5.01681 41.1057 6.82505 42.3271 9.07741C43.5484 11.3298 43.937 13.7884 43.4929 16.4531C43.017 19.3241 41.7243 21.4972 39.6147 22.9723C37.5051 24.4474 34.8641 25.3198 31.6918 25.5895V25.9702C35.1496 26.3667 37.8223 27.6357 39.7099 29.777C41.5974 31.9183 42.2874 34.5514 41.7798 37.6761C41.3516 40.3409 40.1223 42.7281 38.092 44.8377C36.0617 46.9473 33.4603 48.6128 30.288 49.8342C27.1315 51.0555 23.634 51.6662 19.7955 51.6662ZM58.9403 51L65.0312 14.4545H77.4985L76.3564 21.402H76.7371C77.8633 19.1179 79.4574 17.3097 81.5194 15.9773C83.5815 14.6449 85.8894 13.9787 88.4431 13.9787C90.9968 13.9787 93.0906 14.6607 94.7243 16.0249C96.3581 17.3731 97.1829 19.1655 97.1988 21.402H97.5795C98.5629 19.1655 100.173 17.3731 102.409 16.0249C104.646 14.6607 107.128 13.9787 109.856 13.9787C113.33 13.9787 115.971 15.1049 117.779 17.3572C119.603 19.6096 120.198 22.6075 119.564 26.3509L115.472 51H102.338L105.954 29.6818C106.177 28.0798 105.954 26.8267 105.288 25.9226C104.622 25.0026 103.607 24.5426 102.243 24.5426C100.895 24.5426 99.7525 25.0026 98.8167 25.9226C97.8967 26.8267 97.3257 28.0798 97.1036 29.6818L93.4871 51H80.9246L84.5411 29.6818C84.7632 28.0798 84.5411 26.8267 83.8749 25.9226C83.2087 25.0026 82.1936 24.5426 80.8295 24.5426C79.9412 24.5426 79.1323 24.7488 78.4026 25.1612C77.6888 25.5736 77.094 26.1684 76.6182 26.9457C76.1582 27.707 75.8489 28.6191 75.6903 29.6818L72.0738 51H58.9403ZM139.27 51.6662C135.368 51.6662 132.132 50.9207 129.563 49.4297C126.993 47.9228 125.185 45.7656 124.138 42.9581C123.091 40.1347 122.901 36.7562 123.567 32.8224C124.201 29.0473 125.51 25.7481 127.493 22.9247C129.491 20.1013 132.005 17.9045 135.035 16.3342C138.08 14.7638 141.491 13.9787 145.266 13.9787C148.026 13.9787 150.445 14.407 152.523 15.2635C154.616 16.12 156.321 17.3652 157.638 18.9989C158.954 20.6327 159.843 22.6075 160.303 24.9233C160.779 27.2232 160.779 29.8246 160.303 32.7273L159.827 35.7727H127.183L128.325 28.5398H148.882C149.041 27.4929 148.938 26.5729 148.573 25.7798C148.224 24.9709 147.661 24.3443 146.884 23.9002C146.122 23.4402 145.202 23.2102 144.124 23.2102C143.045 23.2102 142.03 23.4402 141.078 23.9002C140.142 24.3602 139.341 25.0026 138.675 25.8274C138.025 26.6522 137.589 27.6198 137.367 28.7301L135.939 36.3438C135.749 37.5175 135.82 38.5644 136.153 39.4844C136.486 40.4044 137.065 41.1261 137.89 41.6495C138.715 42.1729 139.778 42.4347 141.078 42.4347C141.967 42.4347 142.807 42.3157 143.6 42.0778C144.409 41.824 145.123 41.4592 145.742 40.9833C146.376 40.4916 146.884 39.8968 147.264 39.1989H159.256C158.399 41.7367 157.043 43.9415 155.187 45.8132C153.347 47.669 151.079 49.1125 148.383 50.1435C145.702 51.1586 142.664 51.6662 139.27 51.6662ZM200.019 26.3509H188.217C188.281 25.5895 188.146 24.9392 187.813 24.3999C187.48 23.8606 187.012 23.4482 186.409 23.1626C185.822 22.8771 185.156 22.7344 184.411 22.7344C183.11 22.7344 181.928 23.0278 180.866 23.6147C179.803 24.1857 179.208 24.9392 179.081 25.875C179.002 26.2398 179.121 26.5808 179.438 26.8981C179.755 27.2153 180.588 27.5088 181.936 27.7784L189.169 29.1108C192.786 29.777 195.419 30.9904 197.068 32.7511C198.734 34.4959 199.337 36.8037 198.877 39.6747C198.448 42.165 197.354 44.3063 195.593 46.0987C193.832 47.8911 191.596 49.2711 188.884 50.2386C186.187 51.1903 183.205 51.6662 179.938 51.6662C174.18 51.6662 169.865 50.5162 166.994 48.2163C164.139 45.9163 162.839 42.9105 163.092 39.1989H175.845C175.877 40.3885 176.274 41.2847 177.035 41.8874C177.812 42.4743 178.843 42.7836 180.128 42.8153C181.524 42.8629 182.745 42.5853 183.792 41.9826C184.839 41.364 185.426 40.5947 185.553 39.6747C185.6 39.1513 185.37 38.7547 184.863 38.4851C184.371 38.2154 183.427 37.9458 182.031 37.6761L175.75 36.5341C172.134 35.8838 169.501 34.5831 167.851 32.6321C166.201 30.6652 165.63 28.1591 166.138 25.1136C166.55 22.6868 167.534 20.6486 169.088 18.9989C170.658 17.3493 172.72 16.1042 175.274 15.2635C177.828 14.407 180.778 13.9787 184.125 13.9787C189.597 13.9787 193.737 15.0811 196.545 17.2859C199.368 19.4748 200.526 22.4964 200.019 26.3509ZM219.421 51.6662C215.519 51.6662 212.284 50.9207 209.714 49.4297C207.144 47.9228 205.336 45.7656 204.289 42.9581C203.242 40.1347 203.052 36.7562 203.718 32.8224C204.353 29.0473 205.661 25.7481 207.644 22.9247C209.643 20.1013 212.157 17.9045 215.186 16.3342C218.232 14.7638 221.642 13.9787 225.417 13.9787C228.177 13.9787 230.596 14.407 232.674 15.2635C234.768 16.12 236.473 17.3652 237.789 18.9989C239.106 20.6327 239.994 22.6075 240.454 24.9233C240.93 27.2232 240.93 29.8246 240.454 32.7273L239.978 35.7727H207.335L208.477 28.5398H229.034C229.192 27.4929 229.089 26.5729 228.724 25.7798C228.375 24.9709 227.812 24.3443 227.035 23.9002C226.274 23.4402 225.354 23.2102 224.275 23.2102C223.197 23.2102 222.181 23.4402 221.23 23.9002C220.294 24.3602 219.493 25.0026 218.827 25.8274C218.176 26.6522 217.74 27.6198 217.518 28.7301L216.09 36.3438C215.9 37.5175 215.972 38.5644 216.305 39.4844C216.638 40.4044 217.217 41.1261 218.041 41.6495C218.866 42.1729 219.929 42.4347 221.23 42.4347C222.118 42.4347 222.959 42.3157 223.752 42.0778C224.561 41.824 225.274 41.4592 225.893 40.9833C226.527 40.4916 227.035 39.8968 227.416 39.1989H239.407C238.551 41.7367 237.195 43.9415 235.339 45.8132C233.499 47.669 231.23 49.1125 228.534 50.1435C225.853 51.1586 222.816 51.6662 219.421 51.6662ZM280.17 26.3509H268.369C268.432 25.5895 268.297 24.9392 267.964 24.3999C267.631 23.8606 267.163 23.4482 266.561 23.1626C265.974 22.8771 265.307 22.7344 264.562 22.7344C263.261 22.7344 262.08 23.0278 261.017 23.6147C259.954 24.1857 259.359 24.9392 259.232 25.875C259.153 26.2398 259.272 26.5808 259.589 26.8981C259.907 27.2153 260.739 27.5088 262.088 27.7784L269.32 29.1108C272.937 29.777 275.57 30.9904 277.22 32.7511C278.885 34.4959 279.488 36.8037 279.028 39.6747C278.6 42.165 277.505 44.3063 275.744 46.0987C273.984 47.8911 271.747 49.2711 269.035 50.2386C266.338 51.1903 263.356 51.6662 260.089 51.6662C254.331 51.6662 250.017 50.5162 247.146 48.2163C244.291 45.9163 242.99 42.9105 243.244 39.1989H255.997C256.028 40.3885 256.425 41.2847 257.186 41.8874C257.963 42.4743 258.994 42.7836 260.279 42.8153C261.675 42.8629 262.896 42.5853 263.943 41.9826C264.99 41.364 265.577 40.5947 265.704 39.6747C265.752 39.1513 265.522 38.7547 265.014 38.4851C264.522 38.2154 263.579 37.9458 262.183 37.6761L255.901 36.5341C252.285 35.8838 249.652 34.5831 248.002 32.6321C246.353 30.6652 245.782 28.1591 246.289 25.1136C246.702 22.6868 247.685 20.6486 249.24 18.9989C250.81 17.3493 252.872 16.1042 255.426 15.2635C257.979 14.407 260.93 13.9787 264.276 13.9787C269.749 13.9787 273.889 15.0811 276.696 17.2859C279.52 19.4748 280.677 22.4964 280.17 26.3509Z"/>
</mask>
<path d="M9.58842 49.6914L8.95118 51.0493L8.95743 51.0522L9.58842 49.6914ZM3.30717 44.1953L2.00479 44.9395L2.00863 44.9462L3.30717 44.1953ZM2.09375 36.1534V34.6534H0.830689L0.615649 35.898L2.09375 36.1534ZM15.2273 36.1534L16.7019 36.4283L17.0328 34.6534H15.2273V36.1534ZM15.5842 38.6754L14.2716 39.4015L14.2809 39.4182L14.2905 39.4347L15.5842 38.6754ZM17.5352 40.3885L18.1762 39.0324L17.5352 40.3885ZM24.2447 40.1744L23.5738 38.8327L23.5661 38.8366L24.2447 40.1744ZM26.957 38.0092L25.7878 37.0696L25.7826 37.076L25.7776 37.0825L26.957 38.0092ZM28.2656 35.2017L26.7873 34.9476L26.786 34.9552L26.7848 34.9629L28.2656 35.2017ZM27.766 32.7273L26.5835 33.6502L26.589 33.6573L26.5947 33.6643L27.766 32.7273ZM25.5057 31.2997L25.0518 32.7294L25.0622 32.7327L25.0726 32.7358L25.5057 31.2997ZM16.75 30.8239L15.2704 30.5773L14.9793 32.3239H16.75V30.8239ZM18.2727 21.6875V20.1875H17.002L16.7931 21.4409L18.2727 21.6875ZM29.4553 18.9276L30.5868 19.9124L30.5956 19.902L29.4553 18.9276ZM30.8352 15.9773L29.3564 15.7261L29.3551 15.7336L29.3539 15.7411L30.8352 15.9773ZM30.6211 13.7884L29.2406 14.3751L29.2496 14.3961L29.2592 14.4169L30.6211 13.7884ZM29.1697 12.3132L28.4865 13.6486L28.4989 13.6548L29.1697 12.3132ZM22.9361 12.4322L22.4029 11.0301L22.4029 11.0301L22.9361 12.4322ZM18.7486 16.8338V18.3338H20.0466L20.233 17.0493L18.7486 16.8338ZM6.18608 16.8338L4.70607 16.5898L4.41848 18.3338H6.18608V16.8338ZM9.87393 8.93466L8.73728 7.95587L8.73728 7.95587L9.87393 8.93466ZM17.2972 3.55753L16.7002 2.18146L16.6975 2.18262L17.2972 3.55753ZM36.593 3.6527L37.2897 2.32427L37.2897 2.32427L36.593 3.6527ZM43.4929 16.4531L42.0133 16.2065L42.0131 16.2079L43.4929 16.4531ZM39.6147 22.9723L40.4743 24.2016L40.4743 24.2016L39.6147 22.9723ZM31.6918 25.5895L31.5647 24.0949L30.1918 24.2116V25.5895H31.6918ZM31.6918 25.9702H30.1918V27.308L31.5209 27.4604L31.6918 25.9702ZM39.7099 29.777L40.8351 28.7851L40.8351 28.7851L39.7099 29.777ZM41.7798 37.6761L40.2992 37.4356L40.2988 37.4381L41.7798 37.6761ZM38.092 44.8377L37.0112 43.7976L37.0112 43.7976L38.092 44.8377ZM30.288 49.8342L29.7491 48.4343L29.7467 48.4352L30.288 49.8342ZM19.7955 50.1662C15.9916 50.1662 12.8155 49.5344 10.2194 48.3306L8.95743 51.0522C12.0398 52.4815 15.6684 53.1662 19.7955 53.1662V50.1662ZM10.2257 48.3335C7.61673 47.1092 5.77662 45.4694 4.60572 43.4445L2.00863 44.9462C3.53422 47.5845 5.88161 49.6088 8.95119 51.0493L10.2257 48.3335ZM4.60954 43.4511C3.47482 41.4654 3.09868 39.1474 3.57185 36.4088L0.615649 35.898C0.041943 39.2186 0.474749 42.2619 2.00481 44.9395L4.60954 43.4511ZM2.09375 37.6534H15.2273V34.6534H2.09375V37.6534ZM13.7527 35.8785C13.5223 37.114 13.6707 38.3153 14.2716 39.4015L16.8967 37.9493C16.6728 37.5446 16.5832 37.0645 16.7019 36.4283L13.7527 35.8785ZM14.2905 39.4347C14.8922 40.4597 15.7887 41.2221 16.8941 41.7446L18.1762 39.0324C17.5368 38.7301 17.1327 38.3504 16.8778 37.9161L14.2905 39.4347ZM16.8941 41.7446C18.0004 42.2676 19.2334 42.5071 20.5568 42.5071V39.5071C19.5962 39.5071 18.8147 39.3342 18.1762 39.0324L16.8941 41.7446ZM20.5568 42.5071C22.1301 42.5071 23.5959 42.1854 24.9232 41.5121L23.5661 38.8366C22.7045 39.2737 21.7118 39.5071 20.5568 39.5071V42.5071ZM24.9155 41.516C26.2041 40.8717 27.2887 40.015 28.1365 38.936L25.7776 37.0825C25.2295 37.78 24.5059 38.3667 23.5739 38.8327L24.9155 41.516ZM28.1263 38.9488C28.9791 37.8875 29.5408 36.7156 29.7465 35.4406L26.7848 34.9629C26.6732 35.6546 26.3625 36.3544 25.7878 37.0696L28.1263 38.9488ZM29.7439 35.4558C29.9702 34.1392 29.7811 32.845 28.9373 31.7902L26.5947 33.6643C26.766 33.8785 26.91 34.2339 26.7873 34.9476L29.7439 35.4558ZM28.9485 31.8044C28.205 30.8518 27.1559 30.2307 25.9388 29.8636L25.0726 32.7358C25.8541 32.9715 26.3119 33.3021 26.5835 33.6502L28.9485 31.8044ZM25.9596 29.87C24.7784 29.4951 23.445 29.3239 21.9844 29.3239V32.3239C23.2203 32.3239 24.2343 32.4699 25.0518 32.7294L25.9596 29.87ZM21.9844 29.3239H16.75V32.3239H21.9844V29.3239ZM18.2296 31.0705L19.7523 21.9341L16.7931 21.4409L15.2704 30.5773L18.2296 31.0705ZM18.2727 23.1875H22.9361V20.1875H18.2727V23.1875ZM22.9361 23.1875C24.4707 23.1875 25.9148 22.9067 27.2479 22.3246L26.0475 19.5752C25.1283 19.9766 24.098 20.1875 22.9361 20.1875V23.1875ZM27.2479 22.3246C28.5609 21.7513 29.6835 20.9501 30.5867 19.9123L28.3238 17.9428C27.736 18.6181 26.9869 19.1651 26.0475 19.5752L27.2479 22.3246ZM30.5956 19.902C31.5139 18.8274 32.097 17.5907 32.3165 16.2134L29.3539 15.7411C29.2245 16.5528 28.8876 17.2829 28.3149 17.9531L30.5956 19.902ZM32.3141 16.2284C32.4947 15.1648 32.424 14.1152 31.983 13.1598L29.2592 14.4169C29.3892 14.6988 29.4613 15.1084 29.3564 15.7261L32.3141 16.2284ZM32.0016 13.2016C31.5742 12.196 30.8125 11.4575 29.8406 10.9716L28.4989 13.6548C28.9228 13.8668 29.1287 14.1118 29.2406 14.3751L32.0016 13.2016ZM29.853 10.9778C28.8835 10.4818 27.718 10.2898 26.4574 10.2898V13.2898C27.4492 13.2898 28.0919 13.4467 28.4865 13.6486L29.853 10.9778ZM26.4574 10.2898C25.0564 10.2898 23.7018 10.5362 22.4029 11.0301L23.4693 13.8342C24.4228 13.4716 25.4157 13.2898 26.4574 13.2898V10.2898ZM22.4029 11.0301C21.1024 11.5247 19.9721 12.2279 19.0441 13.156L21.1654 15.2773C21.7601 14.6826 22.5174 14.1962 23.4693 13.8342L22.4029 11.0301ZM19.0441 13.156C18.0743 14.1258 17.4573 15.2876 17.2641 16.6183L20.233 17.0493C20.3254 16.4131 20.6125 15.8302 21.1654 15.2773L19.0441 13.156ZM18.7486 15.3338H6.18608V18.3338H18.7486V15.3338ZM7.66609 17.0779C8.11312 14.3669 9.22399 11.9882 11.0106 9.91344L8.73728 7.95587C6.59017 10.4493 5.24247 13.3367 4.70607 16.5898L7.66609 17.0779ZM11.0106 9.91344C12.819 7.8133 15.1047 6.15032 17.8969 4.93243L16.6975 2.18262C13.5257 3.56606 10.8625 5.48783 8.73728 7.95587L11.0106 9.91344ZM17.8943 4.93359C20.6878 3.72159 23.7578 3.10653 27.1236 3.10653V0.106532C23.3833 0.106532 19.9024 0.792138 16.7002 2.18146L17.8943 4.93359ZM27.1236 3.10653C30.6551 3.10653 33.5593 3.75554 35.8964 4.98113L37.2897 2.32427C34.4242 0.82163 31.0154 0.106532 27.1236 0.106532V3.10653ZM35.8964 4.98113C38.2739 6.22785 39.949 7.83857 41.0084 9.79244L43.6457 8.36239C42.2625 5.81153 40.1148 3.80577 37.2897 2.32427L35.8964 4.98113ZM41.0084 9.79244C42.0615 11.7344 42.4057 13.852 42.0133 16.2065L44.9725 16.6997C45.4683 13.7247 45.0353 10.9251 43.6457 8.36239L41.0084 9.79244ZM42.0131 16.2079C41.5938 18.7376 40.4897 20.5302 38.7551 21.743L40.4743 24.2016C42.959 22.4642 44.4403 19.9106 44.9727 16.6984L42.0131 16.2079ZM38.7551 21.743C36.9078 23.0348 34.5356 23.8424 31.5647 24.0949L31.8188 27.0841C35.1926 26.7973 38.1024 25.8601 40.4743 24.2016L38.7551 21.743ZM30.1918 25.5895V25.9702H33.1918V25.5895H30.1918ZM31.5209 27.4604C34.6947 27.8244 36.9937 28.964 38.5846 30.7689L40.8351 28.7851C38.6509 26.3073 35.6045 24.909 31.8627 24.4799L31.5209 27.4604ZM38.5846 30.7689C40.1404 32.5338 40.7437 34.6994 40.2992 37.4356L43.2604 37.9166C43.8311 34.4034 43.0545 31.3028 40.8351 28.7851L38.5846 30.7689ZM40.2988 37.4381C39.9232 39.7751 38.8483 41.8887 37.0112 43.7976L39.1728 45.8779C41.3962 43.5675 42.7799 40.9067 43.2608 37.9142L40.2988 37.4381ZM37.0112 43.7976C35.1557 45.7256 32.7495 47.2792 29.7491 48.4343L30.8269 51.234C34.1712 49.9464 36.9677 48.1691 39.1728 45.8779L37.0112 43.7976ZM29.7467 48.4352C26.7844 49.5814 23.4735 50.1662 19.7955 50.1662V53.1662C23.7945 53.1662 27.4786 52.5296 30.8293 51.2331L29.7467 48.4352ZM58.9403 51L57.4607 50.7534L57.1696 52.5H58.9403V51ZM65.0312 14.4545V12.9545H63.7605L63.5516 14.2079L65.0312 14.4545ZM77.4985 14.4545L78.9786 14.6979L79.2652 12.9545H77.4985V14.4545ZM76.3564 21.402L74.8763 21.1587L74.5897 22.902H76.3564V21.402ZM76.7371 21.402V22.902H77.67L78.0825 22.0653L76.7371 21.402ZM81.5194 15.9773L80.7054 14.7174L80.7054 14.7174L81.5194 15.9773ZM94.7243 16.0249L93.763 17.1763L93.7696 17.1818L94.7243 16.0249ZM97.1988 21.402L95.6988 21.4126L95.7094 22.902H97.1988V21.402ZM97.5795 21.402V22.902H98.5585L98.9526 22.0058L97.5795 21.402ZM102.409 16.0249L103.184 17.3095L103.19 17.3055L102.409 16.0249ZM117.779 17.3572L116.61 18.2963L116.614 18.3013L117.779 17.3572ZM119.564 26.3509L118.085 26.1002L118.084 26.1052L119.564 26.3509ZM115.472 51V52.5H116.743L116.951 51.2457L115.472 51ZM102.338 51L100.859 50.7491L100.562 52.5H102.338V51ZM105.954 29.6818L107.433 29.9327L107.437 29.9103L107.44 29.8878L105.954 29.6818ZM105.288 25.9226L104.073 26.8024L104.081 26.8124L105.288 25.9226ZM98.8167 25.9226L99.8681 26.9924L99.8682 26.9923L98.8167 25.9226ZM97.1036 29.6818L98.5825 29.9327L98.5863 29.9103L98.5894 29.8878L97.1036 29.6818ZM93.4871 51V52.5H94.7541L94.966 51.2509L93.4871 51ZM80.9246 51L79.4458 50.7491L79.1487 52.5H80.9246V51ZM84.5411 29.6818L86.02 29.9327L86.0238 29.9103L86.0269 29.8878L84.5411 29.6818ZM83.8749 25.9226L82.66 26.8024L82.6673 26.8124L83.8749 25.9226ZM78.4026 25.1612L77.6645 23.8554L77.6583 23.8589L77.6522 23.8624L78.4026 25.1612ZM76.6182 26.9457L75.3389 26.1624L75.3343 26.17L76.6182 26.9457ZM75.6903 29.6818L77.1691 29.9327L77.1716 29.918L77.1738 29.9032L75.6903 29.6818ZM72.0738 51V52.5H73.3407L73.5526 51.2509L72.0738 51ZM60.4198 51.2466L66.5108 14.7011L63.5516 14.2079L57.4607 50.7534L60.4198 51.2466ZM65.0312 15.9545H77.4985V12.9545H65.0312V15.9545ZM76.0184 14.2112L74.8763 21.1587L77.8366 21.6453L78.9786 14.6979L76.0184 14.2112ZM76.3564 22.902H76.7371V19.902H76.3564V22.902ZM78.0825 22.0653C79.0934 20.0149 80.508 18.4167 82.3335 17.2371L80.7054 14.7174C78.4068 16.2026 76.6332 18.2208 75.3918 20.7387L78.0825 22.0653ZM82.3335 17.2371C84.1429 16.068 86.1659 15.4787 88.4431 15.4787V12.4787C85.6128 12.4787 83.0201 13.2218 80.7054 14.7174L82.3335 17.2371ZM88.4431 15.4787C90.7187 15.4787 92.4503 16.0802 93.763 17.1763L95.6857 14.8734C93.7309 13.2413 91.275 12.4787 88.4431 12.4787V15.4787ZM93.7696 17.1818C95.0396 18.2299 95.6859 19.5917 95.6988 21.4126L98.6987 21.3913C98.6799 18.7393 97.6766 16.5163 95.6791 14.8679L93.7696 17.1818ZM97.1988 22.902H97.5795V19.902H97.1988V22.902ZM98.9526 22.0058C99.8027 20.0725 101.193 18.5096 103.184 17.3095L101.635 14.7402C99.1527 16.2366 97.3231 18.2585 96.2063 20.7982L98.9526 22.0058ZM103.19 17.3055C105.182 16.0909 107.392 15.4787 109.856 15.4787V12.4787C106.865 12.4787 104.11 13.2306 101.628 14.7443L103.19 17.3055ZM109.856 15.4787C112.978 15.4787 115.145 16.4713 116.61 18.2963L118.949 16.4182C116.798 13.7385 113.683 12.4787 109.856 12.4787V15.4787ZM116.614 18.3013C118.089 20.1226 118.671 22.6419 118.085 26.1002L121.043 26.6015C121.726 22.5731 121.118 19.0966 118.945 16.4132L116.614 18.3013ZM118.084 26.1052L113.992 50.7543L116.951 51.2457L121.044 26.5965L118.084 26.1052ZM115.472 49.5H102.338V52.5H115.472V49.5ZM103.817 51.2509L107.433 29.9327L104.476 29.4309L100.859 50.7491L103.817 51.2509ZM107.44 29.8878C107.692 28.0688 107.479 26.3676 106.496 25.0328L104.081 26.8124C104.429 27.2858 104.661 28.0908 104.469 29.4759L107.44 29.8878ZM106.503 25.0428C105.496 23.6524 103.979 23.0426 102.243 23.0426V26.0426C103.235 26.0426 103.748 26.3528 104.073 26.8023L106.503 25.0428ZM102.243 23.0426C100.513 23.0426 98.99 23.6488 97.7651 24.8529L99.8682 26.9923C100.515 26.3564 101.276 26.0426 102.243 26.0426V23.0426ZM97.7653 24.8527C96.5546 26.0425 95.8736 27.6305 95.6178 29.4759L98.5894 29.8878C98.7777 28.529 99.2388 27.6109 99.8681 26.9924L97.7653 24.8527ZM95.6247 29.4309L92.0083 50.7491L94.966 51.2509L98.5825 29.9327L95.6247 29.4309ZM93.4871 49.5H80.9246V52.5H93.4871V49.5ZM82.4035 51.2509L86.02 29.9327L83.0622 29.4309L79.4458 50.7491L82.4035 51.2509ZM86.0269 29.8878C86.279 28.0688 86.0661 26.3676 85.0825 25.0328L82.6673 26.8124C83.0161 27.2858 83.2473 28.0908 83.0553 29.4759L86.0269 29.8878ZM85.0898 25.0428C84.083 23.6524 82.5652 23.0426 80.8295 23.0426V26.0426C81.8219 26.0426 82.3344 26.3528 82.66 26.8023L85.0898 25.0428ZM80.8295 23.0426C79.6986 23.0426 78.6329 23.308 77.6645 23.8554L79.1407 26.4671C79.6316 26.1896 80.1838 26.0426 80.8295 26.0426V23.0426ZM77.6522 23.8624C76.6997 24.4127 75.9312 25.1949 75.3389 26.1624L77.8974 27.7289C78.2568 27.142 78.6779 26.7345 79.153 26.46L77.6522 23.8624ZM75.3343 26.17C74.7528 27.1325 74.3886 28.2414 74.2067 29.4604L77.1738 29.9032C77.3091 28.9968 77.5635 28.2816 77.902 27.7213L75.3343 26.17ZM74.2114 29.4309L70.5949 50.7491L73.5526 51.2509L77.1691 29.9327L74.2114 29.4309ZM72.0738 49.5H58.9403V52.5H72.0738V49.5ZM129.563 49.4297L128.804 50.7236L128.81 50.7271L129.563 49.4297ZM124.138 42.9581L122.732 43.4796L122.732 43.4822L124.138 42.9581ZM123.567 32.8224L125.046 33.0729L125.046 33.0711L123.567 32.8224ZM127.493 22.9247L126.268 22.0581L126.265 22.0627L127.493 22.9247ZM135.035 16.3342L134.348 15.001L134.345 15.0024L135.035 16.3342ZM152.523 15.2635L151.951 16.6503L151.955 16.6518L152.523 15.2635ZM157.638 18.9989L156.47 19.9401L156.47 19.9401L157.638 18.9989ZM160.303 24.9233L158.831 25.2155L158.834 25.2272L160.303 24.9233ZM160.303 32.7273L158.822 32.4846L158.821 32.4957L160.303 32.7273ZM159.827 35.7727V37.2727H161.111L161.309 36.0043L159.827 35.7727ZM127.183 35.7727L125.702 35.5388L125.428 37.2727H127.183V35.7727ZM128.325 28.5398V27.0398H127.044L126.844 28.3058L128.325 28.5398ZM148.882 28.5398V30.0398H150.172L150.365 28.7645L148.882 28.5398ZM148.573 25.7798L147.196 26.374L147.203 26.3904L147.21 26.4067L148.573 25.7798ZM146.884 23.9002L146.108 25.1841L146.124 25.1935L146.139 25.2026L146.884 23.9002ZM141.078 23.9002L140.426 22.5497L140.417 22.554L141.078 23.9002ZM138.675 25.8274L137.508 24.8849L137.503 24.8918L137.497 24.8987L138.675 25.8274ZM137.367 28.7301L135.896 28.4359L135.894 28.4448L135.892 28.4537L137.367 28.7301ZM135.939 36.3438L134.465 36.0673L134.461 36.0854L134.458 36.1036L135.939 36.3438ZM136.153 39.4844L137.564 38.9737L137.564 38.9737L136.153 39.4844ZM137.89 41.6495L138.694 40.383L138.694 40.383L137.89 41.6495ZM143.6 42.0778L144.031 43.5145L144.04 43.5118L144.049 43.509L143.6 42.0778ZM145.742 40.9833L146.656 42.1723L146.661 42.1689L145.742 40.9833ZM147.264 39.1989V37.6989H146.374L145.948 38.4806L147.264 39.1989ZM159.256 39.1989L160.677 39.6785L161.345 37.6989H159.256V39.1989ZM155.187 45.8132L154.122 44.7571L154.122 44.7571L155.187 45.8132ZM148.383 50.1435L148.914 51.5463L148.918 51.5445L148.383 50.1435ZM139.27 50.1662C135.552 50.1662 132.596 49.4553 130.315 48.1323L128.81 50.7271C131.669 52.3861 135.184 53.1662 139.27 53.1662V50.1662ZM130.321 48.1358C128.051 46.8046 126.471 44.9203 125.543 42.434L122.732 43.4822C123.899 46.611 125.935 49.041 128.804 50.7236L130.321 48.1358ZM125.544 42.4366C124.614 39.9272 124.41 36.829 125.046 33.0729L122.088 32.572C121.392 36.6833 121.568 40.3422 122.732 43.4796L125.544 42.4366ZM125.046 33.0711C125.648 29.4922 126.88 26.4078 128.72 23.7868L126.265 22.0627C124.14 25.0884 122.755 28.6025 122.088 32.5738L125.046 33.0711ZM128.717 23.7914C130.579 21.1606 132.911 19.1245 135.725 17.6659L134.345 15.0024C131.1 16.6845 128.403 19.042 126.268 22.0581L128.717 23.7914ZM135.722 17.6674C138.534 16.2175 141.705 15.4787 145.266 15.4787V12.4787C141.276 12.4787 137.627 13.3102 134.348 15.001L135.722 17.6674ZM145.266 15.4787C147.873 15.4787 150.091 15.8834 151.951 16.6503L153.094 13.8767C150.799 12.9305 148.178 12.4787 145.266 12.4787V15.4787ZM151.955 16.6518C153.833 17.4201 155.325 18.519 156.47 19.9401L158.806 18.0577C157.318 16.2114 155.4 14.82 153.09 13.8752L151.955 16.6518ZM156.47 19.9401C157.616 21.3627 158.413 23.1072 158.831 25.2155L161.774 24.6311C161.273 22.1078 160.293 19.9027 158.806 18.0577L156.47 19.9401ZM158.834 25.2272C159.264 27.3082 159.276 29.7192 158.822 32.4846L161.783 32.9699C162.281 29.9299 162.293 27.1383 161.772 24.6194L158.834 25.2272ZM158.821 32.4957L158.345 35.5412L161.309 36.0043L161.785 32.9588L158.821 32.4957ZM159.827 34.2727H127.183V37.2727H159.827V34.2727ZM128.665 36.0067L129.807 28.7737L126.844 28.3058L125.702 35.5388L128.665 36.0067ZM128.325 30.0398H148.882V27.0398H128.325V30.0398ZM150.365 28.7645C150.558 27.4903 150.447 26.264 149.936 25.153L147.21 26.4067C147.429 26.8818 147.523 27.4955 147.399 28.3151L150.365 28.7645ZM149.95 25.1857C149.47 24.0732 148.682 23.2004 147.628 22.5978L146.139 25.2026C146.639 25.4883 146.978 25.8686 147.196 26.374L149.95 25.1857ZM147.659 22.6163C146.619 21.9876 145.418 21.7102 144.124 21.7102V24.7102C144.987 24.7102 145.626 24.8928 146.108 25.1841L147.659 22.6163ZM144.124 21.7102C142.824 21.7102 141.585 21.9893 140.426 22.5497L141.731 25.2507C142.475 24.8912 143.266 24.7102 144.124 24.7102V21.7102ZM140.417 22.554C139.282 23.1119 138.309 23.8933 137.508 24.8849L139.842 26.7699C140.374 26.1119 141.003 25.6085 141.74 25.2464L140.417 22.554ZM137.497 24.8987C136.69 25.9232 136.16 27.1125 135.896 28.4359L138.838 29.0243C139.017 28.1271 139.36 27.3812 139.853 26.7561L137.497 24.8987ZM135.892 28.4537L134.465 36.0673L137.413 36.6202L138.841 29.0065L135.892 28.4537ZM134.458 36.1036C134.236 37.4756 134.306 38.7882 134.743 39.995L137.564 38.9737C137.334 38.3406 137.262 37.5594 137.42 36.5839L134.458 36.1036ZM134.743 39.995C135.189 41.2266 135.981 42.2144 137.086 42.916L138.694 40.383C138.15 40.0377 137.784 39.5821 137.564 38.9737L134.743 39.995ZM137.086 42.916C138.219 43.6347 139.585 43.9347 141.078 43.9347V40.9347C139.97 40.9347 139.211 40.7111 138.694 40.383L137.086 42.916ZM141.078 43.9347C142.102 43.9347 143.089 43.7973 144.031 43.5145L143.169 40.641C142.526 40.8341 141.831 40.9347 141.078 40.9347V43.9347ZM144.049 43.509C145.012 43.207 145.886 42.7645 146.656 42.1722L144.827 39.7944C144.36 40.1538 143.807 40.441 143.151 40.6465L144.049 43.509ZM146.661 42.1689C147.457 41.5518 148.101 40.7984 148.581 39.9171L145.948 38.4806C145.667 38.9951 145.295 39.4314 144.823 39.7977L146.661 42.1689ZM147.264 40.6989H159.256V37.6989H147.264V40.6989ZM157.835 38.7192C157.05 41.0439 155.814 43.0506 154.122 44.7571L156.252 46.8693C158.272 44.8325 159.749 42.4296 160.677 39.6785L157.835 38.7192ZM154.122 44.7571C152.447 46.4465 150.365 47.7794 147.847 48.7424L148.918 51.5445C151.793 50.4455 154.248 48.8916 156.253 46.8693L154.122 44.7571ZM147.851 48.7407C145.369 49.6809 142.516 50.1662 139.27 50.1662V53.1662C142.813 53.1662 146.035 52.6363 148.914 51.5462L147.851 48.7407ZM200.019 26.3509V27.8509H201.334L201.506 26.5467L200.019 26.3509ZM188.217 26.3509L186.723 26.2263L186.587 27.8509H188.217V26.3509ZM186.409 23.1626L185.753 24.5115L185.76 24.5149L185.767 24.5182L186.409 23.1626ZM180.866 23.6147L181.575 24.936L181.583 24.932L181.591 24.9278L180.866 23.6147ZM179.081 25.875L180.547 26.1936L180.559 26.1355L180.567 26.0765L179.081 25.875ZM181.936 27.7784L181.642 29.2493L181.653 29.2515L181.664 29.2536L181.936 27.7784ZM189.169 29.1108L189.441 27.6356L189.441 27.6356L189.169 29.1108ZM197.068 32.7511L195.974 33.7767L195.983 33.7868L197.068 32.7511ZM198.877 39.6747L200.355 39.9289L200.356 39.9205L200.358 39.912L198.877 39.6747ZM195.593 46.0987L194.523 45.0476L194.523 45.0476L195.593 46.0987ZM188.884 50.2386L189.383 51.6531L189.388 51.6514L188.884 50.2386ZM166.994 48.2163L166.053 49.3844L166.057 49.3869L166.994 48.2163ZM163.092 39.1989V37.6989H161.691L161.596 39.0965L163.092 39.1989ZM175.845 39.1989L177.345 39.1589L177.306 37.6989H175.845V39.1989ZM177.035 41.8874L176.104 43.0635L176.117 43.0741L176.131 43.0845L177.035 41.8874ZM180.128 42.8153L180.179 41.3161L180.165 41.3158L180.128 42.8153ZM183.792 41.9826L184.54 43.2825L184.548 43.2783L184.555 43.274L183.792 41.9826ZM185.553 39.6747L187.039 39.8797L187.043 39.8452L187.046 39.8105L185.553 39.6747ZM184.863 38.4851L184.141 39.8003L184.15 39.8051L184.159 39.8098L184.863 38.4851ZM182.031 37.6761L182.316 36.2034L182.308 36.2018L182.3 36.2003L182.031 37.6761ZM175.75 36.5341L176.018 35.0583L176.016 35.0578L175.75 36.5341ZM167.851 32.6321L166.702 33.596L166.706 33.6006L167.851 32.6321ZM166.138 25.1136L164.659 24.8623L164.658 24.867L166.138 25.1136ZM169.088 18.9989L168.002 17.9647L167.996 17.9702L169.088 18.9989ZM175.274 15.2635L175.743 16.6883L175.751 16.6856L175.274 15.2635ZM196.545 17.2859L195.618 18.4656L195.626 18.4713L196.545 17.2859ZM200.019 24.8509H188.217V27.8509H200.019V24.8509ZM189.712 26.4754C189.797 25.4615 189.623 24.4763 189.089 23.6116L186.537 25.1881C186.669 25.402 186.765 25.7174 186.723 26.2263L189.712 26.4754ZM189.089 23.6116C188.596 22.8128 187.901 22.2097 187.051 21.807L185.767 24.5182C186.122 24.6866 186.364 24.9083 186.537 25.1881L189.089 23.6116ZM187.065 21.8138C186.247 21.4155 185.351 21.2344 184.411 21.2344V24.2344C184.961 24.2344 185.398 24.3387 185.753 24.5115L187.065 21.8138ZM184.411 21.2344C182.875 21.2344 181.441 21.5834 180.14 22.3016L181.591 24.9278C182.416 24.4722 183.345 24.2344 184.411 24.2344V21.2344ZM180.156 22.2934C178.8 23.0219 177.804 24.132 177.595 25.6735L180.567 26.0765C180.612 25.7463 180.806 25.3496 181.575 24.936L180.156 22.2934ZM177.615 25.5564C177.404 26.5261 177.783 27.3648 178.377 27.9587L180.499 25.8374C180.462 25.8007 180.496 25.8224 180.527 25.9103C180.542 25.9543 180.553 26.0054 180.556 26.06C180.559 26.1143 180.554 26.1601 180.547 26.1936L177.615 25.5564ZM178.377 27.9587C178.784 28.3656 179.34 28.6081 179.802 28.7708C180.311 28.9502 180.932 29.1073 181.642 29.2493L182.23 26.3075C181.592 26.1799 181.123 26.0554 180.799 25.9414C180.428 25.8106 180.409 25.7478 180.499 25.8374L178.377 27.9587ZM181.664 29.2536L188.897 30.586L189.441 27.6356L182.208 26.3032L181.664 29.2536ZM188.897 30.586C192.354 31.2228 194.631 32.3438 195.974 33.7766L198.163 31.7255C196.206 29.637 193.217 28.3312 189.441 27.6356L188.897 30.586ZM195.983 33.7868C197.257 35.1214 197.798 36.9229 197.395 39.4374L200.358 39.912C200.875 36.6846 200.21 33.8703 198.153 31.7154L195.983 33.7868ZM197.398 39.4205C197.021 41.6116 196.068 43.4744 194.523 45.0476L196.663 47.1499C198.639 45.1383 199.875 42.7184 200.355 39.9289L197.398 39.4205ZM194.523 45.0476C192.943 46.656 190.91 47.9233 188.38 48.8258L189.388 51.6514C192.282 50.6188 194.722 49.1262 196.663 47.1499L194.523 45.0476ZM188.384 48.8242C185.869 49.7118 183.059 50.1662 179.938 50.1662V53.1662C183.351 53.1662 186.505 52.6689 189.383 51.6531L188.384 48.8242ZM179.938 50.1662C174.339 50.1662 170.424 49.0414 167.932 47.0456L166.057 49.3869C169.307 51.9911 174.02 53.1662 179.938 53.1662V50.1662ZM167.935 47.0481C165.469 45.0609 164.368 42.5327 164.589 39.3012L161.596 39.0965C161.309 43.2884 162.81 46.7717 166.053 49.3844L167.935 47.0481ZM163.092 40.6989H175.845V37.6989H163.092V40.6989ZM174.346 39.2388C174.386 40.763 174.916 42.1234 176.104 43.0635L177.966 40.7114C177.631 40.446 177.368 40.014 177.345 39.1589L174.346 39.2388ZM176.131 43.0845C177.228 43.9125 178.592 44.2779 180.091 44.3149L180.165 41.3158C179.094 41.2894 178.397 41.0361 177.939 40.6904L176.131 43.0845ZM180.077 44.3145C181.708 44.3701 183.215 44.0457 184.54 43.2825L183.044 40.6827C182.275 41.125 181.34 41.3558 180.179 41.3162L180.077 44.3145ZM184.555 43.274C185.864 42.5004 186.831 41.3857 187.039 39.8797L184.067 39.4698C184.021 39.8037 183.813 40.2276 183.029 40.6912L184.555 43.274ZM187.046 39.8105C187.094 39.2864 187.006 38.7372 186.713 38.2322C186.426 37.7368 186.005 37.3936 185.566 37.1604L184.159 39.8098C184.228 39.8463 184.176 39.8361 184.118 39.7373C184.091 39.6902 184.074 39.641 184.065 39.5977C184.057 39.5561 184.059 39.5339 184.059 39.5389L187.046 39.8105ZM185.584 37.1699C184.861 36.7736 183.7 36.4708 182.316 36.2034L181.747 39.1489C183.154 39.4207 183.881 39.6573 184.141 39.8003L185.584 37.1699ZM182.3 36.2003L176.018 35.0583L175.482 38.0099L181.763 39.1519L182.3 36.2003ZM176.016 35.0578C172.595 34.4427 170.34 33.2527 168.996 31.6636L166.706 33.6006C168.661 35.9134 171.672 37.3248 175.485 38.0104L176.016 35.0578ZM169 31.6682C167.689 30.1053 167.166 28.0695 167.617 25.3602L164.658 24.867C164.095 28.2487 164.713 31.2252 166.702 33.596L169 31.6682ZM167.617 25.3649C167.984 23.2035 168.846 21.4434 170.18 20.0276L167.996 17.9702C166.222 19.8537 165.117 22.1701 164.659 24.8623L167.617 25.3649ZM170.175 20.0332C171.546 18.5924 173.382 17.4656 175.743 16.6883L174.805 13.8387C172.059 14.7427 169.771 16.1063 168.002 17.9647L170.175 20.0332ZM175.751 16.6856C178.119 15.8914 180.903 15.4787 184.125 15.4787V12.4787C180.654 12.4787 177.537 12.9225 174.797 13.8414L175.751 16.6856ZM184.125 15.4787C189.431 15.4787 193.183 16.5532 195.618 18.4656L197.471 16.1062C194.291 13.609 189.764 12.4787 184.125 12.4787V15.4787ZM195.626 18.4713C197.984 20.3 198.977 22.7727 198.531 26.155L201.506 26.5467C202.075 22.2202 200.752 18.6496 197.464 16.1004L195.626 18.4713ZM209.714 49.4297L208.955 50.7236L208.961 50.7271L209.714 49.4297ZM204.289 42.9581L202.883 43.4796L202.884 43.4822L204.289 42.9581ZM203.718 32.8224L205.197 33.0729L205.198 33.0711L203.718 32.8224ZM207.644 22.9247L206.42 22.0581L206.417 22.0627L207.644 22.9247ZM215.186 16.3342L214.499 15.001L214.496 15.0024L215.186 16.3342ZM232.674 15.2635L232.102 16.6503L232.106 16.6518L232.674 15.2635ZM237.789 18.9989L236.621 19.9401L236.621 19.9401L237.789 18.9989ZM240.454 24.9233L238.983 25.2155L238.985 25.2272L240.454 24.9233ZM240.454 32.7273L238.974 32.4846L238.972 32.4957L240.454 32.7273ZM239.978 35.7727V37.2727H241.262L241.46 36.0043L239.978 35.7727ZM207.335 35.7727L205.853 35.5388L205.579 37.2727H207.335V35.7727ZM208.477 28.5398V27.0398H207.195L206.995 28.3058L208.477 28.5398ZM229.034 28.5398V30.0398H230.323L230.517 28.7645L229.034 28.5398ZM228.724 25.7798L227.347 26.374L227.354 26.3904L227.362 26.4067L228.724 25.7798ZM227.035 23.9002L226.259 25.1841L226.275 25.1935L226.291 25.2026L227.035 23.9002ZM221.23 23.9002L220.577 22.5497L220.568 22.554L221.23 23.9002ZM218.827 25.8274L217.66 24.8849L217.654 24.8918L217.649 24.8987L218.827 25.8274ZM217.518 28.7301L216.047 28.4359L216.045 28.4448L216.044 28.4537L217.518 28.7301ZM216.09 36.3438L214.616 36.0673L214.613 36.0854L214.61 36.1036L216.09 36.3438ZM216.305 39.4844L217.715 38.9737L217.715 38.9737L216.305 39.4844ZM218.041 41.6495L218.845 40.383L218.845 40.383L218.041 41.6495ZM223.752 42.0778L224.183 43.5145L224.192 43.5118L224.201 43.509L223.752 42.0778ZM225.893 40.9833L226.808 42.1723L226.812 42.1689L225.893 40.9833ZM227.416 39.1989V37.6989H226.525L226.099 38.4806L227.416 39.1989ZM239.407 39.1989L240.828 39.6785L241.497 37.6989H239.407V39.1989ZM235.339 45.8132L234.274 44.7571L234.273 44.7571L235.339 45.8132ZM228.534 50.1435L229.065 51.5463L229.07 51.5445L228.534 50.1435ZM219.421 50.1662C215.703 50.1662 212.747 49.4553 210.467 48.1323L208.961 50.7271C211.82 52.3861 215.336 53.1662 219.421 53.1662V50.1662ZM210.473 48.1358C208.203 46.8046 206.622 44.9203 205.695 42.434L202.884 43.4822C204.051 46.611 206.086 49.041 208.955 50.7236L210.473 48.1358ZM205.696 42.4366C204.765 39.9272 204.561 36.829 205.197 33.0729L202.239 32.572C201.543 36.6833 201.72 40.3422 202.883 43.4796L205.696 42.4366ZM205.198 33.0711C205.799 29.4922 207.031 26.4078 208.872 23.7868L206.417 22.0627C204.292 25.0884 202.907 28.6025 202.239 32.5738L205.198 33.0711ZM208.868 23.7914C210.731 21.1606 213.063 19.1245 215.877 17.6659L214.496 15.0024C211.251 16.6845 208.555 19.042 206.42 22.0581L208.868 23.7914ZM215.874 17.6674C218.686 16.2175 221.856 15.4787 225.417 15.4787V12.4787C221.428 12.4787 217.778 13.3102 214.499 15.001L215.874 17.6674ZM225.417 15.4787C228.024 15.4787 230.242 15.8834 232.102 16.6503L233.246 13.8767C230.95 12.9305 228.33 12.4787 225.417 12.4787V15.4787ZM232.106 16.6518C233.984 17.4201 235.476 18.519 236.621 19.9401L238.957 18.0577C237.469 16.2114 235.551 14.82 233.242 13.8752L232.106 16.6518ZM236.621 19.9401C237.768 21.3627 238.564 23.1072 238.983 25.2155L241.925 24.6311C241.424 22.1078 240.444 19.9027 238.957 18.0577L236.621 19.9401ZM238.985 25.2272C239.416 27.3082 239.427 29.7192 238.974 32.4846L241.934 32.9699C242.433 29.9299 242.444 27.1383 241.923 24.6194L238.985 25.2272ZM238.972 32.4957L238.496 35.5412L241.46 36.0043L241.936 32.9588L238.972 32.4957ZM239.978 34.2727H207.335V37.2727H239.978V34.2727ZM208.816 36.0067L209.958 28.7737L206.995 28.3058L205.853 35.5388L208.816 36.0067ZM208.477 30.0398H229.034V27.0398H208.477V30.0398ZM230.517 28.7645C230.71 27.4903 230.598 26.264 230.087 25.153L227.362 26.4067C227.58 26.8818 227.675 27.4955 227.551 28.3151L230.517 28.7645ZM230.102 25.1857C229.622 24.0732 228.834 23.2004 227.779 22.5978L226.291 25.2026C226.791 25.4883 227.129 25.8686 227.347 26.374L230.102 25.1857ZM227.811 22.6163C226.77 21.9876 225.569 21.7102 224.275 21.7102V24.7102C225.139 24.7102 225.777 24.8928 226.259 25.1841L227.811 22.6163ZM224.275 21.7102C222.975 21.7102 221.736 21.9893 220.577 22.5497L221.882 25.2507C222.626 24.8912 223.418 24.7102 224.275 24.7102V21.7102ZM220.568 22.554C219.433 23.1119 218.461 23.8933 217.66 24.8849L219.994 26.7699C220.525 26.1119 221.155 25.6085 221.891 25.2464L220.568 22.554ZM217.649 24.8987C216.841 25.9232 216.312 27.1125 216.047 28.4359L218.989 29.0243C219.168 28.1271 219.512 27.3812 220.005 26.7561L217.649 24.8987ZM216.044 28.4537L214.616 36.0673L217.565 36.6202L218.992 29.0065L216.044 28.4537ZM214.61 36.1036C214.387 37.4756 214.457 38.7882 214.894 39.995L217.715 38.9737C217.486 38.3406 217.413 37.5594 217.571 36.5839L214.61 36.1036ZM214.894 39.995C215.34 41.2266 216.132 42.2144 217.238 42.916L218.845 40.383C218.301 40.0377 217.935 39.5821 217.715 38.9737L214.894 39.995ZM217.238 42.916C218.37 43.6347 219.736 43.9347 221.23 43.9347V40.9347C220.122 40.9347 219.362 40.7111 218.845 40.383L217.238 42.916ZM221.23 43.9347C222.253 43.9347 223.24 43.7973 224.183 43.5145L223.321 40.641C222.677 40.8341 221.983 40.9347 221.23 40.9347V43.9347ZM224.201 43.509C225.163 43.207 226.038 42.7645 226.808 42.1722L224.978 39.7944C224.511 40.1538 223.958 40.441 223.303 40.6465L224.201 43.509ZM226.812 42.1689C227.608 41.5518 228.252 40.7984 228.733 39.9171L226.099 38.4806C225.818 38.9951 225.447 39.4314 224.974 39.7977L226.812 42.1689ZM227.416 40.6989H239.407V37.6989H227.416V40.6989ZM237.986 38.7192C237.201 41.0439 235.966 43.0506 234.274 44.7571L236.404 46.8693C238.423 44.8325 239.9 42.4296 240.828 39.6785L237.986 38.7192ZM234.273 44.7571C232.599 46.4465 230.517 47.7794 227.998 48.7424L229.07 51.5445C231.944 50.4455 234.399 48.8916 236.404 46.8693L234.273 44.7571ZM228.003 48.7407C225.52 49.6809 222.667 50.1662 219.421 50.1662V53.1662C222.965 53.1662 226.187 52.6363 229.065 51.5462L228.003 48.7407ZM280.17 26.3509V27.8509H281.485L281.657 26.5467L280.17 26.3509ZM268.369 26.3509L266.874 26.2263L266.739 27.8509H268.369V26.3509ZM266.561 23.1626L265.904 24.5115L265.911 24.5149L265.918 24.5182L266.561 23.1626ZM261.017 23.6147L261.727 24.936L261.734 24.932L261.742 24.9278L261.017 23.6147ZM259.232 25.875L260.698 26.1936L260.711 26.1355L260.719 26.0765L259.232 25.875ZM262.088 27.7784L261.793 29.2493L261.805 29.2515L261.816 29.2536L262.088 27.7784ZM269.32 29.1108L269.592 27.6356L269.592 27.6356L269.32 29.1108ZM277.22 32.7511L276.125 33.7767L276.135 33.7868L277.22 32.7511ZM279.028 39.6747L280.506 39.9289L280.508 39.9205L280.509 39.912L279.028 39.6747ZM275.744 46.0987L274.674 45.0476L274.674 45.0476L275.744 46.0987ZM269.035 50.2386L269.534 51.6531L269.539 51.6514L269.035 50.2386ZM247.146 48.2163L246.205 49.3844L246.208 49.3869L247.146 48.2163ZM243.244 39.1989V37.6989H241.843L241.747 39.0965L243.244 39.1989ZM255.997 39.1989L257.496 39.1589L257.457 37.6989H255.997V39.1989ZM257.186 41.8874L256.255 43.0635L256.269 43.0741L256.282 43.0845L257.186 41.8874ZM260.279 42.8153L260.33 41.3161L260.316 41.3158L260.279 42.8153ZM263.943 41.9826L264.692 43.2825L264.699 43.2783L264.706 43.274L263.943 41.9826ZM265.704 39.6747L267.19 39.8797L267.195 39.8452L267.198 39.8105L265.704 39.6747ZM265.014 38.4851L264.293 39.8003L264.302 39.8051L264.31 39.8098L265.014 38.4851ZM262.183 37.6761L262.467 36.2034L262.459 36.2018L262.451 36.2003L262.183 37.6761ZM255.901 36.5341L256.17 35.0583L256.167 35.0578L255.901 36.5341ZM248.002 32.6321L246.853 33.596L246.857 33.6006L248.002 32.6321ZM246.289 25.1136L244.81 24.8623L244.81 24.867L246.289 25.1136ZM249.24 18.9989L248.153 17.9647L248.148 17.9702L249.24 18.9989ZM255.426 15.2635L255.895 16.6883L255.903 16.6856L255.426 15.2635ZM276.696 17.2859L275.77 18.4656L275.777 18.4713L276.696 17.2859ZM280.17 24.8509H268.369V27.8509H280.17V24.8509ZM269.864 26.4754C269.948 25.4615 269.775 24.4763 269.241 23.6116L266.688 25.1881C266.82 25.402 266.916 25.7174 266.874 26.2263L269.864 26.4754ZM269.241 23.6116C268.747 22.8128 268.053 22.2097 267.203 21.807L265.918 24.5182C266.274 24.6866 266.515 24.9083 266.688 25.1881L269.241 23.6116ZM267.217 21.8138C266.398 21.4155 265.502 21.2344 264.562 21.2344V24.2344C265.113 24.2344 265.549 24.3387 265.904 24.5115L267.217 21.8138ZM264.562 21.2344C263.026 21.2344 261.592 21.5834 260.292 22.3016L261.742 24.9278C262.567 24.4722 263.496 24.2344 264.562 24.2344V21.2344ZM260.307 22.2934C258.951 23.0219 257.955 24.132 257.746 25.6735L260.719 26.0765C260.764 25.7463 260.957 25.3496 261.727 24.936L260.307 22.2934ZM257.767 25.5564C257.556 26.5261 257.935 27.3648 258.529 27.9587L260.65 25.8374C260.613 25.8007 260.648 25.8224 260.678 25.9103C260.694 25.9543 260.705 26.0054 260.708 26.06C260.711 26.1143 260.705 26.1601 260.698 26.1936L257.767 25.5564ZM258.529 27.9587C258.936 28.3656 259.492 28.6081 259.953 28.7708C260.462 28.9502 261.084 29.1073 261.793 29.2493L262.382 26.3075C261.743 26.1799 261.274 26.0554 260.95 25.9414C260.579 25.8106 260.56 25.7478 260.65 25.8374L258.529 27.9587ZM261.816 29.2536L269.049 30.586L269.592 27.6356L262.359 26.3032L261.816 29.2536ZM269.049 30.586C272.506 31.2228 274.783 32.3438 276.125 33.7766L278.314 31.7255C276.357 29.637 273.368 28.3312 269.592 27.6356L269.049 30.586ZM276.135 33.7868C277.409 35.1214 277.95 36.9229 277.547 39.4374L280.509 39.912C281.026 36.6846 280.362 33.8703 278.305 31.7154L276.135 33.7868ZM277.55 39.4205C277.173 41.6116 276.22 43.4744 274.674 45.0476L276.815 47.1499C278.791 45.1383 280.026 42.7184 280.506 39.9289L277.55 39.4205ZM274.674 45.0476C273.094 46.656 271.061 47.9233 268.531 48.8258L269.539 51.6514C272.434 50.6188 274.873 49.1262 276.815 47.1499L274.674 45.0476ZM268.536 48.8242C266.021 49.7118 263.21 50.1662 260.089 50.1662V53.1662C263.503 53.1662 266.656 52.6689 269.534 51.6531L268.536 48.8242ZM260.089 50.1662C254.491 50.1662 250.575 49.0414 248.084 47.0456L246.208 49.3869C249.459 51.9911 254.172 53.1662 260.089 53.1662V50.1662ZM248.087 47.0481C245.62 45.0609 244.519 42.5327 244.74 39.3012L241.747 39.0965C241.461 43.2884 242.961 46.7717 246.205 49.3844L248.087 47.0481ZM243.244 40.6989H255.997V37.6989H243.244V40.6989ZM254.497 39.2388C254.538 40.763 255.068 42.1234 256.255 43.0635L258.117 40.7114C257.782 40.446 257.519 40.014 257.496 39.1589L254.497 39.2388ZM256.282 43.0845C257.379 43.9125 258.743 44.2779 260.242 44.3149L260.316 41.3158C259.246 41.2894 258.548 41.0361 258.09 40.6904L256.282 43.0845ZM260.228 44.3145C261.859 44.3701 263.366 44.0457 264.692 43.2825L263.195 40.6827C262.427 41.125 261.491 41.3558 260.33 41.3162L260.228 44.3145ZM264.706 43.274C266.016 42.5004 266.982 41.3857 267.19 39.8797L264.218 39.4698C264.172 39.8037 263.965 40.2276 263.18 40.6912L264.706 43.274ZM267.198 39.8105C267.245 39.2864 267.158 38.7372 266.865 38.2322C266.577 37.7368 266.157 37.3936 265.718 37.1604L264.31 39.8098C264.379 39.8463 264.327 39.8361 264.27 39.7373C264.242 39.6902 264.225 39.641 264.216 39.5977C264.208 39.5561 264.211 39.5339 264.21 39.5389L267.198 39.8105ZM265.735 37.1699C265.013 36.7736 263.852 36.4708 262.467 36.2034L261.898 39.1489C263.305 39.4207 264.032 39.6573 264.293 39.8003L265.735 37.1699ZM262.451 36.2003L256.17 35.0583L255.633 38.0099L261.914 39.1519L262.451 36.2003ZM256.167 35.0578C252.747 34.4427 250.491 33.2527 249.148 31.6636L246.857 33.6006C248.812 35.9134 251.823 37.3248 255.636 38.0104L256.167 35.0578ZM249.152 31.6682C247.841 30.1053 247.317 28.0695 247.769 25.3602L244.81 24.867C244.246 28.2487 244.865 31.2252 246.853 33.596L249.152 31.6682ZM247.768 25.3649C248.135 23.2035 248.997 21.4434 250.331 20.0276L248.148 17.9702C246.373 19.8537 245.268 22.1701 244.81 24.8623L247.768 25.3649ZM250.326 20.0332C251.697 18.5924 253.533 17.4656 255.895 16.6883L254.957 13.8387C252.21 14.7427 249.922 16.1063 248.153 17.9647L250.326 20.0332ZM255.903 16.6856C258.271 15.8914 261.054 15.4787 264.276 15.4787V12.4787C260.805 12.4787 257.688 12.9225 254.949 13.8414L255.903 16.6856ZM264.276 15.4787C269.582 15.4787 273.335 16.5532 275.77 18.4656L277.623 16.1062C274.443 13.609 269.915 12.4787 264.276 12.4787V15.4787ZM275.777 18.4713C278.136 20.3 279.128 22.7727 278.683 26.155L281.657 26.5467C282.227 22.2202 280.903 18.6496 277.615 16.1004L275.777 18.4713Z" fill="white" mask="url(#path-1-outside-1_481_39)"/>
</svg>
